<?xml version="1.0" encoding="UTF-8"?> <!-- Generator: Adobe Illustrator 25.1.0, SVG Export Plug-In . SVG Version: 6.00 Build 0) --> <svg xmlns="http://www.w3.org/2000/svg" xmlns:xlink="http://www.w3.org/1999/xlink" id="Слой_1" x="0px" y="0px" viewBox="0 0 248.042084 103.351662" style="enable-background:new 0 0 248.042084 103.351662;" xml:space="preserve"> <style type="text/css"> .st0{clip-path:url(#SVGID_2_);fill-rule:evenodd;clip-rule:evenodd;fill:#E30513;} </style> <path d="M224.310883,35.880039c-0.867569,0-0.630859-0.867615-0.552139-1.183067l3.075348-13.957716 c0.157928-0.551704,0.31543-0.78841,0.552124-0.78841c0.23671,0,0.394211,0.236706,0.552139,0.78841l3.469543,13.957716 c0.07872,0.315453,0.31543,1.183067-0.552124,1.183067H224.310883z M222.576126,0.630883 c-1.104263,0-2.129379,0.157527-2.602356,2.208183l-12.144196,50.626163c-0.157501,0.70966-0.472977,2.365658,1.340546,2.365658 h7.649155c1.734741,0,2.129379-1.183041,2.28688-1.971451l1.49852-6.229836c0.157501-0.70966,0.788406-1.182617,1.576828-1.182617 h10.80365c0.630905,0,1.26181,0.078751,1.57724,1.182617l1.576813,5.99313c0.23671,0.867615,0.552139,2.208157,2.44487,2.208157 h7.727875c2.207733,0,1.734802-1.735203,1.576813-2.365658L235.114105,2.839066 c-0.551712-2.050656-1.419327-2.208183-2.602371-2.208183H222.576126z M202.784119,2.444407 C202.784119,1.261792,202.310715,0,193.399734,0c-15.77124,0-18.531097,8.437538-18.531097,16.007944v22.395254 c0,8.516743,1.656021,18.058598,17.900665,18.058598c9.856842,0,10.803223-1.419746,10.803223-3.469975v-7.018219 c0-0.394207,0-1.419319-1.18309-1.419319c-4.967545,0-1.734756,1.025112-7.254471,1.025112 c-6.624039,0-8.59549-2.050228-8.59549-11.27663V20.975962c0-5.598927,0.07872-11.039927,8.04335-11.039927 c3.548706,0,6.387344,1.103864,7.254898,1.103864c0.946396,0,0.946396-1.025087,0.946396-1.340542V2.444407z M136.545074,53.070599 c0,2.68111,1.340561,2.760288,2.759888,2.760288h26.890305c2.681137,0,2.759872-1.340542,2.759872-2.760288V47.55085 c0-0.867588-0.157501-1.971455-2.128952-1.971455h-17.743118c-0.788406,0-0.867188-0.394203-0.867188-0.946362V33.435608 c0-0.630882-0.078781-1.340996,1.025116-1.340996h12.538391c1.576813,0,1.576813-1.10384,1.576813-1.57682v-7.176174 c0-0.472956-0.315414-1.49807-1.813522-1.49807h-12.45961c-0.945969,0-0.867188-0.788837-0.867188-1.419746v-8.279611 c0-1.183042,0.867188-1.261792,1.419312-1.261792h15.850449c0.709625,0,2.444382-0.07875,2.444382-1.892701V3.390771 c0-1.419319-0.07872-2.759888-2.759857-2.759888h-25.865204c-2.681137,0-2.759888,1.340569-2.759888,2.759888V53.070599z M106.264412,23.341618c-0.552162,0-0.867615-0.394205-0.867615-0.78841V11.749558c0-0.70966,0.473412-1.025114,1.025116-1.025114 h4.337105c5.52018,0,7.254951,3.15452,7.254951,6.229836c0,3.86418-3.233269,6.387337-7.17617,6.387337H106.264412z M96.485847,0.630883c-2.681107,0-2.759857,1.340569-2.759857,2.759888v49.679829c0,2.68111,1.340569,2.760288,2.759857,2.760288 h6.151085c1.419319,0,2.759865-0.079178,2.759865-2.760288V34.775749c0-0.551731,0.473412-1.182617,1.183044-1.182617h5.046791 c2.286903,0,19.004517,0,19.004517-16.086693c0-5.756881-1.813965-16.875557-19.79335-16.875557H96.485847z M69.912727,44.475533 c0,0.394203,0.078743,1.103863-1.103867,1.103863h-8.12254c-0.630909,0-1.025112-0.315453-1.103863-0.552158 c-0.078751-0.157501,0-0.394203,0-0.630909c2.838612-16.165443,2.523155-8.595039,4.021679-27.678751l0.394203-4.888814 c0.078754-0.946364,0.709637-0.946364,1.025089-0.946364h3.942932c0.867584,0,0.946365,0.63091,0.946365,0.946364V44.475533z M55.402851,0.630883c-1.419319,0-2.681141-0.07875-2.759888,2.286933l-0.236679,6.229809 c-0.236279,6.150659-0.630909,17.427263-3.312019,29.886482c-0.394207,1.971451-1.025116,6.545288-2.996567,6.545288h-0.70966 c-1.419319,0-2.759888,0.078751-2.759888,2.759865v14.904076c0,1.419323,0.078777,2.759861,2.759888,2.759861h5.756855 c1.419319,0,2.759888-0.078751,2.759888-2.759861v-5.914379c0-0.394207-0.078751-1.49807,1.419292-1.49807h19.16246 c0.788414,0,1.261368,0.551704,1.261368,1.182613v6.229836c0,1.419323,0.079201,2.759861,2.760315,2.759861h5.756424 c1.419319,0,2.759865-0.078751,2.759865-2.759861V48.33926c0-2.681114-1.340546-2.759865-2.759865-2.759865h-1.734772 c-0.946335,0-0.946335-0.157951-0.946335-1.103863V3.390771c0-1.419319-0.078751-2.759888-2.759865-2.759888H55.402851z M16.60673,35.880039c-0.86716,0-0.630909-0.867615-0.551704-1.183067l3.075315-13.957716 c0.157501-0.551704,0.315454-0.78841,0.551706-0.78841c0.236704,0,0.394657,0.236706,0.552158,0.78841l3.469948,13.957716 c0.078751,0.315453,0.315027,1.183067-0.552132,1.183067H16.60673z M14.871983,0.630883 c-1.103864,0-2.128979,0.157527-2.602387,2.208183L0.125831,53.465229c-0.157928,0.70966-0.473382,2.365658,1.340569,2.365658 h7.649129c1.734774,0,2.128979-1.183041,2.286906-1.971451l1.49807-6.229836c0.157954-0.70966,0.788409-1.182617,1.577273-1.182617 h10.803195c0.630909,0,1.261818,0.078751,1.577272,1.182617l1.577248,5.99313c0.23625,0.867615,0.551704,2.208157,2.444407,2.208157 h7.727903c2.208157,0,1.734749-1.735203,1.577248-2.365658L27.410379,2.839066 c-0.552134-2.050656-1.419746-2.208183-2.602362-2.208183H14.871983z"></path> <g> <defs> <rect id="SVGID_1_" x="48.963936" y="57.13728" transform="matrix(0.999848 -0.017454 0.017454 0.999848 -1.370313 2.176823)" width="150.114716" height="44.907993"></rect> </defs> <clipPath id="SVGID_2_"> <use xlink:href="#SVGID_1_" style="overflow:visible;"></use> </clipPath> <path class="st0" d="M69.935989,67.619484c0.547134-0.74366,1.123993-0.767754,1.014381,0.103165 c-0.212029,1.885361-0.727409,3.42186-1.551704,4.465965c-0.553581,0.599442-1.35762,0.343529-1.386589-0.377548 C68.023048,70.29512,68.979485,68.956894,69.935989,67.619484 M50.058052,65.17363 c-0.559383-8.495857,4.895592-7.488731,3.603928-0.145607c0.911213,1.118362,2.941952-4.016659,5.033707-5.834209 c1.461601-1.357967,4.780231,0.384632,4.985176,1.892155c0.86982,5.451088-1.062283,11.231941-1.184319,17.155907 c-0.028679,1.084106,0.412441,1.283127,1.464737,0.518974c1.051537-0.764969,0.306488-4.921661,0.813446-6.674072 c0.883636-3.139809,1.998108-5.927849,4.28894-8.185711c1.662659-1.727329,5.027672-0.636196,5.294098,2.384426 c0.147354,1.871315-2.735847,7.329361-4.943657,9.872864c-1.244873,1.349495-0.627022,2.334908,1.171776,2.190399 c1.726227-0.141716,6.009598-8.471649,8.77372-11.542839c1.1035-1.272156,1.950386-1.739403,2.787056-0.689896 c0.758461,0.907265,1.386589,0.376793,1.772552-0.793877c0.452095-1.316925,2.142036-0.591316,3.413383,0.512238 c0.747261,0.619591,0.939896,0.034317,1.84153-0.868423c2.78392-2.566841,5.514366-1.088577,6.138199,1.845474 c0.716835,3.436371-0.776291,5.805878-1.323135,8.354721c-0.177773,0.945473,1.724487,1.590202,1.972679,0.570129 c0.96637-4.659302,1.365921-9.078644,4.639328-12.026112c1.809708-1.661201,3.997612-1.099491,4.889374,1.318897 c1.143036,3.274445-1.092644,6.902-3.703316,10.183533c-0.685722,0.893509,0.069954,1.729073,1.427574,1.385483 c3.280136-0.998062,4.830101-3.7313,6.258904-7.687286l1.750725-4.907028c0.32193-0.951912,0.878349-1.479595,1.982895-0.946571 c0.662727,0.334007,0.709351,1.486969,1.144844,1.541779c0.7267,0.115303,1.000267-0.256905,1.418053-0.6348 c1.397621-1.139149,3.148003-0.704006,3.779953,0.64159c1.984589,4.467415,0.937286,8.912888-1.21183,12.897789 c-0.469749,0.88578-0.720032,1.834099-0.186661,2.534676c0.455986,0.558456,5.176125-4.107109,5.518608-4.554672 c1.299736-1.784172,3.418373-2.953102,4.858719-4.815414c0.68573-0.894264,0.477997-2.473488-0.635086-3.223297 c-1.703987-1.0858-2.255768-2.218269-1.210213-4.931824c0.788948-1.908642,2.178841-3.263821,4.248314-3.85305 c2.216568-0.522343,4.378296-0.609196,6.552078-0.408432c1.158661,0.097534,0.799866,3.721199-0.785797,3.785587 c-2.158875,0.159367-4.090622,0.597935-5.407257,1.950268c-0.829941,0.899895-1.486679,2.514534-0.232239,3.186142 c1.251617,0.599098,1.980408,0.786102,1.970184,2.30204c-0.046387,0.651413-0.028671,1.084114,0.279495,1.577194 c0.311768,0.564842,1.380966,0.232582,1.845123-0.796722c0.927536-2.058548,1.713638-4.039703,3.009766-5.896385 c1.092178-1.559776,3.969635-0.015442,3.258896,2.03463l-1.952591,5.275688 c-0.593475,1.395821,0.459122,2.436096,1.504959,1.527733c3.424011-2.8097,5.993759-7.099922,7.413605-9.467396 c1.420563-2.366718,3.537796,0.001392,3.025269,1.610401c-0.777618,2.197075-1.611786,6.561554-1.450745,6.988625 c0.233627,0.423416,0.395615,0.84967,1.026459,0.391655c0.559219-0.455986,7.538437-8.173058,9.028198-8.809891 c1.276672-0.557411,4.779175-1.420494,4.99086,2.035614c0.142822,3.53141-1.112045,8.202026-2.546417,12.013741 c-0.590668,1.467583,0.660934,2.066681,1.602509,0.368317c2.561279-4.50695,3.951874-9.39917,6.980377-13.058487 c1.103455-1.272156,2.625839-1.116913,3.822632-0.082321c1.871552,1.657074,2.955948,3.490128,2.250778,5.684418 c-0.6362,2.118988-1.35704,3.952324-2.52388,5.443245c-0.414871,0.449539-0.214813,1.813606,1.329865,0.740524 c3.302322-2.227142,4.552536-5.236855,7.298309-8.740685c1.922165-2.459671,5.87706-2.835304,6.976196-0.64212 c1.425201,3.118217,0.166397,5.911949-0.798172,8.838631c-0.639099,2.047226,0.944016,3.715569,3.068344,2.691666 c2.054657-0.949356,3.804749-2.319397,6.024048-2.770042c2.363647-0.456276,2.159286,1.645821-0.145599,3.542732 c-5.170502,4.251381-11.530014,4.075294-12.139267-0.303757c-0.187988-1.074875-1.461655,1.358719-2.104584,1.52906 c-1.792358,0.288727-3.476608-0.292664-4.214981-2.500771c-0.248489-0.784355-1.122253-0.965729-1.464676-0.518974 c-1.61969,2.808594-3.714294,4.553627-6.464951,4.375389c-2.023071-0.06218-2.323929-2.143776-1.462463-4.05526 c1.059662-2.352608,2.070908-4.125519,2.656021-5.737312c0.90976-2.491188-0.673355-4.159477-1.287369-3.268814 c-3.555923,4.908127-4.692337,10.728172-7.611237,13.517319c-1.878632,1.735748-4.286041,1.111565-5.11731-1.598099 c-0.655365-1.922455-0.088028-3.966141,0.637695-5.656029c0.927536-2.058548,1.560944-4.250046,2.122589-6.437889 c0.371216-1.530861-0.520309-2.144821-1.710373-1.23082c-2.236038,1.823128-5.962051,15.038597-7.866577,25.077629 c-0.250229,0.948257-0.284592,1.888145-0.39061,2.830833c-0.318848,2.82798-3.942459,2.469185-2.914612-0.676201 c0.958191-3.0709,1.839035-6.28241,2.366196-9.335602c0.465851-2.761971,0.868546-5.304375,1.636887-7.717422 c0.515427-1.537247-0.606125-2.502167-1.516937-1.815346c-1.261932,0.916786-3.020386,2.070107-3.299301,4.10247 c-0.545731,4.353966-0.908127,7.905174-3.100388,10.808807c-1.094971,1.488075-1.711761,2.307037-2.783859,2.566788 c-1.646057,0.355606-3.159149,0.416328-3.926147-0.707664c-0.923233-1.406036-0.650711-3.582672,0.107178-6.284157 c1.076324-3.72509,3.277634-6.412804,6.655319-8.570282c1.196564-0.769791,1.49231-2.370323,1.650345-3.82019 c0.052017-0.507195-0.628311-1.273842-1.311295-0.307884c-1.299683,1.784981-2.555923,2.846046-4.037201,3.699608 c-1.271118,0.701683-2.78212,0.834923-3.378784,0.35305c-0.894257-0.685722-1.453766-2.034111-2.350052-2.792343 c-1.619629,2.808594-2.878387,5.602325-5.99939,6.955711c-3.194321,1.356224-4.226707-0.984833-5.066162-2.105286 c-0.769783-1.19651-3.553703,1.370277-4.588287,2.567131c-0.962128,1.193954-5.654694,2.9711-5.734177-0.779129 c-0.151237-3.747391,1.000389-7.403564,1.783356-11.260857l0.359901-1.81929 c-3.583145,2.454384-5.161034,6.271729-5.703987,10.697403c-1.61998,8.150063-3.695709,17.545349-5.155457,20.708504 c-1.463394,3.090576-3.738968,0.367157-3.01609-1.39373c0.463356-1.03006,1.132179-2.356209,1.445694-3.523285 c1.301125-5.322777,2.293388-11.137131,3.072464-16.871361c-4.262764,1.687737-7.09359,1.297119-9.091644,0.078377 c-1.407143-0.88195-1.761353,1.081558-2.68354,1.479889c-2.914314,1.128235-4.846298-0.237572-5.279289-2.025047 c-0.713181-3.363914,1.929314-5.852554,0.648384-8.977219c-0.161865-0.426254-0.576859,0.023346-0.777908,0.392708 c-2.1007,3.405251-2.115677,10.190903-2.510124,11.14566c-0.725662,1.68988-4.184616,1.829109-4.194138-0.191238 c-0.044876-2.886452,0.706619-5.731392,1.379974-8.718513c0.19339-0.585335-1.046143-0.896004-1.316925-0.452095 c-2.809753,3.722595-0.703194,9.412704-3.153046,11.31601c-1.610695,1.220139-2.925644,0.839745-3.523285-1.445694 c-0.095039-0.574074,0.357056-1.890991,0.956146-3.142601c0.397293-0.88224,0.281754-1.960663,0.379295-3.119255 c-0.014053-0.360191-0.821747-0.688568-1.014381-0.103226c-0.824013,2.848534-3.362236,6.12722-4.861282,6.54808 c-2.138374,0.663773-3.736061,0.439667-4.701332-0.243202c-0.522049-0.412155-1.476746-0.806656-1.813599-0.215683 c-0.475433,0.741623-0.428757,1.894592-1.345314,2.436386c-1.199352,0.698082-2.934807,0.623825-4.474091,0.036751 c-2.055702-0.855774-1.952824-3.675339-0.718521-8.849548c0.863956-3.644157,1.358547-7.490181,0.480545-11.352814 c-0.092197-0.501556-0.864536,0.034546-1.210617,0.409599c-6.181801,6.024284-4.987961,21.279671-5.382404,22.23362 c-0.792484,1.836998-2.870483,2.209496-3.295002,0.638748C48.265873,81.559227,50.647221,74.388992,50.058052,65.17363 M100.223236,70.439049c0.016609-1.372482,0.77124-2.341347,1.60762-3.097023 c0.417778-0.377838,0.930603-0.181664,0.887871,0.542259c-0.022293,1.227509-0.483559,2.329323-1.319183,3.084999 C100.774261,71.571518,100.186142,71.307182,100.223236,70.439049 M128.715988,77.085251 c-0.080994-0.213943,0.705109-2.19429,1.41777-2.439987c0.642166-0.170403,1.371719,0.017357,1.04335,0.824303 c-0.255859,0.804092-0.501266,1.897377-1.336838,2.653114C129.492157,78.425163,128.952393,77.58036,128.715988,77.085251 M140.658493,90.389961c0.128311-2.170197,1.437271-3.739258,2.237427-5.359474 c0.6716-1.254448,1.027969-3.145447,1.775162-2.525795c1.272156,1.1035,0.479553,2.93969-0.12796,3.97538 c-0.815826,1.260078-1.108902,2.931503-2.120148,4.705215C141.748474,92.367226,140.63829,91.690742,140.658493,90.389961 M183.67453,74.144402c0.656738-1.614586,1.471756-2.874664,2.445953-3.78019 c0.974091-0.905586,1.778198-0.648911,1.459106,0.373947c-0.518219,1.464737-1.555588,2.589836-2.443176,3.852699 C184.317688,75.779243,183.15062,75.46492,183.67453,74.144402"></path> </g> </svg> 