<?xml version="1.0" encoding="UTF-8"?> <svg xmlns="http://www.w3.org/2000/svg" xmlns:xlink="http://www.w3.org/1999/xlink" version="1.1" id="Слой_1" x="0px" y="0px" viewBox="0 0 1080 494.1" style="enable-background:new 0 0 1080 494.1;" xml:space="preserve"> <style type="text/css"> .st0{fill:#F8A81D;} .st1{fill:none;} .st2{fill:#42BCEC;} .st3{fill:#EC6D25;} .st4{fill:#F6A91F;} .st5{fill:#E02D7E;} .st6{fill:#484397;} </style> <g> <path class="st0" d="M339.2,147.4L339.2,147.4l-43.7-0.1C288.1,83.5,233.8,33.9,168,33.9c-70.9,0-128.4,57.5-128.4,128.4 c0,34.8,13.8,66.3,36.3,89.4c-21.4,4-37.5,22.7-37.5,45.3c0,24.5,19.2,44.6,43.4,46v0.1h40.2c-3.5,7.4-5.4,15.7-5.4,24.4 c0,28.5,20.5,52.2,47.6,57.1c-4.9-8.2-7.7-17.8-7.7-28.1c0-25.5,17.3-46.9,40.7-53.2v-0.2h138.8c54.1,0,97.9-43.8,97.9-97.9 C433.7,192.3,391.7,149.2,339.2,147.4z"></path> <path d="M190.6,189.2c-15.4,0-29.2,6.8-38.6,17.5l4.5,5.2c8.2-9.7,20.5-15.9,34.1-15.9c24.6,0,44.7,20.1,44.7,44.7 c0,24.6-20.1,44.7-44.7,44.7c-13.6,0-25.8-6.1-34-15.7l-4.5,5.3c9.4,10.6,23.2,17.3,38.5,17.3c28.4,0,51.5-23.1,51.5-51.5 S219,189.2,190.6,189.2z"></path> <rect x="179.8" y="238" width="28.9" height="6.3"></rect> <polygon class="st1" points="265.7,202.8 265.7,284.2 365.9,284.2 365.9,202.7 315.3,260.6 "></polygon> <polygon points="315.4,250.1 264.7,191.2 258.9,191.2 258.9,291.1 372.8,291.1 372.8,191.2 366.9,191.2 "></polygon> <polygon class="st2" points="365.9,284.2 265.7,284.2 265.7,202.8 315.3,260.6 365.9,202.7 "></polygon> <polygon points="986.1,250.1 935.4,191.2 929.6,191.2 929.6,291.1 1043.5,291.1 1043.5,191.2 1037.6,191.2 "></polygon> <polygon class="st2" points="1036.6,284.2 936.4,284.2 936.4,202.8 986,260.6 1036.6,202.7 "></polygon> <g> <polygon points="475.6,291.1 468.8,291.1 468.8,198.5 398.7,198.5 398.7,291.1 391.8,291.1 391.8,191.6 475.6,191.6 "></polygon> </g> <polygon points="601.7,291.1 484,291.1 542.9,189.2 "></polygon> <polygon class="st3" points="495.9,284.3 589.9,284.3 542.9,202.8 "></polygon> <polygon points="698.3,190.9 606.4,190.9 606.4,197.7 649,197.7 649,290.8 655.8,290.8 655.8,197.7 698.3,197.7 "></polygon> <polygon class="st1" points="800.7,284.3 800.7,204.7 727.3,284.3 "></polygon> <polygon points="722.9,279.3 722.9,191.3 716.1,191.3 716.1,286.7 716.1,286.7 716.1,291.4 807.6,291.4 807.6,191.3 804.2,191.3 "></polygon> <polygon class="st4" points="800.7,284.6 727.3,284.6 800.7,205.1 "></polygon> <polygon points="914.4,197.1 918.5,191.6 817.5,191.6 865.2,252.2 836.5,291.1 844.9,291.1 914.4,197.1 "></polygon> <polygon class="st5" points="869.2,246.3 831.6,198.4 904.9,198.4 "></polygon> <circle class="st6" cx="437.9" cy="156.8" r="3.7"></circle> <circle class="st6" cx="489.9" cy="266" r="3.7"></circle> <circle class="st6" cx="415.9" cy="324.4" r="3.7"></circle> </g> </svg> 