<?xml version="1.0" encoding="UTF-8"?> <svg xmlns="http://www.w3.org/2000/svg" xmlns:xlink="http://www.w3.org/1999/xlink" version="1.1" id="Слой_1" x="0px" y="0px" viewBox="0 0 351.9 324.4" style="enable-background:new 0 0 351.9 324.4;" xml:space="preserve"> <style type="text/css"> .st0{fill-rule:evenodd;clip-rule:evenodd;fill:#FFFFFF;} .st1{fill:#FF0000;} .st2{fill-rule:evenodd;clip-rule:evenodd;} .st3{fill:#FFFFFF;} </style> <g> <path d="M102,67.9l0.4-0.3c26.1-20.3,58-28.1,88.4-24.3c30.3,3.8,59.2,19.1,79.5,44.9l0.3,0.4c20.3,26.1,28.1,58,24.3,88.4 c-3.8,30.3-19.1,59.2-44.9,79.5l-0.4,0.3c-26.1,20.3-58,28.1-88.4,24.3c-30.4-3.8-59.4-19.2-79.7-45.3 c-20.3-26.1-28.1-58-24.3-88.4C60.9,117.1,76.1,88.2,102,67.9L102,67.9z M189.2,56.1c-27.2-3.4-55.6,3.6-78.9,21.7l0,0 c-23.3,18.1-37,44-40.4,71.2c-3.4,27.2,3.6,55.6,21.7,78.9c18.1,23.3,44,37,71.2,40.4c27.2,3.4,55.6-3.6,78.9-21.7l0,0 c23.3-18.1,37-44,40.4-71.2c3.4-27.2-3.6-55.6-21.7-78.9l0,0C242.2,73.2,216.4,59.4,189.2,56.1L189.2,56.1z"></path> <path class="st0" d="M106.3,72.7C155.7,34.3,227,43.1,265.4,92.5c38.5,49.4,29.6,120.6-19.8,159.1 c-49.4,38.5-120.6,29.6-159.1-19.8C48,182.4,56.9,111.2,106.3,72.7L106.3,72.7z"></path> <path d="M90.1,184.5l-8.5,1.3l-0.2-0.9l8.1-2.9L90.1,184.5L90.1,184.5z M76.2,194.1l25.4-2.4l3.5-0.9l-2.1-8.4l-5.8,0.9l-0.9-3.7 l5.5-1.9l-2.1-8.4l-3.5,0.9l-23.5,10L76.2,194.1L76.2,194.1z M101.1,146l-28.8-1.6L71.3,161l24.9,6.7l3.6,0.2l0.5-8.7l-21.4-4.5 l0.1-1.2l21.6,1.2L101.1,146L101.1,146z M98.5,132l-5-2l1.3-3.2l5,2L98.5,132L98.5,132z M90.1,119.2l-3.3,8.1l-8.4-3.4l-3.3,8.1 l26.7,10.8l6.5-16.2c0.8-1.9-0.1-3.8-2.1-4.6l-11.7-4.7C92.8,116.6,90.9,117.3,90.1,119.2L90.1,119.2z M95.6,106.9l17.2,13.1 l5.3-6.9L100.9,100l2.5-3.3l-2.1-3.3l-2.9-2.2l-11.8,15.5l5.8,4.4L95.6,106.9L95.6,106.9z M137.9,96.1l-4.2-5.9l-8.1,5.8l-2.3-3.2 l7-5l-4.2-5.9l-7,5l-1.9-2.6l7-5l-1-3.8l-2.1-2.9l-15.2,10.8l16.7,23.5L137.9,96.1L137.9,96.1z M141.1,71.1l3.3-1.1l1.7,5.1 l-3.3,1.1L141.1,71.1L141.1,71.1z M153.4,80.2c2-0.7,2.8-2.6,2.1-4.6l-4.1-12c-0.7-2-2.5-2.9-4.5-2.3L130.5,67l9.3,27.3l8.2-2.8 l-2.9-8.5L153.4,80.2L153.4,80.2z M172.9,64.8l1.1,14.3l-3.5,0.3L169.4,65L172.9,64.8L172.9,64.8z M179.7,85.9 c2.1-0.2,3.4-1.7,3.2-3.8l-1.7-21.6c-0.2-2.1-1.7-3.5-3.8-3.3l-13.8,1.1c-2.1,0.2-3.4,1.7-3.2,3.8l1.7,21.6 c0.2,2.1,1.7,3.5,3.8,3.3L179.7,85.9L179.7,85.9z M200.4,71.1l3.1-10l-8.3-2.6l-8.6,27.5l8.3,2.6l3.3-10.7l3.3,1l-3.3,10.7l8.3,2.6 l8.6-27.5l-8.3-2.6l-3.1,10L200.4,71.1L200.4,71.1z"></path> <path d="M140.8,244l-1.3,3.1l-2-0.8c-1-0.4-2.5-0.8-3.8,0.2c-1.1,0.8-1.7,2.2-2.1,3.2c-0.5,1.2-0.9,2.5-0.6,3.8 c0.4,1.7,1.7,2.3,2.6,2.6l1.9,0.8l-1.3,3.1l2.2,0.9l1.3-3.1l1.9,0.8c0.9,0.4,2.2,0.9,3.7,0c1.2-0.7,1.7-1.8,2.2-3.1 c0.5-1.1,1-2.4,0.8-3.7c-0.3-1.7-1.5-2.4-2.6-2.8l-2-0.8l1.3-3.1L140.8,244L140.8,244z M136.1,255.3l-1.1-0.4 c-1.2-0.5-1.7-1-1.8-1.8c-0.1-0.8,0.2-1.6,0.5-2.4c0.6-1.4,1-2.1,1.5-2.4c0.8-0.5,1.8-0.2,2.4,0.1l1.1,0.5L136.1,255.3L136.1,255.3 z M138.3,256.2l2.7-6.5l1.1,0.5c0.6,0.3,1.5,0.7,1.7,1.6c0.2,0.7-0.1,1.6-0.6,2.8c-0.3,0.8-0.7,1.6-1.3,2.1c-0.6,0.5-1.4,0.5-2.5,0 L138.3,256.2L138.3,256.2z M161.5,253.6l-2.3-0.5l-5.1,7.2l-1.7-8.5l-2.4-0.5l2.5,11.3l-2.3,3l2.3,0.5L161.5,253.6L161.5,253.6z M169.8,265l0.5-8.8l4,0.2l0.1-1.8l-10.3-0.6l-0.1,1.8l4,0.2l-0.5,8.8L169.8,265L169.8,265z M187.2,252.4l-0.2-1.8l-5.7,0.5 c-2,0.2-2.8,1.2-3.1,1.9c-0.4,0.9-0.4,1.9-0.3,2.6l0.5,5.5c0.1,0.9,0.2,1.8,0.8,2.7c1.2,1.6,3.1,1.4,4.6,1.3c1.6-0.1,3.4-0.3,4.2-2 c0.6-1.2,0.5-2.8,0.4-3.8c-0.1-1.1-0.3-2.4-1-3.3c-0.6-0.8-1.7-1.4-3.7-1.2l-3.5,0.3c-0.1-0.6,0.1-1.2,0.4-1.6 c0.5-0.6,1.4-0.7,2-0.7L187.2,252.4L187.2,252.4z M180.4,256.9l3-0.3c1.1-0.1,1.7,0.4,1.9,0.6c0.4,0.4,0.7,1.1,0.8,2.5 c0.1,0.9,0.1,2.1-0.5,2.8c-0.4,0.5-1.2,0.8-2,0.8c-1,0.1-1.7-0.1-2.2-0.6c-0.3-0.3-0.6-0.8-0.7-1.6L180.4,256.9L180.4,256.9z M197.3,252.1c-1.2,0.3-3,0.8-3.9,2.1c-0.9,1.4-0.6,3.4-0.3,4.5c0.2,1,0.8,3,2.3,3.8c1.4,0.8,3.2,0.4,4.4,0.1 c1.2-0.3,3-0.8,3.9-2.1c0.6-0.9,0.8-2.3,0.3-4.5c-0.3-1.1-0.9-3-2.3-3.8C200.3,251.4,198.5,251.8,197.3,252.1L197.3,252.1z M195.4,258.1c-0.2-0.7-0.5-2,0-2.9c0.5-0.9,1.6-1.2,2.3-1.4c0.8-0.2,1.8-0.4,2.7,0.2c0.9,0.6,1.1,1.8,1.3,2.6 c0.2,0.9,0.4,1.9-0.1,2.8c-0.5,0.9-1.4,1.2-2.2,1.4c-0.8,0.2-1.8,0.3-2.7-0.3C195.9,260,195.6,258.9,195.4,258.1L195.4,258.1z M209.1,260l2.2-0.9l0-8.8c0-0.1,0-0.3,0.1-0.4c0.1,0,0.2,0.1,0.3,0.2l6.1,6.4l2.2-0.9l-7.6-7.5c-0.5-0.5-1.2-0.5-1.8-0.2 c-0.6,0.2-1.1,0.7-1.1,1.4L209.1,260L209.1,260z M219,244.2l4.5,7.7c0.2,0.4,0.4,0.7,1,0.9c0.5,0.1,0.9-0.1,1.2-0.3l4.6-2.7 c0.6-0.3,1.2-0.7,1.5-1.5c0.3-1-0.3-2.1-0.6-2.7c-0.4-0.7-1-1.6-1.9-1.9c-0.8-0.3-1.5,0-2.1,0.3l-4.1,2.4l-2-3.5L219,244.2 L219,244.2z M223.9,248l3.3-1.9c0.2-0.1,0.6-0.3,1-0.2c0.4,0.1,0.7,0.6,0.8,0.8c0.2,0.3,0.4,0.8,0.4,1.2c-0.1,0.4-0.4,0.6-0.7,0.8 l-2.6,1.5c-0.2,0.1-0.3,0.2-0.5,0.1c-0.2-0.1-0.3-0.3-0.4-0.4L223.9,248L223.9,248z M244.9,239l-6.7-8.2l-1.8,1.5l2.7,3.3l-3.9,3.2 l-2.7-3.3l-1.8,1.5l6.7,8.2l1.8-1.5l-2.9-3.5l3.9-3.2l2.9,3.5L244.9,239L244.9,239z M241.3,227.8l6.6,6c0.3,0.3,0.6,0.6,1.2,0.5 c0.5,0,0.8-0.4,1.1-0.6l3.6-4c0.4-0.5,1-1.1,1-1.9c0-1-0.9-1.9-1.4-2.3c-0.6-0.6-1.4-1.2-2.4-1.2c-0.9,0-1.5,0.4-1.9,0.9l-3.2,3.5 l-3-2.7L241.3,227.8L241.3,227.8z M256.6,226.7l1.6-1.7l-7.8-7.1l-1.6,1.7L256.6,226.7L256.6,226.7z M247.2,230l2.5-2.8 c0.2-0.2,0.5-0.5,0.9-0.5c0.4,0,0.8,0.3,1,0.5c0.3,0.3,0.6,0.6,0.7,1c0,0.4-0.2,0.7-0.4,1l-2.1,2.3c-0.1,0.1-0.3,0.3-0.5,0.3 c-0.2,0-0.4-0.2-0.5-0.3L247.2,230L247.2,230z M266.8,211.2l-7.8-4.6c-1.4-0.8-2,0.2-2.2,0.5c-0.2,0.4-0.4,0.9-0.1,1.6l3.6,7.6 c0.1,0.1,0.2,0.3,0.1,0.4c-0.1,0.1-0.2,0.1-0.3,0l-6.4-3.9l-1.2,2l7.9,4.6c0.5,0.3,1.4,0.6,2.1-0.6c0.4-0.7,0.3-1.1,0-1.7l-3.5-7.4 c-0.1-0.3-0.1-0.3-0.1-0.4c0.1-0.1,0.2,0,0.3,0l6.5,3.9L266.8,211.2L266.8,211.2z M253.4,209.3c-0.2,0.4-0.6,0.8-1.1,0.9 c-0.3,0.1-0.7,0.1-1,0l-0.9,1.6c0.8,0.2,1.7,0.2,2.3,0c1-0.3,1.6-1.2,2-1.8c0.4-0.6,0.8-1.6,0.6-2.6c-0.1-0.6-0.6-1.4-1.2-2 l-0.9,1.6c0.2,0.2,0.4,0.6,0.5,0.9C253.8,208.5,253.6,209,253.4,209.3L253.4,209.3z M274.2,193.4l-10.1-3l-0.7,2.2l10.1,3 L274.2,193.4L274.2,193.4z M276.4,186l-5.8,3c-0.2,0.1-0.6,0.2-0.8,0.2c-0.3-0.1-0.6-0.5-0.7-0.7l-2.9-5.1l-0.8,2.7l2.6,4.3 c0.2,0.4,0.6,0.9,1.1,1.1c0.5,0.2,1-0.1,1.4-0.2l5.1-2.5L276.4,186L276.4,186z M277.2,182.6l0.3-2.4l-7.6-4.4 c-0.1-0.1-0.3-0.1-0.3-0.2c0-0.1,0.2-0.1,0.3-0.2l8.5-2l0.3-2.4l-10.3,2.8c-0.7,0.2-1,0.8-1.1,1.4c-0.1,0.6,0.1,1.3,0.6,1.7 L277.2,182.6L277.2,182.6z M268.5,156l0,2.4l8,3.7l-8.1,3.3l0,2.5l10.6-4.6l3.4,1.7l0-2.4L268.5,156L268.5,156z M265.1,143.5 l-1.8,0.3l0.8,5.6c0.3,2,1.4,2.7,2.1,3c0.9,0.4,1.9,0.3,2.6,0.2l5.5-0.8c0.9-0.1,1.8-0.3,2.6-0.9c1.5-1.2,1.3-3.2,1-4.7 c-0.2-1.6-0.5-3.3-2.2-4.1c-1.2-0.6-2.8-0.3-3.8-0.2c-1.1,0.2-2.4,0.4-3.3,1.2c-0.7,0.6-1.3,1.8-1,3.7l0.5,3.5 c-0.6,0.1-1.2-0.1-1.6-0.3c-0.6-0.5-0.7-1.3-0.8-1.9L265.1,143.5L265.1,143.5z M269.9,150.1l-0.4-3c-0.2-1.1,0.3-1.7,0.5-1.9 c0.4-0.4,1.1-0.7,2.4-0.9c0.8-0.1,2.1-0.2,2.8,0.3c0.5,0.4,0.8,1.2,0.9,1.9c0.1,1-0.1,1.7-0.5,2.2c-0.3,0.3-0.8,0.7-1.6,0.8 L269.9,150.1L269.9,150.1z"></path> <path d="M198.2,222.9l-23.7-24.4l-80.2,32.1l10-15.8c10.7-17,34.5-46.5,64.1-73.1c21.1-18.9,45.2-36.4,69.9-47l18.9-7.7 c-4.6,6.5-24.5,39-31.8,60.9c-6.4,19.1-12.2,42.6-16.8,71.6l-1.9,11.9L198.2,222.9L198.2,222.9z M180.3,187.2l18.3,18.8 c3.8-21.2,8.2-39.3,13.1-54.9c-4.6,9.8-8.7,20.8-12.7,36.9l-2.7,11.1L180.7,182l-47.2,17.9l17.5-18.9c2.5-2.7,5.7-6.4,9.2-10.6 c6.4-7.6,14.1-16.7,23.5-25.9c-2.4,2.1-4.8,4.2-7.2,6.3c-20.6,18.5-38.2,38.3-50.3,54.1l51.4-20.6L180.3,187.2L180.3,187.2z M201.4,144.5c-10.3,9.1-18.8,18.3-25.9,26.6l9.7-3.3l4.9,6.6C193.6,162.1,197.3,152.9,201.4,144.5L201.4,144.5z"></path> <path class="st1" d="M202.5,218.7l-26.6-27.3l-66.6,26.7c17.9-28.4,73.3-92.9,131.3-117.7C226,123.3,211.9,160,202.5,218.7 L202.5,218.7z M219.6,123.1c-32.5,21-51.1,47.9-64.2,62l27-10.3l10.6,11.7C200.6,155.9,208.6,143.5,219.6,123.1L219.6,123.1z"></path> <path class="st2" d="M126.6,204.2c36.6-50.4,74.3-82.9,117.9-102.9c-1.7,2.7-3.4,5.4-5,8.2C186.1,134.5,153.3,179.4,126.6,204.2 L126.6,204.2z"></path> <path class="st2" d="M199.2,205.7c-2.3-27.7,16.5-76.9,36.2-105.8c2.4-1.1,5.6-2.9,8-3.9c-2.6,4-5,8.2-7.2,12.5 C212.8,145.5,202.6,182,199.2,205.7L199.2,205.7z"></path> <polygon points="229.6,93.4 232.9,98 257.5,86.9 241.5,113 248.7,129.2 233,127.3 222.4,155.8 217.2,125.4 199.2,121.4 195.3,120.4 216.5,105.9 221.1,80.9 229.6,93.4 "></polygon> <polygon class="st3" points="224.5,95.9 230.9,105.6 242.9,99.8 234.7,112.6 239.1,121.7 230.3,120.7 224.4,132.3 222.4,119.1 210,117.4 221.7,110.8 224.5,95.9 "></polygon> <path class="st2" d="M121.6,178.3c22.8-38.7,51.7-58.9,86.7-72.6C208.3,105.8,166.5,127.6,121.6,178.3L121.6,178.3z"></path> <path class="st2" d="M216.2,228.6c-2.2-15.8-0.3-36.5,9.4-53.2C222.7,192.5,218,217.6,216.2,228.6L216.2,228.6z"></path> </g> </svg> 