<?xml version="1.0" encoding="UTF-8"?> <svg xmlns="http://www.w3.org/2000/svg" xmlns:xlink="http://www.w3.org/1999/xlink" version="1.1" id="Layer_1" x="0px" y="0px" viewBox="0 0 899.2 194.2" style="enable-background:new 0 0 899.2 194.2;" xml:space="preserve"> <style type="text/css"> .st0{fill:#FF4438;} .st1{fill:#FFFFFF;} </style> <g> <path d="M39.9,112.8c-2.5,8.1-9.9,11.9-17,11.9c-8.3,0-16.1-5.1-16.1-14.9l33-18.7c-0.5-5.3-4.7-7.2-10.5-7.2 c-5.4,0-12.2,1.6-18.6,3.8l4-11.4c3.6-1.4,9.7-2.7,15.9-2.7c10.7,0,22,3.8,22,17.5v29.2l-12.8,3.8V112.8z M39.9,102.3l-20.3,3.7 c0,6.4,4.5,9.6,9.3,9.6c5.4,0,11-3.9,11-11.8V102.3z"></path> <path d="M71.6,75.2h38.9v48H97.7V85.6H82.5c0,23.7-5,38.7-17,38.7c-1.8,0-3.7-0.4-5.9-1.1l-1.2-10c1.1,0.4,2,0.6,2.9,0.6 c8.2,0,10.3-14.3,10.3-28.2V75.2z"></path> <path d="M123,75.2h12.8v14.9h9.3c13.7,0,20,7.7,20,16.3c0,8.8-7,16.8-19.9,16.8H123V75.2z M135.7,100.5V113h9.4 c4.3,0,6.5-3.1,6.5-6.2c0-3.1-2.2-6.2-6.5-6.2H135.7z"></path> <path d="M206.7,85.6h-20.7v37.6h-12.8v-48h46.3v48h-12.8V85.6z"></path> <path d="M267.9,92.6l-24.6,30.6h-11.4V75.3h12.8V106l24.6-30.6h11.4v47.9h-12.8V92.6z"></path> <path d="M327.2,103.6h-21.3v19.7h-12.8v-48h12.8v17.9h21.3V75.2H340v48h-12.8V103.6z"></path> <path d="M381.2,112.8c-2.5,8.1-9.9,11.9-17,11.9c-8.3,0-16.1-5.1-16.1-14.9l33-18.7c-0.5-5.3-4.7-7.2-10.5-7.2 c-5.4,0-12.2,1.6-18.6,3.8l4-11.4c3.6-1.4,9.7-2.7,15.9-2.7c10.7,0,22,3.8,22,17.5v29.2l-12.8,3.8V112.8z M381.2,102.3l-20.3,3.7 c0,6.4,4.5,9.6,9.3,9.6c5.4,0,11-3.9,11-11.8V102.3z"></path> </g> <g> <path d="M641,98.5v24.8h-12.8v-48H641v22.6l20.3-22.6h14.3l-20,22.1l22.2,25.9h-16L641,98.5z"></path> <path d="M717.7,103.6h-21.3v19.7h-12.8v-48h12.8v17.9h21.3V75.2h12.8v48h-12.8V103.6z"></path> <path d="M778.9,92.6l-24.6,30.6h-11.4V75.3h12.8V106l24.6-30.6h11.4v47.9h-12.8V92.6z"></path> <path d="M816.9,85.6v37.6h-12.8v-48h34.1v10.4H816.9z"></path> <path d="M881,92.6l-24.6,30.6H845V75.3h12.8V106l24.6-30.6h11.4v47.9H881V92.6z"></path> </g> <circle class="st0" cx="510.7" cy="96.8" r="90.9"></circle> <path class="st1" d="M526,121.8c-4.6,15-18.4,22.1-31.6,22.1c-15.3,0-30-9.5-30-27.6l61.4-34.8c-0.9-9.8-8.7-13.4-19.4-13.4 c-10,0-22.7,3-34.6,7.1l7.5-21.2c6.6-2.7,18-5,29.6-5c20,0,40.8,7.1,40.8,32.5v54.2l-23.7,7.1V121.8z M526,102.3l-37.8,7 c0,12,8.4,17.8,17.3,17.8c10,0,20.5-7.3,20.5-21.9V102.3z"></path> </svg> 