<?xml version="1.0" encoding="UTF-8"?> <svg xmlns="http://www.w3.org/2000/svg" xmlns:xlink="http://www.w3.org/1999/xlink" version="1.1" id="Layer_1" x="0px" y="0px" viewBox="0 0 170.1 47.3" style="enable-background:new 0 0 170.1 47.3;" xml:space="preserve"> <style type="text/css"> .st0{fill:#E11E32;} .st1{fill-rule:evenodd;clip-rule:evenodd;fill:#E11E32;} </style> <g> <path d="M132.9,15.3h-5.5v-4.3h5.5V15.3L132.9,15.3z M121,6.8v21.3h6.4v-8.5h11.4V6.8H121L121,6.8z"></path> <polygon points="160.9,6.8 143,6.8 143,11.1 148.7,11.1 148.7,28.1 155.1,28.1 155.1,11.1 160.9,11.1 160.9,6.8 "></polygon> <polygon points="8.5,6.8 8.5,11.1 20,11.1 20,15.3 12.8,15.3 12.8,19.6 20,19.6 20,23.8 8.5,23.8 8.5,28.1 26.3,28.1 26.3,6.8 8.5,6.8 "></polygon> <polygon points="116.7,11.1 116.7,6.8 98.9,6.8 98.9,28.1 116.7,28.1 116.7,23.8 105.3,23.8 105.3,19.6 112.5,19.6 112.5,15.3 105.3,15.3 105.3,11.1 116.7,11.1 "></polygon> <polygon points="74.7,6.8 74.7,28.1 81.1,28.1 81.1,11.1 88.3,11.1 88.3,28.1 94.7,28.1 94.7,6.8 74.7,6.8 "></polygon> <polygon points="44.2,6.8 37,15.3 37,6.8 30.6,6.8 30.6,28.1 37,28.1 37,19.6 43.8,28.1 48.4,28.1 48.4,23.8 42.2,16 46.4,11.1 48.4,11.1 48.4,6.8 44.2,6.8 "></polygon> <polygon points="52.7,6.8 52.7,28.1 70.5,28.1 70.5,23.8 59.1,23.8 59.1,11.1 66.2,11.1 66.2,12.9 70.5,12.9 70.5,6.8 52.7,6.8 "></polygon> <path class="st0" d="M52.7,36c0-0.5,0.1-1.1,0.3-1.6c0.2-0.5,0.5-1,0.8-1.4c0.4-0.4,0.8-0.8,1.4-1c0.5-0.3,1.1-0.4,1.8-0.4 c0.8,0,1.5,0.2,2.1,0.5c0.6,0.4,1,0.8,1.3,1.4L59.4,34c-0.1-0.3-0.3-0.5-0.5-0.7c-0.2-0.2-0.4-0.4-0.6-0.5 c-0.2-0.1-0.5-0.2-0.7-0.3c-0.2-0.1-0.5-0.1-0.7-0.1c-0.5,0-0.9,0.1-1.3,0.3c-0.4,0.2-0.7,0.5-1,0.8c-0.3,0.3-0.5,0.7-0.6,1.1 c-0.1,0.4-0.2,0.8-0.2,1.3c0,0.5,0.1,0.9,0.2,1.4c0.2,0.4,0.4,0.8,0.7,1.1c0.3,0.3,0.6,0.6,1,0.8c0.4,0.2,0.8,0.3,1.2,0.3 c0.2,0,0.5,0,0.7-0.1c0.3-0.1,0.5-0.2,0.7-0.3c0.2-0.1,0.4-0.3,0.6-0.5c0.2-0.2,0.4-0.4,0.5-0.7l1,0.5c-0.1,0.3-0.3,0.6-0.6,0.9 c-0.3,0.3-0.6,0.5-0.9,0.7c-0.3,0.2-0.7,0.3-1,0.4c-0.4,0.1-0.7,0.1-1.1,0.1c-0.6,0-1.2-0.1-1.7-0.4c-0.5-0.3-1-0.6-1.3-1.1 c-0.4-0.4-0.7-0.9-0.9-1.5C52.8,37.1,52.7,36.6,52.7,36L52.7,36z M68.7,39.5v1h-6.1v-9h6v1h-4.9v2.9H68v1h-4.2v3.1H68.7L68.7,39.5z M77.6,38.2c0,0.3-0.1,0.7-0.2,1c-0.1,0.3-0.3,0.5-0.6,0.7c-0.2,0.2-0.5,0.4-0.8,0.5c-0.3,0.1-0.7,0.2-1,0.2h-4.3v-9h4.5 c0.3,0,0.6,0.1,0.9,0.2c0.3,0.1,0.5,0.3,0.6,0.5c0.2,0.2,0.3,0.5,0.4,0.7c0.1,0.3,0.1,0.6,0.1,0.8c0,0.4-0.1,0.9-0.3,1.2 s-0.5,0.7-1,0.9c0.5,0.2,0.9,0.4,1.2,0.8C77.4,37.2,77.6,37.7,77.6,38.2L77.6,38.2z M76.4,38c0-0.2,0-0.4-0.1-0.6 c-0.1-0.2-0.2-0.4-0.3-0.5c-0.1-0.1-0.3-0.3-0.4-0.3c-0.2-0.1-0.4-0.1-0.6-0.1h-3.2v3.1h3.1c0.2,0,0.4,0,0.6-0.1 c0.2-0.1,0.3-0.2,0.5-0.3c0.1-0.1,0.2-0.3,0.3-0.5C76.4,38.4,76.4,38.2,76.4,38L76.4,38z M71.8,32.5v3h2.9c0.2,0,0.4,0,0.6-0.1 s0.3-0.2,0.4-0.3c0.1-0.1,0.2-0.3,0.3-0.5c0.1-0.2,0.1-0.4,0.1-0.6c0-0.2,0-0.4-0.1-0.6c-0.1-0.2-0.2-0.3-0.3-0.5 c-0.1-0.1-0.3-0.2-0.4-0.3c-0.2-0.1-0.3-0.1-0.5-0.1H71.8L71.8,32.5z M86.2,39.5v1h-6.1v-9h6v1h-4.9v2.9h4.2v1h-4.2v3.1H86.2 L86.2,39.5z M88.5,40.6v-9h3.8c0.4,0,0.8,0.1,1.1,0.2c0.3,0.2,0.6,0.4,0.9,0.7c0.2,0.3,0.4,0.6,0.6,0.9c0.1,0.3,0.2,0.7,0.2,1 c0,0.4-0.1,0.7-0.2,1.1c-0.1,0.3-0.3,0.7-0.5,0.9c-0.2,0.3-0.5,0.5-0.8,0.6c-0.3,0.2-0.7,0.2-1.1,0.2h-2.7v3.2H88.5L88.5,40.6z M89.6,36.3h2.6c0.2,0,0.5,0,0.6-0.1c0.2-0.1,0.4-0.2,0.5-0.4c0.1-0.2,0.2-0.4,0.3-0.6c0.1-0.2,0.1-0.5,0.1-0.7 c0-0.3,0-0.5-0.1-0.7c-0.1-0.2-0.2-0.4-0.4-0.6c-0.1-0.2-0.3-0.3-0.5-0.4c-0.2-0.1-0.4-0.1-0.6-0.1h-2.6V36.3L89.6,36.3z M100.7,40.6c-0.6,0-1.2-0.1-1.7-0.4c-0.5-0.3-1-0.6-1.3-1c-0.4-0.4-0.7-0.9-0.9-1.5c-0.2-0.6-0.3-1.1-0.3-1.7 c0-0.6,0.1-1.2,0.3-1.7c0.2-0.6,0.5-1,0.9-1.5c0.4-0.4,0.8-0.8,1.4-1c0.5-0.2,1.1-0.4,1.7-0.4c0.6,0,1.2,0.1,1.7,0.4 c0.5,0.3,1,0.6,1.3,1c0.4,0.4,0.7,0.9,0.9,1.5c0.2,0.5,0.3,1.1,0.3,1.7c0,0.6-0.1,1.2-0.3,1.7c-0.2,0.6-0.5,1-0.9,1.5 c-0.4,0.4-0.8,0.8-1.3,1C101.9,40.5,101.3,40.6,100.7,40.6L100.7,40.6z M97.6,36c0,0.5,0.1,0.9,0.2,1.3c0.1,0.4,0.4,0.8,0.6,1.1 c0.3,0.3,0.6,0.6,1,0.8c0.4,0.2,0.8,0.3,1.3,0.3c0.5,0,0.9-0.1,1.3-0.3c0.4-0.2,0.7-0.5,1-0.8c0.3-0.3,0.5-0.7,0.6-1.1 c0.1-0.4,0.2-0.9,0.2-1.3c0-0.5-0.1-0.9-0.2-1.3c-0.1-0.4-0.4-0.8-0.6-1.1c-0.3-0.3-0.6-0.6-1-0.8c-0.4-0.2-0.8-0.3-1.3-0.3 c-0.5,0-0.9,0.1-1.3,0.3c-0.4,0.2-0.7,0.5-1,0.8c-0.3,0.3-0.5,0.7-0.6,1.1C97.7,35.2,97.6,35.6,97.6,36L97.6,36z M106.9,37.6v-1 h3.8v1H106.9L106.9,37.6z M112.6,32.6c0.3-0.4,0.6-0.7,1-0.9c0.4-0.2,0.9-0.3,1.5-0.3c0.8,0,1.5,0.2,2,0.5c0.5,0.4,0.7,0.9,0.7,1.6 c0,0.5-0.1,1-0.4,1.3c-0.3,0.4-0.6,0.6-1.1,0.7c0.6,0.1,1,0.3,1.3,0.7c0.3,0.4,0.5,0.9,0.5,1.5c0,0.4-0.1,0.8-0.2,1.1 c-0.2,0.3-0.4,0.6-0.7,0.9c-0.3,0.2-0.6,0.4-1,0.6c-0.4,0.1-0.8,0.2-1.2,0.2c-0.6,0-1.1-0.1-1.6-0.4c-0.5-0.2-0.8-0.6-1.1-1 l0.9-0.7c0.2,0.3,0.4,0.6,0.7,0.8c0.3,0.2,0.6,0.3,1.1,0.3c0.3,0,0.5,0,0.8-0.1c0.2-0.1,0.4-0.2,0.6-0.3c0.2-0.1,0.3-0.3,0.4-0.5 c0.1-0.2,0.1-0.4,0.1-0.7c0-0.5-0.2-1-0.6-1.3c-0.4-0.3-1-0.5-1.8-0.5h-0.7v-1h0.7c0.6,0,1.1-0.1,1.5-0.4c0.4-0.3,0.5-0.6,0.5-1.1 c0-0.4-0.1-0.7-0.4-0.9c-0.3-0.2-0.6-0.3-1.1-0.3c-0.4,0-0.7,0.1-1,0.2c-0.3,0.1-0.5,0.4-0.7,0.6L112.6,32.6L112.6,32.6z M123,31.5 h1l3.7,9h-1.2l-1.1-2.6h-3.8l-1.1,2.6h-1.2L123,31.5L123,31.5z M125.1,37l-1.6-4.2l-1.7,4.2H125.1L125.1,37z M129.5,31.5h7.2v9 h-1.1v-8h-4.9v8h-1.1V31.5L129.5,31.5z M142.3,31.5h1l3.7,9h-1.2l-1.1-2.6h-3.8l-1.1,2.6h-1.2L142.3,31.5L142.3,31.5z M144.4,37 l-1.6-4.2l-1.7,4.2H144.4L144.4,37z M147.9,39.5h0.1c0.2,0,0.3,0,0.5-0.1c0.2-0.1,0.3-0.2,0.4-0.3c0.1-0.1,0.3-0.3,0.4-0.6 c0.1-0.3,0.2-0.6,0.3-1c0.1-0.4,0.2-0.9,0.3-1.5c0.1-0.6,0.2-1.3,0.2-2.1l0.2-2.5h4.8v8h1.4v2.2h-1v-1.2h-6.6v1.2h-1V39.5 L147.9,39.5z M154,39.5v-7h-2.6l-0.1,1.5c-0.1,1.5-0.3,2.7-0.5,3.6c-0.2,0.9-0.5,1.5-0.9,1.9H154L154,39.5z"></path> <path class="st1" d="M0,0h170.1v47.3H0V0L0,0z M166.2,3.8H3.8v39.6h162.4V3.8L166.2,3.8z"></path> </g> </svg> 