<?xml version="1.0" encoding="UTF-8"?> <svg xmlns="http://www.w3.org/2000/svg" xmlns:xlink="http://www.w3.org/1999/xlink" version="1.1" id="Layer_1" x="0px" y="0px" viewBox="0 0 170.1 47.3" style="enable-background:new 0 0 170.1 47.3;" xml:space="preserve"> <style type="text/css"> .st0{fill-rule:evenodd;clip-rule:evenodd;fill:#D0021B;} .st1{fill:#D0021B;} </style> <g> <path d="M133.2,15.3h-5.5v-4.3h5.5V15.3L133.2,15.3z M121.3,6.8v21.3h6.4v-8.5h11.4V6.8H121.3L121.3,6.8z"></path> <polygon points="161.2,6.8 143.4,6.8 143.4,11.1 149.1,11.1 149.1,28.1 155.5,28.1 155.5,11.1 161.2,11.1 161.2,6.8 "></polygon> <polygon points="8.9,6.8 8.9,11.1 20.3,11.1 20.3,15.3 13.1,15.3 13.1,19.6 20.3,19.6 20.3,23.8 8.9,23.8 8.9,28.1 26.7,28.1 26.7,6.8 8.9,6.8 "></polygon> <polygon points="117.1,11.1 117.1,6.8 99.3,6.8 99.3,28.1 117.1,28.1 117.1,23.8 105.7,23.8 105.7,19.6 112.8,19.6 112.8,15.3 105.7,15.3 105.7,11.1 117.1,11.1 "></polygon> <polygon points="75.1,6.8 75.1,28.1 81.5,28.1 81.5,11.1 88.7,11.1 88.7,28.1 95,28.1 95,6.8 75.1,6.8 "></polygon> <polygon points="44.6,6.8 37.3,15.3 37.3,6.8 31,6.8 31,28.1 37.3,28.1 37.3,19.6 44.1,28.1 48.8,28.1 48.8,23.8 42.5,16 46.7,11.1 48.8,11.1 48.8,6.8 44.6,6.8 "></polygon> <polygon points="53,6.8 53,28.1 70.9,28.1 70.9,23.8 59.4,23.8 59.4,11.1 66.6,11.1 66.6,12.9 70.9,12.9 70.9,6.8 53,6.8 "></polygon> <path class="st0" d="M0,0h170.1v47.3H0V0L0,0z M166.2,3.8H3.8v39.6h162.4V3.8L166.2,3.8z"></path> <path class="st1" d="M8.5,35.7c0-0.5,0.1-0.9,0.2-1.3c0.2-0.4,0.4-0.8,0.7-1.2c0.3-0.4,0.7-0.6,1.1-0.9c0.4-0.2,0.9-0.3,1.5-0.3 c0.7,0,1.2,0.2,1.7,0.5c0.5,0.3,0.8,0.7,1.1,1.2l-0.8,0.5c-0.1-0.2-0.2-0.4-0.4-0.6c-0.2-0.2-0.3-0.3-0.5-0.4 c-0.2-0.1-0.4-0.2-0.6-0.2c-0.2,0-0.4-0.1-0.6-0.1c-0.4,0-0.8,0.1-1.1,0.3c-0.3,0.2-0.6,0.4-0.8,0.7c-0.2,0.3-0.4,0.6-0.5,0.9 c-0.1,0.3-0.2,0.7-0.2,1.1c0,0.4,0.1,0.8,0.2,1.1c0.1,0.4,0.3,0.7,0.5,0.9c0.2,0.3,0.5,0.5,0.8,0.7c0.3,0.2,0.7,0.2,1,0.2 c0.2,0,0.4,0,0.6-0.1c0.2,0,0.4-0.1,0.6-0.2c0.2-0.1,0.4-0.2,0.5-0.4c0.2-0.2,0.3-0.4,0.4-0.6l0.8,0.4c-0.1,0.3-0.3,0.5-0.5,0.7 c-0.2,0.2-0.5,0.4-0.7,0.5c-0.3,0.1-0.6,0.3-0.9,0.3c-0.3,0.1-0.6,0.1-0.9,0.1c-0.5,0-1-0.1-1.4-0.3c-0.4-0.2-0.8-0.5-1.1-0.9 C9.2,38,9,37.6,8.8,37.1C8.6,36.7,8.5,36.2,8.5,35.7L8.5,35.7z M17.2,38.1l4.3-6.1h0.8v7.5h-1v-5.9l-4.3,5.9h-0.9V32h1V38.1 L17.2,38.1z M24.2,32h5.3v0.8h-4.3v2.2h2.5c0.3,0,0.6,0,0.9,0.1c0.3,0.1,0.5,0.2,0.7,0.4c0.2,0.2,0.4,0.4,0.5,0.7 c0.1,0.3,0.2,0.6,0.2,1c0,0.4-0.1,0.7-0.2,1c-0.1,0.3-0.3,0.5-0.5,0.7c-0.2,0.2-0.4,0.3-0.7,0.4c-0.3,0.1-0.6,0.1-0.9,0.1h-3.5V32 L24.2,32z M27.6,38.7c0.4,0,0.7-0.1,0.9-0.4c0.2-0.2,0.3-0.6,0.3-1c0-0.4-0.1-0.8-0.3-1c-0.2-0.2-0.5-0.4-0.9-0.4h-2.5v2.8H27.6 L27.6,38.7z M32.1,38.1l4.3-6.1h0.8v7.5h-1v-5.9L32,39.5h-0.9V32h1V38.1L32.1,38.1z M39,39.5V32h3.1c0.3,0,0.6,0.1,0.9,0.2 c0.3,0.1,0.5,0.3,0.7,0.5c0.2,0.2,0.4,0.5,0.5,0.8c0.1,0.3,0.2,0.6,0.2,0.9c0,0.3-0.1,0.6-0.2,0.9c-0.1,0.3-0.3,0.5-0.4,0.8 c-0.2,0.2-0.4,0.4-0.7,0.5c-0.3,0.1-0.6,0.2-0.9,0.2H40v2.7H39L39,39.5z M40,36h2.2c0.2,0,0.4,0,0.5-0.1c0.2-0.1,0.3-0.2,0.4-0.3 c0.1-0.1,0.2-0.3,0.3-0.5c0.1-0.2,0.1-0.4,0.1-0.6c0-0.2,0-0.4-0.1-0.6c-0.1-0.2-0.2-0.4-0.3-0.5c-0.1-0.1-0.3-0.3-0.4-0.3 c-0.2-0.1-0.3-0.1-0.5-0.1H40V36L40,36z M45.6,32h1v2.8h1.6c0.4,0,0.7,0.1,1,0.2c0.3,0.1,0.6,0.3,0.8,0.4c0.2,0.2,0.4,0.4,0.5,0.7 c0.1,0.3,0.2,0.6,0.2,1s-0.1,0.7-0.2,1c-0.1,0.3-0.3,0.5-0.5,0.7c-0.2,0.2-0.5,0.3-0.8,0.4c-0.3,0.1-0.6,0.2-1,0.2h-2.6V32L45.6,32 z M46.6,38.7h1.6c0.5,0,0.9-0.1,1.2-0.4c0.3-0.3,0.4-0.7,0.4-1.1c0-0.5-0.1-0.8-0.4-1.1c-0.3-0.3-0.7-0.4-1.2-0.4h-1.6V38.7 L46.6,38.7z M55.5,38.1l4.3-6.1h0.8v7.5h-1v-5.9l-4.3,5.9h-0.9V32h1V38.1L55.5,38.1z M64.4,38.7L64.4,38.7c0.2,0,0.4,0,0.5-0.1 c0.1,0,0.3-0.1,0.4-0.2c0.1-0.1,0.2-0.3,0.3-0.5c0.1-0.2,0.2-0.5,0.3-0.8c0.1-0.3,0.2-0.7,0.2-1.2c0.1-0.5,0.1-1.1,0.2-1.7l0.2-2h4 v6.7h1.2v1.8h-0.8v-1h-5.5v1h-0.8V38.7L64.4,38.7z M69.5,38.7v-5.8h-2.1l-0.1,1.2c-0.1,1.3-0.3,2.3-0.4,3c-0.2,0.7-0.5,1.3-0.8,1.6 H69.5L69.5,38.7z M75.2,32H76l3.1,7.5h-1l-0.9-2.2H74l-0.9,2.2h-1L75.2,32L75.2,32z M77,36.6l-1.4-3.5l-1.4,3.5H77L77,36.6z M82.5,34.1c-0.1,1-0.2,1.8-0.3,2.5c-0.1,0.7-0.3,1.3-0.5,1.7c-0.2,0.4-0.4,0.8-0.7,1c-0.3,0.2-0.6,0.3-1,0.3l-0.2-0.9 c0.1,0,0.3,0,0.4-0.1c0.1,0,0.3-0.1,0.4-0.2c0.1-0.1,0.2-0.3,0.3-0.5c0.1-0.2,0.2-0.5,0.3-0.8c0.1-0.3,0.2-0.7,0.2-1.2 c0.1-0.5,0.1-1.1,0.2-1.7l0.2-2h4v7.5h-1v-6.7h-2.1L82.5,34.1L82.5,34.1z M87.5,32h1v2.8h1.6c0.4,0,0.7,0.1,1,0.2 c0.3,0.1,0.6,0.3,0.8,0.4c0.2,0.2,0.4,0.4,0.5,0.7c0.1,0.3,0.2,0.6,0.2,1s-0.1,0.7-0.2,1c-0.1,0.3-0.3,0.5-0.5,0.7 c-0.2,0.2-0.5,0.3-0.8,0.4c-0.3,0.1-0.6,0.2-1,0.2h-2.6V32L87.5,32z M88.5,38.7h1.6c0.5,0,0.9-0.1,1.2-0.4c0.3-0.3,0.4-0.7,0.4-1.1 c0-0.5-0.1-0.8-0.4-1.1c-0.3-0.3-0.7-0.4-1.2-0.4h-1.6V38.7L88.5,38.7z M99.9,32v7.5h-1v-3.4h-4.1v3.4h-1V32h1v3.2h4.1V32H99.9 L99.9,32z M102.6,38.1L107,32h0.8v7.5h-1v-5.9l-4.3,5.9h-0.9V32h1V38.1L102.6,38.1z M114.4,30.1c0,0.4-0.2,0.7-0.5,0.9 c-0.3,0.2-0.7,0.3-1.1,0.3c-0.5,0-0.9-0.1-1.1-0.3c-0.3-0.2-0.4-0.5-0.5-0.9h0.6c0,0.2,0.1,0.4,0.3,0.5c0.2,0.1,0.5,0.2,0.8,0.2 c0.3,0,0.5-0.1,0.7-0.2c0.2-0.1,0.3-0.3,0.3-0.5H114.4L114.4,30.1z M110.6,38.1l4.3-6.1h0.8v7.5h-1v-5.9l-4.3,5.9h-0.9V32h1V38.1 L110.6,38.1z M125.7,37.6c0,0.3-0.1,0.6-0.2,0.8c-0.1,0.2-0.3,0.4-0.5,0.6c-0.2,0.2-0.4,0.3-0.7,0.4c-0.3,0.1-0.5,0.1-0.9,0.1H120 V32h3.7c0.3,0,0.5,0.1,0.7,0.2c0.2,0.1,0.4,0.3,0.5,0.4c0.1,0.2,0.3,0.4,0.3,0.6c0.1,0.2,0.1,0.5,0.1,0.7c0,0.4-0.1,0.7-0.3,1 c-0.2,0.3-0.5,0.6-0.8,0.7c0.4,0.1,0.8,0.4,1,0.7C125.6,36.7,125.7,37.1,125.7,37.6L125.7,37.6z M124.8,37.4c0-0.2,0-0.3-0.1-0.5 c-0.1-0.2-0.1-0.3-0.2-0.4s-0.2-0.2-0.4-0.3c-0.1-0.1-0.3-0.1-0.5-0.1h-2.7v2.6h2.6c0.2,0,0.3,0,0.5-0.1c0.1-0.1,0.3-0.2,0.4-0.3 c0.1-0.1,0.2-0.3,0.3-0.4C124.7,37.7,124.8,37.6,124.8,37.4L124.8,37.4z M120.9,32.8v2.5h2.4c0.2,0,0.3,0,0.5-0.1 c0.1-0.1,0.3-0.2,0.4-0.3c0.1-0.1,0.2-0.2,0.2-0.4c0.1-0.2,0.1-0.3,0.1-0.5c0-0.2,0-0.3-0.1-0.5c-0.1-0.2-0.1-0.3-0.2-0.4 c-0.1-0.1-0.2-0.2-0.3-0.3c-0.1-0.1-0.3-0.1-0.4-0.1H120.9L120.9,32.8z M130,39.6c-0.5,0-1-0.1-1.4-0.3c-0.4-0.2-0.8-0.5-1.1-0.9 c-0.3-0.4-0.5-0.8-0.7-1.2c-0.2-0.5-0.3-0.9-0.3-1.4c0-0.5,0.1-1,0.3-1.4c0.2-0.5,0.4-0.9,0.7-1.2c0.3-0.4,0.7-0.6,1.1-0.8 c0.4-0.2,0.9-0.3,1.4-0.3c0.5,0,1,0.1,1.4,0.3c0.4,0.2,0.8,0.5,1.1,0.9c0.3,0.4,0.5,0.8,0.7,1.2c0.2,0.5,0.3,0.9,0.3,1.4 c0,0.5-0.1,1-0.3,1.4c-0.2,0.5-0.4,0.9-0.7,1.2c-0.3,0.3-0.7,0.6-1.1,0.8C130.9,39.5,130.5,39.6,130,39.6L130,39.6z M127.4,35.8 c0,0.4,0.1,0.7,0.2,1.1c0.1,0.4,0.3,0.7,0.5,0.9c0.2,0.3,0.5,0.5,0.8,0.7c0.3,0.2,0.7,0.2,1.1,0.2c0.4,0,0.8-0.1,1.1-0.3 c0.3-0.2,0.6-0.4,0.8-0.7c0.2-0.3,0.4-0.6,0.5-0.9c0.1-0.4,0.2-0.7,0.2-1.1c0-0.4-0.1-0.7-0.2-1.1c-0.1-0.4-0.3-0.7-0.5-0.9 c-0.2-0.3-0.5-0.5-0.8-0.6c-0.3-0.2-0.7-0.2-1-0.2c-0.4,0-0.8,0.1-1.1,0.3s-0.6,0.4-0.8,0.7c-0.2,0.3-0.4,0.6-0.5,0.9 C127.5,35,127.4,35.4,127.4,35.8L127.4,35.8z M134.4,35.7c0-0.5,0.1-0.9,0.2-1.3c0.2-0.4,0.4-0.8,0.7-1.2c0.3-0.4,0.7-0.6,1.1-0.9 c0.4-0.2,0.9-0.3,1.5-0.3c0.7,0,1.2,0.2,1.7,0.5c0.5,0.3,0.8,0.7,1.1,1.2l-0.8,0.5c-0.1-0.2-0.2-0.4-0.4-0.6 c-0.2-0.2-0.3-0.3-0.5-0.4c-0.2-0.1-0.4-0.2-0.6-0.2c-0.2,0-0.4-0.1-0.6-0.1c-0.4,0-0.8,0.1-1.1,0.3c-0.3,0.2-0.6,0.4-0.8,0.7 c-0.2,0.3-0.4,0.6-0.5,0.9c-0.1,0.3-0.2,0.7-0.2,1.1c0,0.4,0.1,0.8,0.2,1.1c0.1,0.4,0.3,0.7,0.5,0.9c0.2,0.3,0.5,0.5,0.8,0.7 c0.3,0.2,0.7,0.2,1,0.2c0.2,0,0.4,0,0.6-0.1c0.2,0,0.4-0.1,0.6-0.2c0.2-0.1,0.4-0.2,0.5-0.4c0.2-0.2,0.3-0.4,0.4-0.6l0.8,0.4 c-0.1,0.3-0.3,0.5-0.5,0.7c-0.2,0.2-0.5,0.4-0.7,0.5c-0.3,0.1-0.6,0.3-0.9,0.3c-0.3,0.1-0.6,0.1-0.9,0.1c-0.5,0-1-0.1-1.4-0.3 c-0.4-0.2-0.8-0.5-1.1-0.9c-0.3-0.4-0.6-0.8-0.7-1.2C134.5,36.7,134.4,36.2,134.4,35.7L134.4,35.7z M147.3,32.9h-2.6v6.7h-1v-6.7 h-2.6V32h6.1V32.9L147.3,32.9z M151,39.6c-0.5,0-1-0.1-1.4-0.3c-0.4-0.2-0.8-0.5-1.1-0.9c-0.3-0.4-0.5-0.8-0.7-1.2 c-0.2-0.5-0.3-0.9-0.3-1.4c0-0.5,0.1-1,0.3-1.4c0.2-0.5,0.4-0.9,0.7-1.2c0.3-0.4,0.7-0.6,1.1-0.8c0.4-0.2,0.9-0.3,1.4-0.3 c0.5,0,1,0.1,1.4,0.3c0.4,0.2,0.8,0.5,1.1,0.9c0.3,0.4,0.5,0.8,0.7,1.2c0.2,0.5,0.3,0.9,0.3,1.4c0,0.5-0.1,1-0.3,1.4 c-0.2,0.5-0.4,0.9-0.7,1.2c-0.3,0.3-0.7,0.6-1.1,0.8C151.9,39.5,151.5,39.6,151,39.6L151,39.6z M148.4,35.8c0,0.4,0.1,0.7,0.2,1.1 c0.1,0.4,0.3,0.7,0.5,0.9c0.2,0.3,0.5,0.5,0.8,0.7c0.3,0.2,0.7,0.2,1.1,0.2c0.4,0,0.8-0.1,1.1-0.3c0.3-0.2,0.6-0.4,0.8-0.7 c0.2-0.3,0.4-0.6,0.5-0.9c0.1-0.4,0.2-0.7,0.2-1.1c0-0.4-0.1-0.7-0.2-1.1c-0.1-0.4-0.3-0.7-0.5-0.9c-0.2-0.3-0.5-0.5-0.8-0.6 c-0.3-0.2-0.7-0.2-1-0.2c-0.4,0-0.8,0.1-1.1,0.3s-0.6,0.4-0.8,0.7c-0.2,0.3-0.4,0.6-0.5,0.9C148.5,35,148.4,35.4,148.4,35.8 L148.4,35.8z M156.8,35.3h1l2.5-3.3h1.1l-2.7,3.6l2.9,3.9h-1.1l-2.6-3.4h-1.1v3.4h-1V32h1V35.3L156.8,35.3z"></path> </g> </svg> 