<?xml version="1.0" encoding="UTF-8"?> <svg xmlns="http://www.w3.org/2000/svg" xmlns:xlink="http://www.w3.org/1999/xlink" version="1.1" id="Слой_1" x="0px" y="0px" viewBox="0 0 227.4 369" style="enable-background:new 0 0 227.4 369;" xml:space="preserve"> <style type="text/css"> .st0{clip-path:url(#SVGID_00000060718477740702268080000007359652953949144231_);} .st1{clip-path:url(#SVGID_00000139292493082103624480000018053215990442784144_);fill:#1E1E1C;} .st2{clip-path:url(#SVGID_00000139292493082103624480000018053215990442784144_);fill:none;stroke:#1E1E1C;stroke-width:0.1195;stroke-miterlimit:10;} </style> <g> <g> <defs> <rect id="SVGID_1_" x="9.1" y="54.5" width="210.6" height="297.9"></rect> </defs> <clipPath id="SVGID_00000075152605975054253680000017550362085938721952_"> <use xlink:href="#SVGID_1_" style="overflow:visible;"></use> </clipPath> <g style="clip-path:url(#SVGID_00000075152605975054253680000017550362085938721952_);"> <defs> <rect id="SVGID_00000039103311190602263400000005895856845844406948_" x="9.1" y="54.5" width="210.6" height="297.9"></rect> </defs> <clipPath id="SVGID_00000183933468443535927650000014858452726463164556_"> <use xlink:href="#SVGID_00000039103311190602263400000005895856845844406948_" style="overflow:visible;"></use> </clipPath> <path style="clip-path:url(#SVGID_00000183933468443535927650000014858452726463164556_);fill:#1E1E1C;" d="M157.2,153.7 c-0.2-1.1-0.9-6.4-0.9-6.4s1-2.1,0.9-3.8c-0.1-1.7-0.7-4.3-0.7-4.3l-1.7-5.4c0,0-2.1-5.5-2.7-6.6c-0.6-1-2.1-3.4-2.1-3.4l-4.8-5 c0,0-3.1-3.3-4.6-3.8c-1.5-0.5-3.7-0.7-3.7-0.7c-0.2-1.5-1.4-3.3-2.5-4.1c-1-0.8-1.4-1.4-2.6-3c-1.2-1.6-1.3-2.2-1.6-2.8 c-0.2-0.6-1.1-2.6-2.6-4.2c-1.4-1.6-3.3-2.2-5.4-2.8c-2.1-0.5-5.2-0.5-7.4-0.3c-2.2,0.2-3.4,1.3-5.3,3.4c-1.9,2-2.2,1.4-4,3.3 c-1.8,1.8-3.4,5.3-3.4,5.3c-2.3,0.5-3.4,3.9-3.4,4.3c0,0.5-0.8,2.7-0.7,5.4c0.1,2.7,1.1,4.9,1.1,4.9c-1,1-1.4,4.4-1.4,4.4h-0.8 c-1.4-2.6-4.2-3.6-6.8-3.4c-2.6,0.2-5.1,2.2-5.1,2.2c-2.2,0.2-5.2,3.1-6.1,3.9c-0.8,0.8-5.2,6.9-6.3,9.5 c-1.1,2.6,1.4,4.8,1.4,4.8s-1.3,2.8-2.6,6.4c-1.3,3.7,0.7,5.3,0.7,5.3c0.2,4.3,2.6,4.3,2.6,4.3c0.4,4,1.3,4.8,1.3,4.8 s-1,1.4-0.6,3.8c0.4,2.3,1.9,3.9,1.9,3.9c-0.4,1.3-0.2,2.6,0.8,3.9c1,1.3,5,1,7.8,1.1c2.8,0.1,6.6,0.8,7.9,1.3 c1.3,0.5,3.1,0.7,3.1,0.7c2.2,3.9,7.3,4.9,11,4.9c3.6,0,6.7-1.8,7.5-2.5c0.8-0.7,0.6-2.6,0.6-2.6c2.5,0.3,3.3-1.1,3.3-1.1 c3-0.1,4.2-1.6,4.2-1.6l1.9,0.4c2.2,0.5,6.8-1.3,6.8-1.3l-0.6-0.5c-1-0.8,0.3-1.3,0.3-1.3c15.3,1,20.1-2.5,23.2-6.9 C158.1,163.6,157.4,154.8,157.2,153.7 M105.8,106.2c0,0,0.7-1.4,1-1.7c0.4-0.3,2.1-1.3,2.6-1.9c0.5-0.5,2.6-3.1,3.9-3.6 c1.3-0.5,4-0.5,6-0.4c2,0.1,4.5,1.1,5.8,2.2c1.3,1.1,2.6,2.7,3.7,5.4c1.1,2.7,3.7,4.8,4.1,5.1c0.4,0.3,2.2,2.5,2.3,3.2 c0.1,0.7,0.3,1.8-0.5,1.7c-0.8-0.1-4.4,0.3-5.7,1.4c-1.3,1.1-3,3.9-3,3.9s-1.1,1.5-1.3,0c-0.2-1.5-0.7-2.8-0.7-2.8s0.8-0.7,1-1.1 c0.2-0.4,0.7-2.3,0.5-3.3c-0.2-1-0.8-2.8-2.1-3.1c-1.3-0.2-1.7,1.1-1.7,2.2c-0.1,1.1,0.1,2.3,0.1,2.3s1,3.8,1.2,5.2 c0.2,1.4,0.1,2-0.6,2.4c0,0-0.1,4.3-0.4,5.1c-0.3,0.8-1,1.7-1.2,1.9c-0.2,0.2-1.4,1.9-1.2,1.9c0.2,0.1-1,1.9-1.6,2.1 c0,0,0.1-5.1-3.4-8.6c-3.5-3.6-3-1.6-3.3-3.1c-0.2-1.6-0.4-1.9-0.4-1.9s1.8-1.4,2.1-2.1c0,0,1.8-0.5,2.9-3 c1.1-2.5,1.3-5.5-0.4-6.7c-1.7-1.1-5.4-1.6-8.4,0.2c0,0-1.4-0.7-2.5-0.6L105.8,106.2z M123.5,117.1c-0.5-0.1-1-0.8-0.6-4.4 c0,0,1-0.4,1,0.6c0,1,0.3,1.5,0.2,2C123.9,115.9,123.9,117.2,123.5,117.1 M114.6,130.8c0,0,0.1,1.4-0.2,1.4 c-0.3,0-1.3-0.4-1.4-0.6c0,0-0.1,0.7,0.6,1.5c0.7,0.8,1.5,2.5,1.3,3.5c-0.2,1-0.5,1.7-1.1,1.9c-0.6,0.2-0.9,0.1-1.3,0.6 c-0.4,0.5-1,1.1-2,0l-0.5-0.6c0,0-0.9,1.7-2.4,1.7c-1.5,0-2.9-1.4-3.3-3.9c0,0-0.4,0.8-1.1,0.2c0,0,0.7,0.8,1.2,2.2 c0.5,1.4-0.5,0.5-0.5,0.5s-2.4-0.9-3-6.4c0,0,0-0.4,0.7,0.1c0.6,0.5,2.5,2.6,5.1,2.2s2.9-1.2,3.3-1.6c0.4-0.4,1.8-1.4,1.7-3 c-0.1-1.6-1.8-1.8-1.3-2.8c0.5-1,1.1-2.1,0.1-3.1c-1-1-1.8-1.4-0.7-2.9c0,0,0.6,0.9,0.7,1.6c0.1,0.7,2.2,1,3.9,3.6 c1.7,2.7,1.9,7.4,1.7,8.1c-0.1,0.7-0.9,0-0.9,0s-0.8-1.4-0.5-1.9C115,132.5,115.2,131.2,114.6,130.8 M100.3,153.8 c0,0-0.6,3-1.4,3.9c-0.9,0.9-1.2-0.7-1.2-0.7c-1.1,5-4.4,4.7-4.4,4.7s1.1-3.3,1.2-6.2c0-2.9-1.8-5-1.8-5c0,0-1.9-3-1-3.2 c1-0.2,0.1-2.4,0.1-2.4s-0.6-1.5,0-1.5c0.6-0.1,0.6-2.1,0.6-2.6c0-0.6,0.5-0.5,0.5-0.5c3.8-2.7,6.9-7,6.9-7 c0.5,5.3,2.3,6.7,2.8,7c0.5,0.4,1.2,0.2,1.1,0.8c-0.1,0.6-1.8,1.7-1.9,5.5c-0.1,3.8,2.4,5.8,2.9,6.1c0.5,0.3,0.2,0.8,0.2,0.8 c-3.9,6.9-6.6,7-6.6,7C102,156.8,100.3,153.8,100.3,153.8 M109.3,130.6l0.5-0.3c0,0-0.4-1.2-2-1.3c-1.6-0.1-3.2-0.1-5-1.4 s-3.1-0.6-3.1-0.6s-0.3-1.8,1.4-3.5c1.7-1.6,1.2-3.7,1.2-3.7s-0.1-1.2,1.2-1.1c1.2,0.1,1.2,1.1,1.2,1.1s0.8-0.9,0-1.6 c-0.8-0.7-0.2-0.9-0.2-0.9s0.8-1.2,0.8-1.7c0,0,1.8,0.6,2.6,0.2c0.9-0.4,0.5,0.5,0.5,0.5s0.4,0.9,1.2,0.9 c0.8,0.1,1.6-0.4,1.6-0.4s-1.5,0-1.1-0.3c0.4-0.3,1.3-0.6,1.1-2.1c0,0,0.3-0.5,1.1-0.2c0.8,0.3,1.9,1.7,1.4,2.2 c-0.5,0.5-1.2,0.4-1.4,0.9c-0.2,0.5-0.9,1.7-1.9,2.1c0,0-0.5,1.2-1,0.9c-0.5-0.3,0-1.2-0.6-1.8c-0.6-0.6-2.4-0.4-2.9,0.3 c0,0,2-0.5,2.3,0.4c0.3,0.9,0.6,2.7-1.5,4.5c0,0,1.2-0.1,1.6-0.9c0.5-0.8,0.1,0.5,0.5,1c0.4,0.5,1.1,0.6,1.2,1.4 c0,0.8-0.4,0.9-0.4,1.7s-0.1,1.5,0.4,2.1c0.5,0.6,0.8,0.4,0.7,1.3c0,0.9-1.7,3-2.5,3.4c-0.8,0.4-4.4,0.4-6.3-2.3 c0,0-0.2-0.5,1.3-0.3C104.9,131.5,107.7,132,109.3,130.6 M103.8,130.4c0,0,0.6-0.4,2.1-0.5c1.5,0,2.4,0.5,2.4,0.5 S106.8,131.1,103.8,130.4 M103.2,116.8c0.6,0.4,0,1,0,1c-2.4,0.2-2.1,1.8-2.1,1.8c-1.8-1.6,0.6-4.2,0.6-4.2 C101.8,116.1,102.5,116.4,103.2,116.8 M103,115.7c0-0.3,0.2-0.5,0.5-0.5s0.5,0.2,0.5,0.5c0,0.3-0.2,0.5-0.5,0.5 S103,116,103,115.7 M109.2,115.4c0-0.3,0.2-0.5,0.5-0.5c0.3,0,0.5,0.2,0.5,0.5c0,0.3-0.2,0.5-0.5,0.5 C109.5,115.9,109.2,115.7,109.2,115.4 M102.7,110.5c2.1-0.3,3.8,0.2,3.8,0.2s2.3-1.5,4.6-1.4c2.4,0.2,4.7,0.6,4.5,2.8 c-0.2,2.2-1.1,3.1-1.1,3.1s-1.9-2.9-2.9-3c-1-0.1-1.7,1-2.7,1c-0.9,0-2.5-0.2-2.5-0.2s2.6,0.6,1.7,1.2c-0.9,0.6-2.6,0.3-2.6,0.3 s-1.9,0.2-2.8-1.5c0,0-1.1,2.2-2.8,2C100,115.1,100.7,110.9,102.7,110.5 M99.8,116.6c-0.2,3.6,1.3,3.8,1.3,3.8 c0,1.7-1.1,2.2-1.1,2.2C98.5,120.4,99.8,116.6,99.8,116.6 M102.5,128.5c1.4,0.4,0.7,1.3,0.7,1.3s0.1-0.3-1.6,0.4 c-1.7,0.7-4,0.5-4,0.5c0-0.5-0.4-1.4-0.4-1.4S101,128.1,102.5,128.5 M98.7,131.9l-1.8,2c0,0-2.8,2.6-1,0 C97.8,131.3,98.7,131.9,98.7,131.9 M85.3,128.9c0.7-1.1,1.9-2,4.8-2.4c2.9-0.4,4.5,1,5.6,3.4c1.1,2.5-0.4,3.2-0.4,3.2 s-0.3-1.1-1.9-2.5c-1.6-1.4-4.4-0.8-4.4-0.8c-1,0.3,3.3,1.8,4.2,2.9c0.9,1.2,0.5,2.3,0,2.8c-0.6,0.5-1.2-0.2-2.8-1.2 c-1.6-1-2.1-0.2-1.5,0.1c0.6,0.3,1.7,1.6,2.1,2.3c0.4,0.7,0.5,1.6-0.5,2c-1.1,0.4-4.4,0.2-5.9,0c-1.6-0.2-1.8-1.2-1.9-2.2 c-0.1-1,1.2-3.7,1.4-4.2C84.2,132.1,84.6,130,85.3,128.9 M76.3,159.2c-0.1,0-0.4,0-0.9-0.1c-1.3-0.3-1.2-1.5-1.2-2.4 c0-1,1.4-0.5-0.2-1.3c-1.7-0.8-0.4-4.3,0.1-6.2c0.6-2,2-4.8,2.5-5.5c0.5-0.7-0.2-0.4-1-0.5c-0.8-0.1-0.4-1.9-0.2-2.8 c0.2-0.8,0.5-1.2,0.1-1c-0.3,0.2-1,1.3-1,1.3c-0.1-1,0.7-2,0.9-2.3c0.2-0.3,2.2-3.3,2.5-4c0.4-0.7,0.5-1,1.4-2.1 c0.9-1.2,3.2-2.9,3.2-2.9c1-0.8,0.5,2.1,0.2,3.4c-0.3,1.3-1.8,2.2-1.8,4.2c-0.1,2,0.8,2.8,2.4,3.6c1.6,0.7,7.9,0,7.9,0 s0.1,2.8-0.9,2.6c-1-0.2-0.1,1.7-0.1,1.7s0.9,2.1-0.2,2c-1.1-0.2-0.4,1.1-0.4,1.1s2.9,5.9,2.7,8.7c-0.1,2.8-0.8,4.9-1.7,5.5 c-0.9,0.5-1.5-0.3-1.5-0.3c-1.8,6-4.8,7.2-5.8,6.9c-1.1-0.3-1.4-1.4-1.4-1.4c-3.2,0.8-3.9-0.8-4.8-1.4c-0.8-0.6-0.8-3.3-0.9-5.4 C76.3,159.8,76.3,159.5,76.3,159.2 M85.4,176.6c-1.3,0-8.4,0.2-6.4-2.5c2-2.7-2.4-0.6-1.9-6.9c0,0,1.4,1.6,4.6,1.1 c0,0,0.4,1.3,1.6,1.5c1.2,0.2,3.1-0.6,6.5-3.7c3.4-3.1,6.7-3.3,6.7-3.3s-5.1,7.5-5.5,11.8c0,0-0.3,1.9,0.3,2.6 C91.3,177.3,86.7,176.7,85.4,176.6 M96.4,177.7c-1,0.8-4.3,0.4-3.9-2.3c0.4-2.7,0.7-6.1,8.4-15c7.8-8.9,7.1-9,8.8-9.9 c0,0,0.6-1.4-3,1.5c0,0,0.1,0.7-1.4-0.8c-1.5-1.5-3.5-4.7,0-10.1c0,0,1.3,1.5,4.4,0.4c0,0,2.1,1.1,3.6-0.4c1.6-1.5,1.5-0.6,2-1 c0.5-0.4,0.9-0.7,1.4-2.5c0.5-1.8,1.2-1.6,2-2.1c0.7-0.6,1.2-2.8,2.7-3.4c1.6-0.6,2.1-2.7,2.4-4.1c0.3-1.4,0.4-2.8,1.7-3.6 c0,0,0.2,4.5,0.7,5.3c0.5,0.8-2.3,0.7-4.5,3.9c-2.2,3.2,0.1,0.9,1.8-0.5c1.6-1.3,2.8-1.4,2.8-1.4s1.2,0.4,0.7,2.3 c-0.5,1.8-1.7,3.7-1.4,5c0.3,1.4,1.4,2,1.1,2.9c-0.3,0.9-2.4,3.9-2.9,5.6c0,0-1.8,1.2-1.1,1.2c0.7-0.1,1.5,0,1,0.8 c-0.5,0.8-1.1,1.4-2,1.8c-0.8,0.4-1.2,0.7-2.3,1.9c-1.1,1.2-1,1.4-2.2,1.6c-1.2,0.2-1.9,0.7-4,1.5c-2.1,0.7-5,1.6-6.4,1.8 c-1.4,0.3-2.9,0.7-4,1.6c-1.1,0.8-4.9,4.6-5.3,7C96.9,169,97.4,176.9,96.4,177.7 M114.2,181.4c-0.4,0.9-2,1.5-2.8,1.7 c-0.8,0.2-5.6,1.1-8.1,0.7s-7-2.1-5.1-7.7c0,0,0.6,0.4,1.2,1.7c0.7,1.3,1,0,1.3,0.4c0.3,0.4,1.4,1.8,4.9,2.5 c3.5,0.7,5-0.9,6.1-0.7C112.9,180.1,114.6,180.5,114.2,181.4 M134.9,170.2c-0.3,0.7,0.2,2.7-4.8,3.5c0,0-0.8,0-0.8,0.7 c0.1,0.7-0.8,2.2-1.7,2.3c-1,0.1-4.5,0.8-9.6-5c0,0-2.5-1.7,1.9,3.3c0,0,1.1,1,0.3,0.7c-0.8-0.3-2.4-1.3-2.9-1.9 c-0.4-0.6-0.8,0.2-1.1-0.1c-0.3-0.4-1.8-1.9-2-3.2c-0.2-1.3-0.3,2.6,1.5,3.6c1.7,1,2.2,0.9,2.9,1.6c0.7,0.7,1.8,1.1,2.9,1.3 c1.1,0.2,1.7,0.4,0.9,0.7c-0.8,0.4-3,0.7-3.6,0.5c-0.7-0.2-0.6-0.2-0.6,0.2c0,0.4-1.9,0.7-2.8,0.6c-0.9-0.1-6.1-0.8-8.1-7.6 c0,0-0.5-0.7-0.2,0.9c0.4,1.6,0.2,1.5-0.4,1c-0.6-0.5-2-2.3-1.6-1.6c0.3,0.7,1.5,2.4,2.1,2.8c0.6,0.4,0.6,1.4,1.4,2.1 c0.8,0.7,1.6,1.3,1.3,2.1c-0.3,0.7-0.9,0.9-1.2,0.9s-1.5-0.4-2.5-0.3c-1,0-3.1-0.2-4.6-1.9c0,0-1.3,0.3-1.5-0.2 c-0.2-0.5-1.3-1.8-1.4-2.2c-0.1-0.4-1.1-6.7,1.4-9.6c2.5-3,2.6-4.5,6.2-5.3c3.6-0.8,7-1.8,8.9-2.7c1.9-0.8,2-1.4,6.1-2 c4.1-0.6,7.4-1.1,12.6-4c0,0-6.5,2.3-11.8,2.5c-5.3,0.3,4.8-1.6,4.7-3.9c-0.1-2.3-4.1,1.1-1.1-2.7c3-3.8,3-3.8,2.9-5.5 c-0.1-1.7-1.7-1.4-0.9-4s1.5-4.1,0.8-6.3c-0.6-2.2-1.8-4.8-0.9-10.7c0,0,0.4-3.6,4.1-3.7c3.7-0.2,4.3-0.2,4.4-1.2 c0,0,2.4-0.9,4.3,0.5c1.9,1.4,7.4,6.8,8.6,8.5c1.2,1.7,2.7,4.5,3.8,7.5c1.1,3.1,2.5,8,2.6,8.7c0.1,0.7,0.7,2.4,0.3,3.6 c-0.4,1.1-1.1,2.1-1.8,2.5c-0.7,0.4-1.8,1.5-2,2.1c-0.2,0.6-1,0.8-1-0.6c0-1.4-0.1-2.6,0.5-2.8c0.6-0.2,1.3-0.9,0.9-2.8 c-0.4-1.9-1.8-3.9-0.9-4.3c0.8-0.4,1.9-2.9,0.2-6.3c-1.7-3.4-3.6-4.5-3.6-4.5s0.5-2-1.2-3.4c-1.7-1.4-7-1.7-6-1.2 c1,0.5,4.9,1.2,5.2,2.6c0.3,1.3,0,1.8-0.4,1.7c-0.4-0.1-1.2-1.5-1.2-1.5s-0.9-0.8-2.7-0.5c-1.8,0.3,2.6,0.7,2,1s-2.3,0.1-0.9,1 c1.4,0.9,2.9,0.9,2.9,0.9s3.4,2,4.3,4.1c0.9,2.1,0.5,2.2,0,1.5c-0.5-0.7-2.6-2.9-5-3.2c-2.4-0.3,3.4,1.9,4.5,4.6 c1.1,2.7,0.1,2.5,0.1,2.5s-0.8,0.2-0.3,1.6c0.6,1.4,1.8,3.8,1.4,4c0,0-1.8-0.3-1.6,0.9c0.1,1.1,1.3,10.7,0.5,9.9 c-0.8-0.8-3.8-3-5.9-2.3c-2.1,0.7,3.3-0.3,4.2,2.8c0.9,3.1-0.5,1.8-0.5,1.8s0.9,5.7-0.2,6.3c-1.1,0.6-1.8,0.3-1.7,0.8 c0.1,0.6,0,3.4-1.4,3.3c-1.4-0.1-1.2-0.4-2.1-1.9c-0.9-1.5-2.1-2.9-2.6-3.2c-0.5-0.3-0.6-0.7-0.3-0.9c0.4-0.2,0.4-0.9-0.2-1.6 c-0.6-0.7-4.1-2-2.5-1c1.7,1,2.6,2.3,2.2,2.3c-0.4,0-2-0.2-1,0.6c1,0.7,3,3,3.4,4.3c0.4,1.3-1.8-1.6-3.8-2.1 c-2-0.5-0.6,0.2,1,1.4c1.6,1.3,2.5,2.5,1.8,2.6c-0.7,0.1-1.5,0.2-0.7,0.8c0.8,0.6,1,1.4,0,1.5C138.7,170,135.2,169.5,134.9,170.2 M155.3,162.4c-1.8,5.3-2.8,9.2-10.3,10.3c-7.5,1.2-9.2,0.5-9.2,0.5s0.8,0.1,1-1.3c0,0,5.4,0.1,5.3-2.8c0,0,1.1,0.1,1.3-1 c0,0,3.4,0.5,4-2.5c0,0,2.4-1,2.5-7.5c0,0,0.3-0.5,0.3-2.4c0,0,0.8-0.7,1.8-3.9c1-3.3,2.4-3,2.4-3S157.1,157.1,155.3,162.4"></path> <path style="clip-path:url(#SVGID_00000183933468443535927650000014858452726463164556_);fill:none;stroke:#1E1E1C;stroke-width:0.1195;stroke-miterlimit:10;" d=" M157.2,153.7c-0.2-1.1-0.9-6.4-0.9-6.4s1-2.1,0.9-3.8c-0.1-1.7-0.7-4.3-0.7-4.3l-1.7-5.4c0,0-2.1-5.5-2.7-6.6 c-0.6-1-2.1-3.4-2.1-3.4l-4.8-5c0,0-3.1-3.3-4.6-3.8c-1.5-0.5-3.7-0.7-3.7-0.7c-0.2-1.5-1.4-3.3-2.5-4.1c-1-0.8-1.4-1.4-2.6-3 c-1.2-1.6-1.3-2.2-1.6-2.8c-0.2-0.6-1.1-2.6-2.6-4.2c-1.4-1.6-3.3-2.2-5.4-2.8c-2.1-0.5-5.2-0.5-7.4-0.3 c-2.2,0.2-3.4,1.3-5.3,3.4c-1.9,2-2.2,1.4-4,3.3c-1.8,1.8-3.4,5.3-3.4,5.3c-2.3,0.5-3.4,3.9-3.4,4.3c0,0.5-0.8,2.7-0.7,5.4 c0.1,2.7,1.1,4.9,1.1,4.9c-1,1-1.4,4.4-1.4,4.4h-0.8c-1.4-2.6-4.2-3.6-6.8-3.4c-2.6,0.2-5.1,2.2-5.1,2.2 c-2.2,0.2-5.2,3.1-6.1,3.9c-0.8,0.8-5.2,6.9-6.3,9.5c-1.1,2.6,1.4,4.8,1.4,4.8s-1.3,2.8-2.6,6.4c-1.3,3.7,0.7,5.3,0.7,5.3 c0.2,4.3,2.6,4.3,2.6,4.3c0.4,4,1.3,4.8,1.3,4.8s-1,1.4-0.6,3.8c0.4,2.3,1.9,3.9,1.9,3.9c-0.4,1.3-0.2,2.6,0.8,3.9 c1,1.3,5,1,7.8,1.1c2.8,0.1,6.6,0.8,7.9,1.3c1.3,0.5,3.1,0.7,3.1,0.7c2.2,3.9,7.3,4.9,11,4.9c3.6,0,6.7-1.8,7.5-2.5 c0.8-0.7,0.6-2.6,0.6-2.6c2.5,0.3,3.3-1.1,3.3-1.1c3-0.1,4.2-1.6,4.2-1.6l1.9,0.4c2.2,0.5,6.8-1.3,6.8-1.3l-0.6-0.5 c-1-0.8,0.3-1.3,0.3-1.3c15.3,1,20.1-2.5,23.2-6.9C158.1,163.6,157.4,154.8,157.2,153.7z M105.8,106.2c0,0,0.7-1.4,1-1.7 c0.4-0.3,2.1-1.3,2.6-1.9c0.5-0.5,2.6-3.1,3.9-3.6c1.3-0.5,4-0.5,6-0.4c2,0.1,4.5,1.1,5.8,2.2c1.3,1.1,2.6,2.7,3.7,5.4 c1.1,2.7,3.7,4.8,4.1,5.1c0.4,0.3,2.2,2.5,2.3,3.2c0.1,0.7,0.3,1.8-0.5,1.7c-0.8-0.1-4.4,0.3-5.7,1.4c-1.3,1.1-3,3.9-3,3.9 s-1.1,1.5-1.3,0c-0.2-1.5-0.7-2.8-0.7-2.8s0.8-0.7,1-1.1c0.2-0.4,0.7-2.3,0.5-3.3c-0.2-1-0.8-2.8-2.1-3.1 c-1.3-0.2-1.7,1.1-1.7,2.2c-0.1,1.1,0.1,2.3,0.1,2.3s1,3.8,1.2,5.2c0.2,1.4,0.1,2-0.6,2.4c0,0-0.1,4.3-0.4,5.1 c-0.3,0.8-1,1.7-1.2,1.9c-0.2,0.2-1.4,1.9-1.2,1.9c0.2,0.1-1,1.9-1.6,2.1c0,0,0.1-5.1-3.4-8.6c-3.5-3.6-3-1.6-3.3-3.1 c-0.2-1.6-0.4-1.9-0.4-1.9s1.8-1.4,2.1-2.1c0,0,1.8-0.5,2.9-3c1.1-2.5,1.3-5.5-0.4-6.7c-1.7-1.1-5.4-1.6-8.4,0.2 c0,0-1.4-0.7-2.5-0.6L105.8,106.2z M123.5,117.1c-0.5-0.1-1-0.8-0.6-4.4c0,0,1-0.4,1,0.6c0,1,0.3,1.5,0.2,2 C123.9,115.9,123.9,117.2,123.5,117.1z M114.6,130.8c0,0,0.1,1.4-0.2,1.4c-0.3,0-1.3-0.4-1.4-0.6c0,0-0.1,0.7,0.6,1.5 c0.7,0.8,1.5,2.5,1.3,3.5c-0.2,1-0.5,1.7-1.1,1.9c-0.6,0.2-0.9,0.1-1.3,0.6c-0.4,0.5-1,1.1-2,0l-0.5-0.6c0,0-0.9,1.7-2.4,1.7 c-1.5,0-2.9-1.4-3.3-3.9c0,0-0.4,0.8-1.1,0.2c0,0,0.7,0.8,1.2,2.2c0.5,1.4-0.5,0.5-0.5,0.5s-2.4-0.9-3-6.4c0,0,0-0.4,0.7,0.1 c0.6,0.5,2.5,2.6,5.1,2.2s2.9-1.2,3.3-1.6c0.4-0.4,1.8-1.4,1.7-3c-0.1-1.6-1.8-1.8-1.3-2.8c0.5-1,1.1-2.1,0.1-3.1 c-1-1-1.8-1.4-0.7-2.9c0,0,0.6,0.9,0.7,1.6c0.1,0.7,2.2,1,3.9,3.6c1.7,2.7,1.9,7.4,1.7,8.1c-0.1,0.7-0.9,0-0.9,0 s-0.8-1.4-0.5-1.9C115,132.5,115.2,131.2,114.6,130.8z M100.3,153.8c0,0-0.6,3-1.4,3.9c-0.9,0.9-1.2-0.7-1.2-0.7 c-1.1,5-4.4,4.7-4.4,4.7s1.1-3.3,1.2-6.2c0-2.9-1.8-5-1.8-5c0,0-1.9-3-1-3.2c1-0.2,0.1-2.4,0.1-2.4s-0.6-1.5,0-1.5 c0.6-0.1,0.6-2.1,0.6-2.6c0-0.6,0.5-0.5,0.5-0.5c3.8-2.7,6.9-7,6.9-7c0.5,5.3,2.3,6.7,2.8,7c0.5,0.4,1.2,0.2,1.1,0.8 c-0.1,0.6-1.8,1.7-1.9,5.5c-0.1,3.8,2.4,5.8,2.9,6.1c0.5,0.3,0.2,0.8,0.2,0.8c-3.9,6.9-6.6,7-6.6,7 C102,156.8,100.3,153.8,100.3,153.8z M109.3,130.6l0.5-0.3c0,0-0.4-1.2-2-1.3c-1.6-0.1-3.2-0.1-5-1.4s-3.1-0.6-3.1-0.6 s-0.3-1.8,1.4-3.5c1.7-1.6,1.2-3.7,1.2-3.7s-0.1-1.2,1.2-1.1c1.2,0.1,1.2,1.1,1.2,1.1s0.8-0.9,0-1.6c-0.8-0.7-0.2-0.9-0.2-0.9 s0.8-1.2,0.8-1.7c0,0,1.8,0.6,2.6,0.2c0.9-0.4,0.5,0.5,0.5,0.5s0.4,0.9,1.2,0.9c0.8,0.1,1.6-0.4,1.6-0.4s-1.5,0-1.1-0.3 c0.4-0.3,1.3-0.6,1.1-2.1c0,0,0.3-0.5,1.1-0.2c0.8,0.3,1.9,1.7,1.4,2.2c-0.5,0.5-1.2,0.4-1.4,0.9c-0.2,0.5-0.9,1.7-1.9,2.1 c0,0-0.5,1.2-1,0.9c-0.5-0.3,0-1.2-0.6-1.8c-0.6-0.6-2.4-0.4-2.9,0.3c0,0,2-0.5,2.3,0.4c0.3,0.9,0.6,2.7-1.5,4.5 c0,0,1.2-0.1,1.6-0.9c0.5-0.8,0.1,0.5,0.5,1c0.4,0.5,1.1,0.6,1.2,1.4c0,0.8-0.4,0.9-0.4,1.7s-0.1,1.5,0.4,2.1 c0.5,0.6,0.8,0.4,0.7,1.3c0,0.9-1.7,3-2.5,3.4c-0.8,0.4-4.4,0.4-6.3-2.3c0,0-0.2-0.5,1.3-0.3C104.9,131.5,107.7,132,109.3,130.6z M103.8,130.4c0,0,0.6-0.4,2.1-0.5c1.5,0,2.4,0.5,2.4,0.5S106.8,131.1,103.8,130.4z M103.2,116.8c0.6,0.4,0,1,0,1 c-2.4,0.2-2.1,1.8-2.1,1.8c-1.8-1.6,0.6-4.2,0.6-4.2C101.8,116.1,102.5,116.4,103.2,116.8z M103,115.7c0-0.3,0.2-0.5,0.5-0.5 s0.5,0.2,0.5,0.5c0,0.3-0.2,0.5-0.5,0.5S103,116,103,115.7z M109.2,115.4c0-0.3,0.2-0.5,0.5-0.5c0.3,0,0.5,0.2,0.5,0.5 c0,0.3-0.2,0.5-0.5,0.5C109.5,115.9,109.2,115.7,109.2,115.4z M102.7,110.5c2.1-0.3,3.8,0.2,3.8,0.2s2.3-1.5,4.6-1.4 c2.4,0.2,4.7,0.6,4.5,2.8c-0.2,2.2-1.1,3.1-1.1,3.1s-1.9-2.9-2.9-3c-1-0.1-1.7,1-2.7,1c-0.9,0-2.5-0.2-2.5-0.2s2.6,0.6,1.7,1.2 c-0.9,0.6-2.6,0.3-2.6,0.3s-1.9,0.2-2.8-1.5c0,0-1.1,2.2-2.8,2C100,115.1,100.7,110.9,102.7,110.5z M99.8,116.6 c-0.2,3.6,1.3,3.8,1.3,3.8c0,1.7-1.1,2.2-1.1,2.2C98.5,120.4,99.8,116.6,99.8,116.6z M102.5,128.5c1.4,0.4,0.7,1.3,0.7,1.3 s0.1-0.3-1.6,0.4c-1.7,0.7-4,0.5-4,0.5c0-0.5-0.4-1.4-0.4-1.4S101,128.1,102.5,128.5z M98.7,131.9l-1.8,2c0,0-2.8,2.6-1,0 C97.8,131.3,98.7,131.9,98.7,131.9z M85.3,128.9c0.7-1.1,1.9-2,4.8-2.4c2.9-0.4,4.5,1,5.6,3.4c1.1,2.5-0.4,3.2-0.4,3.2 s-0.3-1.1-1.9-2.5c-1.6-1.4-4.4-0.8-4.4-0.8c-1,0.3,3.3,1.8,4.2,2.9c0.9,1.2,0.5,2.3,0,2.8c-0.6,0.5-1.2-0.2-2.8-1.2 c-1.6-1-2.1-0.2-1.5,0.1c0.6,0.3,1.7,1.6,2.1,2.3c0.4,0.7,0.5,1.6-0.5,2c-1.1,0.4-4.4,0.2-5.9,0c-1.6-0.2-1.8-1.2-1.9-2.2 c-0.1-1,1.2-3.7,1.4-4.2C84.2,132.1,84.6,130,85.3,128.9z M76.3,159.2c-0.1,0-0.4,0-0.9-0.1c-1.3-0.3-1.2-1.5-1.2-2.4 c0-1,1.4-0.5-0.2-1.3c-1.7-0.8-0.4-4.3,0.1-6.2c0.6-2,2-4.8,2.5-5.5c0.5-0.7-0.2-0.4-1-0.5c-0.8-0.1-0.4-1.9-0.2-2.8 c0.2-0.8,0.5-1.2,0.1-1c-0.3,0.2-1,1.3-1,1.3c-0.1-1,0.7-2,0.9-2.3c0.2-0.3,2.2-3.3,2.5-4c0.4-0.7,0.5-1,1.4-2.1 c0.9-1.2,3.2-2.9,3.2-2.9c1-0.8,0.5,2.1,0.2,3.4c-0.3,1.3-1.8,2.2-1.8,4.2c-0.1,2,0.8,2.8,2.4,3.6c1.6,0.7,7.9,0,7.9,0 s0.1,2.8-0.9,2.6c-1-0.2-0.1,1.7-0.1,1.7s0.9,2.1-0.2,2c-1.1-0.2-0.4,1.1-0.4,1.1s2.9,5.9,2.7,8.7c-0.1,2.8-0.8,4.9-1.7,5.5 c-0.9,0.5-1.5-0.3-1.5-0.3c-1.8,6-4.8,7.2-5.8,6.9c-1.1-0.3-1.4-1.4-1.4-1.4c-3.2,0.8-3.9-0.8-4.8-1.4c-0.8-0.6-0.8-3.3-0.9-5.4 C76.3,159.8,76.3,159.5,76.3,159.2z M85.4,176.6c-1.3,0-8.4,0.2-6.4-2.5c2-2.7-2.4-0.6-1.9-6.9c0,0,1.4,1.6,4.6,1.1 c0,0,0.4,1.3,1.6,1.5c1.2,0.2,3.1-0.6,6.5-3.7c3.4-3.1,6.7-3.3,6.7-3.3s-5.1,7.5-5.5,11.8c0,0-0.3,1.9,0.3,2.6 C91.3,177.3,86.7,176.7,85.4,176.6z M96.4,177.7c-1,0.8-4.3,0.4-3.9-2.3c0.4-2.7,0.7-6.1,8.4-15c7.8-8.9,7.1-9,8.8-9.9 c0,0,0.6-1.4-3,1.5c0,0,0.1,0.7-1.4-0.8c-1.5-1.5-3.5-4.7,0-10.1c0,0,1.3,1.5,4.4,0.4c0,0,2.1,1.1,3.6-0.4c1.6-1.5,1.5-0.6,2-1 c0.5-0.4,0.9-0.7,1.4-2.5c0.5-1.8,1.2-1.6,2-2.1c0.7-0.6,1.2-2.8,2.7-3.4c1.6-0.6,2.1-2.7,2.4-4.1c0.3-1.4,0.4-2.8,1.7-3.6 c0,0,0.2,4.5,0.7,5.3c0.5,0.8-2.3,0.7-4.5,3.9c-2.2,3.2,0.1,0.9,1.8-0.5c1.6-1.3,2.8-1.4,2.8-1.4s1.2,0.4,0.7,2.3 c-0.5,1.8-1.7,3.7-1.4,5c0.3,1.4,1.4,2,1.1,2.9c-0.3,0.9-2.4,3.9-2.9,5.6c0,0-1.8,1.2-1.1,1.2c0.7-0.1,1.5,0,1,0.8 c-0.5,0.8-1.1,1.4-2,1.8c-0.8,0.4-1.2,0.7-2.3,1.9c-1.1,1.2-1,1.4-2.2,1.6c-1.2,0.2-1.9,0.7-4,1.5c-2.1,0.7-5,1.6-6.4,1.8 c-1.4,0.3-2.9,0.7-4,1.6c-1.1,0.8-4.9,4.6-5.3,7C96.9,169,97.4,176.9,96.4,177.7z M114.2,181.4c-0.4,0.9-2,1.5-2.8,1.7 c-0.8,0.2-5.6,1.1-8.1,0.7s-7-2.1-5.1-7.7c0,0,0.6,0.4,1.2,1.7c0.7,1.3,1,0,1.3,0.4c0.3,0.4,1.4,1.8,4.9,2.5 c3.5,0.7,5-0.9,6.1-0.7C112.9,180.1,114.6,180.5,114.2,181.4z M134.9,170.2c-0.3,0.7,0.2,2.7-4.8,3.5c0,0-0.8,0-0.8,0.7 c0.1,0.7-0.8,2.2-1.7,2.3c-1,0.1-4.5,0.8-9.6-5c0,0-2.5-1.7,1.9,3.3c0,0,1.1,1,0.3,0.7c-0.8-0.3-2.4-1.3-2.9-1.9 c-0.4-0.6-0.8,0.2-1.1-0.1c-0.3-0.4-1.8-1.9-2-3.2c-0.2-1.3-0.3,2.6,1.5,3.6c1.7,1,2.2,0.9,2.9,1.6c0.7,0.7,1.8,1.1,2.9,1.3 c1.1,0.2,1.7,0.4,0.9,0.7c-0.8,0.4-3,0.7-3.6,0.5c-0.7-0.2-0.6-0.2-0.6,0.2c0,0.4-1.9,0.7-2.8,0.6c-0.9-0.1-6.1-0.8-8.1-7.6 c0,0-0.5-0.7-0.2,0.9c0.4,1.6,0.2,1.5-0.4,1c-0.6-0.5-2-2.3-1.6-1.6c0.3,0.7,1.5,2.4,2.1,2.8c0.6,0.4,0.6,1.4,1.4,2.1 c0.8,0.7,1.6,1.3,1.3,2.1c-0.3,0.7-0.9,0.9-1.2,0.9s-1.5-0.4-2.5-0.3c-1,0-3.1-0.2-4.6-1.9c0,0-1.3,0.3-1.5-0.2 c-0.2-0.5-1.3-1.8-1.4-2.2c-0.1-0.4-1.1-6.7,1.4-9.6c2.5-3,2.6-4.5,6.2-5.3c3.6-0.8,7-1.8,8.9-2.7c1.9-0.8,2-1.4,6.1-2 c4.1-0.6,7.4-1.1,12.6-4c0,0-6.5,2.3-11.8,2.5c-5.3,0.3,4.8-1.6,4.7-3.9c-0.1-2.3-4.1,1.1-1.1-2.7c3-3.8,3-3.8,2.9-5.5 c-0.1-1.7-1.7-1.4-0.9-4s1.5-4.1,0.8-6.3c-0.6-2.2-1.8-4.8-0.9-10.7c0,0,0.4-3.6,4.1-3.7c3.7-0.2,4.3-0.2,4.4-1.2 c0,0,2.4-0.9,4.3,0.5c1.9,1.4,7.4,6.8,8.6,8.5c1.2,1.7,2.7,4.5,3.8,7.5c1.1,3.1,2.5,8,2.6,8.7c0.1,0.7,0.7,2.4,0.3,3.6 c-0.4,1.1-1.1,2.1-1.8,2.5c-0.7,0.4-1.8,1.5-2,2.1c-0.2,0.6-1,0.8-1-0.6c0-1.4-0.1-2.6,0.5-2.8c0.6-0.2,1.3-0.9,0.9-2.8 c-0.4-1.9-1.8-3.9-0.9-4.3c0.8-0.4,1.9-2.9,0.2-6.3c-1.7-3.4-3.6-4.5-3.6-4.5s0.5-2-1.2-3.4c-1.7-1.4-7-1.7-6-1.2 c1,0.5,4.9,1.2,5.2,2.6c0.3,1.3,0,1.8-0.4,1.7c-0.4-0.1-1.2-1.5-1.2-1.5s-0.9-0.8-2.7-0.5c-1.8,0.3,2.6,0.7,2,1s-2.3,0.1-0.9,1 c1.4,0.9,2.9,0.9,2.9,0.9s3.4,2,4.3,4.1c0.9,2.1,0.5,2.2,0,1.5c-0.5-0.7-2.6-2.9-5-3.2c-2.4-0.3,3.4,1.9,4.5,4.6 c1.1,2.7,0.1,2.5,0.1,2.5s-0.8,0.2-0.3,1.6c0.6,1.4,1.8,3.8,1.4,4c0,0-1.8-0.3-1.6,0.9c0.1,1.1,1.3,10.7,0.5,9.9 c-0.8-0.8-3.8-3-5.9-2.3c-2.1,0.7,3.3-0.3,4.2,2.8c0.9,3.1-0.5,1.8-0.5,1.8s0.9,5.7-0.2,6.3c-1.1,0.6-1.8,0.3-1.7,0.8 c0.1,0.6,0,3.4-1.4,3.3c-1.4-0.1-1.2-0.4-2.1-1.9c-0.9-1.5-2.1-2.9-2.6-3.2c-0.5-0.3-0.6-0.7-0.3-0.9c0.4-0.2,0.4-0.9-0.2-1.6 c-0.6-0.7-4.1-2-2.5-1c1.7,1,2.6,2.3,2.2,2.3c-0.4,0-2-0.2-1,0.6c1,0.7,3,3,3.4,4.3c0.4,1.3-1.8-1.6-3.8-2.1 c-2-0.5-0.6,0.2,1,1.4c1.6,1.3,2.5,2.5,1.8,2.6c-0.7,0.1-1.5,0.2-0.7,0.8c0.8,0.6,1,1.4,0,1.5C138.7,170,135.2,169.5,134.9,170.2 z M155.3,162.4c-1.8,5.3-2.8,9.2-10.3,10.3c-7.5,1.2-9.2,0.5-9.2,0.5s0.8,0.1,1-1.3c0,0,5.4,0.1,5.3-2.8c0,0,1.1,0.1,1.3-1 c0,0,3.4,0.5,4-2.5c0,0,2.4-1,2.5-7.5c0,0,0.3-0.5,0.3-2.4c0,0,0.8-0.7,1.8-3.9c1-3.3,2.4-3,2.4-3S157.1,157.1,155.3,162.4z"></path> <polygon style="clip-path:url(#SVGID_00000183933468443535927650000014858452726463164556_);fill:#1E1E1C;" points="83.2,220.7 73,186.4 81.5,186.4 87.6,209.8 93.8,186.4 101.5,186.4 91.3,220.7 91.3,237.7 83.2,237.7 "></polygon> <polygon style="clip-path:url(#SVGID_00000183933468443535927650000014858452726463164556_);fill:#1E1E1C;" points="112.7,208 123.8,208 123.8,215.4 112.7,215.4 112.7,230.4 126.7,230.4 126.7,237.7 104.7,237.7 104.7,186.4 126.7,186.4 126.7,193.7 112.7,193.7 "></polygon> <path style="clip-path:url(#SVGID_00000183933468443535927650000014858452726463164556_);fill:#1E1E1C;" d="M142.5,185.8 c7.8,0,11.9,4.7,11.9,12.9v1.6h-7.6v-2.1c0-3.7-1.5-5.1-4-5.1s-4,1.4-4,5.1c0,10.6,15.8,12.5,15.8,27.2c0,8.2-4.1,12.9-12,12.9 s-12-4.7-12-12.9v-3.2h7.6v3.7c0,3.7,1.6,5,4.2,5c2.6,0,4.2-1.3,4.2-5c0-10.6-15.8-12.5-15.8-27.2 C130.6,190.5,134.6,185.8,142.5,185.8"></path> <path style="clip-path:url(#SVGID_00000183933468443535927650000014858452726463164556_);fill:#1E1E1C;" d="M91.2,262.3v3.8 c0,4.6-2.3,7.3-6.8,7.3s-6.8-2.6-6.8-7.3V251c0-4.6,2.3-7.3,6.8-7.3s6.8,2.6,6.8,7.3v2.8h-4.3v-3.1c0-2.1-0.9-2.9-2.4-2.9 c-1.4,0-2.4,0.8-2.4,2.9v15.6c0,2.1,0.9,2.8,2.4,2.8c1.4,0,2.4-0.7,2.4-2.8v-4.1H91.2z"></path> <polygon style="clip-path:url(#SVGID_00000183933468443535927650000014858452726463164556_);fill:#1E1E1C;" points="98.5,273 93.9,273 93.9,244.1 98.5,244.1 98.5,256.5 103.6,256.5 103.6,244.1 108.3,244.1 108.3,273 103.6,273 103.6,260.6 98.5,260.6 "></polygon> <polygon style="clip-path:url(#SVGID_00000183933468443535927650000014858452726463164556_);fill:#1E1E1C;" points="116.1,256.3 122.4,256.3 122.4,260.4 116.1,260.4 116.1,268.9 124,268.9 124,273 111.6,273 111.6,244.1 124,244.1 124,248.2 116.1,248.2 "></polygon> <path style="clip-path:url(#SVGID_00000183933468443535927650000014858452726463164556_);fill:#1E1E1C;" d="M132.9,243.8 c4.4,0,6.7,2.6,6.7,7.3v0.9h-4.3v-1.2c0-2.1-0.8-2.9-2.3-2.9c-1.4,0-2.3,0.8-2.3,2.9c0,6,8.9,7.1,8.9,15.3c0,4.6-2.3,7.3-6.8,7.3 c-4.5,0-6.8-2.6-6.8-7.3v-1.8h4.3v2.1c0,2.1,0.9,2.8,2.4,2.8c1.4,0,2.4-0.7,2.4-2.8c0-6-8.9-7.1-8.9-15.3 C126.2,246.4,128.5,243.8,132.9,243.8"></path> <path style="clip-path:url(#SVGID_00000183933468443535927650000014858452726463164556_);fill:#1E1E1C;" d="M148.4,243.8 c4.4,0,6.7,2.6,6.7,7.3v0.9h-4.3v-1.2c0-2.1-0.8-2.9-2.3-2.9c-1.4,0-2.3,0.8-2.3,2.9c0,6,8.9,7.1,8.9,15.3c0,4.6-2.3,7.3-6.8,7.3 s-6.8-2.6-6.8-7.3v-1.8h4.3v2.1c0,2.1,0.9,2.8,2.4,2.8c1.4,0,2.4-0.7,2.4-2.8c0-6-8.9-7.1-8.9-15.3 C141.7,246.4,144,243.8,148.4,243.8"></path> <path style="clip-path:url(#SVGID_00000183933468443535927650000014858452726463164556_);fill:#1E1E1C;" d="M111.4,104.9 c0,0,2.4-2.9,4.6-2.9c2.2-0.1,2.6,0.6,2.6,1.6c0,0,2.7,0,2.8,1.4c0,0-1.3-1-4.8-0.4c0,0,1.5-1,0.9-1.4 C117,102.7,115.6,102.9,111.4,104.9"></path> <path style="clip-path:url(#SVGID_00000183933468443535927650000014858452726463164556_);fill:#1E1E1C;" d="M122.9,107.2 c0,0,2.4,0,3.3,1.1c0.9,1.1,0.1,2,0.1,2s1.2,0.7,1.7,2.8c0.4,2-0.7,3.1-0.7,3.1s1.2-3.3-3.3-6.9c0,0,1.9,0.5,1.6,0 C125.2,108.7,124.5,107.6,122.9,107.2"></path> <path style="clip-path:url(#SVGID_00000183933468443535927650000014858452726463164556_);fill:#1E1E1C;" d="M118.7,113.4 c0,0,1.4,2.7,0.5,2.2c-0.9-0.5-0.3,1.5,0.3,2c0.6,0.5,1.6,1.6,1.8,3.3c0,0,0.3-1.8-0.6-3.6c-0.9-1.8,0-1.3,0-1.3 S121.1,114,118.7,113.4"></path> <path style="clip-path:url(#SVGID_00000183933468443535927650000014858452726463164556_);fill:#1E1E1C;" d="M83.3,172.4 c0,0,0,2.5,1.2,2.4c1.2-0.1,1.7-1.5,1.7-1.5s0.3,1.3,1.6,1.2c1.3-0.1,2.2-2.8,2.2-4.9c0,0-1.2,3.9-2.1,3.9c-0.9,0-1.7-2-1.7-2 s-0.8,2.3-1.5,2.2C83.8,173.7,83.3,172.4,83.3,172.4"></path> <path style="clip-path:url(#SVGID_00000183933468443535927650000014858452726463164556_);fill:#1E1E1C;" d="M80.6,160.8 c0,0,0.4,5.6,2,5.4c1.6-0.2,1.4-1.3,1.4-1.3s0.5,1,1.2,0.7c0.7-0.3,3-2,2.8-8.1c0,0-1.2,5.4-2,6.1c-0.8,0.8-1.9,0-1.9-0.3 c-0.1-0.4-0.4,2-1.3,1.8C82,164.8,80.6,160.8,80.6,160.8"></path> <path style="clip-path:url(#SVGID_00000183933468443535927650000014858452726463164556_);fill:#1E1E1C;" d="M76,149.9 c0,0-1.9,2.9-1,4.8c0.9,1.8,1.5,0,1.5,0s-0.2,4.9,2.3,6.7c0,0-2.1-1.6-1.5-8.6c0,0-1.9,3.2-1.8,1C75.4,151.4,76,149.9,76,149.9"></path> <path style="clip-path:url(#SVGID_00000183933468443535927650000014858452726463164556_);fill:#1E1E1C;" d="M86,144.8 c0,0,2.6,0.8,3.2,3.2c0.6,2.4-0.4,1.9-0.4,1.9s1.2,1.6,1.3,3.2c0.1,1.7-0.5,3.2-0.5,3.2s1.5-3-2.9-7.6c0,0,1.5,0.9,1.9,0.3 C89.1,148.3,88.3,145.8,86,144.8"></path> <path style="clip-path:url(#SVGID_00000183933468443535927650000014858452726463164556_);fill:#1E1E1C;" d="M106.6,149.2 c0,0.2-0.2,0.4-0.4,0.4c-0.2,0-0.4-0.2-0.4-0.4c0-0.2,0.2-0.4,0.4-0.4C106.4,148.7,106.6,148.9,106.6,149.2"></path> <path style="clip-path:url(#SVGID_00000183933468443535927650000014858452726463164556_);fill:#1E1E1C;" d="M121,145 c0,0.1-0.4,0.2-0.9,0.2c-0.5,0-0.9-0.1-0.9-0.2c0-0.1,0.4-0.2,0.9-0.2C120.6,144.8,121,144.9,121,145"></path> <path style="clip-path:url(#SVGID_00000183933468443535927650000014858452726463164556_);fill:#1E1E1C;" d="M114.2,142.3 c0,0-2.5,2.4-2.5,5.3c-0.1,2.8,1.8,2.4,1.8,2.4s6.2-1.2,7.5-0.9c0,0-0.8-0.7-5.2,0C111.4,149.6,112,147.4,114.2,142.3"></path> <path style="clip-path:url(#SVGID_00000183933468443535927650000014858452726463164556_);fill:#1E1E1C;" d="M101,170.7 c0,0-1.4,4.8,0.6,5.3c2,0.6-0.3-2.5,1.7-0.4c1.9,2,4.1,1.4,4.1,1.4s-3.7-0.5-4.4-3.3C102.1,170.9,100.8,178.2,101,170.7"></path> <path style="clip-path:url(#SVGID_00000183933468443535927650000014858452726463164556_);fill:#1E1E1C;" d="M109.9,174.1 c0,0,0.7,2.1,2.6,2.1c1.8-0.1-0.4-2.1,1.2-1c1.6,1.2,2.5,1.1,3.7,1c1.2-0.2-3.3,0.1-4.3-2.3C112.2,171.5,113.9,178.8,109.9,174.1 "></path> <path style="clip-path:url(#SVGID_00000183933468443535927650000014858452726463164556_);fill:#1E1E1C;" d="M120.9,169.6 c0,0,1.4,4,3,3.7c1.6-0.3-1.8-0.9,1.6-0.5c3.4,0.3,4.3-1.6,4.3-1.6s-1.7,2-5.1,0.8c0,0-0.9-0.5-0.8-0.1 C124,172.2,123.4,173.3,120.9,169.6"></path> <path style="clip-path:url(#SVGID_00000183933468443535927650000014858452726463164556_);fill:#1E1E1C;" d="M127.4,167.7 c0,0,1.4,2.9,4.5,2.7c3.1-0.2,1.4-2.8,1.4-2.8s2.3,0.3,2.3-0.4c0-0.7-0.3-3.2-4.1-4c0,0,3.3,1.8,2.8,3.1 c-0.5,1.3-2.5,0.1-2.5,0.1s1.2,1.8,1,2.6C132.6,169.8,131,170.1,127.4,167.7"></path> <path style="clip-path:url(#SVGID_00000183933468443535927650000014858452726463164556_);fill:#1E1E1C;" d="M143.1,156.8 c0,0,2.7,1.6,2.5,3.4c-0.1,1.8-1.8,0.7-1.8,0.7s1.3,3.8-1.2,3.8c0,0,2.3-1.8-0.3-5.1c0,0,2.4,1.3,2.4,0.6 C144.8,159.5,145.2,159,143.1,156.8"></path> <path style="clip-path:url(#SVGID_00000183933468443535927650000014858452726463164556_);fill:#1E1E1C;" d="M145.2,144.2 c0,0,2,1,1.9,2.4c0,1.4-3.6,0.7-3.6,0.7s2.9,0.4,3.7,1.9c0.9,1.5,1.2,2.5,1.2,2.5s1-1.2-1-3.7c0,0,0.7-0.2,0.7-1.1 C148.1,145.9,146.6,144.6,145.2,144.2"></path> <path style="clip-path:url(#SVGID_00000183933468443535927650000014858452726463164556_);fill:#1E1E1C;" d="M145.8,135.6 c0,0,2.3,1.6,2.1,2.4c-0.1,0.8-1.5,0.5-1.5,0.5s1.2,2.6,1,3.9c0,0,0.9-0.7,0.4-2.9C147.7,139.5,151.4,138.5,145.8,135.6"></path> <path style="clip-path:url(#SVGID_00000183933468443535927650000014858452726463164556_);fill:#1E1E1C;" d="M128.7,145.7 c0,0-0.2,2.8,1.1,3.7c1.3,0.8,1.5,0,1.5,0s2.7,2.1,4.8,1.2c0,0-3.6-0.6-4.8-2.6C131.2,147.9,130,150.7,128.7,145.7"></path> <path style="clip-path:url(#SVGID_00000183933468443535927650000014858452726463164556_);fill:#1E1E1C;" d="M105.1,120.8 c-0.6,0-1,0.6-1,1.3c0,0.2,0,0.4,0.1,0.6c0.1,0,0.1,0,0.2,0c0.3,0,0.5,0.2,0.5,0.5c0,0.1,0,0.1-0.1,0.2c0.1,0,0.2,0.1,0.3,0.1 c0.6,0,1-0.6,1-1.3S105.6,120.8,105.1,120.8"></path> <path style="clip-path:url(#SVGID_00000183933468443535927650000014858452726463164556_);fill:#1E1E1C;" d="M100.1,144.5 c0,0,1.1,1.6,1.2,4.7c0,3.1-2.1,1.7-2.1,1.7s-0.1,3.1-2.9,4c0,0,2.4-2.2,2-5.8c0,0,1.2,2,1.9,1.4 C100.8,150,100.9,145.8,100.1,144.5"></path> <path style="clip-path:url(#SVGID_00000183933468443535927650000014858452726463164556_);fill:#1E1E1C;" d="M118.7,119.3 c0,0,2.2,1.7,2.3,5.4c0.1,3.7-1.8,5.5-2.3,4.1c0,0-0.1,1.7-0.4,2c-0.3,0.4,0.8-2-0.3-3.1c-1.1-1.1,1.5,1.8,1.8-0.6 C120.2,124.8,120.7,123.3,118.7,119.3"></path> </g> </g> </g> </svg> 