<?xml version="1.0" encoding="UTF-8"?> <svg xmlns="http://www.w3.org/2000/svg" xmlns:xlink="http://www.w3.org/1999/xlink" version="1.1" id="Layer_1" x="0px" y="0px" viewBox="0 0 997.2 459.9" style="enable-background:new 0 0 997.2 459.9;" xml:space="preserve"> <g> <path d="M482,192.3h-10.8l-26-63l3.1-5.4h-18.6l3.1,5.4l-26.5,63h-10.8v14.9l8.4-2.5c2-0.6,3.8-0.9,6-0.9h57.7c2.2,0,4.1,0.2,6,0.9 l8.4,2.5V192.3z M419.5,192.3l19.3-47.8l19,47.8H419.5z"></path> <path d="M496.2,131.1c0.5,1.7,0.7,3.3,0.7,5.3v67.4h49.8v-11.6h-37.5v-23.6h20.6c2,0,3.3,0.2,5.3,0.7l6.8,1.7v-14h-32.6v-21.7h25.1 c2,0,3.4,0.1,5.3,0.7l7.1,2.3v-14.6h-52.9L496.2,131.1z"></path> <path d="M572,136.4v67.4h12.3v-30.6h14.6c15.4,0,27.8-9.8,27.8-24.4c0-15.5-10.8-25-26.3-25h-31.5l2.3,7.4 C571.7,133,572,134.5,572,136.4z M584.3,135.4h15.5c9.8,0,14.3,5.5,14.3,13.5c0,7.9-6.4,12.7-15.1,12.7h-14.6V135.4z"></path> <path d="M673.8,203.9c15.6,0,27.6-9.6,27.6-24c0-15.4-10.2-24.2-25.8-24.2h-16.6v-20.2h25c2,0,3.4,0.1,5.3,0.7l7.3,2.3v-14.6h-52.9 l2.3,7.4c0.5,1.7,0.7,3.2,0.7,5.2v67.4H673.8z M658.9,167.2h15.8c9.5,0,14,5.2,14,12.9c0,7.6-6.2,12.2-14.9,12.2h-14.9V167.2z"></path> <path d="M723.3,131.1c0.5,1.7,0.7,3.3,0.7,5.3v67.4h49.8v-11.6h-37.5v-23.6h20.6c2,0,3.3,0.2,5.3,0.7l6.8,1.7v-14h-32.6v-21.7h25.1 c2,0,3.4,0.1,5.3,0.7l7.1,2.3v-14.6h-52.9L723.3,131.1z"></path> <path d="M851.8,131.1c0.5,1.7,0.7,3.3,0.7,5.3v20.7h-41.1v-20.7c0-2,0.2-3.6,0.7-5.3l2.3-7.3H796l2.3,7.3c0.5,1.7,0.7,3.3,0.7,5.3 v67.4h12.3v-35.2h41.1v35.2h12.3v-67.4c0-2,0.2-3.6,0.7-5.3l2.3-7.3h-18.5L851.8,131.1z"></path> <path d="M883.5,123.9v14.6l7.3-2.3c1.8-0.6,3.3-0.7,5.3-0.7h15.1v68.4h12.3v-68.4h15.1c2,0,3.4,0.1,5.3,0.7l7.3,2.3v-14.6H883.5z"></path> <path d="M440.5,273.7c5.5-3.2,9.1-8.6,9.1-16.4c0-15.3-10.3-21.4-25.7-21.4h-28.4l2.3,7.4c0.5,1.7,0.7,3.2,0.7,5.2v67.4h29.7 c15.4,0,27.2-7.4,27.2-21.7C455.4,282.9,449.4,276.4,440.5,273.7z M410.9,247.5h13.8c8.9,0,12.3,4.2,12.3,11.4 c0,6.9-4.9,11.1-13,11.1h-13V247.5z M429,304.3h-18.1v-22.9h18.6c9.1,0,13.3,4.2,13.3,11.8C442.7,300.6,437.5,304.3,429,304.3z"></path> <path d="M489.9,292.7v-44.3c0-2,0.2-3.6,0.7-5.3l2.3-7.3h-18.5l2.3,7.3c0.5,1.7,0.7,3.3,0.7,5.3v67.4h7.9l45.3-57.1v57.1h12.3 v-67.4c0-2,0.2-3.6,0.7-5.3l2.3-7.3h-11.2L489.9,292.7z"></path> <path d="M626.5,243.1c0.5,1.7,0.7,3.3,0.7,5.3v20.7h-41.1v-20.7c0-2,0.2-3.6,0.7-5.3l2.3-7.3h-18.5l2.3,7.3 c0.5,1.7,0.7,3.3,0.7,5.3v67.4h12.3v-35.2h41.1v35.2h12.3v-67.4c0-2,0.2-3.6,0.7-5.3l2.3-7.3h-18.5L626.5,243.1z"></path> <path d="M702.7,234.7c-22.8,0-41,18.5-41,41.4c0,23,18.1,41.1,41,41.1c22.8,0,41-18.5,41-41.4C743.7,252.7,725.6,234.7,702.7,234.7 z M702.8,305.5c-16.1,0-28.4-12.8-28.4-29.7c0-16.9,12.1-29.7,28.2-29.7c16.1,0,28.4,12.8,28.4,29.7 C731,292.7,718.9,305.5,702.8,305.5z"></path> <path d="M270.1,223.5l-179.6,3.6c-4.4,0-6.4-3.6-6.4-8.4c0-4.4,2-7.2,5.2-7.2c4,0,7.2,0.8,12.4,0.8c12,0,18.8-2,28-6l32-13.2 c10.8-4.4,14.4-5.2,17.6-5.2s4.8,0.8,14.8,5.2l32.8,14.8c10.8,4.8,20.4,8,32.8,8c16.4,0,25.2-5.6,26-16.4 c0.8-10.4-4.4-15.6-15.2-16.4c-9.2-0.8-24-4.8-47.2-16l-21.2-10.4c-28-13.6-50-22.4-50-44c0-16.4,13.6-28.8,29.6-28.8 c13.6,0,24.8,10.4,24.8,23.6c0,12.4-10,18.4-18,18.4s-14.4-6-14.4-12c0-4,2.8-8,6-8c2.8,0,3.6,1.6,4,4.4c0.4,2.8,3.2,4,6.8,3.6 c3.2-0.4,6-2,5.6-6c-0.8-7.6-6.8-12-14.8-12c-10.8,0-18.8,7.6-18.8,18.4c0,10,9.6,19.6,24.4,19.6c16.8,0,30-11.2,30-26 c0-18.4-15.2-32.4-35.6-32.4c-22.4,0-41.2,15.6-41.2,36.8c0,22.4,16.4,34,57.2,53.6l24,11.6c22.4,10.8,34.8,14,42.8,14.8 c4.4,0.4,6.8,2,6.8,6.4c0,5.2-5.2,7.2-10,7.2c-9.6,0-17.6-2.8-27.2-7.2l-34-15.2c-9.6-4.4-15.2-7.2-20-7.2s-11.6,2.8-18.4,5.6 l-46.4,18.4c-3.6,1.6-9.2,2.4-14,2.4c-4.8,0-9.2-0.8-14.8-0.8c-9.6,0-16.8,6.4-16.8,16.8c0,9.2,6.4,17.6,15.6,17.6l184-3.6 c4.4,0,6,4.4,6,9.6c0,4.8-2.4,8.8-6.4,8.8l-171.6-5.2c-20.4-0.8-28,4.4-28,18.8c0,12.8,8,20,20.8,19.6l169.6-4.4c6.8,0,8,4,8,8.8 s-1.2,8.4-7.6,8.4l-141.6-4.4c-13.6-0.4-20.4,4-20.4,12.4c0,6.8,4.8,13.6,13.2,19.2c11.6,7.2,24,6.8,39.2,6l58-3.6 c5.2-0.4,7.6,1.6,7.6,6c0,7.2-26.4,17.6-38.4,17.6c-7.2,0-8.4-3.2-9.2-6.4c-0.8-3.6-3.2-4.4-8.4-4.4c-4.4,0-8.4,0.8-8.4,5.2 s2.8,16,22,16c25.2,0,57.6-16.8,57.6-31.6c0-10.8-5.6-13.2-22-12.4l-62.8,2.8c-13.2,0.4-18.4-0.8-25.6-5.2c-3.2-2-6.4-5.2-6.4-7.6 s1.2-4,4.4-4l142,4.8c13.2,0.4,21.6-6,21.6-19.2c0-13.6-6.4-18.8-20-18.4l-168.8,4.4c-6.8,0-10-1.6-10-9.2s3.2-10,9.2-9.6l174.4,6 c14,0.4,22.4-6.8,22.4-18.8C289.7,229.9,282.5,223.1,270.1,223.5z"></path> <path d="M314.1,145C297.9,116.1,202.2,43.9,179.5,43.9S61,116.1,44.9,145c-1.5,2.7-2.3,7.2-2.3,11.9c0,33.2,0,91,0,124.7 c0,4.5,0.4,9.9,2.1,13.3c15.5,30.5,111.9,101.1,134.8,101.1s119.3-70.5,134.8-101.1c1.7-3.4,2.1-8.7,2.1-13.3 c0-33.7,0-91.5,0-124.7C316.4,152.2,315.6,147.7,314.1,145z M304.4,278.3c0,4.1-0.4,9-1.9,12.1c-14.1,27.9-102.1,92.2-123,92.2 s-108.8-64.3-123-92.2c-1.6-3.1-1.9-8-1.9-12.1c0-30.8,0-88.2,0-118.4c0-4.3,0.7-8.4,2.1-10.9c14.7-26.4,102-92.2,122.8-92.2 s108.1,65.9,122.8,92.2c1.4,2.5,2.1,6.6,2.1,10.9C304.4,190.1,304.4,247.5,304.4,278.3z"></path> </g> </svg> 