<?xml version="1.0" encoding="UTF-8"?> <!-- Generator: Adobe Illustrator 25.1.0, SVG Export Plug-In . SVG Version: 6.00 Build 0) --> <svg xmlns="http://www.w3.org/2000/svg" xmlns:xlink="http://www.w3.org/1999/xlink" id="Слой_1" x="0px" y="0px" viewBox="0 0 178.684692 51.419922" style="enable-background:new 0 0 178.684692 51.419922;" xml:space="preserve"> <style type="text/css"> .st0{fill-rule:evenodd;clip-rule:evenodd;fill:#FFFFFF;} .st1{fill-rule:evenodd;clip-rule:evenodd;fill:#76B82A;} .st2{fill:#0B2A37;} </style> <rect x="2.4077" y="4.191345" class="st0" width="33.165703" height="42.983978"></rect> <path class="st1" d="M10.692299,27.141418l0.309799-0.020386l0.422401-0.106323l0.450905-0.0802l0.4235-0.078491H12.7491 l0.185402-0.105164l0.134598-0.107727l0.131004-0.131775l0.134102-0.107544l0.077591-0.130859l0.078812-0.159912l0.052994-0.157593 l0.028397-0.160217l-0.08139,0.079407l-0.078812-0.157898l-0.052689-0.212585l-0.024902-0.079346l-0.160507,0.079346 L13.013,25.477234l-0.103996-0.10553l-0.105507-0.078979L12.5923,24.84375l-0.0802-0.399231l0.052704-0.397705l0.157898-0.370483 l0.2118-0.344116L13.173698,22.987l0.238098-0.344971l0.186508-0.3172l0.503494-0.134888l0.530609-0.129944l0.556198-0.133972 l0.53009-0.077698l0.52951,0.024902l0.501999,0.135803l0.450089,0.288879l0.373901,0.47821l-0.108795,0.317688l-0.157394,0.316711 l-0.133804,0.291626l-0.129807,0.290588l-0.136292,0.292175l-0.051605,0.318726v0.34436l0.051605,0.396851l0.451797,0.053589 l0.265106,0.184814l0.159286,0.319458l0.078201,0.370239l0.053009,0.451294l0.052994,0.448364l0.106598,0.400024l0.214005,0.368164 l-0.026093,0.875916l-0.108505,0.822327l-0.186005,0.793213l-0.290497,0.717346l-0.369995,0.662231l-0.504211,0.579407 l-0.608398,0.504791l-0.742599,0.399994l-0.291199,0.15509l-0.320602,0.187317l-0.316589,0.213501l-0.343811,0.185394 l-0.316895,0.13089l-0.345901,0.052216l-0.344101-0.079407l-0.345001-0.185394l-0.158096,0.133209l-0.131302,0.159088 l0.074905-0.091003l-0.235306-0.306183l-0.132401-0.344421l-0.052994-0.344391l0.026596-0.3974l0.053001-0.424103 l-0.026604-0.370697L12.1819,31.689331l-0.200401,0.01532l0.344398-0.026611l0.344406-0.05304l0.370995-0.052979l0.3181-0.106018 l0.317703-0.132385l0.265106-0.185364l0.21199-0.212036l0.158997-0.238403v-0.371094l-0.344391-0.052979l-0.344696,0.052979 l-0.344406,0.106018L12.9617,30.56543l-0.317802,0.132385l-0.344398,0.07959l-0.344398,0.026428L11.6045,30.753601 l-0.047096-0.082153l-0.159004-0.424133l-0.024399-0.129761c1.132401-0.753418,2.180405-0.722839,3.8134-0.585632 c-0.440201-0.880493-2.423599-0.699585-2.901802-0.757202c-0.483894,0.377625-0.5354,0.492676-0.990097,0.462402l-0.003098-0.076294 l-0.079407-0.847778l-0.158997-0.768555l-0.265099-0.371094L10.692299,27.141418z M9.782303,26.404419l0.211494,0.424927 L9.9935,26.829041l-0.131798-0.105713l-0.053001-0.158997l-0.026398-0.158997V26.404419z M33.233406,14.11145l-0.716904-0.320312 L31.7752,13.501099l-0.769302-0.264465l-0.820892-0.238892l-0.820908-0.238708l-0.848404-0.18512l-0.875687-0.184814 l-0.873001-0.160461l-0.874008-0.131226L24.990807,12.0177l-0.872803-0.0802L23.2696,11.884521l-0.848404-0.026917 l-0.847595,0.026917l-0.820602,0.026611l-0.769302,0.079407l-0.530991,0.158813l-0.633804,0.1604l-0.664398,0.184265 l-0.633606,0.158691l-0.584503,0.161316l-0.476196,0.103394l-0.345795,0.080322l-0.105499,0.024597l-6.518005,2.412903 l-0.370697,0.131165l-0.398003,0.107239l-0.396301,0.0802l-0.451599,0.07959l-0.423996,0.050171l-0.477699,0.029236 l-0.449005,0.053894l-0.450096,0.052979l-0.451599,0.052429L5.1698,16.149536l-0.395401,0.081909l-0.398598,0.130981 l-0.370499,0.133789l-0.343498,0.185425l-0.290604,0.211365l-0.265602,0.264221l0.051903-0.077393l0.105698,0.342468 l0.133003,0.317749l-0.102104-0.24353l-0.056694-0.073914l-0.132607-0.264771L3.0784,16.892822l0.053001-0.291382l0.158997-0.291687 l0.212105-0.291443l0.238396-0.265076l0.291405-0.212036l0.318001-0.158997l0.291397-0.079407h0.185402l0.211998-0.026367h0.291397 H5.6222h0.344398L6.3377,15.249817l0.370804-0.026367l0.370995-0.026611l0.344406-0.052734l0.344398-0.052979l0.3181-0.079712 L8.3778,14.905701l0.238403-0.13269l0.211998-0.158997l0.132401-0.185364l0.049896-0.224243l-0.209496-0.172913l0.319199,0.263611 l0.2369-0.238098l0.029198-0.239258l0.129303-0.078247l0.053902-0.026672l-0.131905-0.051514l-0.025696-0.716064l0.1576-0.556152 l0.32-0.451599l0.395699-0.34436l0.477402-0.317993l0.530296-0.239014l0.505402-0.262512l0.448196-0.29248l0.081902,0.184204 l0.102104,0.133301l0.186501,0.078979l0.187096,0.027771l0.185402,0.024109l0.211395,0.027527l0.158211,0.053589l0.1315,0.106628 l-0.183105,0.052979l-0.213203,0.026306l-0.240898,0.053894l-0.210304,0.077881l-0.212593,0.077698l-0.184006,0.108948 l-0.133194,0.130859l-0.0774,0.159912h0.1054h0.105194h0.106003l0.105202-0.054382l0.107101-0.025818l0.078293-0.027222 l0.107101-0.026367l0.078499-0.026123L12.8815,11.9375l0.187599,0.159912l0.238403,0.077942l0.210297,0.134399l-0.4235,0.581055 l0.743004-0.316895l0.768204-0.26416l0.822601-0.264526l0.820099-0.239502l0.847488-0.18512l0.847305-0.186768l0.902298-0.158691 l0.899704-0.131653l0.9272-0.080139l0.9272-0.078857l0.954193-0.054993h0.9552h0.980499l0.979706,0.054993l1.007401,0.051636 l1.006592,0.107361l0.025803-0.080139l-0.025497,0.079651l0.184494,0.05304l0.265106,0.052673l0.344406,0.106018l0.397095,0.132385 l0.450699,0.132629l0.476807,0.159058l0.503693,0.185425l0.503204,0.211975l0.477005,0.212036l0.477097,0.238403l0.450394,0.238647 l0.370804,0.238403l0.344406,0.264709l0.265091,0.238708l0.158997,0.264832l0.0793,0.238647v0.000244L33.233406,14.11145z M12.643898,12.335205v0.212036l-0.079597,0.106079l-0.158798,0.079285l-0.132401,0.026733v-0.212097l0.052795-0.079346 l0.106003-0.052979L12.643898,12.335205z M10.894897,21.900696l-0.158997,0.37085l-0.158699,0.264954l-0.132698,0.318115 l-0.105705,0.3974L10.0737,23.119629L10.2061,23.18573v0.225281l-0.026299,0.3974l-0.079704,0.4505l-0.079399,0.424011 L9.914703,25.10675l-0.053001,0.450378l-0.053001,0.4505l-0.026398,0.396179l0.264198-0.027161l0.212898-0.103699l0.159302-0.132996 l0.131798-0.158142l0.133301-0.186584l0.106003-0.211975l0.104301-0.184814l0.107994-0.211792l-0.107994-0.503723l0.055496-0.557007 l0.156799-0.556091L11.2929,22.987l0.131599-0.556763l0.053505-0.581909l-0.132103-0.531494l-0.371002-0.503723l0.4496-0.290283 l0.450905-0.291992l0.477097-0.290527l0.476196-0.239014l0.505508-0.21167l0.554688-0.187378l0.557602-0.130737l0.582809-0.106812 l0.185898-0.396851l0.077393-0.424927l0.053909-0.475098v-0.450378l-0.370209-0.025818L14.5783,17.265198h-0.397705 l-0.424698,0.026428l-0.39679,0.025818l-0.424606,0.052063l-0.395203,0.079407l-0.425201,0.080811l-0.3974,0.103699 l-0.398499,0.134399l-0.397499,0.13208l-0.370201,0.158508l-0.370697,0.184509l-0.318398,0.212585l-0.345802,0.212341 l-0.290001,0.240051l-0.133499,0.237854l-0.0522,0.291382l-0.025497,0.31781v0.342651l-0.053307,0.293457l-0.1054,0.236389 l-0.213699,0.1604L8.296104,20.81311l-0.554405-0.025269l0.549103,0.024963l0.0606,0.028015l0.264801,0.132385L8.8041,21.043518 l-0.214302,0.194824l0.291405-0.265137l0.3181-0.158691h0.344398l0.318001,0.106018l0.3181,0.158691l0.291397,0.238403 l0.238403,0.291382L10.894897,21.900696z M30.926796,29.717346l-0.688797,0.583008l-0.636093,0.609497L28.9925,31.545654 l-0.582901,0.662476l-0.529694,0.689087L27.3498,33.585724l-0.503494,0.742096l-0.503403,0.715515l-0.450409,0.768188 l-0.450394,0.768707l-0.450806,0.768188l-0.423691,0.768494l-0.423798,0.7948l-0.424103,0.794922l-0.423996,0.768677 l-0.424103,0.794617l-0.159012,0.291595l-0.132385,0.344513l-0.132401,0.344391l-0.159012,0.344696l-0.158997,0.344391 l-0.158798,0.317719l-0.185593,0.291382l-0.18541,0.265106l-0.079697-0.265106l-0.052994-0.264984l0.026688-0.264801 l0.0793-0.291412l0.371109-0.92749l0.424103-0.900818l0.450089-0.900879l0.450699-0.900818l0.503403-0.874481l0.50351-0.874512 l0.5298-0.847809l0.582993-0.8479l0.556503-0.847778l0.609192-0.821503l0.636108-0.795105l0.636002-0.821198l0.635895-0.768494 l0.688797-0.7948l0.689102-0.768494l0.688797-0.742126l-0.7155,0.689087l-0.715393,0.715515l-0.662506,0.715088l-0.662201,0.715515 l-0.609695,0.742096l-0.609406,0.741821l-0.609192,0.768494L25.389,35.17572l-0.556702,0.7948l-0.556091,0.795105 l-0.530106,0.821198l-0.503403,0.848114l-0.503494,0.874176l-0.503403,0.874512l-0.476807,0.900909l-0.477097,0.92749 l-0.21199-0.053009l-0.106003-0.212097l-0.053009-0.291382l0.026306-0.291412l0.450699-0.847809l0.4505-0.848083l0.477005-0.821198 l0.503189-0.821503l0.530106-0.821503l0.530106-0.821503l0.582794-0.821503l0.556396-0.7948l0.609406-0.7948L26.2369,33.00293 l0.609406-0.768494l0.635895-0.741821l0.636002-0.74176l0.662201-0.715515l0.662491-0.715515l0.689102-0.688782l-0.424103,0.34436 l-0.423798,0.344421l-0.39769,0.344482l-0.3974,0.371033l-0.39711,0.3974l-0.39769,0.371094l-0.371109,0.3974l-0.370697,0.3974 L26.581306,32.0224L26.2369,32.420135l-0.371094,0.424103L25.5214,33.267914l-0.317993,0.423798l-0.344406,0.424103 l-0.3181,0.424011l-0.317703,0.424103l-0.424103,0.71521l-0.424088,0.689087l-0.450409,0.688812l-0.450394,0.662476 l-0.476807,0.688812l-0.477097,0.636108l-0.450394,0.635803l-0.450409,0.636078l-0.079391-0.185699l-0.132706-0.158997 l-0.105698-0.212006l-0.026611-0.238403l0.476807-0.821198l0.477005-0.795197l0.503494-0.7948l0.529999-0.7948l0.556198-0.768494 l0.556412-0.741791l0.583099-0.768494l0.582794-0.742126l0.609497-0.715179l0.609695-0.715424l0.635803-0.715454l0.635803-0.688843 l0.636093-0.662781l0.662506-0.688782l0.662201-0.662415l0.662399-0.635925l-0.768494,0.556519l-0.715103,0.583069 l-0.689102,0.609131l-0.662506,0.609497l-0.609192,0.662415l-0.609406,0.635864l-0.583099,0.689117l-0.556396,0.662415 l-0.556503,0.688782l-0.53009,0.715515l-0.556412,0.689087l-0.5298,0.688812l-0.5298,0.715485l-0.556702,0.688812 l-0.556488,0.688782l-0.582809,0.689117l-0.45459-0.613708l0.004196-0.0224l0.158997-0.317993l0.185394-0.291412l0.076614-0.152802 l0.187897,0.020721l0.478195-0.66391l0.477097-0.661011l0.502502-0.6633l0.502106-0.689087l0.531494-0.688599l0.529999-0.661011 l0.556503-0.691101l0.582199-0.662964l0.583405-0.660522l0.608902-0.637512l0.636292-0.634705l0.63591-0.608887l0.662094-0.610291 l0.661606-0.58313l0.689987-0.52948l0.69281-0.512207l0.128998,0.300476l0.238297,0.450439l0.238708,0.53009l0.264786,0.503418 l0.212006,0.476807l0.185394,0.371094L30.926796,29.717346z M0,0.099243h0.799301 c0.129303,0.57196,0.640701,0.998901,1.251801,0.998901c0.610901,0,1.122299-0.426941,1.251495-0.998901h1.152901 c0.129204,0.57196,0.640305,0.998901,1.251801,0.998901c0.610802,0,1.121902-0.426941,1.251205-0.998901H8.1119 c0.129204,0.57196,0.640602,0.998901,1.251801,0.998901c0.610802,0,1.1222-0.426941,1.251503-0.998901h1.153099 c0.129295,0.57196,0.640297,0.998901,1.251801,0.998901c0.610794,0,1.121902-0.426941,1.25119-0.998901h1.152802 c0.129303,0.57196,0.640701,0.998901,1.251801,0.998901c0.610901,0,1.122299-0.426941,1.251511-0.998901h1.153397 c0.129303,0.57196,0.640396,0.998901,1.251801,0.998901c0.610901,0,1.121994-0.426941,1.25119-0.998901h1.153214 c0.129486,0.57196,0.6409,0.998901,1.251694,0.998901c0.610901,0,1.122299-0.426941,1.251495-0.998901h1.152908 c0.129501,0.57196,0.640594,0.998901,1.251801,0.998901c0.610794,0,1.122192-0.426941,1.251495-0.998901h1.153107 c0.129288,0.57196,0.640594,0.998901,1.251801,0.998901c0.610794,0,1.122192-0.426941,1.251495-0.998901h1.153091 c0.129501,0.57196,0.64061,0.998901,1.251801,0.998901c0.610809,0,1.122208-0.426941,1.251511-0.998901h1.547989v2.493103 c-0.518188,0.165161-0.893494,0.649658-0.893494,1.22229c0,0.572815,0.375305,1.0578,0.893494,1.222778v1.211304 c-0.518188,0.165222-0.893494,0.649719-0.893494,1.222534c0,0.572571,0.375305,1.057373,0.893494,1.222595v1.211304 c-0.518188,0.164856-0.893494,0.649658-0.893494,1.22229c0,0.572876,0.375305,1.057861,0.893494,1.222778v1.210999 c-0.518188,0.164978-0.893494,0.649414-0.893494,1.22229c0,0.572937,0.375305,1.057617,0.893494,1.2229v1.211243 c-0.518188,0.165283-0.893494,0.649658-0.893494,1.22229c0,0.572571,0.375305,1.057556,0.893494,1.2229v1.211182 c-0.518188,0.164978-0.893494,0.649414-0.893494,1.22229c0,0.572937,0.375305,1.057617,0.893494,1.222595v1.211243 c-0.518188,0.164978-0.893494,0.649475-0.893494,1.22229c0,0.572876,0.375305,1.057556,0.893494,1.222595v1.211304 c-0.518188,0.165161-0.893494,0.649658-0.893494,1.222473c0,0.572937,0.375305,1.057739,0.893494,1.2229v1.211304 c-0.518188,0.164917-0.893494,0.649719-0.893494,1.222321c0,0.572571,0.375305,1.057587,0.893494,1.222473v1.211304 c-0.518188,0.165009-0.893494,0.649719-0.893494,1.222015c0,0.572906,0.375305,1.057892,0.893494,1.2229v1.351807 c-0.569489,0.131287-0.99469,0.641479-0.99469,1.250702c0,0.609375,0.425201,1.119873,0.99469,1.250885v1.15509 c-0.569489,0.131012-0.99469,0.641205-0.99469,1.250397c0,0.609406,0.425201,1.11972,0.99469,1.25061v1.15509 c-0.569489,0.130707-0.99469,0.641205-0.99469,1.250427c0,0.609375,0.425201,1.11969,0.99469,1.25058v2.310303h-1.335999 c-0.110794-0.596191-0.632996-1.047089-1.260788-1.047089c-0.627914,0-1.150604,0.450897-1.261703,1.047089h-1.133606 c-0.111099-0.596191-0.633301-1.047089-1.2612-1.047089c-0.627792,0-1.150497,0.450897-1.261398,1.047089h-1.134094 c-0.110611-0.596191-0.633011-1.047089-1.261108-1.047089c-0.627899,0-1.150299,0.450897-1.26149,1.047089h-1.133301 c-0.110809-0.596191-0.633209-1.047089-1.261108-1.047089c-0.628098,0-1.150604,0.450897-1.261398,1.047089h-1.133896 c-0.111099-0.596191-0.633209-1.047089-1.261108-1.047089s-1.150589,0.450897-1.261688,1.047089h-1.133606 c-0.111099-0.596191-0.633194-1.047089-1.261108-1.047089c-0.627899,0-1.150589,0.450897-1.261398,1.047089h-1.133591 c-0.111099-0.596191-0.633301-1.047089-1.261101-1.047089c-0.627899,0-1.150307,0.450897-1.261505,1.047089h-1.133797 c-0.110802-0.596191-0.633301-1.047089-1.261101-1.047089c-0.627899,0-1.150597,0.450897-1.261497,1.047089H7.170799 c-0.110901-0.596191-0.633301-1.047089-1.2612-1.047089c-0.6278,0-1.150299,0.450897-1.261398,1.047089H3.514702 c-0.110901-0.596191-0.633301-1.047089-1.2612-1.047089s-1.150299,0.450897-1.261398,1.047089H0v-2.095398 c0.5998-0.107086,1.055603-0.631805,1.055603-1.263092c0-0.631012-0.455803-1.155396-1.055603-1.262817v-1.130188 c0.5998-0.107208,1.055603-0.631897,1.055603-1.262909c0-0.63089-0.455803-1.155579-1.055603-1.262787v-1.130402 c0.5998-0.107513,1.055603-0.632202,1.055603-1.263519c0-0.630676-0.455803-1.155396-1.055603-1.262787v-1.285492 c0.649101-0.063202,1.157104-0.610321,1.157104-1.276703c0-0.666199-0.508003-1.213013-1.157104-1.276489v-1.1026 c0.649101-0.063507,1.157104-0.610626,1.157104-1.276825c0-0.666077-0.508003-1.213196-1.157104-1.276703v-1.102905 c0.649101-0.063477,1.157104-0.610596,1.157104-1.2771c0-0.665771-0.508003-1.212891-1.157104-1.276367v-1.103027 c0.649101-0.06366,1.157104-0.610474,1.157104-1.276672c0-0.666138-0.508003-1.213196-1.157104-1.276733v-1.102661 c0.649101-0.063538,1.157104-0.610291,1.157104-1.276733c0-0.666199-0.508003-1.213196-1.157104-1.276367v-1.103333 c0.649101-0.063477,1.157104-0.610596,1.157104-1.276672c0-0.666199-0.508003-1.213013-1.157104-1.276733v-1.102966 c0.649101-0.063538,1.157104-0.610596,1.157104-1.277039c0-0.665894-0.508003-1.212952-1.157104-1.276184v-1.102905 c0.649101-0.063477,1.157104-0.610596,1.157104-1.276978c0-0.665894-0.508003-1.213013-1.157104-1.276184v-1.10321 c0.649101-0.063538,1.157104-0.610291,1.157104-1.276794c0-0.665833-0.508003-1.212891-1.157104-1.276428v-1.10321 C0.649101,5.23053,1.157104,4.683411,1.157104,4.017212c0-0.666077-0.508003-1.212891-1.157104-1.276367V0.099243z"></path> <path class="st2" d="M161.640503,25.500244V24.76062h2.93869c0.423187,0,0.776703,0.053284,1.064392,0.164429 c0.28772,0.106873,0.517914,0.283447,0.690613,0.525757c0.172607,0.246643,0.295593,0.5755,0.369598,0.986511 c0.078186,0.415283,0.115082,0.924683,0.115082,1.537231v4.681183l4.262115-5.310211 c0.26709-0.345215,0.550812-0.6698,0.854706-0.977905c0.304199-0.308472,0.637207-0.583679,0.998901-0.826294 c0.361694-0.238403,0.747803-0.431519,1.158783-0.571167c0.407104-0.139832,0.86322-0.209534,1.360413-0.209534h1.721985v0.858887 c-0.941101,0-1.787781,0.119141-2.543793,0.357422c-0.752289,0.234497-1.409698,0.698792-1.9729,1.389282l-3.674286,4.541443 l5.696503,5.926361c0.312378,0.345215,0.649475,0.661896,1.010895,0.957794c0.361694,0.291718,0.715088,0.558716,1.060394,0.797119 c0.345306,0.242706,0.678101,0.435699,0.998688,0.58371c0.320618,0.152191,0.608307,0.242584,0.854919,0.271179v0.591919 c-0.184814,0.065796-0.435699,0.11908-0.756317,0.168396c-0.324585,0.049286-0.6698,0.074005-1.048004,0.074005 c-0.460297,0-0.916382-0.036926-1.380981-0.110901c-0.460114-0.070007-0.93692-0.217712-1.430115-0.439606 c-0.497192-0.218018-1.006897-0.517914-1.528992-0.895996c-0.526093-0.378204-1.084808-0.879608-1.668488-1.504425 l-3.974426-4.142792v6.851318h-3.205688l-0.024689-13.065399c0-0.739929-0.1026-1.335693-0.308105-1.787842 c-0.205505-0.456055-0.674103-0.682251-1.401489-0.682251H161.640503z M143.299286,25.500244V24.76062h2.934418 c0.427399,0,0.780884,0.053284,1.068604,0.164429c0.287781,0.106873,0.517883,0.283447,0.690582,0.525757 c0.172607,0.246643,0.291595,0.5755,0.357391,0.990723c0.069702,0.411072,0.1026,0.924683,0.1026,1.53302v9.859467 l7.159515-13.073395h2.951111v16.275116h-3.205902V27.970337l-7.159515,13.065399h-2.950897V27.970337 c0-0.739929-0.1026-1.335693-0.308105-1.787842c-0.205505-0.456055-0.674103-0.682251-1.401489-0.682251H143.299286z M124.694908,25.500244V24.76062h2.934387c0.427498,0,0.781013,0.053284,1.068703,0.164429 c0.287689,0.106873,0.517914,0.283447,0.690491,0.53009c0.172607,0.24231,0.291718,0.571167,0.357513,0.986389 c0.069702,0.411072,0.1026,0.924683,0.1026,1.53302v4.060577h6.658295V24.76062h3.205688v13.069397 c0,0.735596,0.1026,1.331696,0.304108,1.787811c0.201294,0.452209,0.665619,0.678101,1.393311,0.678101h0.250488v0.739807h-2.946899 c-0.423187,0-0.780579-0.049316-1.068298-0.151917c-0.287689-0.098694-0.517883-0.271301-0.690491-0.517883 c-0.168701-0.242706-0.287811-0.571503-0.353516-0.982513c-0.061493-0.406799-0.094391-0.924713-0.094391-1.553406v-4.685394 h-6.658295v7.891113h-3.205696V27.970337c0-0.739929-0.1026-1.335693-0.308105-1.787842 c-0.205597-0.456055-0.674103-0.682251-1.401505-0.682251H124.694908z M109.666206,28.829224v-2.096008 c0-0.246582,0.028595-0.488892,0.082199-0.727295c0.057495-0.234497,0.164398-0.443909,0.320602-0.624817 c0.156189-0.180786,0.369888-0.328796,0.645187-0.447876c0.27121-0.115112,0.620499-0.172607,1.044006-0.172607h11.569305v1.109497 h-5.129303v15.165619H114.9925V25.870117h-1.746704c-0.875397,0-1.565903,0.218018-2.075592,0.657593 c-0.509308,0.43573-0.764206,1.204224-0.764206,2.301514H109.666206z M97.917107,35.43811h5.573196L100.7696,29.01001 L97.917107,35.43811z M94.086708,41.035736l7.282791-16.275116h1.109695l5.515411,13.168091 c0.295898,0.719116,0.657593,1.294525,1.089294,1.726013c0.427505,0.427399,0.920502,0.674103,1.475494,0.739807v0.616608 c-0.1315,0.032776-0.312393,0.061493-0.550797,0.08609c-0.23439,0.020691-0.443893,0.032898-0.628693,0.032898 c-0.394608,0-0.8181-0.032898-1.2742-0.106598c-0.452103-0.074005-0.896011-0.221893-1.327499-0.443909 c-0.435608-0.226196-0.842407-0.546783-1.228806-0.966003c-0.386307-0.414978-0.7276-0.977997-1.023605-1.681l-0.566895-1.384979 h-6.559402l-2.026199,4.488098H94.086708z M76.695,25.500244V24.76062h2.946899c0.423203,0,0.780701,0.053284,1.068405,0.160217 c0.287689,0.111084,0.517899,0.287659,0.690491,0.529968c0.168701,0.246643,0.287704,0.5755,0.3535,0.986511 c0.061798,0.415283,0.094711,0.924683,0.094711,1.53302v1.964661c0,1.364319,0.328491,2.387634,0.986099,3.061737 c0.6577,0.673981,1.483688,1.011078,2.470093,1.011078c0.505508,0,0.990509-0.045074,1.450806-0.1315 c0.460403-0.090485,0.879593-0.209503,1.25769-0.361694V24.76062h3.205704v16.275116h-3.205704v-6.3992 c-0.378098,0.1604-0.850601,0.27948-1.413895,0.361694c-0.5672,0.078186-1.1548,0.119293-1.763092,0.119293 c-1.993408,0-3.52211-0.439911-4.590714-1.319214c-1.068695-0.879578-1.602997-2.248199-1.602997-4.105988v-1.721985 c0-0.739929-0.1026-1.335693-0.303894-1.787842c-0.201508-0.456055-0.670105-0.682251-1.405701-0.682251H76.695z M61.444298,25.500244V24.76062H72.2985c0.423508,0,0.772705,0.057495,1.048203,0.172607 c0.270996,0.11908,0.484695,0.26709,0.6409,0.447876c0.156204,0.180908,0.263092,0.39032,0.320602,0.624817 c0.053589,0.238403,0.082199,0.480713,0.082199,0.731628v2.091675h-0.739807c0-1.047974-0.266998-1.804321-0.805298-2.268616 c-0.538605-0.460266-1.294601-0.690491-2.2771-0.690491H66.598v6.165009h6.387009v1.109497H66.598v6.781403h4.212799 c0.908295,0,1.676697-0.201294,2.305695-0.608398c0.632706-0.406708,1.163101-1.142303,1.598801-2.210999L75.3769,37.36142 l-0.723404,1.952301c-0.184799,0.529999-0.419296,0.94931-0.702698,1.25769c-0.287704,0.308105-0.764496,0.464325-1.438599,0.464325 h-9.119904V27.970337c0-0.739929-0.1026-1.335693-0.30809-1.787842c-0.205505-0.456055-0.674103-0.682251-1.401505-0.682251 H61.444298z M43.596306,25.500244V24.76062h14.770996v16.275116h-3.205704V25.870117h-6.411697v15.165619h-3.205704V27.970337 c0-0.739929-0.1026-1.335693-0.30809-1.787842c-0.205505-0.456055-0.674103-0.682251-1.401413-0.682251H43.596306z M161.719086,1.232849V0.493225h2.934418c0.42749,0,0.780884,0.053284,1.068695,0.164429 c0.287689,0.106873,0.517792,0.283447,0.690491,0.53009c0.172607,0.24231,0.291718,0.571167,0.357391,0.986389 c0.069824,0.411072,0.1026,0.924683,0.1026,1.53302V7.7677h6.658325V0.493225h3.205688v13.069397 c0,0.735596,0.1026,1.331726,0.304199,1.787781c0.201294,0.452209,0.665588,0.678101,1.393188,0.678101h0.25061v0.739807h-2.946899 c-0.423187,0-0.780701-0.049316-1.06839-0.151917c-0.28772-0.098694-0.517914-0.27124-0.690521-0.517883 c-0.168701-0.242676-0.287689-0.571472-0.353485-0.982483c-0.061493-0.406799-0.094391-0.924683-0.094391-1.553406V8.877197 h-6.658325v7.891113h-3.205688V3.702942c0-0.739929-0.1026-1.335693-0.308105-1.787842 c-0.205505-0.456055-0.674103-0.682251-1.401398-0.682251H161.719086z M143.988892,1.232849V0.493225h2.934387 c0.427521,0,0.781006,0.053284,1.068726,0.164429c0.287689,0.106873,0.517883,0.283447,0.690491,0.525757 c0.172699,0.246643,0.291687,0.5755,0.357483,0.990723c0.069702,0.411072,0.1026,0.924683,0.1026,1.53302v9.859497 l7.159515-13.073425h2.951111v16.275085h-3.206024V3.702942l-7.159393,13.065369h-2.950897V3.702942 c0-0.739929-0.1026-1.335693-0.308105-1.787842c-0.205505-0.456055-0.674103-0.682251-1.401489-0.682251H143.988892z M130.504211,15.65863h7.397888V1.602722h-5.425201c0,1.677002-0.032898,3.193481-0.094391,4.549927 c-0.065796,1.356079-0.17691,2.597351-0.333099,3.723267c-0.156219,1.126221-0.361694,2.161987-0.620514,3.1073 C131.174103,13.924316,130.865906,14.816101,130.504211,15.65863z M126.213402,16.526001 c0-0.250854,0.082199-0.45636,0.246597-0.620789c0.164505-0.164368,0.373901-0.246582,0.624802-0.246582h0.854904 c0.801384-1.742493,1.352196-3.608582,1.652092-5.605835c0.295898-2.001587,0.443909-4.113953,0.443909-6.345642 c0-0.739807-0.102905-1.335754-0.304199-1.792053c-0.205505-0.456055-0.6698-0.682251-1.405701-0.682251h-0.238403V0.493225 h13.020386V15.65863h0.871399c0.246307,0,0.451813,0.082214,0.612213,0.246582 c0.160187,0.164429,0.242401,0.369934,0.242401,0.620789v4.779724h-1.232819 c-0.094696-0.892029-0.226196-1.627625-0.390594-2.207031c-0.164398-0.583679-0.373901-1.047974-0.632996-1.39325 c-0.254486-0.345215-0.554688-0.587891-0.891785-0.7276c-0.337006-0.139832-0.723419-0.209534-1.166992-0.209534H130.5289 c-0.443909,0-0.830292,0.069702-1.167297,0.209534c-0.337097,0.139709-0.632996,0.382385-0.887787,0.7276 c-0.25061,0.345276-0.460419,0.80957-0.624519,1.39325c-0.164398,0.579407-0.300201,1.315002-0.402802,2.207031h-1.233093V16.526001 z M113.000008,8.622437c0,2.404297,0.406799,4.257874,1.224594,5.565002c0.813797,1.310974,1.976898,1.964355,3.481201,1.964355 c1.491898,0,2.654892-0.653381,3.477005-1.964355c0.825989-1.307129,1.237-3.160706,1.237-5.565002 c0-2.400085-0.411011-4.24939-1.237-5.556519c-0.822113-1.302795-1.985107-1.956482-3.477005-1.956482 c-1.496109,0-2.654907,0.653687-3.477005,1.956482C113.411003,4.373047,113.000008,6.222351,113.000008,8.622437z M109.572395,8.622437c0-1.216431,0.193008-2.35083,0.575409-3.403015c0.386093-1.047974,0.936798-1.960388,1.648102-2.728882 c0.71489-0.772705,1.569794-1.376831,2.564499-1.824707C115.355003,0.221924,116.468803,0,117.705803,0 c1.233093,0,2.346802,0.221924,3.337204,0.665833c0.990494,0.447876,1.837189,1.052002,2.544098,1.824707 c0.702698,0.768494,1.249298,1.680908,1.63559,2.737061c0.382401,1.052246,0.5755,2.186707,0.5755,3.394836 c0,1.220581-0.1931,2.359314-0.5755,3.411194c-0.386292,1.052185-0.932892,1.964722-1.63559,2.733215 c-0.706909,0.772705-1.557602,1.380981-2.552307,1.82489c-0.99469,0.447876-2.104095,0.6698-3.328995,0.6698 c-1.237,0-2.3508-0.221924-3.345398-0.6698c-0.994705-0.443909-1.849609-1.052185-2.564499-1.82489 c-0.711304-0.768494-1.262009-1.68103-1.648102-2.733215C109.765404,10.98175,109.572395,9.843018,109.572395,8.622437z M91.817604,1.232849V0.493225H106.5886v16.275085h-3.205704V1.602722h-6.411697v15.165588h-3.205704V3.702942 c0-0.739929-0.1026-1.335693-0.30809-1.787842c-0.205505-0.456055-0.674103-0.682251-1.401505-0.682251H91.817604z M75.599998,8.877197c0-1.249146,0.205505-2.412476,0.612305-3.489075c0.410995-1.072693,0.973892-2.009827,1.697296-2.80719 c0.719208-0.797424,1.5784-1.430298,2.5728-1.890381C81.476997,0.230103,82.562202,0,83.729195,0 c1.553604,0,2.803207,0.201233,3.748199,0.608337c0.945404,0.402466,1.648102,0.867065,2.104507,1.388977 c0.328796,0.423523,0.517899,0.970032,0.5672,1.644104c0.049301,0.674011,0.074005,1.376709,0.074005,2.104126h-0.739899 c-0.312408-1.491943-0.887802-2.63855-1.718109-3.435913c-0.834198-0.801331-1.931503-1.200195-3.300095-1.200195 c-0.752304,0-1.463196,0.123413-2.120804,0.365967c-0.657394,0.246643-1.237106,0.6698-1.730301,1.265747 c-0.493195,0.600098-0.883606,1.393494-1.163101,2.39209c-0.283401,0.99469-0.423203,2.243896-0.423203,3.743958 c0,0.941101,0.098709,1.849609,0.299911,2.728943c0.201599,0.879578,0.522186,1.652405,0.953598,2.322205 c0.435699,0.670105,0.99469,1.208374,1.676697,1.615173c0.682297,0.406982,1.520798,0.608276,2.507202,0.608276 c1.134201,0,2.190704-0.299866,3.164597-0.904297c0.970093-0.599792,1.755005-1.475403,2.3508-2.625977l0.854904,0.665588 c-0.772705,1.364624-1.713806,2.367493-2.831802,3.008728c-1.117706,0.645081-2.544098,0.965698-4.274307,0.965698 c-1.298599,0-2.4534-0.213684-3.460587-0.645142c-1.010803-0.42749-1.861801-1.019348-2.552002-1.775574 c-0.690506-0.756287-1.212708-1.643921-1.574112-2.663208C75.7808,11.158325,75.599998,10.056702,75.599998,8.877197z M60.956505,8.622437c0,2.404297,0.406799,4.257874,1.224503,5.565002c0.813889,1.310974,1.976898,1.964355,3.481293,1.964355 c1.491898,0,2.654907-0.653381,3.477005-1.964355c0.825989-1.307129,1.237-3.160706,1.237-5.565002 c0-2.400085-0.411011-4.24939-1.237-5.556519c-0.822098-1.302795-1.985107-1.956482-3.477005-1.956482 c-1.496094,0-2.654999,0.653687-3.477005,1.956482C61.3675,4.373047,60.956505,6.222351,60.956505,8.622437z M57.528801,8.622437 c0-1.216431,0.1931-2.35083,0.5755-3.403015c0.386002-1.047974,0.936798-1.960388,1.647995-2.728882 c0.714905-0.772705,1.569901-1.376831,2.564499-1.824707C63.311501,0.221924,64.425194,0,65.6623,0 c1.233002,0,2.346802,0.221924,3.337204,0.665833c0.990402,0.447876,1.837097,1.052002,2.544098,1.824707 C72.2463,3.259033,72.792793,4.171448,73.179207,5.2276c0.382401,1.052246,0.575394,2.186707,0.575394,3.394836 c0,1.220581-0.192993,2.359314-0.575394,3.411194c-0.386414,1.052185-0.932907,1.964722-1.635605,2.733215 c-0.707001,0.772705-1.557602,1.380981-2.552307,1.82489c-0.99469,0.447876-2.104187,0.6698-3.328995,0.6698 c-1.237106,0-2.3508-0.221924-3.345505-0.6698c-0.994598-0.443909-1.849594-1.052185-2.564499-1.82489 c-0.711197-0.768494-1.261993-1.68103-1.647995-2.733215C57.721901,10.98175,57.528801,9.843018,57.528801,8.622437z M43.596306,1.232849V0.493225h10.558197c0.423492,0,0.772705,0.057495,1.043991,0.172607 c0.275513,0.11908,0.488907,0.266968,0.645111,0.447876c0.156189,0.180908,0.263092,0.39032,0.320602,0.624817 c0.053589,0.238281,0.082199,0.480713,0.082199,0.731628v2.091675h-0.739502c0-1.064392-0.267303-1.824707-0.801697-2.280823 c-0.534302-0.452087-1.29451-0.678284-2.281006-0.678284h-3.674301v15.165588h-3.205704V3.702942 c0-0.739929-0.1026-1.335693-0.30809-1.787842c-0.205505-0.456055-0.674103-0.682251-1.401413-0.682251H43.596306z"></path> </svg> 