<?xml version="1.0" encoding="UTF-8"?> <!-- Generator: Adobe Illustrator 25.1.0, SVG Export Plug-In . SVG Version: 6.00 Build 0) --> <svg xmlns="http://www.w3.org/2000/svg" xmlns:xlink="http://www.w3.org/1999/xlink" id="Слой_1" x="0px" y="0px" viewBox="0 0 190 39" style="enable-background:new 0 0 190 39;" xml:space="preserve"> <style type="text/css"> .st0{fill-rule:evenodd;clip-rule:evenodd;fill:#C31000;} .st1{fill-rule:evenodd;clip-rule:evenodd;} .st2{fill-rule:evenodd;clip-rule:evenodd;fill:#FFFFFF;} </style> <rect y="0.3" class="st0" width="18.5" height="37.9"></rect> <path class="st1" d="M161.5,31.4c0,0.7,0.1,1.2,0.3,1.5c0.2,0.3,0.5,0.5,0.8,0.5c0.3,0,0.6-0.2,0.8-0.5c0.2-0.3,0.3-0.8,0.3-1.5 c0-0.7-0.1-1.2-0.3-1.5c-0.2-0.3-0.5-0.5-0.8-0.5c-0.3,0-0.6,0.2-0.8,0.5C161.6,30.2,161.5,30.7,161.5,31.4L161.5,31.4z M160.9,36 v-7.2h0.7v0.7c0.2-0.3,0.3-0.5,0.5-0.6c0.2-0.1,0.4-0.2,0.7-0.2c0.3,0,0.6,0.1,0.9,0.3c0.3,0.2,0.5,0.5,0.7,0.9 c0.2,0.4,0.2,0.9,0.2,1.5c0,0.9-0.2,1.6-0.6,2.1c-0.4,0.5-0.8,0.7-1.3,0.7c-0.2,0-0.4-0.1-0.6-0.2c-0.2-0.1-0.4-0.3-0.5-0.5V36 L160.9,36L160.9,36z M143.4,8.9h1.5c0.3,0,0.6,0,0.7-0.1c0.2-0.1,0.4-0.2,0.5-0.4c0.1-0.2,0.2-0.4,0.2-0.7c0-0.3-0.1-0.5-0.2-0.7 c-0.1-0.2-0.3-0.3-0.4-0.4c-0.2-0.1-0.5-0.1-0.9-0.1h-1.4L143.4,8.9L143.4,8.9z M143.4,5.6h1.3c0.3,0,0.6,0,0.7-0.1 c0.2-0.1,0.4-0.2,0.5-0.3c0.1-0.2,0.2-0.4,0.2-0.7c0-0.3-0.1-0.5-0.1-0.7c-0.1-0.2-0.2-0.3-0.4-0.4c-0.2-0.1-0.5-0.1-0.9-0.1h-1.2 V5.6L143.4,5.6z M142.6,9.8V2.6h2.2c0.4,0,0.8,0.1,1.1,0.2c0.3,0.1,0.5,0.4,0.6,0.7c0.2,0.3,0.2,0.6,0.2,1c0,0.3-0.1,0.6-0.2,0.9 c-0.1,0.3-0.4,0.5-0.6,0.6c0.3,0.1,0.6,0.3,0.8,0.6c0.2,0.3,0.3,0.7,0.3,1.1c0,0.4-0.1,0.8-0.3,1.1c-0.2,0.3-0.4,0.6-0.7,0.7 c-0.3,0.1-0.7,0.2-1.2,0.2L142.6,9.8L142.6,9.8z M150.8,9.8V9c-0.2,0.3-0.4,0.5-0.6,0.7c-0.2,0.1-0.5,0.2-0.8,0.2 c-0.3,0-0.6-0.1-0.9-0.3c-0.2-0.2-0.4-0.4-0.5-0.7C148,8.7,148,8.3,148,7.8V4.6h0.7v2.9c0,0.5,0,0.9,0.1,1.1 c0.1,0.2,0.2,0.3,0.3,0.4c0.1,0.1,0.3,0.2,0.5,0.2c0.3,0,0.6-0.1,0.9-0.4c0.2-0.2,0.3-0.7,0.3-1.4V4.6h0.7v5.2L150.8,9.8L150.8,9.8z M152.3,8.2l0.7-0.1c0,0.4,0.2,0.6,0.3,0.8c0.2,0.2,0.4,0.3,0.8,0.3c0.3,0,0.6-0.1,0.7-0.2c0.2-0.2,0.3-0.4,0.3-0.6 c0-0.2-0.1-0.4-0.2-0.5c-0.1-0.1-0.3-0.2-0.7-0.3c-0.6-0.2-0.9-0.3-1.1-0.4c-0.2-0.1-0.3-0.3-0.4-0.5c-0.1-0.2-0.2-0.5-0.2-0.7 c0-0.4,0.1-0.8,0.4-1.1c0.3-0.3,0.7-0.4,1.2-0.4c0.3,0,0.6,0.1,0.8,0.2c0.2,0.1,0.4,0.3,0.6,0.5c0.1,0.2,0.2,0.5,0.3,0.8L155,6 c-0.1-0.6-0.4-0.9-0.9-0.9c-0.3,0-0.6,0.1-0.7,0.2c-0.1,0.1-0.2,0.3-0.2,0.5c0,0.2,0.1,0.4,0.2,0.5c0.1,0.1,0.4,0.2,0.8,0.3 c0.6,0.2,1,0.3,1.2,0.5c0.2,0.1,0.3,0.3,0.4,0.5c0.1,0.2,0.1,0.4,0.1,0.7c0,0.5-0.2,0.9-0.5,1.2c-0.3,0.3-0.7,0.5-1.3,0.5 C153.1,9.9,152.5,9.4,152.3,8.2L152.3,8.2z M156.7,9.8h0.7V4.6h-0.7L156.7,9.8L156.7,9.8z M156.7,3.6v-1h0.7v1H156.7L156.7,3.6z M158.6,9.8V4.6h0.7v0.7c0.1-0.3,0.3-0.5,0.6-0.6c0.2-0.1,0.5-0.2,0.8-0.2c0.2,0,0.4,0,0.6,0.1c0.2,0.1,0.4,0.2,0.5,0.4 c0.1,0.1,0.2,0.3,0.3,0.6c0.1,0.2,0.1,0.6,0.1,1.1v3.2h-0.7V6.6c0-0.4,0-0.7-0.1-0.8c-0.1-0.2-0.2-0.3-0.3-0.4 c-0.1-0.1-0.3-0.1-0.5-0.1c-0.3,0-0.6,0.1-0.8,0.4c-0.2,0.3-0.3,0.7-0.3,1.3v2.9H158.6L158.6,9.8z M163.7,6.7h2.4 c0-0.5-0.1-0.8-0.3-1c-0.2-0.3-0.5-0.5-0.9-0.5c-0.3,0-0.6,0.1-0.8,0.4C163.8,5.9,163.7,6.2,163.7,6.7 M166.1,8.1l0.7,0.1 c-0.1,0.6-0.4,1-0.7,1.3c-0.3,0.3-0.7,0.4-1.2,0.4c-0.6,0-1.1-0.2-1.5-0.7c-0.4-0.5-0.6-1.1-0.6-2c0-0.9,0.2-1.6,0.6-2.1 c0.4-0.5,0.9-0.7,1.4-0.7c0.6,0,1,0.2,1.4,0.7c0.4,0.5,0.6,1.1,0.6,2l0,0.2h-3.2c0,0.6,0.2,1,0.4,1.3c0.2,0.3,0.5,0.4,0.9,0.4 C165.5,9.2,165.9,8.8,166.1,8.1L166.1,8.1z M167.5,8.2l0.7-0.1c0,0.4,0.2,0.6,0.4,0.8c0.2,0.2,0.4,0.3,0.8,0.3 c0.3,0,0.6-0.1,0.7-0.2c0.2-0.2,0.3-0.4,0.3-0.6c0-0.2-0.1-0.4-0.2-0.5c-0.1-0.1-0.3-0.2-0.7-0.3c-0.6-0.2-0.9-0.3-1.1-0.4 c-0.2-0.1-0.3-0.3-0.4-0.5c-0.1-0.2-0.2-0.5-0.2-0.7c0-0.4,0.1-0.8,0.4-1.1c0.3-0.3,0.7-0.4,1.2-0.4c0.3,0,0.6,0.1,0.8,0.2 c0.2,0.1,0.4,0.3,0.6,0.5c0.1,0.2,0.2,0.5,0.3,0.8L170.1,6c-0.1-0.6-0.4-0.9-0.9-0.9c-0.3,0-0.6,0.1-0.7,0.2 c-0.1,0.1-0.2,0.3-0.2,0.5c0,0.2,0.1,0.3,0.2,0.5c0.1,0.1,0.4,0.2,0.8,0.3c0.6,0.2,1,0.3,1.2,0.5c0.2,0.1,0.3,0.3,0.4,0.5 C171,7.7,171,8,171,8.2c0,0.5-0.2,0.9-0.5,1.2c-0.3,0.3-0.7,0.5-1.3,0.5C168.2,9.9,167.6,9.4,167.5,8.2L167.5,8.2z M171.6,8.2 l0.7-0.1c0,0.4,0.2,0.6,0.3,0.8c0.2,0.2,0.4,0.3,0.8,0.3c0.3,0,0.6-0.1,0.7-0.2c0.2-0.2,0.3-0.4,0.3-0.6c0-0.2-0.1-0.4-0.2-0.5 c-0.1-0.1-0.3-0.2-0.7-0.3c-0.6-0.2-0.9-0.3-1.1-0.4c-0.2-0.1-0.3-0.3-0.4-0.5c-0.1-0.2-0.2-0.5-0.2-0.7c0-0.4,0.1-0.8,0.4-1.1 c0.3-0.3,0.7-0.4,1.2-0.4c0.3,0,0.6,0.1,0.8,0.2c0.2,0.1,0.4,0.3,0.6,0.5c0.1,0.2,0.2,0.5,0.3,0.8L174.3,6c-0.1-0.6-0.4-0.9-0.9-0.9 c-0.3,0-0.6,0.1-0.7,0.2c-0.1,0.1-0.2,0.3-0.2,0.5c0,0.2,0.1,0.4,0.2,0.5c0.1,0.1,0.4,0.2,0.8,0.3c0.6,0.2,1,0.3,1.2,0.5 c0.2,0.1,0.3,0.3,0.4,0.5c0.1,0.2,0.1,0.4,0.1,0.7c0,0.5-0.2,0.9-0.5,1.2c-0.3,0.3-0.7,0.5-1.3,0.5C172.3,9.9,171.7,9.4,171.6,8.2 L171.6,8.2z M180.2,5.2c0.3-0.2,0.5-0.4,0.6-0.6c0.1-0.2,0.1-0.4,0.1-0.6c0-0.3-0.1-0.5-0.2-0.6c-0.1-0.1-0.3-0.2-0.5-0.2 c-0.2,0-0.4,0.1-0.5,0.2c-0.1,0.2-0.2,0.3-0.2,0.6c0,0.2,0.1,0.5,0.3,0.7L180.2,5.2L180.2,5.2z M181.2,8.2l-1.3-2 c-0.4,0.3-0.6,0.5-0.8,0.8c-0.1,0.2-0.2,0.5-0.2,0.7c0,0.3,0.1,0.6,0.3,0.9c0.2,0.3,0.5,0.4,0.8,0.4c0.2,0,0.4-0.1,0.7-0.2 C180.9,8.7,181.1,8.5,181.2,8.2z M181.7,8.9c-0.5,0.7-1,1-1.7,1c-0.6,0-1-0.2-1.4-0.7c-0.3-0.4-0.5-0.9-0.5-1.5 c0-0.9,0.5-1.6,1.4-2.2c-0.3-0.4-0.4-0.7-0.5-0.9c-0.1-0.2-0.1-0.5-0.1-0.7c0-0.5,0.1-0.8,0.4-1.1c0.3-0.3,0.6-0.5,1-0.5 c0.4,0,0.7,0.1,1,0.4c0.3,0.3,0.4,0.7,0.4,1.1c0,0.7-0.4,1.3-1.1,1.8l1.1,1.6c0.1-0.3,0.2-0.7,0.3-1l0.8,0.2 c-0.1,0.6-0.3,1.1-0.5,1.6c0.3,0.4,0.6,0.8,0.9,1.1l-0.5,0.7C182.3,9.7,182,9.4,181.7,8.9L181.7,8.9z M144.1,21.9v-6.4h-1.9v-0.9 h4.7v0.9h-2v6.4H144.1L144.1,21.9z M147.2,18.8h2.4c0-0.5-0.1-0.8-0.3-1c-0.2-0.3-0.5-0.5-0.9-0.5c-0.3,0-0.6,0.1-0.8,0.4 C147.3,18,147.2,18.3,147.2,18.8 M149.6,20.2l0.7,0.1c-0.1,0.6-0.4,1-0.7,1.3c-0.3,0.3-0.7,0.4-1.2,0.4c-0.6,0-1.1-0.2-1.5-0.7 c-0.4-0.5-0.6-1.1-0.6-2c0-0.9,0.2-1.6,0.6-2.1c0.4-0.5,0.9-0.7,1.4-0.7c0.6,0,1,0.2,1.4,0.7c0.4,0.5,0.6,1.1,0.6,2l0,0.2h-3.2 c0,0.6,0.2,1,0.4,1.3c0.2,0.3,0.5,0.5,0.9,0.5C149,21.3,149.3,20.9,149.6,20.2L149.6,20.2z M154,20l0.7,0.1 c-0.1,0.6-0.3,1.1-0.6,1.4c-0.3,0.3-0.7,0.5-1.2,0.5c-0.6,0-1-0.2-1.4-0.7c-0.4-0.5-0.5-1.1-0.5-2c0-0.9,0.2-1.6,0.6-2 c0.4-0.5,0.8-0.7,1.4-0.7c0.4,0,0.8,0.1,1.1,0.4c0.3,0.3,0.5,0.7,0.6,1.2l-0.7,0.1c-0.1-0.4-0.2-0.6-0.4-0.8 c-0.2-0.2-0.4-0.3-0.6-0.3c-0.4,0-0.7,0.2-0.9,0.5c-0.2,0.3-0.4,0.8-0.4,1.5c0,0.7,0.1,1.2,0.3,1.5c0.2,0.3,0.5,0.5,0.9,0.5 c0.3,0,0.5-0.1,0.7-0.3C153.9,20.8,154,20.4,154,20L154,20z M155.4,21.9v-7.2h0.7v2.6c0.2-0.2,0.4-0.4,0.6-0.5s0.4-0.2,0.7-0.2 c0.5,0,0.8,0.1,1.1,0.4c0.3,0.3,0.4,0.8,0.4,1.6v3.3h-0.7v-3.3c0-0.5-0.1-0.8-0.2-1c-0.2-0.2-0.4-0.3-0.7-0.3 c-0.3,0-0.6,0.1-0.8,0.4c-0.2,0.3-0.3,0.7-0.3,1.3v2.9L155.4,21.9L155.4,21.9z M159.9,21.9v-5.2h0.7v0.7c0.2-0.3,0.4-0.5,0.6-0.6 c0.2-0.1,0.5-0.2,0.8-0.2c0.2,0,0.4,0,0.6,0.1c0.2,0.1,0.4,0.2,0.5,0.4c0.1,0.1,0.2,0.3,0.3,0.6c0.1,0.2,0.1,0.6,0.1,1.1v3.2h-0.7 v-3.2c0-0.4,0-0.7-0.1-0.8c-0.1-0.3-0.4-0.6-0.8-0.6c-0.3,0-0.6,0.1-0.8,0.4c-0.2,0.3-0.3,0.7-0.3,1.3v2.9L159.9,21.9L159.9,21.9z M165,19.3c0,0.7,0.1,1.2,0.4,1.5c0.2,0.3,0.6,0.5,0.9,0.5c0.3,0,0.6-0.2,0.9-0.5c0.2-0.3,0.4-0.8,0.4-1.5c0-0.7-0.1-1.2-0.4-1.5 c-0.2-0.3-0.6-0.5-0.9-0.5c-0.3,0-0.6,0.2-0.9,0.5C165.1,18.1,165,18.6,165,19.3 M164.3,19.3c0-0.9,0.2-1.6,0.6-2 c0.4-0.5,0.9-0.7,1.4-0.7c0.6,0,1,0.2,1.4,0.7c0.4,0.5,0.6,1.1,0.6,2c0,0.9-0.2,1.6-0.6,2.1c-0.4,0.5-0.9,0.7-1.4,0.7 c-0.6,0-1.1-0.2-1.4-0.7C164.4,20.9,164.3,20.2,164.3,19.3L164.3,19.3z M169.1,21.9v-7.2h0.7v7.2H169.1z M171.4,19.3 c0,0.7,0.1,1.2,0.4,1.5c0.2,0.3,0.6,0.5,0.9,0.5c0.3,0,0.6-0.2,0.9-0.5c0.2-0.3,0.4-0.8,0.4-1.5c0-0.7-0.1-1.2-0.4-1.5 c-0.2-0.3-0.6-0.5-0.9-0.5c-0.3,0-0.6,0.2-0.9,0.5C171.5,18.1,171.4,18.6,171.4,19.3 M170.7,19.3c0-0.9,0.2-1.6,0.6-2 c0.4-0.5,0.9-0.7,1.4-0.7c0.6,0,1,0.2,1.4,0.7c0.4,0.5,0.6,1.1,0.6,2c0,0.9-0.2,1.6-0.6,2.1c-0.4,0.5-0.9,0.7-1.4,0.7 c-0.6,0-1.1-0.2-1.4-0.7C170.9,20.9,170.7,20.2,170.7,19.3 M176,19.2c0,0.7,0.1,1.2,0.3,1.5c0.2,0.3,0.5,0.5,0.8,0.5 c0.3,0,0.6-0.2,0.8-0.5c0.2-0.3,0.3-0.8,0.3-1.5c0-0.7-0.1-1.1-0.4-1.5c-0.2-0.3-0.5-0.5-0.9-0.5c-0.3,0-0.6,0.2-0.8,0.5 C176.1,18.1,176,18.6,176,19.2 M175.4,22.3l0.7,0.1c0,0.3,0.1,0.5,0.3,0.6c0.2,0.1,0.4,0.2,0.7,0.2c0.3,0,0.6-0.1,0.8-0.2 c0.2-0.2,0.3-0.4,0.4-0.7c0-0.2,0.1-0.6,0.1-1.2c-0.2,0.2-0.3,0.4-0.5,0.5c-0.2,0.1-0.4,0.2-0.7,0.2c-0.5,0-0.9-0.2-1.3-0.7 c-0.4-0.5-0.6-1.2-0.6-2c0-0.6,0.1-1.1,0.3-1.5c0.2-0.4,0.4-0.7,0.7-0.9c0.3-0.2,0.6-0.3,0.9-0.3c0.3,0,0.5,0.1,0.7,0.2 c0.2,0.1,0.4,0.3,0.6,0.6v-0.6h0.7v4.5c0,0.8-0.1,1.4-0.2,1.7c-0.1,0.3-0.3,0.6-0.6,0.8c-0.3,0.2-0.7,0.3-1.1,0.3 c-0.6,0-1-0.1-1.3-0.5C175.5,23.3,175.4,22.9,175.4,22.3 M180.1,21.9h0.7v-5.2h-0.7L180.1,21.9L180.1,21.9z M180.1,15.7h0.7v-1h-0.7 L180.1,15.7L180.1,15.7z M182.5,18.8h2.4c0-0.5-0.1-0.8-0.3-1c-0.2-0.3-0.5-0.5-0.9-0.5c-0.3,0-0.6,0.1-0.8,0.4 C182.6,18,182.5,18.3,182.5,18.8 M184.9,20.2l0.7,0.1c-0.1,0.6-0.4,1-0.7,1.3c-0.3,0.3-0.7,0.4-1.2,0.4c-0.6,0-1.1-0.2-1.5-0.7 c-0.4-0.5-0.6-1.1-0.6-2c0-0.9,0.2-1.6,0.6-2.1c0.4-0.5,0.9-0.7,1.4-0.7c0.6,0,1,0.2,1.4,0.7c0.4,0.5,0.6,1.1,0.6,2l0,0.2h-3.2 c0,0.6,0.2,1,0.4,1.3c0.2,0.3,0.5,0.5,0.9,0.5C184.3,21.3,184.7,20.9,184.9,20.2L184.9,20.2z M186.3,20.3l0.7-0.1 c0,0.4,0.2,0.6,0.3,0.8c0.2,0.2,0.4,0.3,0.8,0.3c0.3,0,0.6-0.1,0.7-0.2c0.2-0.2,0.3-0.4,0.3-0.6c0-0.2-0.1-0.4-0.2-0.5 c-0.1-0.1-0.3-0.2-0.7-0.3c-0.6-0.2-0.9-0.3-1.1-0.4c-0.2-0.1-0.3-0.3-0.4-0.5c-0.1-0.2-0.2-0.5-0.2-0.7c0-0.4,0.1-0.8,0.4-1.1 c0.3-0.3,0.7-0.4,1.2-0.4c0.3,0,0.6,0.1,0.8,0.2c0.2,0.1,0.4,0.3,0.6,0.5c0.1,0.2,0.2,0.5,0.3,0.8l-0.7,0.1 c-0.1-0.6-0.4-0.9-0.9-0.9c-0.3,0-0.5,0.1-0.7,0.2c-0.1,0.1-0.2,0.3-0.2,0.5c0,0.2,0.1,0.3,0.2,0.5c0.1,0.1,0.4,0.2,0.8,0.3 c0.6,0.2,1,0.3,1.2,0.5c0.2,0.1,0.3,0.3,0.4,0.5c0.1,0.2,0.1,0.4,0.1,0.7c0,0.5-0.2,0.9-0.5,1.2c-0.3,0.3-0.7,0.5-1.3,0.5 C187,22,186.4,21.5,186.3,20.3L186.3,20.3z M145.4,31.2v-0.9l2.5,0V33c-0.3,0.3-0.7,0.6-1.2,0.8c-0.4,0.2-0.8,0.3-1.3,0.3 c-0.5,0-1.1-0.1-1.5-0.4c-0.5-0.3-0.8-0.7-1.1-1.3c-0.3-0.6-0.4-1.2-0.4-2c0-0.8,0.1-1.5,0.4-2.1c0.3-0.6,0.6-1,1-1.3 c0.4-0.3,0.9-0.4,1.5-0.4c0.4,0,0.8,0.1,1.1,0.2c0.3,0.2,0.6,0.4,0.8,0.7c0.2,0.3,0.4,0.7,0.5,1.2l-0.7,0.2 c-0.1-0.4-0.2-0.7-0.4-0.9c-0.1-0.2-0.3-0.4-0.6-0.5c-0.2-0.1-0.5-0.2-0.8-0.2c-0.4,0-0.8,0.1-1.1,0.3c-0.3,0.2-0.6,0.5-0.7,1 c-0.2,0.4-0.3,1-0.3,1.6c0,1,0.2,1.7,0.6,2.2c0.4,0.5,0.9,0.7,1.6,0.7c0.3,0,0.6-0.1,0.9-0.2c0.3-0.1,0.6-0.3,0.8-0.5v-1.3 L145.4,31.2L145.4,31.2z M148.9,34v-5.2h0.6v0.8c0.2-0.4,0.3-0.6,0.5-0.7c0.1-0.1,0.3-0.2,0.5-0.2c0.2,0,0.5,0.1,0.7,0.3l-0.2,0.8 c-0.2-0.1-0.4-0.2-0.5-0.2c-0.2,0-0.3,0.1-0.4,0.2c-0.1,0.1-0.2,0.3-0.3,0.5c-0.1,0.3-0.1,0.7-0.1,1.1V34L148.9,34L148.9,34z M152.1,31.4c0,0.7,0.1,1.2,0.4,1.5c0.2,0.3,0.6,0.5,0.9,0.5c0.3,0,0.6-0.2,0.9-0.5c0.2-0.3,0.4-0.8,0.4-1.5c0-0.7-0.1-1.2-0.4-1.5 c-0.2-0.3-0.6-0.5-0.9-0.5c-0.3,0-0.6,0.2-0.9,0.5C152.3,30.2,152.1,30.7,152.1,31.4 M151.4,31.4c0-0.9,0.2-1.6,0.6-2 c0.4-0.5,0.9-0.7,1.4-0.7c0.6,0,1,0.2,1.4,0.7c0.4,0.5,0.6,1.1,0.6,2c0,0.9-0.2,1.6-0.6,2.1c-0.4,0.5-0.9,0.7-1.4,0.7 c-0.6,0-1.1-0.2-1.4-0.7C151.6,33,151.4,32.3,151.4,31.4z M159.1,34v-0.8c-0.1,0.3-0.3,0.5-0.6,0.7c-0.2,0.1-0.5,0.2-0.8,0.2 c-0.3,0-0.6-0.1-0.9-0.3c-0.2-0.2-0.4-0.4-0.5-0.7s-0.1-0.7-0.1-1.1v-3.2h0.7v2.9c0,0.5,0,0.9,0.1,1.1c0,0.2,0.2,0.3,0.3,0.4 c0.1,0.1,0.3,0.2,0.5,0.2c0.3,0,0.6-0.1,0.9-0.4c0.2-0.2,0.3-0.7,0.3-1.4v-2.8h0.7V34H159.1z M128.1,0.1h0.6v38.3h-0.6V0.1z M97.3,9.2h-8.2V3.4h23.4v5.8h-8.3v24.7h-6.9V9.2z M40.4,29c0.7,0.1,1.5,0.1,2.7,0.1c3.1,0,5.9-1.2,5.9-4.4c0-3-2.8-4.2-6.2-4.2 h-2.3C40.4,20.4,40.4,29,40.4,29z M40.4,15.5h2.3c3.7,0,5.5-1.5,5.5-3.8c0-2.3-1.8-3.5-4.9-3.5c-1.5,0-2.4,0.1-2.9,0.2 C40.4,8.4,40.4,15.5,40.4,15.5z M33.6,3.8c1.8-0.3,5.4-0.6,8.9-0.6c4.2,0,6.8,0.4,9,1.7c2.1,1.1,3.6,3.2,3.6,6c0,2.7-1.6,5.2-5,6.5 v0.1c3.5,0.9,6,3.6,6,7.5c0,2.8-1.3,5-3.2,6.5c-2.2,1.8-5.9,2.8-12,2.8c-3.4,0-5.9-0.2-7.4-0.5V3.8z M71.6,7.2 c-1.8,0-2.7,1.5-2.7,3.1c0,1.5,0.7,2.9,2.1,4.4c2.2-1.5,3.3-2.7,3.3-4.5C74.3,8.8,73.4,7.2,71.6,7.2L71.6,7.2L71.6,7.2z M75,27.9 c-1.8-1.9-4.3-4.7-6.9-7.5c-1.3,1-2.4,2.3-2.4,4.3c0,2.6,1.9,4.8,5.1,4.8C72.6,29.4,74.1,28.7,75,27.9z M80.2,33.9 c-0.6-0.7-1.3-1.4-2-2.2c-2,1.5-4.7,2.7-8.3,2.7c-7.4,0-10.6-4.3-10.6-8.6c0-4,2.3-6.9,5.8-8.8v-0.1c-1.3-1.5-2.3-3.7-2.3-5.9 c0-3.8,3.1-8,9.2-8c4.7,0,8.2,2.8,8.2,7.1c0,3.1-1.8,5.7-6,7.8l0,0.2c1.8,2,3.6,4.2,5.1,5.7c1.2-1.9,2.2-4.8,2.6-7.5h6.1 c-0.8,4.7-2.3,8.6-5.1,11.6c1.7,2,3.5,4,5.4,6H80.2z"></path> <path class="st2" d="M12.3,5.4V4.7H6.9v0.8h2.9c0.7,0,1.2,0.1,1.4,0.3c0.3,0.2,0.5,0.5,0.5,0.9c0,0.4-0.3,0.7-0.6,0.8 c-0.2,0.1-0.6,0.1-1.1,0.1h-3v0.8h3.4c0.5,0,0.9,0,1.2-0.1c0.3-0.1,0.5-0.3,0.7-0.5c0.2-0.3,0.3-0.6,0.3-0.9c0-0.3-0.1-0.6-0.2-0.8 c-0.2-0.3-0.4-0.5-0.7-0.6L12.3,5.4L12.3,5.4z"></path> <path class="st2" d="M12.3,31.2h-0.7c0.3-0.2,0.5-0.3,0.6-0.5c0.1-0.2,0.2-0.4,0.2-0.7c0-0.5-0.3-1-0.8-1.4 c-0.5-0.4-1.2-0.6-2.1-0.6c-0.6,0-1.1,0.1-1.6,0.3c-0.4,0.2-0.7,0.4-1,0.7c-0.2,0.3-0.3,0.6-0.3,1c0,0.2,0.1,0.5,0.2,0.7 C7,30.8,7.2,31,7.5,31.2H4.8v0.8h7.5V31.2L12.3,31.2z"></path> <path class="st0" d="M9.6,31.2c-0.7,0-1.2-0.1-1.5-0.4c-0.4-0.2-0.5-0.5-0.5-0.8c0-0.3,0.2-0.6,0.5-0.9c0.3-0.2,0.9-0.4,1.6-0.4 c0.7,0,1.2,0.1,1.6,0.4c0.4,0.2,0.5,0.5,0.5,0.8c0,0.2-0.1,0.4-0.2,0.6c-0.1,0.2-0.4,0.3-0.6,0.4C10.5,31.2,10.1,31.2,9.6,31.2z"></path> <rect x="6.9" y="26.3" class="st2" width="5.5" height="0.8"></rect> <rect x="4.8" y="26.3" class="st2" width="1.1" height="0.8"></rect> <path class="st2" d="M11.5,23.5c0,0.1,0,0.2,0,0.3c0,0.2-0.1,0.3-0.2,0.4c-0.1,0-0.3,0.1-0.6,0.1H7.6v-0.8H6.9v0.8H5L5.5,25h1.4v0.6 h0.7V25h3.1c0.5,0,0.9,0,1.1-0.1c0.2-0.1,0.3-0.2,0.4-0.3c0.1-0.2,0.2-0.4,0.2-0.6c0-0.2,0-0.4-0.1-0.6L11.5,23.5L11.5,23.5z"></path> <polygon class="st2" points="4.8,22.8 12.3,22.8 12.3,22 4.8,22 4.8,22.8 "></polygon> <path class="st2" d="M11.5,19.1c0,0.1,0,0.2,0,0.3c0,0.2-0.1,0.3-0.2,0.4c-0.1,0-0.3,0.1-0.6,0.1H7.6v-0.8H6.9v0.8H5l0.6,0.8h1.4 v0.6h0.7v-0.6h3.1c0.5,0,0.9,0,1.1-0.1c0.2-0.1,0.3-0.2,0.4-0.3c0.1-0.2,0.2-0.4,0.2-0.6c0-0.2,0-0.4-0.1-0.6 C12.3,19,11.5,19.1,11.5,19.1z"></path> <path class="st2" d="M12.3,15.5v-0.7H4.8v0.8h2.7c-0.2,0.1-0.4,0.3-0.6,0.5c-0.1,0.2-0.2,0.5-0.2,0.7c0,0.4,0.1,0.7,0.3,1 c0.2,0.3,0.5,0.5,1,0.7c0.4,0.2,1,0.3,1.6,0.3c0.9,0,1.6-0.2,2.1-0.6c0.5-0.4,0.7-0.8,0.7-1.4c0-0.2-0.1-0.5-0.2-0.7 c-0.2-0.2-0.4-0.4-0.6-0.5L12.3,15.5L12.3,15.5z"></path> <path class="st0" d="M9.6,17.9c-0.7,0-1.3-0.1-1.6-0.3c-0.3-0.2-0.5-0.5-0.5-0.8c0-0.4,0.2-0.7,0.5-0.9c0.4-0.2,0.9-0.4,1.7-0.4 c0.7,0,1.2,0.1,1.5,0.4c0.3,0.2,0.5,0.5,0.5,0.8s-0.2,0.6-0.5,0.9C10.8,17.8,10.3,17.9,9.6,17.9z"></path> <rect x="11.3" y="12.5" class="st2" width="1.1" height="0.9"></rect> <path class="st2" d="M12.3,11.2v-0.8H9.5c-0.4,0-0.8,0-1.1-0.1c-0.2,0-0.3-0.1-0.5-0.3C7.8,9.9,7.7,9.7,7.7,9.6 c0-0.2,0.1-0.4,0.2-0.6L7,8.7C6.8,9,6.7,9.3,6.7,9.5c0,0.2,0.1,0.3,0.2,0.5c0.1,0.1,0.4,0.3,0.8,0.5H6.9v0.7L12.3,11.2L12.3,11.2z"></path> </svg> 