<?xml version="1.0" encoding="UTF-8"?> <!-- Generator: Adobe Illustrator 25.1.0, SVG Export Plug-In . SVG Version: 6.00 Build 0) --> <svg xmlns="http://www.w3.org/2000/svg" xmlns:xlink="http://www.w3.org/1999/xlink" id="Layer_1" x="0px" y="0px" viewBox="0 0 163.9 87.3" style="enable-background:new 0 0 163.9 87.3;" xml:space="preserve"> <style type="text/css"> .st0{fill:url(#SVGID_1_);} .st1{fill:url(#SVGID_2_);} .st2{fill:url(#SVGID_3_);} .st3{fill:url(#SVGID_4_);} .st4{fill:url(#SVGID_5_);} .st5{fill:url(#SVGID_6_);} .st6{fill:url(#SVGID_7_);} .st7{fill:url(#SVGID_8_);} .st8{fill:url(#SVGID_9_);} .st9{fill:url(#SVGID_10_);} .st10{fill:url(#SVGID_11_);} .st11{fill:url(#SVGID_12_);} .st12{fill:url(#SVGID_13_);} .st13{fill:url(#SVGID_14_);} .st14{fill:url(#SVGID_15_);} .st15{fill:url(#SVGID_16_);} .st16{fill:url(#SVGID_17_);} .st17{fill:#FFFFFF;} </style> <g> <linearGradient id="SVGID_1_" gradientUnits="userSpaceOnUse" x1="63.95" y1="1456.8149" x2="63.95" y2="1470.8329" gradientTransform="matrix(1 0 0 1 0 -1439.1338)"> <stop offset="0" style="stop-color:#DBA628"></stop> <stop offset="1" style="stop-color:#AF1016"></stop> </linearGradient> <polygon class="st0" points="68.6,31.7 63,18.4 59.3,17.7 "></polygon> <linearGradient id="SVGID_2_" gradientUnits="userSpaceOnUse" x1="61" y1="1490.2616" x2="61" y2="1504.5255" gradientTransform="matrix(1 0 0 1 0 -1439.1338)"> <stop offset="0" style="stop-color:#DBA628"></stop> <stop offset="1" style="stop-color:#AF1016"></stop> </linearGradient> <polygon class="st1" points="65.2,51.1 59.2,64.7 56.8,65.4 "></polygon> <linearGradient id="SVGID_3_" gradientUnits="userSpaceOnUse" x1="60.6" y1="1484.8511" x2="60.6" y2="1495.426" gradientTransform="matrix(1 0 0 1 0 -1439.1338)"> <stop offset="0" style="stop-color:#DBA628"></stop> <stop offset="1" style="stop-color:#AF1016"></stop> </linearGradient> <polygon class="st2" points="65.4,45.7 60.7,56.3 55.8,56 "></polygon> <linearGradient id="SVGID_4_" gradientUnits="userSpaceOnUse" x1="50.05" y1="1498.8691" x2="50.05" y2="1514.3691" gradientTransform="matrix(1 0 0 1 0 -1439.1338)"> <stop offset="0" style="stop-color:#DBA628"></stop> <stop offset="1" style="stop-color:#AF1016"></stop> </linearGradient> <polygon class="st3" points="56.8,59.7 47.9,72.7 43.3,75.2 "></polygon> <linearGradient id="SVGID_5_" gradientUnits="userSpaceOnUse" x1="49.4" y1="1488.2942" x2="49.4" y2="1504.5255" gradientTransform="matrix(1 0 0 1 0 -1439.1338)"> <stop offset="0" style="stop-color:#DBA628"></stop> <stop offset="1" style="stop-color:#AF1016"></stop> </linearGradient> <polygon class="st4" points="59.5,49.2 46.2,65.4 39.3,64.4 "></polygon> <linearGradient id="SVGID_6_" gradientUnits="userSpaceOnUse" x1="52.9" y1="1483.1338" x2="52.9" y2="1494.4467" gradientTransform="matrix(1 0 0 1 0 -1439.1338)"> <stop offset="0" style="stop-color:#DBA628"></stop> <stop offset="1" style="stop-color:#AF1016"></stop> </linearGradient> <polygon class="st5" points="62.5,44 47.7,55.3 43.3,52.1 "></polygon> <linearGradient id="SVGID_7_" gradientUnits="userSpaceOnUse" x1="29.15" y1="1495.9181" x2="29.15" y2="1511.4181" gradientTransform="matrix(1 0 0 1 0 -1439.1338)"> <stop offset="0" style="stop-color:#DBA628"></stop> <stop offset="1" style="stop-color:#AF1016"></stop> </linearGradient> <polygon class="st6" points="41.8,56.8 22.1,72.3 16.5,68.6 "></polygon> <linearGradient id="SVGID_8_" gradientUnits="userSpaceOnUse" x1="40.6" y1="1482.6338" x2="40.6" y2="1495.4338" gradientTransform="matrix(1 0 0 1 0 -1439.1338)"> <stop offset="0" style="stop-color:#DBA628"></stop> <stop offset="1" style="stop-color:#AF1016"></stop> </linearGradient> <polygon class="st7" points="55.6,43.5 29.8,56.3 25.6,50.1 "></polygon> <linearGradient id="SVGID_9_" gradientUnits="userSpaceOnUse" x1="16" y1="1481.162" x2="16" y2="1489.2778" gradientTransform="matrix(1 0 0 1 0 -1439.1338)"> <stop offset="0" style="stop-color:#DBA628"></stop> <stop offset="1" style="stop-color:#AF1016"></stop> </linearGradient> <polygon class="st8" points="32,43 2.5,50.1 0,42 "></polygon> <linearGradient id="SVGID_10_" gradientUnits="userSpaceOnUse" x1="48.55" y1="1476.9813" x2="48.55" y2="1484.1133" gradientTransform="matrix(1 0 0 1 0 -1439.1338)"> <stop offset="0" style="stop-color:#DBA628"></stop> <stop offset="1" style="stop-color:#AF1016"></stop> </linearGradient> <polygon class="st9" points="60.7,39.3 37.9,45 36.4,37.8 "></polygon> <linearGradient id="SVGID_11_" gradientUnits="userSpaceOnUse" x1="37.85" y1="1469.6034" x2="37.85" y2="1475.5034" gradientTransform="matrix(1 0 0 1 0 -1439.1338)"> <stop offset="0" style="stop-color:#DBA628"></stop> <stop offset="1" style="stop-color:#AF1016"></stop> </linearGradient> <polygon class="st10" points="53.1,36.4 22.6,36.1 22.9,30.5 "></polygon> <linearGradient id="SVGID_12_" gradientUnits="userSpaceOnUse" x1="19.3" y1="1455.8339" x2="19.3" y2="1467.6338" gradientTransform="matrix(1 0 0 1 0 -1439.1338)"> <stop offset="0" style="stop-color:#DBA628"></stop> <stop offset="1" style="stop-color:#AF1016"></stop> </linearGradient> <polygon class="st11" points="34.7,28.5 3.9,22.8 6.9,16.7 "></polygon> <linearGradient id="SVGID_13_" gradientUnits="userSpaceOnUse" x1="49.05" y1="1464.6847" x2="49.05" y2="1474.522" gradientTransform="matrix(1 0 0 1 0 -1439.1338)"> <stop offset="0" style="stop-color:#DBA628"></stop> <stop offset="1" style="stop-color:#AF1016"></stop> </linearGradient> <polygon class="st12" points="39.6,25.6 36.4,31.5 61.7,35.4 "></polygon> <linearGradient id="SVGID_14_" gradientUnits="userSpaceOnUse" x1="45.1" y1="1453.3718" x2="45.1" y2="1470.587" gradientTransform="matrix(1 0 0 1 0 -1439.1338)"> <stop offset="0" style="stop-color:#DBA628"></stop> <stop offset="1" style="stop-color:#AF1016"></stop> </linearGradient> <polygon class="st13" points="36.4,14.2 59.5,31.5 30.7,20.1 "></polygon> <linearGradient id="SVGID_15_" gradientUnits="userSpaceOnUse" x1="35.05" y1="1439.106" x2="35.05" y2="1454.8474" gradientTransform="matrix(1 0 0 1 0 -1439.1338)"> <stop offset="0" style="stop-color:#DBA628"></stop> <stop offset="1" style="stop-color:#AF1016"></stop> </linearGradient> <polygon class="st14" points="30.2,0 46.7,15.7 23.4,0.2 "></polygon> <linearGradient id="SVGID_16_" gradientUnits="userSpaceOnUse" x1="55.2" y1="1456.8149" x2="55.2" y2="1470.587" gradientTransform="matrix(1 0 0 1 0 -1439.1338)"> <stop offset="0" style="stop-color:#DBA628"></stop> <stop offset="1" style="stop-color:#AF1016"></stop> </linearGradient> <polygon class="st15" points="52.4,17.7 64.4,31.5 46,19.6 "></polygon> <linearGradient id="SVGID_17_" gradientUnits="userSpaceOnUse" x1="53.5" y1="1446.2339" x2="53.5" y2="1463.6949" gradientTransform="matrix(1 0 0 1 0 -1439.1338)"> <stop offset="0" style="stop-color:#DBA628"></stop> <stop offset="1" style="stop-color:#AF1016"></stop> </linearGradient> <polygon class="st16" points="50.9,7.1 62.2,24.6 44.8,7.6 "></polygon> <g> <polygon class="st17" points="64.5,31.5 64.5,34.3 71.9,34.3 71.9,37.1 67.2,37.1 67.2,39.9 71.9,39.9 71.9,42.7 64.5,42.7 64.5,45.5 76.1,45.5 76.1,31.5 76.1,31.5 "></polygon> <polygon class="st17" points="135.1,34.3 135.1,31.5 123.5,31.5 123.5,45.5 123.5,45.5 135.1,45.5 135.1,42.7 127.6,42.7 127.6,39.9 132.3,39.9 132.3,37.1 127.6,37.1 127.6,34.3 "></polygon> <polygon class="st17" points="107.7,31.5 107.7,45.5 111.8,45.5 111.8,34.3 116.5,34.3 116.5,45.5 120.7,45.5 120.7,31.5 "></polygon> <path class="st17" d="M137.9,31.5v14h4.2v-5.6h7.5v-8.4C149.6,31.5,137.9,31.5,137.9,31.5z M145.6,37.1H142v-2.8h3.6V37.1z"></path> <polygon class="st17" points="163.9,31.5 152.3,31.5 152.3,34.3 156,34.3 156,45.5 160.2,45.5 160.2,34.3 163.9,34.3 "></polygon> <polygon class="st17" points="87.8,31.5 83,37.1 83,31.5 78.9,31.5 78.9,45.5 83,45.5 83,39.9 87.5,45.5 90.5,45.5 90.5,42.7 86.4,37.5 89.2,34.3 90.5,34.3 90.5,31.5 "></polygon> <polygon class="st17" points="93.3,31.5 93.3,45.5 93.3,45.5 104.9,45.5 104.9,42.7 97.4,42.7 97.4,34.3 102.1,34.3 102.1,35.5 104.9,35.5 104.9,31.5 "></polygon> </g> <g> <path class="st17" d="M93.6,63.4h-3V52.6h9.2v2.2h-6.2V63.4z"></path> <path class="st17" d="M111.6,60.5c0,1.1-0.3,1.9-0.8,2.3c-0.5,0.5-1.4,0.7-2.6,0.7H104c-1.2,0-2-0.2-2.6-0.7 c-0.5-0.5-0.8-1.3-0.8-2.3v-4.9c0-1.1,0.3-1.9,0.8-2.3c0.5-0.5,1.4-0.7,2.6-0.7h4.2c1.2,0,2,0.2,2.6,0.7c0.5,0.5,0.8,1.3,0.8,2.3 V60.5z M108.5,55.5c0-0.6-0.3-0.9-1-0.9h-2.9c-0.7,0-1,0.3-1,0.9v4.9c0,0.6,0.3,0.9,1,0.9h2.9c0.7,0,1-0.3,1-0.9V55.5z"></path> <path class="st17" d="M114.9,52.6h8.9v8.6h1.3v4.2h-2.9l-0.2-2h-6.6l-0.2,2h-2.9v-4.2h1.1c0.2-0.2,0.3-0.4,0.5-0.6 c0.1-0.2,0.2-0.4,0.3-0.7c0.1-0.3,0.2-0.6,0.2-0.9L114.9,52.6z M120.7,61.2v-6.4h-3.1l-0.3,3.9c0,0.4-0.1,0.7-0.2,1.1 c-0.1,0.3-0.2,0.6-0.3,0.8c-0.1,0.3-0.3,0.5-0.4,0.7L120.7,61.2L120.7,61.2z"></path> <path class="st17" d="M128.8,63.4h-3.3l4.5-10.8h3.4l4.5,10.8h-3.3l-0.8-1.9h-4.2L128.8,63.4z M130.3,59.5h2.7l-1.4-3.6 L130.3,59.5z"></path> </g> </g> </svg> 