<?xml version="1.0" encoding="UTF-8"?> <svg xmlns="http://www.w3.org/2000/svg" xmlns:xlink="http://www.w3.org/1999/xlink" version="1.1" id="Слой_1" x="0px" y="0px" viewBox="0 0 485.4 134.5" style="enable-background:new 0 0 485.4 134.5;" xml:space="preserve"> <style type="text/css"> .st0{fill:#1C3B6C;} .st1{fill:#D49D4D;} </style> <g> <path class="st0" d="M227.9,73.7c-2.1-2-3.1-4.6-3.1-7.6c0-3.1,1-5.6,3.1-7.6c2.1-2,4.7-3,7.8-3c2.1,0,4,0.5,5.6,1.4v3.2 c-1.7-1.1-3.5-1.6-5.6-1.6c-2.2,0-4,0.7-5.4,2.2c-1.4,1.4-2.2,3.2-2.2,5.4c0,2.2,0.7,4,2.2,5.5c1.5,1.4,3.3,2.1,5.5,2.1 c2.3,0,4.3-0.6,5.9-1.9V75c-1.7,1.1-3.7,1.6-6,1.6C232.5,76.6,230,75.6,227.9,73.7"></path> <polygon class="st0" points="247.9,76.3 247.9,55.8 262.6,55.8 262.6,58.8 251.1,58.8 251.1,63.9 260.5,63.9 260.5,66.8 251.1,66.8 251.1,73.3 263,73.3 263,76.3 "></polygon> <path class="st0" d="M268.8,76.3V55.8h8.9c2.2,0,3.8,0.6,5,1.7c1.2,1.1,1.9,2.5,1.9,4.3c0,1.8-0.6,3.2-1.9,4.4 c-1.2,1.1-2.9,1.7-5,1.7h-5.6v8.4L268.8,76.3L268.8,76.3z M272.1,64.9h5.4c2.5,0,3.9-1.1,3.9-3.1c0-2-1.4-3-3.9-3h-5.4V64.9z"></path> <path class="st0" d="M290.4,76.3V55.8h9.4c3.7,0,6.1,1.9,6.1,5c0,2.1-1.2,3.6-2.7,4.2c2.5,0.5,4.4,2.5,4.4,5.5 c0,1.7-0.6,3.1-1.9,4.2c-1.2,1.1-2.9,1.6-5.1,1.6H290.4z M293.6,64.1h5.6c2.2,0,3.4-0.9,3.4-2.7c0-1.7-1.3-2.6-3.4-2.6h-5.6V64.1z M293.6,73.3h6.3c2.5,0,4-1.2,4-3.3c0-2-1.5-3.2-4-3.2h-6.3V73.3z"></path> <polygon class="st0" points="313.7,76.3 313.7,55.8 317,55.8 317,70.8 328.3,55.8 331.2,55.8 331.2,76.3 327.9,76.3 327.9,61.2 316.5,76.3 "></polygon> <path class="st0" d="M340.7,73.7c-2.1-2-3.1-4.6-3.1-7.6c0-3.1,1-5.6,3.1-7.6c2.1-2,4.7-3,7.8-3c2.1,0,4,0.5,5.6,1.4v3.2 c-1.7-1.1-3.5-1.6-5.6-1.6c-2.2,0-4,0.7-5.4,2.2c-1.4,1.4-2.2,3.2-2.2,5.4c0,2.2,0.7,4,2.2,5.5c1.5,1.4,3.3,2.1,5.5,2.1 c2.3,0,4.3-0.6,5.9-1.9V75c-1.7,1.1-3.7,1.6-6,1.6C345.3,76.6,342.8,75.6,340.7,73.7"></path> <polygon class="st0" points="224.7,43.5 224.7,23 239.2,23 239.2,26 228,26 228,43.5 "></polygon> <path class="st0" d="M240.2,43.5l9-20.5h3.1l9,20.5h-3.5l-2.2-5.1h-9.8l-2.2,5.1H240.2z M247,35.5h7.6l-3.8-8.6L247,35.5z"></path> <path class="st0" d="M266.1,42.1v-3.2c1.8,1.1,4.5,1.9,6.8,1.9c3.5,0,5.7-1.4,5.7-3.6c0-1.9-2-3.2-5-3.2h-2.6v-2.9h2.9 c2.5,0,4-1,4-2.7c0-1.8-1.7-2.7-4.5-2.7c-2.2,0-4.3,0.5-6.4,1.5v-2.9c2-1,4.2-1.5,6.5-1.5c2.2,0,4,0.5,5.4,1.5c1.4,1,2.1,2.4,2.1,4 c0,1.1-0.3,2-1,2.7c-0.7,0.7-1.4,1.2-2.2,1.5c1.1,0.3,2,0.9,2.8,1.8c0.8,0.8,1.2,2,1.2,3.3c0,1.8-0.8,3.4-2.3,4.6 c-1.5,1.2-3.6,1.8-6.2,1.8C270.4,43.8,268,43.2,266.1,42.1"></path> <polygon class="st0" points="288.1,43.5 288.1,23 291.4,23 291.4,38 302.7,23 305.6,23 305.6,43.5 302.3,43.5 302.3,28.4 290.9,43.5 "></polygon> <polygon class="st0" points="312.9,43.5 312.9,23 316.2,23 316.2,31.1 326.9,31.1 326.9,23 330.2,23 330.2,43.5 326.9,43.5 326.9,34 316.2,34 316.2,43.5 "></polygon> <path class="st0" d="M346.5,44.2v-2.2c-3.3-0.1-5.8-1-7.5-2.7c-1.7-1.7-2.6-3.7-2.6-6.1c0-4.4,3.2-8.7,10.1-8.8v-1.9h3.2v1.9 c6.9,0.2,10.1,4.4,10.1,8.8c0,4.4-3.2,8.6-10.1,8.8v2.2H346.5z M346.5,27.1c-2.2,0-3.9,0.6-5.1,1.8c-1.1,1.1-1.7,2.5-1.7,4.2 c0,1.7,0.6,3.1,1.7,4.3c1.1,1.1,2.8,1.7,5.1,1.7V27.1z M349.7,39.1c2.2,0,3.9-0.6,5.1-1.7c1.2-1.1,1.7-2.6,1.7-4.3 c0-1.7-0.6-3.1-1.7-4.2c-1.2-1.1-2.8-1.7-5.1-1.8V39.1z"></path> <path class="st0" d="M376.1,43.8c-3,0-5.5-1-7.5-3c-2-2-3-4.6-3-7.6c0-3,1-5.5,3-7.5c2-2,4.5-3.1,7.5-3.1c3,0,5.5,1,7.6,3.1 c2,2,3,4.5,3,7.5c0,3-1,5.5-3,7.6C381.7,42.8,379.2,43.8,376.1,43.8 M376.1,40.8c2,0,3.7-0.7,5.1-2.2c1.4-1.5,2.1-3.3,2.1-5.4 c0-2.2-0.7-4-2.1-5.4c-1.4-1.5-3.1-2.2-5.1-2.2c-2,0-3.7,0.7-5.1,2.2c-1.4,1.4-2.1,3.2-2.1,5.4c0,2.2,0.7,4,2.1,5.4 C372.4,40.1,374.1,40.8,376.1,40.8"></path> <path class="st0" d="M393.1,43.5V23h8.9c2.2,0,3.8,0.6,5,1.7c1.2,1.1,1.9,2.5,1.9,4.3c0,1.8-0.6,3.2-1.9,4.4 c-1.2,1.1-2.9,1.7-5,1.7h-5.6v8.4H393.1z M396.4,32.1h5.4c2.4,0,3.9-1.1,3.9-3.1c0-2-1.4-3-3.9-3h-5.4V32.1z"></path> <polygon class="st0" points="414.7,43.5 414.7,23 418,23 424.7,32.2 431.3,23 434.6,23 434.6,43.5 431.3,43.5 431.3,27.9 425.6,35.6 423.7,35.6 417.9,27.9 417.9,43.5 "></polygon> <rect x="100.4" y="22.9" class="st0" width="14.4" height="62.7"></rect> <path class="st0" d="M60.9,47.8l-4.4,12h17.6v12.1H50.8c-9.5,0-17.2-8.2-17.2-17.6c0-9.4,7.7-17.6,17.2-17.6h31.7l5.1-13.8l-36.8,0 c-17.5,0-31.7,14.1-31.7,31.4c0,17.3,14.2,31.4,31.7,31.4h33.4c2,0,3.5-1.5,3.5-3.7V47.8H60.9z"></path> <path class="st0" d="M189.4,36.7l5.1-13.8v0h-51.7c-9.5,0-16.4,6.8-16.4,16.2c0,7.8,3.3,13.6,9.7,17.2c4.8,2.7,29.1,6.7,31.6,7.1 c6.2,1.1,9,1.4,10.8,2.8c1.6,1.3,1.3,5.7,1.3,5.7h-48.5l-5.1,13.8H178c3.6,0,7.4-1.4,10.4-3.7c3.9-3,6-7.3,6-12 c0-7.5-2.6-13.2-8.1-16.5c-4.2-2.5-9.5-3.5-16.2-4.7c-2-0.4-17.3-3.4-24.1-5.1c-1.1-0.3-2-0.5-2.6-0.7c-2.3-0.7-1.8-6.4-1.8-6.4 L189.4,36.7z"></path> <g> <path class="st1" d="M246.3,85.2c-0.3-0.4-0.7-0.8-1.2-1.1c-0.5-0.3-1-0.5-1.5-0.5c-0.5-0.1-1.1-0.1-1.7,0c-1,0.1-2,0.4-3,0.8 c-1,0.4-2,0.8-3,1.3c-0.9,0.5-1.9,1-2.7,1.6c-0.9,0.6-1.6,1.1-2.2,1.6c-0.7,0.5-1.2,0.9-1.6,1.3c-0.5,0.5-0.8,0.9-0.7,1.3 c0,0.3,0.2,0.7,0.4,0.9c0.2,0.2,0.4,0.4,0.6,0.5c0.2,0.2,0.4,0.3,0.6,0.4c0.3,0.1,0.5,0.2,0.7,0.1c0.3,0,0.5-0.2,1.2-0.7 c0.4-0.4,1-0.8,1.6-1.4c0.6-0.5,1.3-1.1,2.1-1.8c0.8-0.6,1.6-1.2,2.4-1.8c0.8-0.5,1.6-1,2.4-1.4c0.8-0.4,1.4-0.6,2.1-0.7 c0.3,0,0.5,0,0.5,0c0.1,0.1,0.2,0.3,0.2,0.5c0.1,0.7-0.1,1.6-0.7,2.7c-0.6,1.2-1.4,2.5-2.4,3.9c-1,1.4-2.1,2.9-3.4,4.3 c-1.3,1.5-2.5,2.8-3.7,4.1c-1.2,1.3-2.3,2.4-3.3,3.4l-2.2,2.2c-1.4,1.4-2.5,2.5-3.3,3.5c-1,1.1-1.4,2.1-1.2,2.9 c0.1,0.8,0.5,1.5,1,1.9c0.4,0.3,0.8,0.5,1.2,0.5c0.2,0,0.4,0,0.7,0c0.2,0,0.5-0.1,1.3-0.6c0.5-0.3,1.1-0.7,1.9-1.2 c0.7-0.5,1.6-1.1,2.6-1.7c1-0.6,2-1.3,3.1-2c1.1-0.7,2.3-1.3,3.5-2c1.2-0.6,2.5-1.2,3.8-1.8c0.3-0.2,0.5-0.4,0.5-0.6l0.1-0.4 l-0.2-0.3c-0.3-0.4-0.7-0.5-0.9-0.5l-0.1,0l-0.1,0c-0.5,0.1-1.2,0.3-2,0.6c-0.8,0.3-1.6,0.6-2.5,0.9c-0.9,0.3-1.8,0.7-2.8,1.2 c-1,0.4-1.9,0.9-2.8,1.4c-0.3,0.2-0.7,0.4-1,0.5l1.2-1.4c0.8-0.9,1.6-1.7,2.4-2.6c0.8-0.9,1.6-1.7,2.3-2.5l2-2.1 c0.9-0.9,1.8-1.9,2.8-2.9c1-1.1,2-2.2,2.8-3.4c0.8-1.2,1.5-2.4,2-3.6c0.5-1.3,0.7-2.5,0.6-3.8C246.9,86.2,246.7,85.6,246.3,85.2z"></path> <path class="st1" d="M269.9,80.1c-1.2-0.9-2.7-1.2-4.5-1c-0.4,0.1-0.9,0.2-1.4,0.4c-0.4,0.2-0.9,0.4-1.3,0.6 c-0.4,0.2-0.7,0.4-1,0.5c-0.2,0.1-0.3,0.1-0.4,0.2c-0.3-0.3-0.6-0.4-0.9-0.4c-0.5,0.1-1.1,0.4-1.8,1c-0.6,0.5-1.3,1.2-2,2 c-0.7,0.8-1.5,1.8-2.3,2.9c-0.8,1.1-1.5,2.2-2.3,3.5c-0.8,1.3-1.5,2.6-2.1,3.9c-0.7,1.3-1.3,2.7-1.7,4c-0.5,1.3-0.8,2.7-1,3.9 c-0.2,1.3-0.3,2.5-0.1,3.6c0.2,1.2,0.5,2.1,0.9,2.9c0.4,0.7,1,1.3,1.6,1.7c0.6,0.4,1.3,0.6,2,0.7c0,0,0,0,0,0c0.7,0.1,1.4,0.1,2,0 c1.2-0.2,2.6-0.7,4-1.7c1.4-0.9,2.8-2.1,4.2-3.6c1.4-1.4,2.8-3.1,4-4.9c1.3-1.8,2.4-3.7,3.4-5.5c1-1.9,1.7-3.8,2.2-5.6 c0.5-1.9,0.7-3.6,0.5-5.2C271.9,82.3,271.1,81,269.9,80.1z M269.2,88.7c-0.5,1.7-1.2,3.5-2.1,5.2c-0.9,1.8-2,3.5-3.3,5.1 c-1.2,1.6-2.5,3.1-3.8,4.4c-1.3,1.3-2.5,2.4-3.7,3.2c-1.1,0.8-2,1.2-2.8,1.3c-0.4,0.1-0.8,0.1-1.2,0c-0.4-0.1-0.7-0.2-1-0.4 c-0.3-0.2-0.5-0.4-0.7-0.8c-0.2-0.4-0.4-0.9-0.5-1.5c-0.1-1.1,0-2.4,0.4-3.9c0.5-1.6,1.1-3.2,2-4.9c0.9-1.7,1.9-3.4,3.1-5.1 c1.2-1.7,2.4-3.2,3.7-4.6c1.3-1.4,2.5-2.5,3.8-3.4c1.2-0.8,2.3-1.3,3.2-1.5c0.4-0.1,0.7-0.1,1.1,0c0.1,0,0.2,0,0.3,0.1 c0.4,0.1,0.7,0.2,1,0.4c0.2,0.2,0.4,0.4,0.6,0.7c0.2,0.3,0.3,0.6,0.3,0.9C269.8,85.4,269.7,87,269.2,88.7z"></path> <path class="st1" d="M338.5,86.4c-0.1,0-0.2,0-1.6,1c-1,0.7-1.8,1.2-2.4,1.5c-2.3,1.2-4,1.9-5.1,2.1c-0.3,0.1-0.5,0.1-0.6,0.1 c-0.1,0-0.1,0-0.1,0c0-0.1,0.2-0.6,1.3-2.4c0.3-0.4,0.8-1,1.8-1.9c1-1,1.2-1.4,1.1-1.7c-0.1-0.4-0.3-0.7-0.5-0.9 c-0.2-0.2-0.6-0.2-0.9-0.2c-0.8,0.2-2.4,0.9-4.7,2.1c-1.6,1-2.8,1.8-3.7,2.4c0-0.3,0-0.6,0-0.9c0-0.6-0.3-1.2-0.9-1.5 c-0.5-0.3-1.2-0.4-1.9-0.3c-0.3,0.1-0.9,0.3-2.7,1.4c-2,1.3-3.2,1.9-3.5,2.1c-0.5,0.3-0.9,0.5-1.3,0.7c0.2-0.2,0.4-0.5,0.7-0.8 c1.4-1.6,1.4-1.9,1.4-2.1c-0.1-0.4-0.3-0.5-0.4-0.6c-0.2-0.1-0.4-0.1-0.7-0.1c-0.6,0.1-1.7,0.7-5.1,4.5c-0.5,0.6-1,1.1-1.4,1.6 c-0.1,0-0.5,0.2-3,1.8c-1.8,1.1-3.2,1.8-4.2,2c-1,0.2-1.6,0.2-1.9,0c0.4-0.5,0.5-0.8,0.4-1.1c0,0,0-0.1,0-0.1 c0-0.1,0.1-0.1,0.1-0.2c1-0.7,2.2-1.8,3.7-3.4c2-2.1,2.9-3.6,2.7-4.7c-0.1-0.4-0.4-1.3-1.9-1.1c-0.3,0.1-0.8,0.3-2.4,1.8 c-1.2,1.2-2.3,2.4-3.3,3.6c-1.5,1.9-2.3,3.4-2.3,4.7c-0.4,0.2-0.8,0.5-1.3,0.7c-2.9,1.7-3.6,1.9-3.8,2c-0.3,0-0.5-0.1-0.7-0.4 c-0.2-0.2-0.4-0.5-0.4-0.9c-0.1-1,0.1-2.2,0.8-3.5c0.9-1.5,1.5-2.5,1.9-3.1l0.1-0.1l0-0.1c0-0.2-0.1-0.4-0.2-0.6 c-0.3-0.3-0.5-0.3-0.7-0.3c-0.8,0.2-1.7,0.8-2.9,1.8l-2.7,2.4c-6,5.2-7.3,5.9-7.5,5.9c-0.3,0-0.3,0-0.4,0c0.1-0.7,0.2-1.2,0.3-1.5 c0.1-0.4,0-0.7-0.1-0.9c-0.2-0.2-0.5-0.3-0.8-0.4c0,0,0,0,0,0c-0.6,0-1.5,0.3-2,1.6c-0.3,0.8-0.3,1.6-0.1,2.6 c0.2,1.2,1,1.8,2.1,1.8c0.1,0,0.3,0,0.4,0c0.4,0,1.4-0.4,4.9-2.9c1.9-1.4,3.4-2.7,4.5-3.8c-0.1,0.7-0.1,1.3,0,1.9 c0.1,0.8,0.5,1.5,1.3,2.2c0.8,0.6,1.6,0.9,2.4,0.7c1.2-0.2,3-1,5.3-2.5c0.3-0.2,0.6-0.4,0.9-0.6c0.2,0.2,0.5,0.3,0.8,0.4 c0.5,0.2,1.1,0.3,1.8,0.3c0.5,0,1-0.1,1.5-0.2c1.4-0.3,3.1-1,4.9-2.1c0.1,0.3,0.2,0.6,0.4,0.7c0.1,0.1,0.4,0.2,0.7,0.2 c0.1,0,0.2,0,0.3,0c0.3-0.1,0.9-0.3,2.6-1.7c2.4-1.9,3-2.4,3.1-2.4c4.7-3.3,6.5-4.3,7.1-4.4c0,0.1-0.1,0.5-1.1,1.7 c-1.2,1.6-1.3,2.1-1.2,2.5c0.1,0.4,0.3,0.8,0.5,0.9c0.3,0.2,0.6,0.2,1,0.2c0.2,0,0.5-0.1,5.3-3.6c1.5-1.1,2.9-1.9,4.1-2.5 c-0.3,0.4-0.6,0.9-0.9,1.3c-0.8,1.4-0.9,1.9-0.9,2.2c0.1,0.7,0.5,1.1,1.1,1.4c0.6,0.3,1.2,0.3,1.9,0.2c1.8-0.3,4.1-1.3,6.9-2.9 c0.9-0.5,1.7-1,2.4-1.7c1.1-0.9,1.3-1.3,1.2-1.6C339.5,86.6,339.2,86.3,338.5,86.4z"></path> <path class="st1" d="M464.8,63.7c-0.1-0.4-0.3-0.6-0.4-0.7c-0.2-0.1-0.5-0.2-0.8-0.1c-0.1,0-0.2,0-3,1.8c-1.8,1.1-3.2,1.8-4.2,2 c-1.2,0.2-2,0.2-2.1-0.2c0-0.1,0-0.5,0.7-1.1c1-0.7,2.2-1.9,3.7-3.4c2-2.1,2.9-3.6,2.7-4.7c-0.1-0.6-0.4-0.8-0.6-1 c-0.3-0.2-0.7-0.2-1.2-0.1c-0.3,0.1-0.8,0.3-2.4,1.8c-1.2,1.2-2.3,2.4-3.3,3.6c-1.4,1.7-2.1,3.2-2.3,4.4c-0.7,0.5-1.3,0.9-1.8,1.1 c-2.3,1.2-4,1.9-5.1,2.1c-0.3,0.1-0.5,0.1-0.6,0.1c-0.1,0-0.1,0-0.1,0c0-0.1,0.2-0.6,1.3-2.4c0.3-0.4,0.8-1,1.8-1.9 c1-1,1.2-1.4,1.1-1.7c-0.1-0.4-0.3-0.7-0.5-0.9c-0.2-0.2-0.6-0.2-0.9-0.2c-0.8,0.2-2.4,0.9-4.7,2.1c-1.6,1-2.8,1.8-3.8,2.4 c0-0.3,0-0.6,0-0.9c0-0.6-0.3-1.2-0.9-1.5c-0.5-0.3-1.2-0.4-1.9-0.3c-0.3,0.1-0.9,0.3-2.7,1.4c-2,1.2-3.2,1.9-3.5,2.1 c-0.5,0.3-1,0.5-1.3,0.7c0.2-0.2,0.4-0.5,0.7-0.8c1.4-1.6,1.4-1.9,1.4-2.1c-0.1-0.3-0.2-0.5-0.4-0.6c-0.2-0.1-0.5-0.2-0.8-0.1 c-0.5,0.1-1.7,0.7-4.9,4.3c-0.2-0.1-0.6-0.1-1-0.1c-0.1,0-0.1,0-6.1,3.3c-4.7,2.5-6.4,3.2-7.1,3.3c-0.1,0-0.2,0-0.3-0.1 c-0.1,0-0.1-0.1-0.1-0.1c0-0.2,0-1,2.5-3.7c0.8-0.8,1.5-1.3,2.1-1.8c0.5,0.5,1.1,0.9,1.7,0.6c0.4-0.2,0.7-0.6,1-1.3 c0.3-0.8,0.3-1,0.3-1.2c-0.1-0.5-0.4-0.9-0.8-1.2c-0.4-0.3-0.9-0.3-1.4-0.2c-0.9,0.2-2.2,1.1-4.1,2.9c-1.9,1.8-3.1,3.4-3.6,4.6 c-0.4,0.3-1.1,0.6-2,1.2c-1.8,1.1-3.2,1.8-4.2,2c-1.2,0.2-2,0.2-2.1-0.2c0-0.1,0-0.5,0.7-1.1c1-0.7,2.2-1.9,3.7-3.4 c2-2.1,2.9-3.6,2.7-4.7c-0.1-0.6-0.4-0.8-0.6-1c-0.3-0.2-0.7-0.2-1.2-0.1c-0.3,0.1-0.8,0.3-2.4,1.8c-1.2,1.2-2.3,2.4-3.3,3.6 c-0.9,1.1-1.5,2.1-1.9,2.9c-0.1,0.1-0.2,0.1-0.3,0.2c-1.7,1.3-2.1,1.6-2.2,1.7c-2.3,1.6-4.2,2.6-5.7,2.9c-0.4,0.1-0.6,0.1-0.8,0.1 c-0.3,0-0.3,0-0.3,0c0-0.1,0.1-0.4,0.9-1.5c0.7-0.9,1.2-1.7,1.7-2.2c2.7-2.9,3-3.7,2.9-4.2c-0.1-0.4-0.2-0.7-0.5-0.9 c-0.2-0.1-0.4-0.2-0.8-0.1c-0.3,0.1-0.8,0.3-2,1.4c-0.6,0.6-1.2,1.2-1.8,1.7c-2.1,1.9-4,3.4-5.7,4.5c1.3-1.7,2.4-3.1,3.1-4.1 l1.2-1.5c0.6-0.8,0.8-1.3,0.8-1.7c-0.2-1.2-1-1.2-1.3-1.1c-0.2,0-0.7,0.1-3.3,3.4c-1.8,2.3-3.9,4.3-6.1,6.1 c-0.9,0.7-2.1,1.5-3.4,2.2c-1.7,1-2.2,1.2-2.4,1.2c-0.4,0.1-0.7,0.1-0.7,0c0,0,0-0.2,0.3-1c0.3-0.7,0.3-1.4,0.2-1.9 c-0.1-0.7-0.7-1.1-1.6-0.9c-0.5,0.1-0.9,0.7-1.4,2.1c0,0,0,0,0,0c-0.4,0.2-0.9,0.4-1.6,0.7c-1.3,0.6-2.5,1-3.6,1.2 c-0.5,0.1-1,0.1-1.4,0c1.5-1.6,2.1-2.9,1.9-3.9c-0.1-0.4-0.2-0.6-0.5-0.8c-0.2-0.2-0.6-0.2-0.9-0.2c-0.8,0.1-1.7,0.9-3,2.5 c-0.8,0.9-1.3,1.6-1.6,2.1c-1,0.9-2.1,1.9-3.1,2.8c-1.4,1.2-2.2,1.6-2.6,1.6c0,0,0,0-0.1-0.1c0-0.1,0-0.9,2.4-4.7 c0.6-0.9,1.3-1.9,2.2-2.9c0.7-0.8,1.3-1.3,1.6-1.7c0.2-0.2,1.6-1.3,7-5c3.1-2.1,5.4-3.9,6.8-5.4c2.2-2.2,4.1-4.4,5.7-6.5 c1.9-2.6,2-3.4,1.9-3.9c-0.1-0.6-0.4-1.1-0.9-1.4c-0.5-0.4-1-0.5-1.6-0.4c-0.9,0.2-2.4,1.2-4.6,3.1c-0.5,0.5-2.4,2.3-5.5,5.3 c-1.8,1.7-3.8,4-6.1,6.8c-1.4,1.7-2.8,3.4-4.2,5.1c0,0.1-0.4,0.4-2.5,2.7c-0.9,1-1.7,1.9-2.3,2.9c-1.3,2.1-2,3.2-2.1,3.5 c-0.7,1.3-0.9,2.4-0.8,3.4c0.1,0.4,0.4,0.8,0.9,1.1c0.5,0.3,1,0.5,1.5,0.5c0.2,0,0.3,0,0.5,0c1.2-0.2,2.4-0.9,3.8-1.9 c1-0.9,2.1-1.7,3.1-2.6c1.7,0.6,2.9,0.7,3.9,0.5c1.1-0.2,2.6-0.7,4.6-1.7c0.2-0.1,0.3-0.2,0.5-0.2c0,0.2,0,0.3,0,0.5 c0.2,1.2,0.9,1.9,2,1.9c0.2,0,0.4,0,0.6-0.1c1.1-0.2,2.7-0.9,4.9-2.2c0.9-0.5,1.8-1.2,2.7-2c0,0.2,0,0.3,0,0.4 c0.1,0.5,0.5,1,1.8,0.7c0.3,0,0.8-0.3,3-1.7c1.1-0.7,2-1.3,2.9-1.9c-0.2,0.5-0.2,0.9-0.2,1.2c0.1,0.6,0.5,1,1.4,1.2 c0.7,0.2,1.6,0.2,2.6,0c1.5-0.3,3.7-1.5,6.8-3.6c0.3-0.2,0.5-0.3,0.7-0.5c0.2,0.6,0.7,1.1,1.6,1.4c0.5,0.2,1.1,0.3,1.8,0.3 c0.5,0,1-0.1,1.5-0.2c1.5-0.3,3.4-1.1,5.5-2.5c0.2-0.1,0.4-0.3,0.6-0.4c0.2,0.4,0.5,0.8,0.9,1c0.4,0.2,0.8,0.3,1.4,0.3 c0.3,0,0.6,0,0.9-0.1c1.5-0.3,4-1.5,7.9-3.6c1.3-0.7,2.4-1.3,3.2-1.8c-0.9,1.2-1,1.7-0.9,2c0.1,0.4,0.2,0.7,0.4,0.9 c0.1,0.1,0.4,0.2,0.7,0.2c0.1,0,0.2,0,0.3,0c0.3-0.1,0.9-0.3,2.6-1.7c2.4-1.9,3-2.4,3.1-2.4c4.8-3.3,6.5-4.3,7.1-4.4 c0,0.1-0.1,0.5-1.1,1.7c-1.2,1.6-1.3,2.1-1.2,2.5c0.2,0.8,0.7,1.3,1.5,1.1c0.2,0,0.5-0.1,5.3-3.6c1.5-1.1,2.9-1.9,4.1-2.5 c-0.3,0.4-0.6,0.9-0.9,1.3c-0.8,1.4-0.9,1.9-0.9,2.2c0.1,0.7,0.5,1.1,1.1,1.4c0.6,0.3,1.2,0.3,1.9,0.2c1.8-0.3,4.1-1.3,6.9-2.9 c0.3-0.2,0.6-0.4,0.9-0.5c0.3,0.3,0.7,0.6,1.2,0.8c0.5,0.2,1.1,0.3,1.8,0.3c0.5,0,1-0.1,1.5-0.2c1.5-0.3,3.4-1.1,5.5-2.5 C464.7,64.6,464.9,64.1,464.8,63.7z M362.8,70.9c2.2-2.6,3.7-4.4,4.5-5.3c5.5-5.7,7.5-7.3,8.3-7.7c-0.1,0.3-0.5,1.1-2.1,3.1 c-1.5,1.9-3.1,3.7-4.6,5.2c-1.3,1.2-2.7,2.4-4.2,3.4C364.2,70,363.6,70.4,362.8,70.9z"></path> </g> </g> </svg> 