<?xml version="1.0" encoding="UTF-8"?> <svg xmlns="http://www.w3.org/2000/svg" width="119" height="43" viewBox="0 0 119 43" fill="none"> <path d="M107.152 16.9153C106.743 16.9153 106.856 16.5073 106.893 16.3579L108.344 9.7783C108.417 9.51235 108.49 9.40305 108.603 9.40305C108.716 9.40305 108.789 9.51235 108.865 9.7783L110.506 16.3579C110.543 16.5073 110.656 16.9153 110.244 16.9153H107.152ZM106.331 0.298741C105.813 0.298741 105.328 0.371605 105.102 1.33705L99.3775 25.2035C99.3009 25.5351 99.1551 26.3111 100.008 26.3111H103.618C104.439 26.3111 104.625 25.7573 104.698 25.3893L105.405 22.4456C105.478 22.1141 105.777 21.8846 106.145 21.8846H111.243C111.542 21.8846 111.841 21.9247 111.99 22.4456L112.731 25.2764C112.847 25.6844 112.997 26.3111 113.883 26.3111H117.529C118.572 26.3111 118.346 25.495 118.277 25.2035L112.249 1.33705C111.99 0.367961 111.582 0.298741 111.021 0.298741H106.331V0.298741ZM96.6172 1.1476C96.6172 0.590196 96.3947 0 92.1904 0C84.7554 0 83.4536 3.97471 83.4536 7.54139V18.0993C83.4536 22.1141 84.2303 26.6098 91.8951 26.6098C96.5442 26.6098 96.9928 25.9395 96.9928 24.974V21.6696C96.9928 21.4838 96.9928 20.9993 96.4312 20.9993C94.0866 20.9993 95.6144 21.4838 93.0072 21.4838C89.8859 21.4838 88.9524 20.5148 88.9524 16.1684V9.88395C88.9524 7.24629 88.9889 4.6742 92.7483 4.6742C94.4293 4.6742 95.7639 5.19882 96.1723 5.19882C96.6172 5.19882 96.6172 4.71428 96.6172 4.56491V1.1476V1.1476ZM64.2516 25.0177C64.2516 26.2783 64.8824 26.3147 65.5497 26.3147H78.2356C79.5009 26.3147 79.5373 25.6808 79.5373 25.0177V22.4129C79.5373 22.0048 79.4644 21.4875 78.5309 21.4875H70.1551C69.7832 21.4875 69.7467 21.3017 69.7467 21.0394V15.7568C69.7467 15.458 69.7102 15.1229 70.228 15.1229H76.1462C76.8937 15.1229 76.8937 14.6019 76.8937 14.3833V10.9988C76.8937 10.7765 76.7442 10.292 76.0368 10.292H70.1551C69.7102 10.292 69.7467 9.92039 69.7467 9.62164V5.7198C69.7467 5.16239 70.1551 5.1296 70.4213 5.1296H77.9001C78.2356 5.1296 79.0487 5.08953 79.0487 4.23338V1.59571C79.0487 0.925368 79.0123 0.298741 77.7506 0.298741H65.5497C64.2844 0.298741 64.2516 0.925368 64.2516 1.59571V25.0177V25.0177ZM49.7716 11.0061C49.5091 11.0061 49.3632 10.8166 49.3632 10.6308V5.53399C49.3632 5.19882 49.5857 5.04945 49.8446 5.04945H51.8938C54.501 5.04945 55.3251 6.53587 55.3251 7.9895C55.3251 9.81109 53.7973 11.0061 51.9303 11.0061H49.7716ZM45.1589 0.298741C43.9009 0.298741 43.8608 0.925368 43.8608 1.59571V25.0214C43.8608 26.2783 44.4916 26.3147 45.1589 26.3147H48.0615C48.7288 26.3147 49.3632 26.2783 49.3632 25.0214V16.3907C49.3632 16.132 49.5857 15.8296 49.9211 15.8296H52.3059C53.3889 15.8296 61.2688 15.8296 61.2688 8.25181C61.2688 5.53399 60.4155 0.298741 51.9303 0.298741H45.1589V0.298741ZM33.1804 20.9629C33.1804 21.1523 33.2205 21.4838 32.6626 21.4838H28.8266C28.5312 21.4838 28.3453 21.3381 28.3088 21.2252C28.2687 21.1523 28.3088 21.0357 28.3088 20.9228C29.6434 13.3049 29.4939 16.8752 30.2013 7.87656L30.3873 5.57043C30.4274 5.12596 30.7227 5.12596 30.8686 5.12596H32.7356C33.144 5.12596 33.1804 5.42106 33.1804 5.57043V20.9629ZM26.3324 0.298741C25.6652 0.298741 25.0708 0.258666 25.0343 1.37348L24.9249 4.3026C24.8155 7.20622 24.6223 12.5216 23.357 18.3944C23.1746 19.3271 22.8756 21.4838 21.9458 21.4838H21.6103C20.9394 21.4838 20.3086 21.5239 20.3086 22.7845V29.8012C20.3086 30.4752 20.345 31.1019 21.6103 31.1019H24.3196C24.9906 31.1019 25.625 31.0654 25.625 29.8012V27.0142C25.625 26.8284 25.5886 26.3111 26.296 26.3111H35.3427C35.711 26.3111 35.9371 26.5734 35.9371 26.8648V29.8012C35.9371 30.4752 35.9736 31.1019 37.2389 31.1019H39.9555C40.6228 31.1019 41.2572 31.0654 41.2572 29.8012V22.7881C41.2572 21.5239 40.6228 21.4875 39.9555 21.4875H39.135C38.6902 21.4875 38.6902 21.4146 38.6902 20.9665V1.59571C38.6902 0.925368 38.6501 0.298741 37.3884 0.298741H26.3324V0.298741ZM7.84146 16.9153C7.42941 16.9153 7.54245 16.5073 7.57891 16.3579L9.03384 9.7783C9.10676 9.51235 9.18334 9.40305 9.29273 9.40305C9.40212 9.40305 9.4787 9.51235 9.55163 9.7783L11.1889 16.3579C11.229 16.5073 11.3384 16.9153 10.93 16.9153H7.84146ZM7.02101 0.298741C6.50322 0.298741 6.0146 0.371605 5.79581 1.33705L0.0599977 25.2072C-0.0165771 25.5387 -0.162434 26.3147 0.694475 26.3147H4.30443C5.12123 26.3147 5.31084 25.7609 5.38377 25.393L6.09118 22.4493C6.1641 22.1178 6.46676 21.8882 6.83504 21.8882H11.9327C12.2281 21.8882 12.5271 21.9283 12.673 22.4493L13.4205 25.28C13.5335 25.6881 13.6794 26.3183 14.5764 26.3183H18.2228C19.2657 26.3183 19.0433 25.5023 18.9667 25.2108L12.9391 1.33705C12.673 0.367961 12.2682 0.298741 11.7103 0.298741H7.02101V0.298741Z" fill="black"></path> <g clip-path="url(#clip0)"> <path d="M98.9567 39.0796C97.6471 39.2985 96.3271 39.6104 94.9861 39.6334C92.9041 39.6692 93.8542 37.568 94.3045 36.4039C94.9111 34.837 95.2947 32.706 93.7287 31.5364C92.0206 30.261 90.2086 31.2326 88.4149 31.5728C87.7475 31.6987 87.6425 32.5508 87.224 31.5932C86.962 30.9907 86.8398 30.2481 86.2027 29.9429C84.5055 29.1292 84.3148 31.4215 84.0642 32.4423C83.825 33.4171 83.3426 35.5988 81.9211 35.296C81.453 35.1964 80.8171 33.74 80.2879 33.3691C79.5489 32.8503 78.7226 32.7811 77.8545 32.9691C79.119 30.4129 80.6685 27.9494 81.3619 25.1603C81.7322 23.6729 82.7489 18.1404 79.34 19.1142C77.434 19.6584 76.6216 22.8935 76.1479 24.5579C75.3014 27.5328 74.5452 30.3162 74.104 33.3956C73.7761 35.6718 72.3141 38.1681 70.0671 39.001C67.1454 40.0846 65.6444 37.2027 65.4193 34.6436C65.1964 32.0855 67.9544 31.7837 67.4802 34.87C67.354 35.6892 66.511 37.6433 68.4433 36.9525C70.5647 36.193 70.0118 31.1625 68.9678 29.8409C67.3392 27.7846 65.0209 30.3341 63.8248 31.4208C63.903 30.1596 62.6979 29.5264 61.595 30.0224C60.4247 30.5487 60.6602 32.3882 60.2426 33.3819C59.7184 34.628 58.439 36.0698 57.2132 36.6482C55.6562 37.3827 54.6373 35.8733 55.5394 34.3019C56.7644 32.1675 56.5565 35.3569 57.6741 34.6521C59.1022 33.7509 59.0249 31.4721 58.1815 30.3465C55.9576 27.3779 53.3927 30.8732 51.8217 33.3143C51.3152 31.2229 48.4888 27.941 46.3512 29.7438C45.4568 30.4975 45.1375 30.5236 44.0909 30.986C43.1186 31.4165 42.7897 33.223 42.3929 34.108C41.8035 35.4239 39.3495 39.5296 37.4292 38.943C35.8851 38.4712 37.4103 33.4489 37.6156 32.2831C37.8803 30.7775 40.3885 26.8472 38.0896 25.8311C36.2518 25.0198 35.938 27.2588 35.8312 28.455C35.5773 31.3095 34.4579 32.7438 32.7854 35.108C32.3655 35.7027 31.7688 36.7553 31.1567 37.1733C30.1359 37.8691 30.3702 37.7758 30.0466 36.7284C29.325 34.3921 30.2055 31.2244 30.9905 29.0243C31.3775 27.9378 32.2376 24.2753 29.8358 24.8465C28.3573 25.1976 28.2735 28.7295 27.9326 29.8843C27.2627 32.1564 26.4984 34.8977 25.064 36.814C24.5962 37.4385 23.9923 38.4717 23.2917 38.8326C22.1342 39.4273 22.9385 38.9448 22.1191 38.6095C21.5242 38.3664 21.5521 37.7995 20.7803 38.1617C20.0289 38.5134 19.9605 39.8531 20.014 40.5235C20.2083 42.9528 22.1894 43.8773 23.8437 42.0042C25.3193 40.3337 26.3357 37.9628 27.881 36.4785C28.0655 37.7922 27.2118 41.1067 29.3244 41.0704C31.3232 41.036 32.7391 38.586 33.9941 37.3679C34.1589 39.3253 33.2969 41.3104 35.8601 41.8749C38.3508 42.4243 40.4664 40.3586 42.2364 38.9485C43.0237 41.573 45.0088 41.2977 47.2962 40.3347C49.7881 39.2859 51.0058 38.2279 52.481 35.8491C52.6039 38.7077 52.6737 38.9604 54.0818 39.8408C55.3972 40.6627 57.988 39.3948 59.4656 38.0784C59.5229 39.2887 58.9658 42.3078 61.039 42.249C62.8384 42.1975 62.864 39.1263 63.6347 38.1398C64.3962 39.9629 65.1153 41.4163 67.1851 41.8779C68.0626 42.074 72.5056 40.9732 72.4943 40.9586C75.256 44.3398 80.5571 39.4875 82.635 38.506C82.7862 42.1294 86.9467 41.9434 89.0467 40.487C90.3884 39.5567 90.9469 37.951 90.5958 36.3958C90.4083 35.5698 89.2567 33.1681 91.3375 33.5108C93.0717 33.7956 90.4807 38.7006 91.591 40.3103C92.9012 42.21 99.5989 41.9583 98.9567 39.0796ZM46.8971 37.7124C45.8563 38.4982 45.0445 37.4977 45.3016 36.4593C45.602 35.2465 46.4537 33.952 46.852 32.7059C47.4424 31.1192 49.3093 33.0627 49.2453 34.1458C49.16 35.5797 47.9743 36.8995 46.8971 37.7124ZM79.5203 22.4467C79.678 23.7936 78.297 29.1011 76.8981 29.2148C77.2538 27.5303 78.0607 23.3537 79.5203 22.4467ZM77.4835 38.8404C75.0119 40.4673 75.4597 37.4401 76.9386 36.4013C77.5119 35.8679 78.6945 35.4127 79.1434 36.3935C79.5895 37.3654 78.1631 38.3927 77.4835 38.8404ZM86.7075 38.5013C83.8746 39.1564 86.4217 35.189 86.6902 34.2607C87.7863 33.7051 87.0139 36.0518 87.8178 36.4354C88.8556 36.9317 87.2747 38.3707 86.7075 38.5013Z" fill="#ED1C24"></path> </g> <defs> <clipPath id="clip0"> <rect width="79" height="24" fill="white" transform="translate(20 19)"></rect> </clipPath> </defs> </svg> 