<?xml version="1.0" encoding="UTF-8"?> <svg xmlns="http://www.w3.org/2000/svg" viewBox="0 0 357.85 154.55"><defs><style>.cls-1{fill:#1d1d1b;}</style></defs><g id="Слой_2" data-name="Слой 2"><g id="Слой_1-2" data-name="Слой 1"><g id="Layer_1"><path class="cls-1" d="M3.91,5A5,5,0,0,1,8.82,0a4.87,4.87,0,0,1,3.82,1.79L12,2.45A4.32,4.32,0,0,0,8.8.87,4,4,0,0,0,4.91,5a4,4,0,0,0,4,4.16,4.23,4.23,0,0,0,3.18-1.63l.68.6A4.93,4.93,0,0,1,3.91,5Z"></path><polygon class="cls-1" points="23.97 1.06 20.37 1.06 20.37 0.23 28.49 0.23 28.49 1.06 24.89 1.06 24.89 9.84 23.97 9.84 23.97 1.06"></polygon><path class="cls-1" d="M37,.23H38V2.37A4.62,4.62,0,0,1,41.91,0a4.78,4.78,0,0,1,4.67,5,4.8,4.8,0,0,1-4.67,5A4.6,4.6,0,0,1,38,7.76v5.09H37V.23ZM45.59,5h0A3.87,3.87,0,0,0,41.82.89a4,4,0,0,0-3.93,4.16,4,4,0,0,0,3.93,4.13c2.09,0,3.77-1.53,3.77-4.15Z"></path><path class="cls-1" d="M55,5a5,5,0,0,1,5-5A4.92,4.92,0,0,1,64.9,5,4.94,4.94,0,1,1,55,5ZM63.9,5h0A3.95,3.95,0,1,0,56,5,3.95,3.95,0,1,0,63.9,5Z"></path><polygon class="cls-1" points="73.96 0.23 74.89 0.23 74.89 8.61 81.41 0.23 82.33 0.23 82.33 9.84 81.41 9.84 81.41 1.45 74.89 9.84 73.96 9.84 73.96 0.23"></polygon><polygon class="cls-1" points="94.47 1.06 90.87 1.06 90.87 0.23 98.99 0.23 98.99 1.06 95.39 1.06 95.39 9.84 94.47 9.84 94.47 1.06"></polygon><path class="cls-1" d="M106.3,5a4.74,4.74,0,0,1,4.57-5c2.69,0,4.4,2.19,4.4,5a2.3,2.3,0,0,1,0,.38h-8a3.82,3.82,0,0,0,3.77,3.78,4.34,4.34,0,0,0,3.3-1.5l.64.56a5,5,0,0,1-4,1.81A4.79,4.79,0,0,1,106.3,5Zm8-.43h0C114.14,2.64,113,.85,110.83.85a3.75,3.75,0,0,0-3.55,3.73Z"></path><path class="cls-1" d="M122.51,9.84l.17-.85a3.78,3.78,0,0,0,.74.13c1.28,0,2.18-.57,2.22-8.39V.23h6.54V9.84h-.92V1.06h-4.73v.26c0,8-1.19,8.67-3,8.67a5.21,5.21,0,0,1-1.06-.15Z"></path><path class="cls-1" d="M141.9.23h.93V3.92h2.86c2,0,3.68.85,3.68,2.83s-1.4,3.09-3.51,3.09h-4V.23ZM145.71,9h0c1.62,0,2.66-.81,2.66-2.23s-1.06-2-2.73-2h-2.81V9Z"></path><polygon class="cls-1" points="158.09 0.23 159.02 0.23 159.02 4.5 165.41 4.5 165.41 0.23 166.33 0.23 166.33 9.84 165.41 9.84 165.41 5.33 159.02 5.33 159.02 9.84 158.09 9.84 158.09 0.23"></polygon><path class="cls-1" d="M175.26,7c0-2,1.72-3.13,4.2-3.13a11.42,11.42,0,0,1,3.19.42V3.88c0-1.94-1.19-2.94-3.17-2.94a6.34,6.34,0,0,0-3,.78L176.13.9a7.73,7.73,0,0,1,3.41-.82,4.13,4.13,0,0,1,3,1,3.65,3.65,0,0,1,1,2.71v6h-.9V8.23A4.36,4.36,0,0,1,179,10.06c-2,0-3.71-1-3.71-3.05Zm7.41-.77V5.15a12.62,12.62,0,0,0-3.26-.44c-2,0-3.15.9-3.15,2.28S177.37,9.2,179,9.2c2,0,3.64-1.21,3.64-3Z"></path><path class="cls-1" d="M195.35,6a3.05,3.05,0,0,1-2.77-2.92c0-1.7,1.32-2.86,3.53-2.86h4.29V9.84h-.92V6.14h-3.17l-2.86,3.7h-1.13l3-3.83Zm4.13-.69V1.06h-3.24c-1.68,0-2.66.83-2.66,2.09s1.15,2.17,2.69,2.17Z"></path><polygon class="cls-1" points="222 0.23 222.92 0.23 222.92 6.39 228.87 0.23 230.1 0.23 225.9 4.49 230.23 9.84 229.06 9.84 225.26 5.15 222.92 7.5 222.92 9.84 222 9.84 222 0.23"></polygon><path class="cls-1" d="M237.66,5a4.94,4.94,0,1,1,9.87,0,4.94,4.94,0,1,1-9.87,0Zm8.87,0h0a3.94,3.94,0,1,0-7.87,0,4,4,0,0,0,4,4.16A4.07,4.07,0,0,0,246.53,5Z"></path><polygon class="cls-1" points="256.6 0.23 257.43 0.23 261.35 5.75 265.26 0.23 266.1 0.23 266.1 9.84 265.17 9.84 265.17 1.83 261.31 7.14 257.49 1.83 257.49 9.84 256.6 9.84 256.6 0.23"></polygon><polygon class="cls-1" points="275.82 0.23 283.81 0.23 283.81 9.84 282.89 9.84 282.89 1.06 276.75 1.06 276.75 9.84 275.82 9.84 275.82 0.23"></polygon><path class="cls-1" d="M292.75,7c0-2,1.71-3.13,4.2-3.13a11.29,11.29,0,0,1,3.18.42V3.88c0-1.94-1.18-2.94-3.16-2.94a6.38,6.38,0,0,0-3,.78L293.61.9A7.73,7.73,0,0,1,297,.08a4.16,4.16,0,0,1,3,1,3.65,3.65,0,0,1,1,2.71v6h-.91V8.23a4.34,4.34,0,0,1-3.67,1.83c-2,0-3.71-1-3.71-3.05Zm7.4-.77V5.15a12.55,12.55,0,0,0-3.26-.44c-2,0-3.15.9-3.15,2.28s1.12,2.21,2.77,2.21c2,0,3.64-1.21,3.64-3Z"></path><polygon class="cls-1" points="310.57 0.23 311.5 0.23 311.5 4.5 317.88 4.5 317.88 0.23 318.81 0.23 318.81 9.84 317.88 9.84 317.88 5.33 311.5 5.33 311.5 9.84 310.57 9.84 310.57 0.23"></polygon><polygon class="cls-1" points="328.53 0.23 329.46 0.23 329.46 8.61 335.97 0.23 336.9 0.23 336.9 9.84 335.97 9.84 335.97 1.45 329.46 9.84 328.53 9.84 328.53 0.23"></polygon><path class="cls-1" d="M348.89,6a3.05,3.05,0,0,1-2.77-2.92c0-1.7,1.32-2.86,3.52-2.86h4.3V9.84H353V6.14h-3.16L347,9.84h-1.13ZM353,5.32V1.06h-3.24c-1.67,0-2.65.83-2.65,2.09s1.14,2.17,2.69,2.17Z"></path><polygon class="cls-1" points="0 22.65 0 148.93 113.32 148.93 113.32 144.16 4.77 144.16 4.77 27.42 353.08 27.42 353.08 144.16 244.53 144.16 244.53 148.93 357.85 148.93 357.85 22.65 0 22.65"></polygon><path class="cls-1" d="M42.86,95.25l3.34-4.11c.09.28.15.51.23.73,1.15,3.47,3.15,6.25,6.64,7.62A11.54,11.54,0,0,0,63.34,99a7,7,0,0,0,3.37-8.18,7.45,7.45,0,0,0-2.94-3.61A34.15,34.15,0,0,0,57.52,84C55,82.83,52.47,81.71,50,80.49a13.93,13.93,0,0,1-4.15-3.18c-2.66-3-2.47-7.7-.35-10.67a12.21,12.21,0,0,1,6.81-4.54,19.27,19.27,0,0,1,7-.6,21,21,0,0,1,6.94,1.63A13.66,13.66,0,0,1,71,66.47c.17.18.32.38.49.59l-3.1,4c-.05-.15-.1-.26-.13-.36-1.43-4.42-4.32-7.25-9-8.06a9.93,9.93,0,0,0-6.78.93,6.48,6.48,0,0,0-3.21,7.8,7.66,7.66,0,0,0,3.28,3.69,39.89,39.89,0,0,0,7.13,3.41A61.39,61.39,0,0,1,67.51,82a12.92,12.92,0,0,1,4.23,3.58,8.32,8.32,0,0,1,.92,7.87,10.15,10.15,0,0,1-5.55,5.87,21.73,21.73,0,0,1-7.46,2A21.55,21.55,0,0,1,50,100.31a15.14,15.14,0,0,1-7-4.9,1.27,1.27,0,0,1-.11-.16Z"></path><path class="cls-1" d="M284.62,95.26l3.27-4c.51,1.14.93,2.32,1.54,3.4a11,11,0,0,0,9.77,5.77A10.74,10.74,0,0,0,305.14,99a7.09,7.09,0,0,0,3.34-8.16,7.38,7.38,0,0,0-3-3.64,35.76,35.76,0,0,0-6.91-3.54A58.85,58.85,0,0,1,290.84,80a13.94,13.94,0,0,1-3.42-2.9,8,8,0,0,1-1.71-6.19c.44-3.87,2.77-6.32,6.13-7.93a17.63,17.63,0,0,1,9-1.46A21.11,21.11,0,0,1,308,63.12a13.89,13.89,0,0,1,4.82,3.34c.17.18.32.38.5.6-1,1.35-2.05,2.69-3,4a33.73,33.73,0,0,0-1.5-3.15,10.48,10.48,0,0,0-8-5.22,10.12,10.12,0,0,0-5.83.65,6.66,6.66,0,0,0-4.07,4.88,5.78,5.78,0,0,0,1.6,5.39,13.93,13.93,0,0,0,4.51,3c2.71,1.2,5.46,2.3,8.19,3.46a27.78,27.78,0,0,1,6.66,3.78c4.35,3.53,3.65,9.22,1.08,12.39a12.52,12.52,0,0,1-6,4,22.7,22.7,0,0,1-15.61,0,15,15,0,0,1-6.16-4.23c-.17-.2-.33-.41-.51-.64Z"></path><path class="cls-1" d="M140.53,100.77h-5l.4-.51a19.59,19.59,0,0,0,2.37-4.3Q144.15,81.8,150,67.63a1,1,0,0,0,0-.88c-.42-1-.8-2-1.21-3l6.44-2.28a15.56,15.56,0,0,0,0,2.16A9.46,9.46,0,0,0,155.9,66q6.24,15.06,12.54,30.12a14,14,0,0,0,3,4.27l.35.38h-9.22a6,6,0,0,0-.33-4.65q-1.5-3.58-3-7.18a.49.49,0,0,0-.55-.36q-7.86,0-15.72,0a.52.52,0,0,0-.57.4c-.93,2.25-1.84,4.51-2.82,6.74-.83,1.89-.76,3.57.94,5.06Zm18.08-13.34h0l-7.74-18.74-7.81,18.74Z"></path><path class="cls-1" d="M261.77,62.17h4.16c-.07.16-.13.29-.2.42a9.89,9.89,0,0,0-1.32,5c0,6.76,0,13.52,0,20.28a15.72,15.72,0,0,1-1.71,7.37A10.77,10.77,0,0,1,255.2,101a19.89,19.89,0,0,1-11.79-.84,10.3,10.3,0,0,1-6.66-8.45,23.88,23.88,0,0,1-.3-4q0-10.06,0-20.14a9.39,9.39,0,0,0-1.39-5l-.27-.49h9.08a26.33,26.33,0,0,0-1.14,2.56,7.45,7.45,0,0,0-.4,2.29q0,10.28,0,20.56a18.88,18.88,0,0,0,1.16,7.17,8.28,8.28,0,0,0,7.62,5.45,11.09,11.09,0,0,0,7.28-1.77,10.77,10.77,0,0,0,4.53-7.13,20.34,20.34,0,0,0,.38-3.81c0-6.66,0-13.31,0-19.95a9.72,9.72,0,0,0-1.19-4.71l-.35-.66Z"></path><path class="cls-1" d="M102.36,63.32l-.28,0H94.85a5.37,5.37,0,0,0-4.07,2c-.27.3-.5.63-.85,1.06.15-1.58.28-3.05.41-4.56.7.07,1.38.15,2,.2s1.57.12,2.35.12c7.18,0,14.36,0,21.54,0,1.2,0,2.4-.18,3.6-.28h.39c.14,1.48.27,3,.41,4.42-.57-.59-1.07-1.18-1.65-1.69a4.87,4.87,0,0,0-3.3-1.26H108.5l-.24,0v.6c0,10.5,0,21,0,31.49a9.23,9.23,0,0,0,1.3,4.72c.1.19.21.38.35.61h-9.14c.06-.1.1-.21.16-.31a9.69,9.69,0,0,0,1.47-5.24c0-10.4,0-20.81,0-31.21v-.66Z"></path><path class="cls-1" d="M197.52,100.75c.4-.89.86-1.76,1.18-2.67a6,6,0,0,0,.34-2q0-16.17,0-32.34v-.44a1.57,1.57,0,0,0-.25,0h-7.23a5.42,5.42,0,0,0-4.11,2c-.27.3-.5.62-.83,1,.14-1.59.27-3.06.41-4.55.71.06,1.39.14,2.07.19s1.56.12,2.34.12c7.22,0,14.43,0,21.64,0,1.28,0,2.55-.17,3.88-.26.13,1.44.27,2.92.4,4.39l-.08,0-.32-.42a6,6,0,0,0-3.72-2.49,5,5,0,0,0-.94-.07h-7l-.36,0v.62q0,15.75,0,31.5a9.06,9.06,0,0,0,1.28,4.67l.37.64Z"></path><polygon class="cls-1" points="146.19 154.38 146.19 146.48 136.93 146.48 136.93 154.38 135 154.38 135 137.01 136.93 137.01 136.93 144.68 146.19 144.68 146.19 137.01 148.12 137.01 148.12 154.38 146.19 154.38"></polygon><path class="cls-1" d="M175.27,145.69a8.85,8.85,0,1,1-8.86-8.86A8.85,8.85,0,0,1,175.27,145.69Zm-15.76,0h0a6.91,6.91,0,1,0,6.9-7A6.86,6.86,0,0,0,159.51,145.69Z"></path><polygon class="cls-1" points="199.38 154.38 199.38 140.73 192.91 148.97 186.43 140.73 186.43 154.38 184.5 154.38 184.5 137.01 185.59 137.01 192.91 146.34 200.22 137.01 201.32 137.01 201.32 154.38 199.38 154.38"></polygon><polygon class="cls-1" points="222.31 144.7 222.31 146.51 213.8 146.51 213.8 152.56 222.85 152.56 222.85 154.38 211.86 154.38 211.86 137.01 222.85 137.01 222.85 138.82 213.8 138.82 213.8 144.7 222.31 144.7"></polygon></g></g></g></svg> 