<?xml version="1.0" encoding="UTF-8"?> <svg xmlns="http://www.w3.org/2000/svg" xmlns:xlink="http://www.w3.org/1999/xlink" version="1.1" id="Слой_1" x="0px" y="0px" viewBox="0 0 6731.4 1148.2" style="enable-background:new 0 0 6731.4 1148.2;" xml:space="preserve"> <style type="text/css"> .st0{fill:#0F79BF;} .st1{fill:#18B8D5;} </style> <g> <path class="st0" d="M1565.5,560.1V54.6h176c44.8,0,77.5,4,98.3,12c29.2,11.3,52.1,29.6,68.6,54.8c16.5,25.2,24.7,56,24.7,92.3 c0,28.3-6.6,55.3-19.8,81c-13.2,25.7-31.8,44.7-55.9,56.9v1.4c4.7,6.1,11.1,16.3,19.1,30.4l98.3,176.8h-137.9l-89.8-170.4h-58 v170.4H1565.5z M1689.2,283.7h53.7c20.3,0,36.1-5.4,47.4-16.3c11.3-10.8,17-26.2,17-46c0-27.8-9.9-45.7-29.7-53.7 c-10.8-4.7-26.4-7.1-46.7-7.1h-41.7V283.7z"></path> <path class="st0" d="M2008.7,413.8c0-25.9,7.4-50.1,22.3-72.5c14.8-22.4,34.3-38.5,58.3-48.4v-1.4c-18.4-8.9-32.9-23.3-43.5-43.1 c-10.6-19.8-15.9-41.7-15.9-65.8c0-45.7,16.1-79.9,48.4-102.5c32.3-22.6,71.8-33.9,118.4-33.9c21.2,0,45.5,2.8,72.8,8.5l-28.3,96.9 c-7.5-1.9-16.7-2.8-27.6-2.8c-17,0-31,4.5-42.1,13.4c-11.1,9-16.6,21.9-16.6,38.9c0,13.7,4.6,25.2,13.8,34.6 c9.2,9.4,21.8,14.1,37.8,14.1h61.5v-62.2h121.6v62.2h62.9v106h-62.9v48.8c0,47.1-17.2,86.3-51.6,117.4 c-34.4,31.1-81.5,46.7-141.4,46.7c-56.6,0-102.1-14.7-136.5-44.2C2025.9,495,2008.7,458.1,2008.7,413.8z M2135.3,406 c0,13.7,5.9,25.5,17.7,35.3c11.8,9.9,26.4,14.8,43.8,14.8c22.6,0,40.2-5.4,52.7-16.3c12.5-10.8,18.7-25,18.7-42.4v-41.7h-69.3 C2156.5,355.8,2135.3,372.5,2135.3,406z"></path> <path class="st0" d="M2524.8,560.1V54.6h179.6c80.1,0,143.6,22.3,190.5,66.8c46.9,44.5,70.3,106.2,70.3,184.9 c0,79.2-23.5,141.3-70.3,186.3c-46.9,45-110.4,67.5-190.5,67.5H2524.8z M2648.6,454.1h50.9c43.4,0,77.2-12.7,101.5-38.2 c24.3-25.5,36.4-62,36.4-109.6c0-47.1-12.3-83.2-36.8-108.2c-24.5-25-58.2-37.5-101.1-37.5h-50.9V454.1z"></path> <path class="st0" d="M3222.6,560.1V54.6h123.7v399.5h206.4v106H3222.6z"></path> <path class="st0" d="M3557.8,560.1l171.8-505.5h130.1l171.8,505.5h-127.3l-31.1-106h-157.7l-30.4,106H3557.8z M3744.4,355.1h99.7 l-28.3-98.3l-20.5-87h-1.4c-7.5,36.8-14.4,65.8-20.5,87L3744.4,355.1z"></path> <path class="st0" d="M4082.3,560.1V54.6h185.9c51.8,0,93.4,11.4,124.8,34.3c31.3,22.9,47,55.5,47,97.9c0,21.7-5.2,42.3-15.6,61.9 c-10.4,19.6-24.7,34.8-43.1,45.6v1.4c26.9,8,46.8,22.7,59.7,44.2c13,21.5,19.4,44.7,19.4,69.6c0,51.4-18.1,89.3-54.4,113.8 c-36.3,24.5-82.3,36.8-137.9,36.8H4082.3z M4206.1,250.5h63.6c14.6,0,25.7-4.5,33.2-13.4c7.5-8.9,11.3-20,11.3-33.2 c0-12.7-3.9-23.1-11.7-31.1c-7.8-8-19.4-12-35-12h-61.5V250.5z M4206.1,454.1h74.2c17,0,30.2-5.1,39.6-15.2 c9.4-10.1,14.1-22.7,14.1-37.8c0-15.1-4.5-27.5-13.4-37.1c-9-9.7-22.2-14.5-39.6-14.5h-74.9V454.1z"></path> <path class="st0" d="M4716.5,560.1V54.6h176c44.8,0,77.5,4,98.3,12c29.2,11.3,52.1,29.6,68.6,54.8c16.5,25.2,24.7,56,24.7,92.3 c0,28.3-6.6,55.3-19.8,81c-13.2,25.7-31.8,44.7-55.9,56.9v1.4c4.7,6.1,11.1,16.3,19.1,30.4l98.3,176.8H4988l-89.8-170.4h-58v170.4 H4716.5z M4840.2,283.7h53.7c20.3,0,36.1-5.4,47.4-16.3c11.3-10.8,17-26.2,17-46c0-27.8-9.9-45.7-29.7-53.7 c-10.8-4.7-26.4-7.1-46.7-7.1h-41.7V283.7z"></path> <path class="st0" d="M5176.1,374.2V54.6h123.7v319.6c0,25.9,7.9,46,23.7,60.1c15.8,14.1,37.1,21.2,64,21.2c26.9,0,48.2-7.1,64-21.2 c15.8-14.1,23.7-34.2,23.7-60.1V54.6h123.7v319.6c0,57.5-19.3,104.3-58,140.3c-38.7,36.1-89.6,54.1-152.7,54.1 c-63.6,0-114.9-18-153.8-54.1S5176.1,431.7,5176.1,374.2z"></path> <path class="st0" d="M5699.2,560.1V54.6h179.6c80.1,0,143.6,22.3,190.5,66.8c46.9,44.5,70.3,106.2,70.3,184.9 c0,79.2-23.5,141.3-70.3,186.3c-46.9,45-110.4,67.5-190.5,67.5H5699.2z M5823,454.1h50.9c43.4,0,77.2-12.7,101.5-38.2 c24.3-25.5,36.4-62,36.4-109.6c0-47.1-12.3-83.2-36.8-108.2c-24.5-25-58.2-37.5-101.1-37.5H5823V454.1z"></path> <path class="st0" d="M6220.3,560.1V54.6h125.1l140,236.1c5.7,9.9,12,22,19.1,36.4c7.1,14.4,12.7,26.3,17,35.7l6.4,14.1h1.4 c-3.8-36.3-5.7-65-5.7-86.3V54.6h123.7v505.5h-124.4l-140.7-235.4c-5.7-9.9-12-22-19.1-36.4c-7.1-14.4-12.7-26.3-17-35.7l-6.4-14.1 h-1.4c3.8,36.3,5.7,65,5.7,86.3v235.4H6220.3z"></path> </g> <g> <path class="st1" d="M1562.3,786.7v-85.9h15.6v36.4h39.3v-36.4h15.5v85.9h-15.5v-36.1h-39.3v36.1H1562.3z"></path> <path class="st1" d="M1644.1,786.7l30.1-85.9h16.5l30.1,85.9h-16l-7.4-22h-30.1l-7.3,22H1644.1z M1671.2,752h22.4l-7.6-23 l-3.4-13.3h-0.2c-1.3,5.6-2.4,10.1-3.4,13.3L1671.2,752z"></path> <path class="st1" d="M1728.9,782.2l6.9-11.7c3.6,2.8,6.9,4.2,9.7,4.2c3.8,0,6.7-2.5,8.6-7.5l-33.6-66.4h17.2l18.3,38.4l4.8,11.4 h0.2c1-3.8,2.2-7.5,3.5-11.3l13.8-38.5h16.3l-26.5,67.9c-1,2.7-2.1,5-3.3,7c-1.1,2-2.6,4-4.4,6c-1.8,2-3.9,3.6-6.3,4.7 c-2.4,1.1-5.1,1.7-8.1,1.7C1740.3,788.2,1734.6,786.2,1728.9,782.2z"></path> <path class="st1" d="M1826.7,754.8c-8.8,0-15.4-2.2-19.7-6.7c-4.4-4.5-6.5-10.8-6.5-19.1v-28.2h15.9v24.7 c0,10.1,4.8,15.1,14.4,15.1c6.5,0,12.4-1.7,17.7-5.1v-34.7h15.9v85.9h-15.9v-33.3l0.2-4h-0.2C1841.4,753,1834.2,754.8,1826.7,754.8 z"></path> <path class="st1" d="M1885.1,786.7v-85.9h15.6v36.4h39.3v-36.4h15.5v85.9H1940v-36.1h-39.3v36.1H1885.1z"></path> <path class="st1" d="M1971.3,743.1c0-12.3,4.3-22.7,12.8-31.2c8.5-8.4,19.1-12.6,31.6-12.6s23.1,4.2,31.6,12.6 c8.5,8.4,12.8,18.8,12.8,31.2c0,12.7-4.3,23.3-12.8,32c-8.5,8.7-19.1,13-31.6,13s-23.1-4.3-31.6-13 C1975.5,766.5,1971.3,755.8,1971.3,743.1z M1987.4,743.1c0,8.7,2.7,16,8.2,21.9c5.5,5.9,12.2,8.8,20.1,8.8c7.9,0,14.6-2.9,20.1-8.8 c5.5-5.9,8.2-13.2,8.2-21.9c0-8.3-2.7-15.3-8.2-21c-5.5-5.7-12.2-8.5-20.1-8.5c-7.9,0-14.6,2.8-20.1,8.5 C1990.1,727.8,1987.4,734.8,1987.4,743.1z"></path> <path class="st1" d="M2073.4,758.9v-13.4h36.3v13.4H2073.4z"></path> <path class="st1" d="M2128.1,786.7v-85.9h15.6v49.6l-0.8,13.3h0.2c2.7-5.6,5.2-10,7.3-13.4l32.4-49.5h15.5v85.9h-15.5v-49.5 l0.8-13.3h-0.2c-2.7,5.5-5,9.9-7.1,13.3l-32.7,49.5H2128.1z"></path> <path class="st1" d="M2214.2,743.4c0-12.6,4.2-23.1,12.5-31.5c8.3-8.4,18.9-12.6,31.7-12.6c13.1,0,23.6,3.9,31.7,11.7l-7.5,11.6 c-3.1-2.7-6.8-4.8-11.1-6.5c-4.2-1.7-8.4-2.5-12.4-2.5c-9,0-16.1,2.8-21.2,8.5c-5.1,5.6-7.6,12.7-7.6,21.1c0,8.5,2.6,15.7,7.7,21.7 c5.2,6,12.2,9,21.2,9c9.2,0,17.5-3.6,24.9-10.9l8.2,11.3c-9.1,9.3-20.4,13.9-33.8,13.9c-13.3,0-24-4.2-32.2-12.7 C2218.3,767,2214.2,756.3,2214.2,743.4z"></path> <path class="st1" d="M2298.7,743.4c0-12.6,4.2-23.1,12.5-31.5c8.3-8.4,18.9-12.6,31.7-12.6c13.1,0,23.6,3.9,31.7,11.7l-7.5,11.6 c-3.1-2.7-6.8-4.8-11.1-6.5c-4.2-1.7-8.4-2.5-12.4-2.5c-9,0-16.1,2.8-21.2,8.5c-5.1,5.6-7.6,12.7-7.6,21.1c0,8.5,2.6,15.7,7.7,21.7 c5.2,6,12.2,9,21.2,9c9.2,0,17.5-3.6,24.9-10.9l8.2,11.3c-9.1,9.3-20.4,13.9-33.8,13.9c-13.3,0-24-4.2-32.2-12.7 C2302.8,767,2298.7,756.3,2298.7,743.4z"></path> <path class="st1" d="M2381.6,773.4c6.5-0.9,11.2-5.2,14.1-12.9c2.9-7.7,4.4-19.8,4.4-36.2v-23.5h53.1v85.9h-15.6v-72.5H2415v10.3 c0,21.1-2.6,36.8-7.9,47.1c-5.2,10.3-13.8,15.6-25.5,16V773.4z"></path> <path class="st1" d="M2474,786.7v-85.9h51.4v13.4h-35.8v22.5h28.9v13.4h-28.9v23.1h37.8v13.4H2474z"></path> <path class="st1" d="M2533.3,773.3h8.7c8.3-12.6,12.5-30.5,12.5-53.7v-18.8h53.4v72.5h9.6v30.4h-13.9v-16.9h-55.8v16.9h-14.4V773.3 z M2558.1,773.3h34.1v-59h-23v6.4C2569.2,743.7,2565.5,761.3,2558.1,773.3z"></path> <path class="st1" d="M2625.9,743.1c0-12.3,4.3-22.7,12.8-31.2c8.5-8.4,19.1-12.6,31.6-12.6s23.1,4.2,31.6,12.6 c8.5,8.4,12.8,18.8,12.8,31.2c0,12.7-4.3,23.3-12.8,32c-8.5,8.7-19.1,13-31.6,13s-23.1-4.3-31.6-13 C2630.1,766.5,2625.9,755.8,2625.9,743.1z M2642,743.1c0,8.7,2.7,16,8.2,21.9c5.5,5.9,12.2,8.8,20.1,8.8c7.9,0,14.6-2.9,20.1-8.8 c5.5-5.9,8.2-13.2,8.2-21.9c0-8.3-2.7-15.3-8.2-21c-5.5-5.7-12.2-8.5-20.1-8.5c-7.9,0-14.6,2.8-20.1,8.5 C2644.7,727.8,2642,734.8,2642,743.1z"></path> <path class="st1" d="M2730.4,786.7v-85.9h30.6c8,0,14.4,2,19.3,5.9c4.9,3.9,7.3,9.3,7.3,16.3c0,4-0.9,7.7-2.8,10.9 c-1.9,3.2-4.4,5.7-7.6,7.5v0.2c4.5,1.3,8,3.8,10.3,7.6c2.4,3.8,3.6,8,3.6,12.6c0,8.1-2.8,14.3-8.5,18.6c-5.6,4.2-12.7,6.4-21.2,6.4 H2730.4z M2746,735.9h15.1c3.3,0,5.9-1,7.8-3.1c1.9-2.1,2.8-4.7,2.8-7.9c0-3.1-0.9-5.7-2.8-7.7c-1.9-2-4.6-3-8-3H2746V735.9z M2746,773.3h16.7c3.9,0,6.9-1.1,9.1-3.4c2.2-2.3,3.3-5.3,3.3-9c0-3.6-1.1-6.6-3.3-8.9c-2.2-2.3-5.3-3.4-9.1-3.4H2746V773.3z"></path> <path class="st1" d="M2796.6,786.7l30.1-85.9h16.5l30.1,85.9h-16l-7.4-22h-30.1l-7.3,22H2796.6z M2823.7,752h22.4l-7.6-23 l-3.4-13.3h-0.2c-1.3,5.6-2.4,10.1-3.4,13.3L2823.7,752z"></path> <path class="st1" d="M2897,786.7v-72.5h-28.2v-13.4h71.9v13.4h-28.2v72.5H2897z"></path> <path class="st1" d="M2952.9,786.7v-85.9h51.4v13.4h-35.8v22.5h28.9v13.4h-28.9v23.1h37.8v13.4H2952.9z"></path> <path class="st1" d="M3013.1,773.4c6.5-0.9,11.2-5.2,14.1-12.9c2.9-7.7,4.4-19.8,4.4-36.2v-23.5h53.1v85.9h-15.6v-72.5h-22.6v10.3 c0,21.1-2.6,36.8-7.9,47.1c-5.2,10.3-13.8,15.6-25.5,16V773.4z"></path> <path class="st1" d="M3105.5,786.7v-85.9h15.6v30.1h16.8c7.9,0,14.4,2.6,19.4,7.7c5,5.1,7.5,11.9,7.5,20.4c0,8.2-2.5,14.9-7.4,20 c-4.9,5.1-11.3,7.7-19.2,7.7H3105.5z M3121.1,773.3h14.3c4.3,0,7.6-1.3,10-3.8c2.4-2.5,3.6-6,3.6-10.5c0-4.4-1.2-8-3.7-10.6 c-2.5-2.7-5.8-4-10.1-4h-14V773.3z"></path> <path class="st1" d="M3173.5,743.4c0-12.6,4.2-23.1,12.5-31.5c8.3-8.4,18.9-12.6,31.7-12.6c13.1,0,23.6,3.9,31.7,11.7l-7.5,11.6 c-3.1-2.7-6.8-4.8-11.1-6.5c-4.2-1.7-8.4-2.5-12.4-2.5c-9,0-16.1,2.8-21.2,8.5c-5.1,5.6-7.6,12.7-7.6,21.1c0,8.5,2.6,15.7,7.7,21.7 c5.2,6,12.2,9,21.2,9c9.2,0,17.5-3.6,24.9-10.9l8.2,11.3c-9.1,9.3-20.4,13.9-33.8,13.9c-13.3,0-24-4.2-32.2-12.7 C3177.6,767,3173.5,756.3,3173.5,743.4z"></path> <path class="st1" d="M3265.1,786.7v-85.9h15.6v35h11.1l20.2-35h16.9l-24.3,40.9v0.2l25.8,44.8h-17.7l-20.9-37.5h-11.1v37.5H3265.1z "></path> <path class="st1" d="M3332.9,786.7l30.1-85.9h16.5l30.1,85.9h-16l-7.4-22h-30.1l-7.3,22H3332.9z M3360,752h22.4l-7.6-23l-3.4-13.3 h-0.2c-1.3,5.6-2.4,10.1-3.4,13.3L3360,752z"></path> <path class="st1" d="M3412.6,786.7l18.1-30.2l2.8-4.5v-0.2c-5.1-2.3-8.9-5.6-11.4-9.9c-2.5-4.4-3.8-9.4-3.8-15 c0-5.8,1.3-10.7,3.9-14.8c2.6-4.1,6.1-7,10.5-8.9c3.5-1.5,9-2.3,16.3-2.3h27.8v85.9h-15.6v-32.1h-12.6l-18.6,32.1H3412.6z M3447.7,741.6h13.6v-27.3h-11c-4.8,0-8.4,0.7-10.8,2.2c-3.6,2.2-5.3,5.8-5.3,11c0,4.5,1.2,8,3.6,10.5 C3440.2,740.3,3443.5,741.6,3447.7,741.6z"></path> <path class="st1" d="M3519.2,773.4c6.5-0.9,11.2-5.2,14.1-12.9c2.9-7.7,4.4-19.8,4.4-36.2v-23.5h53.1v85.9h-15.6v-72.5h-22.6v10.3 c0,21.1-2.6,36.8-7.9,47.1c-5.2,10.3-13.8,15.6-25.5,16V773.4z"></path> <path class="st1" d="M3602.2,786.7l30.1-85.9h16.5l30.1,85.9h-16l-7.4-22h-30.1l-7.3,22H3602.2z M3629.3,752h22.4l-7.6-23 l-3.4-13.3h-0.2c-1.3,5.6-2.4,10.1-3.4,13.3L3629.3,752z"></path> <path class="st1" d="M3690.3,786.7v-85.9h52.8v13.4h-37.1v19.8h17.2c8,0,14.5,2.4,19.4,7.2c5,4.8,7.4,11.2,7.4,19.3 c0,7.7-2.5,14-7.4,18.9c-4.9,4.8-11.3,7.3-19.1,7.3H3690.3z M3705.9,773.3h14.8c4.3,0,7.6-1.1,9.9-3.4c2.3-2.3,3.5-5.4,3.5-9.3 c0-4-1.2-7.1-3.6-9.5c-2.4-2.4-5.8-3.6-10-3.6h-14.5V773.3z"></path> <path class="st1" d="M3759.7,743.1c0-12.3,4.3-22.7,12.8-31.2c8.5-8.4,19.1-12.6,31.6-12.6s23.1,4.2,31.6,12.6 c8.5,8.4,12.8,18.8,12.8,31.2c0,12.7-4.3,23.3-12.8,32c-8.5,8.7-19.1,13-31.6,13s-23.1-4.3-31.6-13 C3764,766.5,3759.7,755.8,3759.7,743.1z M3775.8,743.1c0,8.7,2.7,16,8.2,21.9c5.5,5.9,12.2,8.8,20.1,8.8c7.9,0,14.6-2.9,20.1-8.8 c5.5-5.9,8.2-13.2,8.2-21.9c0-8.3-2.7-15.3-8.2-21c-5.5-5.7-12.2-8.5-20.1-8.5c-7.9,0-14.6,2.8-20.1,8.5 C3778.6,727.8,3775.8,734.8,3775.8,743.1z"></path> <path class="st1" d="M3864.3,786.7v-85.9h33.2c8.1,0,14.6,2.6,19.7,7.7c5.1,5.2,7.6,11.9,7.6,20.2c0,8.3-2.5,15.1-7.6,20.4 c-5.1,5.3-11.7,7.9-19.7,7.9h-17.5v29.6H3864.3z M3879.9,743.5h14.6c4.5,0,8-1.3,10.6-4s3.8-6.3,3.8-10.8c0-4.4-1.3-8-3.8-10.6 c-2.5-2.6-6-3.9-10.3-3.9h-14.9V743.5z"></path> <path class="st1" d="M3924.5,786.7l30.1-85.9h16.5l30.1,85.9h-16l-7.4-22h-30.1l-7.3,22H3924.5z M3951.7,752h22.4l-7.6-23 l-3.4-13.3h-0.2c-1.3,5.6-2.4,10.1-3.4,13.3L3951.7,752z"></path> <path class="st1" d="M4025,786.7v-72.5h-28.2v-13.4h71.9v13.4h-28.2v72.5H4025z"></path> <path class="st1" d="M4072.8,743.1c0-12.3,4.3-22.7,12.8-31.2c8.5-8.4,19.1-12.6,31.6-12.6s23.1,4.2,31.6,12.6 c8.5,8.4,12.8,18.8,12.8,31.2c0,12.7-4.3,23.3-12.8,32c-8.5,8.7-19.1,13-31.6,13s-23.1-4.3-31.6-13 C4077,766.5,4072.8,755.8,4072.8,743.1z M4088.9,743.1c0,8.7,2.7,16,8.2,21.9c5.5,5.9,12.2,8.8,20.1,8.8c7.9,0,14.6-2.9,20.1-8.8 c5.5-5.9,8.2-13.2,8.2-21.9c0-8.3-2.7-15.3-8.2-21c-5.5-5.7-12.2-8.5-20.1-8.5c-7.9,0-14.6,2.8-20.1,8.5 C4091.6,727.8,4088.9,734.8,4088.9,743.1z"></path> <path class="st1" d="M4177.3,786.7v-85.9h33.2c8.1,0,14.6,2.6,19.7,7.7c5.1,5.2,7.6,11.9,7.6,20.2c0,8.3-2.5,15.1-7.6,20.4 c-5.1,5.3-11.7,7.9-19.7,7.9h-17.5v29.6H4177.3z M4192.9,743.5h14.6c4.5,0,8-1.3,10.6-4s3.8-6.3,3.8-10.8c0-4.4-1.3-8-3.8-10.6 c-2.5-2.6-6-3.9-10.3-3.9h-14.9V743.5z"></path> <path class="st1" d="M4251.4,786.7v-85.9h15.6v49.6l-0.8,13.3h0.2c2.7-5.6,5.2-10,7.3-13.4l32.4-49.5h15.5v85.9h-15.5v-49.5 l0.8-13.3h-0.2c-2.7,5.5-5,9.9-7.1,13.3l-32.7,49.5H4251.4z"></path> <path class="st1" d="M4334.1,786.7l18.1-30.2l2.8-4.5v-0.2c-5.1-2.3-8.9-5.6-11.4-9.9c-2.5-4.4-3.8-9.4-3.8-15 c0-5.8,1.3-10.7,3.9-14.8c2.6-4.1,6.1-7,10.5-8.9c3.5-1.5,9-2.3,16.3-2.3h27.8v85.9h-15.6v-32.1h-12.6l-18.6,32.1H4334.1z M4369.2,741.6h13.6v-27.3h-11c-4.8,0-8.4,0.7-10.8,2.2c-3.6,2.2-5.3,5.8-5.3,11c0,4.5,1.2,8,3.6,10.5 C4361.7,740.3,4365,741.6,4369.2,741.6z"></path> <path class="st1" d="M4449.4,786.7v-85.9h15.6v36.4h39.3v-36.4h15.5v85.9h-15.5v-36.1h-39.3v36.1H4449.4z"></path> <path class="st1" d="M4540.7,786.7v-85.9h51.4v13.4h-35.8v22.5h28.9v13.4h-28.9v23.1h37.8v13.4H4540.7z"></path> <path class="st1" d="M4609.5,786.7v-85.9h15.6v49.6l-0.8,13.3h0.2c2.7-5.6,5.2-10,7.3-13.4l32.4-49.5h15.5v85.9h-15.5v-49.5 l0.8-13.3h-0.2c-2.7,5.5-5,9.9-7.1,13.3l-32.7,49.5H4609.5z M4659.4,692.4c-3.9,3-8.6,4.5-14,4.5c-5.5,0-10.2-1.5-14-4.5 s-5.8-7.1-5.8-12.2v-1.6h11.7v1.6c0,2.4,0.8,4.3,2.4,5.6c1.6,1.3,3.5,2,5.7,2c2.2,0,4.1-0.7,5.7-2c1.7-1.3,2.5-3.2,2.5-5.7v-1.5 h11.6v1.6C4665.2,685.3,4663.2,689.4,4659.4,692.4z"></path> <path class="st1" d="M4700.6,786.7v-85.9h33.2c8.1,0,14.6,2.6,19.7,7.7c5.1,5.2,7.6,11.9,7.6,20.2c0,8.3-2.5,15.1-7.6,20.4 c-5.1,5.3-11.7,7.9-19.7,7.9h-17.5v29.6H4700.6z M4716.2,743.5h14.6c4.5,0,8-1.3,10.6-4s3.8-6.3,3.8-10.8c0-4.4-1.3-8-3.8-10.6 c-2.5-2.6-6-3.9-10.3-3.9h-14.9V743.5z"></path> <path class="st1" d="M4769.6,743.1c0-12.3,4.3-22.7,12.8-31.2c8.5-8.4,19.1-12.6,31.6-12.6s23.1,4.2,31.6,12.6 c8.5,8.4,12.8,18.8,12.8,31.2c0,12.7-4.3,23.3-12.8,32c-8.5,8.7-19.1,13-31.6,13s-23.1-4.3-31.6-13 C4773.9,766.5,4769.6,755.8,4769.6,743.1z M4785.7,743.1c0,8.7,2.7,16,8.2,21.9c5.5,5.9,12.2,8.8,20.1,8.8c7.9,0,14.6-2.9,20.1-8.8 c5.5-5.9,8.2-13.2,8.2-21.9c0-8.3-2.7-15.3-8.2-21c-5.5-5.7-12.2-8.5-20.1-8.5c-7.9,0-14.6,2.8-20.1,8.5 C4788.4,727.8,4785.7,734.8,4785.7,743.1z"></path> <path class="st1" d="M4863,773.4c6.5-0.9,11.2-5.2,14.1-12.9c2.9-7.7,4.4-19.8,4.4-36.2v-23.5h53.1v85.9H4919v-72.5h-22.6v10.3 c0,21.1-2.6,36.8-7.9,47.1c-5.2,10.3-13.8,15.6-25.5,16V773.4z"></path> <path class="st1" d="M4955.5,786.7v-85.9h15.6v49.6l-0.8,13.3h0.2c2.7-5.6,5.2-10,7.3-13.4l32.4-49.5h15.5v85.9h-15.5v-49.5 l0.8-13.3h-0.2c-2.7,5.5-5,9.9-7.1,13.3l-32.7,49.5H4955.5z"></path> <path class="st1" d="M5046.6,786.7v-85.9h15.6v36.4h39.3v-36.4h15.5v85.9h-15.5v-36.1h-39.3v36.1H5046.6z"></path> <path class="st1" d="M5137.8,786.7v-85.9h49.4v13.4h-33.8v72.5H5137.8z"></path> <path class="st1" d="M5199,786.7v-85.9h30.6c8,0,14.4,2,19.3,5.9c4.9,3.9,7.3,9.3,7.3,16.3c0,4-0.9,7.7-2.8,10.9 c-1.9,3.2-4.4,5.7-7.6,7.5v0.2c4.5,1.3,8,3.8,10.3,7.6c2.4,3.8,3.6,8,3.6,12.6c0,8.1-2.8,14.3-8.5,18.6c-5.6,4.2-12.7,6.4-21.2,6.4 H5199z M5214.6,735.9h15.1c3.3,0,5.9-1,7.8-3.1c1.9-2.1,2.8-4.7,2.8-7.9c0-3.1-0.9-5.7-2.8-7.7c-1.9-2-4.6-3-8-3h-14.9V735.9z M5214.6,773.3h16.7c3.9,0,6.9-1.1,9.1-3.4c2.2-2.3,3.3-5.3,3.3-9c0-3.6-1.1-6.6-3.3-8.9c-2.2-2.3-5.3-3.4-9.1-3.4h-16.7V773.3z"></path> <path class="st1" d="M5275.6,786.7v-85.9h15.6v49.6l-0.8,13.3h0.2c2.7-5.6,5.2-10,7.3-13.4l32.4-49.5h15.5v85.9h-15.5v-49.5 l0.8-13.3h-0.2c-2.7,5.5-5,9.9-7.1,13.3l-32.7,49.5H5275.6z"></path> <path class="st1" d="M5361.8,743.4c0-12.6,4.2-23.1,12.5-31.5c8.3-8.4,18.9-12.6,31.7-12.6c13.1,0,23.6,3.9,31.7,11.7l-7.5,11.6 c-3.1-2.7-6.8-4.8-11.1-6.5c-4.2-1.7-8.4-2.5-12.4-2.5c-9,0-16.1,2.8-21.2,8.5c-5.1,5.6-7.6,12.7-7.6,21.1c0,8.5,2.6,15.7,7.7,21.7 c5.2,6,12.2,9,21.2,9c9.2,0,17.5-3.6,24.9-10.9l8.2,11.3c-9.1,9.3-20.4,13.9-33.8,13.9c-13.3,0-24-4.2-32.2-12.7 C5365.8,767,5361.8,756.3,5361.8,743.4z"></path> <path class="st1" d="M5472.9,786.7v-72.5h-28.2v-13.4h71.9v13.4h-28.2v72.5H5472.9z"></path> <path class="st1" d="M5528.8,786.7v-85.9h15.6v49.6l-0.8,13.3h0.2c2.7-5.6,5.2-10,7.3-13.4l32.4-49.5h15.5v85.9h-15.5v-49.5 l0.8-13.3h-0.2c-2.7,5.5-5,9.9-7.1,13.3l-32.7,49.5H5528.8z"></path> <path class="st1" d="M5641.3,754.8c-8.8,0-15.4-2.2-19.7-6.7c-4.4-4.5-6.5-10.8-6.5-19.1v-28.2h15.9v24.7 c0,10.1,4.8,15.1,14.4,15.1c6.5,0,12.4-1.7,17.7-5.1v-34.7h15.9v85.9h-15.9v-33.3l0.2-4h-0.2C5656,753,5648.8,754.8,5641.3,754.8z"></path> <path class="st1" d="M5699.7,786.7v-85.9h51.4v13.4h-35.8v22.5h28.9v13.4h-28.9v23.1h37.8v13.4H5699.7z"></path> <path class="st1" d="M5762,743.4c0-12.6,4.2-23.1,12.5-31.5c8.3-8.4,18.9-12.6,31.7-12.6c13.1,0,23.6,3.9,31.7,11.7l-7.5,11.6 c-3.1-2.7-6.8-4.8-11.1-6.5c-4.2-1.7-8.4-2.5-12.4-2.5c-9,0-16.1,2.8-21.2,8.5c-5.1,5.6-7.6,12.7-7.6,21.1c0,8.5,2.6,15.7,7.7,21.7 c5.2,6,12.2,9,21.2,9c9.2,0,17.5-3.6,24.9-10.9l8.2,11.3c-9.1,9.3-20.4,13.9-33.8,13.9c-13.3,0-24-4.2-32.2-12.7 C5766.1,767,5762,756.3,5762,743.4z"></path> <path class="st1" d="M5853.6,786.7v-85.9h15.6v35h11.1l20.2-35h16.9l-24.3,40.9v0.2l25.8,44.8h-17.7l-20.9-37.5h-11.1v37.5H5853.6z "></path> <path class="st1" d="M5930.8,786.7v-85.9h15.6v49.6l-0.8,13.3h0.2c2.7-5.6,5.2-10,7.3-13.4l32.4-49.5h15.5v85.9h-15.5v-49.5 l0.8-13.3h-0.2c-2.7,5.5-5,9.9-7.1,13.3l-32.7,49.5H5930.8z"></path> <path class="st1" d="M6013.1,786.7l26.6-43.6l-25.7-42.4h17.8l11.9,21.1l5.3,10.4h0.2c1.6-3.5,3.4-7,5.3-10.4l12-21.1h17.8 l-25.8,42.4l26.7,43.6h-17.4l-13.4-23.1l-5.3-10.2h-0.2c-1.6,3.5-3.3,6.9-5.2,10.2l-13.3,23.1H6013.1z"></path> <path class="st1" d="M1562.3,931.9V846h15.6v49.6l-0.8,13.3h0.2c2.7-5.6,5.2-10,7.3-13.4L1617,846h15.5v85.9H1617v-49.5l0.8-13.3 h-0.2c-2.7,5.5-5,9.9-7.1,13.3l-32.7,49.5H1562.3z"></path> <path class="st1" d="M1683.7,931.9V846h15.6v35h11.1l20.2-35h16.9l-24.3,40.9v0.2l25.8,44.8h-17.7l-20.9-37.5h-11.1v37.5H1683.7z"></path> <path class="st1" d="M1753.5,888.3c0-12.3,4.3-22.7,12.8-31.2c8.5-8.4,19.1-12.6,31.6-12.6s23.1,4.2,31.6,12.6 c8.5,8.4,12.8,18.8,12.8,31.2c0,12.7-4.3,23.3-12.8,32c-8.5,8.7-19.1,13-31.6,13s-23.1-4.3-31.6-13 C1757.7,911.7,1753.5,901,1753.5,888.3z M1769.6,888.3c0,8.7,2.7,16,8.2,21.9c5.5,5.9,12.2,8.8,20.1,8.8c7.9,0,14.6-2.9,20.1-8.8 c5.5-5.9,8.2-13.2,8.2-21.9c0-8.3-2.7-15.3-8.2-21c-5.5-5.7-12.2-8.5-20.1-8.5c-7.9,0-14.6,2.8-20.1,8.5 C1772.3,873,1769.6,880,1769.6,888.3z"></path> <path class="st1" d="M1858,931.9V846h49.4v13.4h-33.8v72.5H1858z"></path> <path class="st1" d="M1919.2,931.9V846h15.6v36.4h39.3V846h15.5v85.9h-15.5v-36.1h-39.3v36.1H1919.2z"></path> <path class="st1" d="M2010.5,931.9V846h15.6v49.6l-0.8,13.3h0.2c2.7-5.6,5.2-10,7.3-13.4l32.4-49.5h15.5v85.9h-15.5v-49.5l0.8-13.3 h-0.2c-2.7,5.5-5,9.9-7.1,13.3l-32.7,49.5H2010.5z"></path> <path class="st1" d="M2121.1,931.9v-72.5h-28.2V846h71.9v13.4h-28.2v72.5H2121.1z"></path> <path class="st1" d="M2177,931.9V846h15.6v49.6l-0.8,13.3h0.2c2.7-5.6,5.2-10,7.3-13.4l32.4-49.5h15.5v85.9h-15.5v-49.5l0.8-13.3 h-0.2c-2.7,5.5-5,9.9-7.1,13.3l-32.7,49.5H2177z"></path> <path class="st1" d="M2268.1,931.9V846h30.6c8,0,14.4,2,19.3,5.9c4.9,3.9,7.3,9.3,7.3,16.3c0,4-0.9,7.7-2.8,10.9 c-1.9,3.2-4.4,5.7-7.6,7.5v0.2c4.5,1.3,8,3.8,10.3,7.6c2.4,3.8,3.6,8,3.6,12.6c0,8.1-2.8,14.3-8.5,18.6c-5.6,4.2-12.7,6.4-21.2,6.4 H2268.1z M2283.7,881.1h15.1c3.3,0,5.9-1,7.8-3.1c1.9-2.1,2.8-4.7,2.8-7.9c0-3.1-0.9-5.7-2.8-7.7c-1.9-2-4.6-3-8-3h-14.9V881.1z M2283.7,918.5h16.7c3.9,0,6.9-1.1,9.1-3.4c2.2-2.3,3.3-5.3,3.3-9c0-3.6-1.1-6.6-3.3-8.9c-2.2-2.3-5.3-3.4-9.1-3.4h-16.7V918.5z"></path> <path class="st1" d="M2344.7,931.9V846h15.6v36.4h39.3V846h15.5v85.9h-15.5v-36.1h-39.3v36.1H2344.7z"></path> <path class="st1" d="M2435.9,931.9V846h15.6v30.1h16c8,0,14.5,2.6,19.4,7.7c5,5.1,7.4,11.9,7.4,20.4c0,8.2-2.5,14.9-7.4,20 c-4.9,5.1-11.3,7.7-19.1,7.7H2435.9z M2451.5,918.5h13.6c4.3,0,7.6-1.3,9.9-3.8c2.3-2.5,3.5-6,3.5-10.5c0-4.4-1.2-8-3.6-10.6 s-5.8-4-10-4h-13.3V918.5z M2505.5,931.9V846h15.5v85.9H2505.5z"></path> <path class="st1" d="M2533.1,931.9l26.6-43.6L2534,846h17.8l11.9,21.1l5.3,10.4h0.2c1.6-3.5,3.4-7,5.3-10.4l12-21.1h17.8 l-25.8,42.3l26.7,43.6h-17.4l-13.4-23.1l-5.3-10.2h-0.2c-1.6,3.5-3.3,6.9-5.2,10.2l-13.3,23.1H2533.1z"></path> <path class="st1" d="M2647.4,931.9V846h15.6v49.6l-0.8,13.3h0.2c2.7-5.6,5.2-10,7.3-13.4l32.4-49.5h15.5v85.9h-15.5v-49.5l0.8-13.3 h-0.2c-2.7,5.5-5,9.9-7.1,13.3l-32.7,49.5H2647.4z"></path> <path class="st1" d="M2733.6,888.6c0-12.6,4.2-23.1,12.5-31.5c8.3-8.4,18.9-12.6,31.7-12.6c13.1,0,23.6,3.9,31.7,11.7l-7.5,11.6 c-3.1-2.7-6.8-4.8-11.1-6.5c-4.2-1.7-8.4-2.5-12.4-2.5c-9,0-16.1,2.8-21.2,8.5c-5.1,5.6-7.6,12.7-7.6,21.1c0,8.5,2.6,15.7,7.7,21.7 c5.2,6,12.2,9,21.2,9c9.2,0,17.5-3.6,24.9-10.9l8.2,11.3c-9.1,9.3-20.4,13.9-33.8,13.9c-13.3,0-24-4.2-32.2-12.7 C2737.6,912.2,2733.6,901.5,2733.6,888.6z"></path> <path class="st1" d="M2818,888.6c0-12.6,4.2-23.1,12.5-31.5c8.3-8.4,18.9-12.6,31.7-12.6c13.1,0,23.6,3.9,31.7,11.7l-7.5,11.6 c-3.1-2.7-6.8-4.8-11.1-6.5c-4.2-1.7-8.4-2.5-12.4-2.5c-9,0-16.1,2.8-21.2,8.5c-5.1,5.6-7.6,12.7-7.6,21.1c0,8.5,2.6,15.7,7.7,21.7 c5.2,6,12.2,9,21.2,9c9.2,0,17.5-3.6,24.9-10.9l8.2,11.3c-9.1,9.3-20.4,13.9-33.8,13.9c-13.3,0-24-4.2-32.2-12.7 C2822.1,912.2,2818,901.5,2818,888.6z"></path> <path class="st1" d="M2900.9,918.6c6.5-0.9,11.2-5.2,14.1-12.9c2.9-7.7,4.4-19.8,4.4-36.2V846h53.1v85.9h-15.6v-72.5h-22.6v10.3 c0,21.1-2.6,36.8-7.9,47.1c-5.2,10.3-13.8,15.6-25.5,16V918.6z"></path> <path class="st1" d="M2993.3,931.9V846h51.4v13.4H3009v22.5h28.9v13.4H3009v23.1h37.8v13.4H2993.3z"></path> <path class="st1" d="M3052.6,918.5h8.7c8.3-12.6,12.5-30.5,12.5-53.7V846h53.4v72.5h9.6v30.4h-13.9v-16.9H3067v16.9h-14.4V918.5z M3077.4,918.5h34.1v-59h-23v6.4C3088.6,888.9,3084.9,906.5,3077.4,918.5z"></path> <path class="st1" d="M3145.2,888.3c0-12.3,4.3-22.7,12.8-31.2c8.5-8.4,19.1-12.6,31.6-12.6s23.1,4.2,31.6,12.6 c8.5,8.4,12.8,18.8,12.8,31.2c0,12.7-4.3,23.3-12.8,32c-8.5,8.7-19.1,13-31.6,13s-23.1-4.3-31.6-13 C3149.4,911.7,3145.2,901,3145.2,888.3z M3161.3,888.3c0,8.7,2.7,16,8.2,21.9c5.5,5.9,12.2,8.8,20.1,8.8c7.9,0,14.6-2.9,20.1-8.8 c5.5-5.9,8.2-13.2,8.2-21.9c0-8.3-2.7-15.3-8.2-21c-5.5-5.7-12.2-8.5-20.1-8.5c-7.9,0-14.6,2.8-20.1,8.5 C3164,873,3161.3,880,3161.3,888.3z"></path> <path class="st1" d="M3249.7,931.9V846h30.6c8,0,14.4,2,19.3,5.9c4.9,3.9,7.3,9.3,7.3,16.3c0,4-0.9,7.7-2.8,10.9 c-1.9,3.2-4.4,5.7-7.6,7.5v0.2c4.5,1.3,8,3.8,10.3,7.6c2.4,3.8,3.6,8,3.6,12.6c0,8.1-2.8,14.3-8.5,18.6c-5.6,4.2-12.7,6.4-21.2,6.4 H3249.7z M3265.3,881.1h15.1c3.3,0,5.9-1,7.8-3.1c1.9-2.1,2.8-4.7,2.8-7.9c0-3.1-0.9-5.7-2.8-7.7c-1.9-2-4.6-3-8-3h-14.9V881.1z M3265.3,918.5h16.7c3.9,0,6.9-1.1,9.1-3.4c2.2-2.3,3.3-5.3,3.3-9c0-3.6-1.1-6.6-3.3-8.9c-2.2-2.3-5.3-3.4-9.1-3.4h-16.7V918.5z"></path> <path class="st1" d="M3315.9,931.9l30.1-85.9h16.5l30.1,85.9h-16l-7.4-22h-30.1l-7.3,22H3315.9z M3343,897.2h22.4l-7.6-23 l-3.4-13.3h-0.2c-1.3,5.6-2.4,10.1-3.4,13.3L3343,897.2z"></path> <path class="st1" d="M3404,931.9V846h15.6v36.4h39.3V846h15.5v85.9h-15.5v-36.1h-39.3v36.1H3404z"></path> <path class="st1" d="M3495.2,931.9V846h15.6v49.6l-0.8,13.3h0.2c2.7-5.6,5.2-10,7.3-13.4l32.4-49.5h15.5v85.9h-15.5v-49.5l0.8-13.3 h-0.2c-2.7,5.5-5,9.9-7.1,13.3l-32.7,49.5H3495.2z"></path> <path class="st1" d="M3586.4,931.9V846h15.6v49.6l-0.8,13.3h0.2c2.7-5.6,5.2-10,7.3-13.4l32.4-49.5h15.5v85.9h-15.5v-49.5l0.8-13.3 h-0.2c-2.7,5.5-5,9.9-7.1,13.3l-32.7,49.5H3586.4z M3636.2,837.6c-3.9,3-8.6,4.5-14,4.5c-5.5,0-10.2-1.5-14-4.5 c-3.9-3-5.8-7.1-5.8-12.2v-1.6h11.7v1.6c0,2.4,0.8,4.3,2.4,5.6c1.6,1.3,3.5,2,5.7,2c2.2,0,4.1-0.7,5.7-2c1.7-1.3,2.5-3.2,2.5-5.7 v-1.5h11.6v1.6C3642,830.5,3640.1,834.6,3636.2,837.6z"></path> <path class="st1" d="M3707.7,931.9V846h15.6v49.6l-0.8,13.3h0.2c2.7-5.6,5.2-10,7.3-13.4l32.4-49.5h15.5v85.9h-15.5v-49.5l0.8-13.3 h-0.2c-2.7,5.5-5,9.9-7.1,13.3l-32.7,49.5H3707.7z"></path> <path class="st1" d="M3829.1,931.9V846h28.3c7.3,0,12.7,0.8,16.2,2.3c4.5,1.9,8.1,4.8,10.6,8.8c2.6,4,3.9,8.9,3.9,14.6 c0,5.2-1.3,10-3.9,14.3c-2.6,4.3-6.1,7.4-10.5,9.1v0.2c0.7,0.9,1.7,2.4,2.8,4.5l17.7,31.9h-17.5l-16.9-32.1h-15v32.1H3829.1z M3844.7,886.3h14c4.2,0,7.5-1.2,9.9-3.7c2.4-2.5,3.6-5.8,3.6-10c0-6-2.3-9.9-6.8-11.7c-2.2-1-5.3-1.5-9.4-1.5h-11.4V886.3z"></path> <path class="st1" d="M3902.3,907.6c0-4.8,1.3-9.1,3.9-13.1c2.6-4,6.2-6.8,10.6-8.3v-0.2c-3.3-1.5-5.9-4-7.9-7.3 c-2-3.3-3-7.1-3-11.5c0-7.3,2.6-12.8,7.7-16.8c5.1-3.9,11.6-5.9,19.5-5.9c3.2,0,7,0.5,11.3,1.5l-3.8,12.3c-1.7-0.5-3.6-0.7-5.7-0.7 c-3.9,0-7,1-9.5,3c-2.5,2-3.7,4.8-3.7,8.5c0,3,1,5.6,3,7.9c2,2.3,5.3,3.4,9.9,3.4h13.8v-11.1h15.4v11.1h11.1V894h-11.1v10.2 c0,8.9-2.7,16-8.2,21.2c-5.5,5.3-13.1,7.9-22.7,7.9c-9.1,0-16.5-2.4-22.1-7.3C3905.1,921.2,3902.3,915,3902.3,907.6z M3918.3,906.6 c0,3.6,1.3,6.5,4.1,8.9c2.7,2.4,6.2,3.6,10.6,3.6c5,0,8.9-1.3,11.6-4c2.7-2.7,4.1-6.6,4.1-11.7V894H3934c-4.9,0-8.8,1.1-11.6,3.2 C3919.7,899.4,3918.3,902.5,3918.3,906.6z"></path> <path class="st1" d="M3989.3,931.9V846h29.3c13.4,0,24,3.8,31.9,11.4c7.9,7.6,11.9,18.1,11.9,31.5c0,13.4-4,23.9-11.9,31.6 c-7.9,7.7-18.6,11.5-31.9,11.5H3989.3z M4004.9,918.5h12.8c8.9,0,15.9-2.6,20.9-7.7c5.1-5.1,7.6-12.4,7.6-22 c0-9.4-2.6-16.6-7.7-21.7c-5.1-5.1-12.1-7.7-20.9-7.7h-12.8V918.5z"></path> <path class="st1" d="M4108.7,931.9V846h15.6v72.5h37.1V846h15.6v72.5h10.2v30.4h-13.9v-16.9H4108.7z"></path> <path class="st1" d="M4202,931.9V846h51.4v13.4h-35.8v22.5h28.9v13.4h-28.9v23.1h37.8v13.4H4202z"></path> <path class="st1" d="M4270.8,931.9V846h15.6v36.4h39.3V846h15.5v85.9h-15.5v-36.1h-39.3v36.1H4270.8z"></path> <path class="st1" d="M4381.6,931.9v-72.5h-28.2V846h71.9v13.4h-28.2v72.5H4381.6z"></path> <path class="st1" d="M4437.5,931.9V846h33.2c8.1,0,14.6,2.6,19.7,7.7c5.1,5.2,7.6,11.9,7.6,20.2c0,8.3-2.5,15.1-7.6,20.4 c-5.1,5.3-11.7,7.9-19.7,7.9h-17.5v29.6H4437.5z M4453.1,888.7h14.6c4.5,0,8-1.3,10.6-4s3.8-6.2,3.8-10.8c0-4.4-1.3-8-3.8-10.6 c-2.5-2.6-6-3.9-10.3-3.9h-14.9V888.7z"></path> <path class="st1" d="M4541.8,931.9V846h30.6c8,0,14.4,2,19.3,5.9c4.9,3.9,7.3,9.3,7.3,16.3c0,4-0.9,7.7-2.8,10.9 c-1.9,3.2-4.4,5.7-7.6,7.5v0.2c4.5,1.3,8,3.8,10.3,7.6c2.4,3.8,3.6,8,3.6,12.6c0,8.1-2.8,14.3-8.5,18.6c-5.6,4.2-12.7,6.4-21.2,6.4 H4541.8z M4557.4,881.1h15.1c3.3,0,5.9-1,7.8-3.1c1.9-2.1,2.8-4.7,2.8-7.9c0-3.1-0.9-5.7-2.8-7.7c-1.9-2-4.6-3-8-3h-14.9V881.1z M4557.4,918.5h16.7c3.9,0,6.9-1.1,9.1-3.4c2.2-2.3,3.3-5.3,3.3-9c0-3.6-1.1-6.6-3.3-8.9c-2.2-2.3-5.3-3.4-9.1-3.4h-16.7V918.5z"></path> <path class="st1" d="M4618.4,931.9V846h15.6v36.4h39.3V846h15.5v85.9h-15.5v-36.1H4634v36.1H4618.4z"></path> <path class="st1" d="M4709.6,931.9V846h51.4v13.4h-35.8v22.5h28.9v13.4h-28.9v23.1h37.8v13.4H4709.6z"></path> <path class="st1" d="M4768.9,918.5h8.7c8.3-12.6,12.5-30.5,12.5-53.7V846h53.4v72.5h9.6v30.4h-13.9v-16.9h-55.8v16.9h-14.4V918.5z M4793.7,918.5h34.1v-59h-23v6.4C4804.8,888.9,4801.1,906.5,4793.7,918.5z"></path> <path class="st1" d="M4868,931.9V846h33.2c8.1,0,14.6,2.6,19.7,7.7c5.1,5.2,7.6,11.9,7.6,20.2c0,8.3-2.5,15.1-7.6,20.4 c-5.1,5.3-11.7,7.9-19.7,7.9h-17.5v29.6H4868z M4883.6,888.7h14.6c4.5,0,8-1.3,10.6-4s3.8-6.2,3.8-10.8c0-4.4-1.3-8-3.8-10.6 c-2.5-2.6-6-3.9-10.3-3.9h-14.9V888.7z"></path> <path class="st1" d="M4942,931.9V846h51.4v13.4h-35.8v22.5h28.9v13.4h-28.9v23.1h37.8v13.4H4942z"></path> <path class="st1" d="M5010.9,931.9V846h15.6v36.4h39.3V846h15.5v85.9h-15.5v-36.1h-39.3v36.1H5010.9z"></path> <path class="st1" d="M5102.1,931.9V846h15.6v49.6l-0.8,13.3h0.2c2.7-5.6,5.2-10,7.3-13.4l32.4-49.5h15.5v85.9h-15.5v-49.5l0.8-13.3 h-0.2c-2.7,5.5-5,9.9-7.1,13.3l-32.7,49.5H5102.1z"></path> <path class="st1" d="M5184.9,931.9l18.2-30.2l2.8-4.5v-0.2c-5.1-2.3-8.9-5.6-11.4-9.9c-2.5-4.4-3.8-9.4-3.8-15 c0-5.8,1.3-10.7,3.9-14.8c2.6-4.1,6.1-7,10.5-8.9c3.5-1.5,9-2.3,16.3-2.3h27.8v85.9h-15.6v-32.1h-12.6l-18.6,32.1H5184.9z M5220,886.8h13.6v-27.3h-11c-4.8,0-8.4,0.7-10.8,2.2c-3.6,2.2-5.3,5.8-5.3,11c0,4.5,1.2,8,3.6,10.5 C5212.5,885.5,5215.8,886.8,5220,886.8z"></path> <path class="st1" d="M5300.2,931.9V846h33.2c8.1,0,14.6,2.6,19.7,7.7c5.1,5.2,7.6,11.9,7.6,20.2c0,8.3-2.5,15.1-7.6,20.4 c-5.1,5.3-11.7,7.9-19.7,7.9h-17.5v29.6H5300.2z M5315.8,888.7h14.6c4.5,0,8-1.3,10.6-4s3.8-6.2,3.8-10.8c0-4.4-1.3-8-3.8-10.6 c-2.5-2.6-6-3.9-10.3-3.9h-14.9V888.7z"></path> <path class="st1" d="M5374.2,931.9V846h51.4v13.4h-35.8v22.5h28.9v13.4h-28.9v23.1h37.8v13.4H5374.2z"></path> <path class="st1" d="M5443.1,931.9V846h15.6v72.5h27.7V846h15.6v72.5h27.7V846h15.5v85.9H5443.1z"></path> <path class="st1" d="M5566.1,931.9V846h51.4v13.4h-35.8v22.5h28.9v13.4h-28.9v23.1h37.8v13.4H5566.1z"></path> <path class="st1" d="M5635,931.9V846h15.6v36.4h39.3V846h15.5v85.9h-15.5v-36.1h-39.3v36.1H5635z"></path> <path class="st1" d="M5726.2,931.9V846h15.6v49.6l-0.8,13.3h0.2c2.7-5.6,5.2-10,7.3-13.4l32.4-49.5h15.5v85.9h-15.5v-49.5l0.8-13.3 h-0.2c-2.7,5.5-5,9.9-7.1,13.3l-32.7,49.5H5726.2z"></path> <path class="st1" d="M5817.3,931.9V846h15.6v49.6l-0.8,13.3h0.2c2.7-5.6,5.2-10,7.3-13.4L5872,846h15.5v85.9H5872v-49.5l0.8-13.3 h-0.2c-2.7,5.5-5,9.9-7.1,13.3l-32.7,49.5H5817.3z M5867.2,837.6c-3.9,3-8.6,4.5-14,4.5c-5.5,0-10.2-1.5-14-4.5 c-3.9-3-5.8-7.1-5.8-12.2v-1.6h11.7v1.6c0,2.4,0.8,4.3,2.4,5.6c1.6,1.3,3.5,2,5.7,2c2.2,0,4.1-0.7,5.7-2c1.7-1.3,2.5-3.2,2.5-5.7 v-1.5h11.6v1.6C5873,830.5,5871.1,834.6,5867.2,837.6z"></path> <path class="st1" d="M5938.7,931.9V846h15.6v36.4h39.3V846h15.5v85.9h-15.5v-36.1h-39.3v36.1H5938.7z"></path> <path class="st1" d="M6020.5,931.9l30.1-85.9h16.5l30.1,85.9h-16l-7.4-22h-30.1l-7.3,22H6020.5z M6047.6,897.2h22.4l-7.6-23 l-3.4-13.3h-0.2c-1.3,5.6-2.4,10.1-3.4,13.3L6047.6,897.2z"></path> <path class="st1" d="M6133.7,888.3c0-12.3,4.3-22.7,12.8-31.2c8.5-8.4,19.1-12.6,31.6-12.6s23.1,4.2,31.6,12.6 c8.5,8.4,12.8,18.8,12.8,31.2c0,12.7-4.3,23.3-12.8,32c-8.5,8.7-19.1,13-31.6,13s-23.1-4.3-31.6-13 C6138,911.7,6133.7,901,6133.7,888.3z M6149.8,888.3c0,8.7,2.7,16,8.2,21.9c5.5,5.9,12.2,8.8,20.1,8.8c7.9,0,14.6-2.9,20.1-8.8 c5.5-5.9,8.2-13.2,8.2-21.9c0-8.3-2.7-15.3-8.2-21c-5.5-5.7-12.2-8.5-20.1-8.5c-7.9,0-14.6,2.8-20.1,8.5 C6152.6,873,6149.8,880,6149.8,888.3z"></path> <path class="st1" d="M6233.3,888.6c0-12.6,4.2-23.1,12.5-31.5c8.3-8.4,18.9-12.6,31.7-12.6c13.1,0,23.6,3.9,31.7,11.7l-7.5,11.6 c-3.1-2.7-6.8-4.8-11.1-6.5c-4.2-1.7-8.4-2.5-12.4-2.5c-9,0-16.1,2.8-21.2,8.5c-5.1,5.6-7.6,12.7-7.6,21.1c0,8.5,2.6,15.7,7.7,21.7 c5.2,6,12.2,9,21.2,9c9.2,0,17.5-3.6,24.9-10.9l8.2,11.3c-9.1,9.3-20.4,13.9-33.8,13.9c-13.3,0-24-4.2-32.2-12.7 C6237.4,912.2,6233.3,901.5,6233.3,888.6z"></path> <path class="st1" d="M6324.9,931.9V846h15.6v36.4h39.3V846h15.5v85.9h-15.5v-36.1h-39.3v36.1H6324.9z"></path> <path class="st1" d="M6411.1,888.3c0-12.3,4.3-22.7,12.8-31.2c8.5-8.4,19.1-12.6,31.6-12.6s23.1,4.2,31.6,12.6 c8.5,8.4,12.8,18.8,12.8,31.2c0,12.7-4.3,23.3-12.8,32c-8.5,8.7-19.1,13-31.6,13s-23.1-4.3-31.6-13 C6415.3,911.7,6411.1,901,6411.1,888.3z M6427.2,888.3c0,8.7,2.7,16,8.2,21.9c5.5,5.9,12.2,8.8,20.1,8.8c7.9,0,14.6-2.9,20.1-8.8 c5.5-5.9,8.2-13.2,8.2-21.9c0-8.3-2.7-15.3-8.2-21c-5.5-5.7-12.2-8.5-20.1-8.5c-7.9,0-14.6,2.8-20.1,8.5 C6429.9,873,6427.2,880,6427.2,888.3z"></path> <path class="st1" d="M6515.6,931.9V846h30.6c8,0,14.4,2,19.3,5.9c4.9,3.9,7.3,9.3,7.3,16.3c0,4-0.9,7.7-2.8,10.9 c-1.9,3.2-4.4,5.7-7.6,7.5v0.2c4.5,1.3,8,3.8,10.3,7.6c2.4,3.8,3.6,8,3.6,12.6c0,8.1-2.8,14.3-8.5,18.6c-5.6,4.2-12.7,6.4-21.2,6.4 H6515.6z M6531.2,881.1h15.1c3.3,0,5.9-1,7.8-3.1c1.9-2.1,2.8-4.7,2.8-7.9c0-3.1-0.9-5.7-2.8-7.7c-1.9-2-4.6-3-8-3h-14.9V881.1z M6531.2,918.5h16.7c3.9,0,6.9-1.1,9.1-3.4c2.2-2.3,3.3-5.3,3.3-9c0-3.6-1.1-6.6-3.3-8.9c-2.2-2.3-5.3-3.4-9.1-3.4h-16.7V918.5z"></path> <path class="st1" d="M6592.2,931.9V846h51.4v13.4h-35.8v22.5h28.9v13.4h-28.9v23.1h37.8v13.4H6592.2z"></path> <path class="st1" d="M1562.3,1077.1v-85.9h30.6c8,0,14.4,2,19.3,5.9c4.9,3.9,7.3,9.3,7.3,16.3c0,4-0.9,7.7-2.8,10.9 c-1.9,3.2-4.4,5.7-7.6,7.5v0.2c4.5,1.3,8,3.8,10.3,7.6c2.4,3.8,3.6,8,3.6,12.6c0,8.1-2.8,14.3-8.5,18.6c-5.6,4.2-12.7,6.4-21.2,6.4 H1562.3z M1577.9,1026.3h15.1c3.3,0,5.9-1,7.8-3.1c1.9-2.1,2.8-4.7,2.8-7.9c0-3.1-0.9-5.7-2.8-7.7c-1.9-2-4.6-3-8-3h-14.9V1026.3z M1577.9,1063.7h16.7c3.9,0,6.9-1.1,9.1-3.4c2.2-2.3,3.3-5.3,3.3-9c0-3.6-1.1-6.6-3.3-8.9c-2.2-2.3-5.3-3.4-9.1-3.4h-16.7V1063.7z"></path> <path class="st1" d="M1633.8,1033.5c0-12.3,4.3-22.7,12.8-31.2c8.5-8.4,19.1-12.6,31.6-12.6s23.1,4.2,31.6,12.6 c8.5,8.4,12.8,18.8,12.8,31.2c0,12.7-4.3,23.3-12.8,32c-8.5,8.7-19.1,13-31.6,13s-23.1-4.3-31.6-13 C1638.1,1056.9,1633.8,1046.2,1633.8,1033.5z M1649.9,1033.5c0,8.7,2.7,16,8.2,21.9c5.5,5.9,12.2,8.8,20.1,8.8 c7.9,0,14.6-2.9,20.1-8.8c5.5-5.9,8.2-13.2,8.2-21.9c0-8.3-2.7-15.3-8.2-21c-5.5-5.7-12.2-8.5-20.1-8.5c-7.9,0-14.6,2.8-20.1,8.5 C1652.6,1018.2,1649.9,1025.2,1649.9,1033.5z"></path> <path class="st1" d="M1728.5,1066.3l8.5-10.4c2.3,2.5,5.2,4.6,8.7,6.3c3.5,1.7,7,2.5,10.6,2.5c4.7,0,8.4-1.2,11.1-3.5 c2.7-2.3,4.1-5.6,4.1-9.7c0-3.7-1.2-6.6-3.7-8.8c-2.5-2.1-5.8-3.2-10-3.2h-10.5V1027h8.5c3.9,0,7.1-1.1,9.6-3.4 c2.5-2.3,3.8-5.1,3.8-8.5c0-3.5-1.1-6.3-3.4-8.5c-2.3-2.2-5.5-3.3-9.8-3.3c-6.5,0-12.7,2.4-18.6,7.3l-6.3-11.4 c7.6-6.3,16.8-9.4,27.6-9.4c7.3,0,13.6,2.1,18.7,6.3c5.1,4.2,7.7,9.9,7.7,17.2c0,8.5-4,14.8-11.9,19.1v0.2 c4.4,1.4,7.9,3.8,10.5,7.3c2.6,3.5,3.9,7.7,3.9,12.7c0,7.9-2.8,14.2-8.5,18.9s-12.8,7.1-21.2,7.1c-5.5,0-10.8-1.1-16-3.2 C1736.6,1073.2,1732.2,1070.2,1728.5,1066.3z"></path> <path class="st1" d="M1800.2,1077.1l7-85.9h16.6l16.9,42.5l4.2,12.6h0.2c1.5-5,2.9-9.2,4.2-12.6l16.9-42.5h16.6l7,85.9h-15.6 l-3.5-48c-0.2-1.7-0.2-3.6-0.2-5.9c0-2.2,0-4,0.1-5.4v-2.1h-0.2c-1.9,5.6-3.4,10-4.7,13.3l-13.9,33.3h-13.6l-13.9-33.3l-4.7-13.4 h-0.2c0.2,5.2,0.2,9.6-0.1,13.4l-3.5,48H1800.2z"></path> <path class="st1" d="M1902.4,1033.5c0-12.3,4.3-22.7,12.8-31.2c8.5-8.4,19.1-12.6,31.6-12.6s23.1,4.2,31.6,12.6 c8.5,8.4,12.8,18.8,12.8,31.2c0,12.7-4.3,23.3-12.8,32c-8.5,8.7-19.1,13-31.6,13s-23.1-4.3-31.6-13 C1906.7,1056.9,1902.4,1046.2,1902.4,1033.5z M1918.5,1033.5c0,8.7,2.7,16,8.2,21.9c5.5,5.9,12.2,8.8,20.1,8.8 c7.9,0,14.6-2.9,20.1-8.8c5.5-5.9,8.2-13.2,8.2-21.9c0-8.3-2.7-15.3-8.2-21c-5.5-5.7-12.2-8.5-20.1-8.5c-7.9,0-14.6,2.8-20.1,8.5 C1921.3,1018.2,1918.5,1025.2,1918.5,1033.5z"></path> <path class="st1" d="M1995.8,1077.1l24.2-44.8v-0.2l-22.4-40.9h16.8l18.4,35h10v-35h15.5v35h10l18.4-35h16.8l-22.5,40.9v0.2 l24.3,44.8h-17.5l-19.5-37.5h-10v37.5h-15.5v-37.5h-10l-19.5,37.5H1995.8z"></path> <path class="st1" d="M2117.4,1077.1v-85.9h15.6v36.4h39.3v-36.4h15.5v85.9h-15.5V1041H2133v36.1H2117.4z"></path> <path class="st1" d="M2203.6,1033.5c0-12.3,4.3-22.7,12.8-31.2c8.5-8.4,19.1-12.6,31.6-12.6s23.1,4.2,31.6,12.6 c8.5,8.4,12.8,18.8,12.8,31.2c0,12.7-4.3,23.3-12.8,32c-8.5,8.7-19.1,13-31.6,13s-23.1-4.3-31.6-13 C2207.8,1056.9,2203.6,1046.2,2203.6,1033.5z M2219.7,1033.5c0,8.7,2.7,16,8.2,21.9c5.5,5.9,12.2,8.8,20.1,8.8 c7.9,0,14.6-2.9,20.1-8.8c5.5-5.9,8.2-13.2,8.2-21.9c0-8.3-2.7-15.3-8.2-21c-5.5-5.7-12.2-8.5-20.1-8.5c-7.9,0-14.6,2.8-20.1,8.5 C2222.4,1018.2,2219.7,1025.2,2219.7,1033.5z"></path> <path class="st1" d="M2303.2,1033.8c0-12.6,4.2-23.1,12.5-31.5c8.3-8.4,18.9-12.6,31.7-12.6c13.1,0,23.6,3.9,31.7,11.7l-7.5,11.6 c-3.1-2.7-6.8-4.8-11.1-6.5c-4.2-1.7-8.4-2.5-12.4-2.5c-9,0-16.1,2.8-21.2,8.5c-5.1,5.6-7.6,12.7-7.6,21.1c0,8.5,2.6,15.7,7.7,21.7 c5.2,6,12.2,9,21.2,9c9.2,0,17.5-3.6,24.9-10.9l8.2,11.3c-9.1,9.3-20.4,13.9-33.8,13.9c-13.3,0-24-4.2-32.2-12.7 C2307.2,1057.4,2303.2,1046.7,2303.2,1033.8z"></path> <path class="st1" d="M2414.2,1077.1v-72.5H2386v-13.4h71.9v13.4h-28.2v72.5H2414.2z"></path> <path class="st1" d="M2470.1,1077.1v-85.9h51.4v13.4h-35.8v22.5h28.9v13.4h-28.9v23.1h37.8v13.4H2470.1z"></path> <path class="st1" d="M2539,1077.1v-85.9h15.6v49.6l-0.8,13.3h0.2c2.7-5.6,5.2-10,7.3-13.4l32.4-49.5h15.5v85.9h-15.5v-49.5 l0.8-13.3h-0.2c-2.7,5.5-5,9.9-7.1,13.3l-32.7,49.5H2539z M2588.8,982.8c-3.9,3-8.6,4.5-14,4.5c-5.5,0-10.2-1.5-14-4.5 c-3.9-3-5.8-7.1-5.8-12.2V969h11.7v1.6c0,2.4,0.8,4.3,2.4,5.6c1.6,1.3,3.5,2,5.7,2c2.2,0,4.1-0.7,5.7-2c1.7-1.3,2.5-3.2,2.5-5.7 V969h11.6v1.6C2594.7,975.7,2592.7,979.8,2588.8,982.8z"></path> <path class="st1" d="M2681.8,1045.2c-8.8,0-15.4-2.2-19.7-6.7c-4.4-4.5-6.5-10.8-6.5-19.1v-28.2h15.9v24.7 c0,10.1,4.8,15.1,14.4,15.1c6.5,0,12.4-1.7,17.7-5.1v-34.7h15.9v85.9h-15.9v-33.3l0.2-4h-0.2 C2696.5,1043.4,2689.3,1045.2,2681.8,1045.2z"></path> <path class="st1" d="M2740.2,1077.1v-85.9h51.4v13.4h-35.8v22.5h28.9v13.4h-28.9v23.1h37.8v13.4H2740.2z"></path> <path class="st1" d="M2800.3,1063.8c6.5-0.9,11.2-5.2,14.1-12.9c2.9-7.7,4.4-19.8,4.4-36.2v-23.5h53.1v85.9h-15.6v-72.5h-22.6v10.3 c0,21.1-2.6,36.8-7.9,47.1c-5.2,10.3-13.8,15.6-25.5,16V1063.8z"></path> <path class="st1" d="M2887.7,1033.5c0-12.3,4.3-22.7,12.8-31.2c8.5-8.4,19.1-12.6,31.6-12.6s23.1,4.2,31.6,12.6 c8.5,8.4,12.8,18.8,12.8,31.2c0,12.7-4.3,23.3-12.8,32c-8.5,8.7-19.1,13-31.6,13s-23.1-4.3-31.6-13 C2892,1056.9,2887.7,1046.2,2887.7,1033.5z M2903.8,1033.5c0,8.7,2.7,16,8.2,21.9c5.5,5.9,12.2,8.8,20.1,8.8 c7.9,0,14.6-2.9,20.1-8.8c5.5-5.9,8.2-13.2,8.2-21.9c0-8.3-2.7-15.3-8.2-21c-5.5-5.7-12.2-8.5-20.1-8.5c-7.9,0-14.6,2.8-20.1,8.5 C2906.5,1018.2,2903.8,1025.2,2903.8,1033.5z"></path> <path class="st1" d="M2992.2,1077.1v-85.9h30.6c8,0,14.4,2,19.3,5.9c4.9,3.9,7.3,9.3,7.3,16.3c0,4-0.9,7.7-2.8,10.9 c-1.9,3.2-4.4,5.7-7.6,7.5v0.2c4.5,1.3,8,3.8,10.3,7.6c2.4,3.8,3.6,8,3.6,12.6c0,8.1-2.8,14.3-8.5,18.6c-5.6,4.2-12.7,6.4-21.2,6.4 H2992.2z M3007.9,1026.3h15.1c3.3,0,5.9-1,7.8-3.1c1.9-2.1,2.8-4.7,2.8-7.9c0-3.1-0.9-5.7-2.8-7.7c-1.9-2-4.6-3-8-3h-14.9V1026.3z M3007.9,1063.7h16.7c3.9,0,6.9-1.1,9.1-3.4c2.2-2.3,3.3-5.3,3.3-9c0-3.6-1.1-6.6-3.3-8.9c-2.2-2.3-5.3-3.4-9.1-3.4h-16.7V1063.7z"></path> <path class="st1" d="M3068.8,1077.1v-85.9h51.4v13.4h-35.8v22.5h28.9v13.4h-28.9v23.1h37.8v13.4H3068.8z"></path> <path class="st1" d="M3159.1,1045.2c-8.8,0-15.4-2.2-19.7-6.7c-4.4-4.5-6.5-10.8-6.5-19.1v-28.2h15.9v24.7 c0,10.1,4.8,15.1,14.4,15.1c6.5,0,12.4-1.7,17.7-5.1v-34.7h15.9v85.9h-15.9v-33.3l0.2-4h-0.2 C3173.8,1043.4,3166.6,1045.2,3159.1,1045.2z"></path> <path class="st1" d="M3217.5,1077.1v-85.9h51.4v13.4h-35.8v22.5h28.9v13.4h-28.9v23.1h37.8v13.4H3217.5z"></path> <path class="st1" d="M3279.9,1033.8c0-12.6,4.2-23.1,12.5-31.5c8.3-8.4,18.9-12.6,31.7-12.6c13.1,0,23.6,3.9,31.7,11.7l-7.5,11.6 c-3.1-2.7-6.8-4.8-11.1-6.5c-4.2-1.7-8.4-2.5-12.4-2.5c-9,0-16.1,2.8-21.2,8.5c-5.1,5.6-7.6,12.7-7.6,21.1c0,8.5,2.6,15.7,7.7,21.7 c5.2,6,12.2,9,21.2,9c9.2,0,17.5-3.6,24.9-10.9l8.2,11.3c-9.1,9.3-20.4,13.9-33.8,13.9c-13.3,0-24-4.2-32.2-12.7 C3283.9,1057.4,3279.9,1046.7,3279.9,1033.8z"></path> <path class="st1" d="M3371.5,1077.1v-85.9h15.6v35h11.1l20.2-35h16.9l-24.3,40.9v0.2l25.8,44.8h-17.7l-20.9-37.5h-11.1v37.5H3371.5 z"></path> <path class="st1" d="M3441.3,1033.5c0-12.3,4.3-22.7,12.8-31.2c8.5-8.4,19.1-12.6,31.6-12.6s23.1,4.2,31.6,12.6 c8.5,8.4,12.8,18.8,12.8,31.2c0,12.7-4.3,23.3-12.8,32c-8.5,8.7-19.1,13-31.6,13s-23.1-4.3-31.6-13 C3445.5,1056.9,3441.3,1046.2,3441.3,1033.5z M3457.4,1033.5c0,8.7,2.7,16,8.2,21.9c5.5,5.9,12.2,8.8,20.1,8.8 c7.9,0,14.6-2.9,20.1-8.8c5.5-5.9,8.2-13.2,8.2-21.9c0-8.3-2.7-15.3-8.2-21c-5.5-5.7-12.2-8.5-20.1-8.5c-7.9,0-14.6,2.8-20.1,8.5 C3460.1,1018.2,3457.4,1025.2,3457.4,1033.5z"></path> <path class="st1" d="M3545.8,1077.1v-85.9h49.4v13.4h-33.8v72.5H3545.8z"></path> <path class="st1" d="M3598.9,1033.5c0-12.3,4.3-22.7,12.8-31.2c8.5-8.4,19.1-12.6,31.6-12.6s23.1,4.2,31.6,12.6 c8.5,8.4,12.8,18.8,12.8,31.2c0,12.7-4.3,23.3-12.8,32c-8.5,8.7-19.1,13-31.6,13s-23.1-4.3-31.6-13 C3603.2,1056.9,3598.9,1046.2,3598.9,1033.5z M3615,1033.5c0,8.7,2.7,16,8.2,21.9c5.5,5.9,12.2,8.8,20.1,8.8 c7.9,0,14.6-2.9,20.1-8.8c5.5-5.9,8.2-13.2,8.2-21.9c0-8.3-2.7-15.3-8.2-21c-5.5-5.7-12.2-8.5-20.1-8.5c-7.9,0-14.6,2.8-20.1,8.5 C3617.8,1018.2,3615,1025.2,3615,1033.5z"></path> <path class="st1" d="M3730.5,1077.1l7-85.9h16.6l16.9,42.5l4.2,12.6h0.2c1.5-5,2.9-9.2,4.2-12.6l16.9-42.5h16.6l7,85.9h-15.6 l-3.5-48c-0.2-1.7-0.2-3.6-0.2-5.9c0-2.2,0-4,0.1-5.4v-2.1h-0.2c-1.9,5.6-3.4,10-4.7,13.3l-13.9,33.3h-13.6l-13.9-33.3l-4.7-13.4 h-0.2c0.2,5.2,0.2,9.6-0.1,13.4l-3.5,48H3730.5z"></path> <path class="st1" d="M3832.7,1033.5c0-12.3,4.3-22.7,12.8-31.2c8.5-8.4,19.1-12.6,31.6-12.6s23.1,4.2,31.6,12.6 c8.5,8.4,12.8,18.8,12.8,31.2c0,12.7-4.3,23.3-12.8,32c-8.5,8.7-19.1,13-31.6,13s-23.1-4.3-31.6-13 C3837,1056.9,3832.7,1046.2,3832.7,1033.5z M3848.8,1033.5c0,8.7,2.7,16,8.2,21.9c5.5,5.9,12.2,8.8,20.1,8.8 c7.9,0,14.6-2.9,20.1-8.8c5.5-5.9,8.2-13.2,8.2-21.9c0-8.3-2.7-15.3-8.2-21c-5.5-5.7-12.2-8.5-20.1-8.5c-7.9,0-14.6,2.8-20.1,8.5 C3851.5,1018.2,3848.8,1025.2,3848.8,1033.5z"></path> <path class="st1" d="M3927.4,1066.3l8.5-10.4c2.3,2.5,5.2,4.6,8.7,6.3c3.5,1.7,7,2.5,10.6,2.5c4.7,0,8.4-1.2,11.1-3.5 c2.7-2.3,4.1-5.6,4.1-9.7c0-3.7-1.2-6.6-3.7-8.8c-2.5-2.1-5.8-3.2-10-3.2h-10.5V1027h8.5c3.9,0,7.1-1.1,9.6-3.4 c2.5-2.3,3.8-5.1,3.8-8.5c0-3.5-1.1-6.3-3.4-8.5c-2.3-2.2-5.5-3.3-9.8-3.3c-6.5,0-12.7,2.4-18.6,7.3l-6.3-11.4 c7.6-6.3,16.8-9.4,27.6-9.4c7.3,0,13.6,2.1,18.7,6.3c5.1,4.2,7.7,9.9,7.7,17.2c0,8.5-4,14.8-11.9,19.1v0.2 c4.4,1.4,7.9,3.8,10.5,7.3c2.6,3.5,3.9,7.7,3.9,12.7c0,7.9-2.8,14.2-8.5,18.9s-12.8,7.1-21.2,7.1c-5.5,0-10.8-1.1-16-3.2 C3935.5,1073.2,3931.1,1070.2,3927.4,1066.3z"></path> <path class="st1" d="M4002.3,1077.1v-85.9h49.4v13.4H4018v72.5H4002.3z"></path> <path class="st1" d="M4046.8,1077.1l30.1-85.9h16.5l30.1,85.9h-16l-7.4-22H4070l-7.3,22H4046.8z M4073.9,1042.4h22.4l-7.6-23 l-3.4-13.3h-0.2c-1.3,5.6-2.4,10.1-3.4,13.3L4073.9,1042.4z"></path> <path class="st1" d="M4165.1,1077.1v-85.9h15.6v49.6l-0.8,13.3h0.2c2.7-5.6,5.2-10,7.3-13.4l32.4-49.5h15.5v85.9h-15.5v-49.5 l0.8-13.3h-0.2c-2.7,5.5-5,9.9-7.1,13.3l-32.7,49.5H4165.1z"></path> <path class="st1" d="M4286.5,1077.1v-85.9h15.6v49.6l-0.8,13.3h0.2c2.7-5.6,5.2-10,7.3-13.4l32.4-49.5h15.5v85.9h-15.5v-49.5 l0.8-13.3h-0.2c-2.7,5.5-5,9.9-7.1,13.3l-32.7,49.5H4286.5z"></path> <path class="st1" d="M4372.6,1033.8c0-12.6,4.2-23.1,12.5-31.5c8.3-8.4,18.9-12.6,31.7-12.6c13.1,0,23.6,3.9,31.7,11.7l-7.5,11.6 c-3.1-2.7-6.8-4.8-11.1-6.5c-4.2-1.7-8.4-2.5-12.4-2.5c-9,0-16.1,2.8-21.2,8.5c-5.1,5.6-7.6,12.7-7.6,21.1c0,8.5,2.6,15.7,7.7,21.7 c5.2,6,12.2,9,21.2,9c9.2,0,17.5-3.6,24.9-10.9l8.2,11.3c-9.1,9.3-20.4,13.9-33.8,13.9c-13.3,0-24-4.2-32.2-12.7 C4376.7,1057.4,4372.6,1046.7,4372.6,1033.8z"></path> <path class="st1" d="M4464.2,1077.1v-85.9h15.6v35h11.1l20.2-35h16.9l-24.3,40.9v0.2l25.8,44.8h-17.7l-20.9-37.5h-11.1v37.5H4464.2 z"></path> <path class="st1" d="M4539.1,1072.6l6.9-11.7c3.6,2.8,6.9,4.2,9.7,4.2c3.8,0,6.7-2.5,8.6-7.5l-33.6-66.4h17.2l18.3,38.4l4.8,11.4 h0.2c1-3.8,2.2-7.5,3.5-11.3l13.8-38.5h16.3l-26.5,67.9c-1,2.7-2.1,5-3.3,7c-1.1,2-2.6,4-4.4,6.1c-1.8,2-3.9,3.6-6.3,4.7 s-5.1,1.7-8.1,1.7C4550.5,1078.6,4544.7,1076.6,4539.1,1072.6z"></path> <path class="st1" d="M4608.3,1033.8c0-12.6,4.2-23.1,12.5-31.5c8.3-8.4,18.9-12.6,31.7-12.6c13.1,0,23.6,3.9,31.7,11.7l-7.5,11.6 c-3.1-2.7-6.8-4.8-11.1-6.5c-4.2-1.7-8.4-2.5-12.4-2.5c-9,0-16.1,2.8-21.2,8.5c-5.1,5.6-7.6,12.7-7.6,21.1c0,8.5,2.6,15.7,7.7,21.7 c5.2,6,12.2,9,21.2,9c9.2,0,17.5-3.6,24.9-10.9l8.2,11.3c-9.1,9.3-20.4,13.9-33.8,13.9c-13.3,0-24-4.2-32.2-12.7 C4612.4,1057.4,4608.3,1046.7,4608.3,1033.8z"></path> <path class="st1" d="M4692.8,1033.8c0-12.6,4.2-23.1,12.5-31.5c8.3-8.4,18.9-12.6,31.7-12.6c13.1,0,23.6,3.9,31.7,11.7l-7.5,11.6 c-3.1-2.7-6.8-4.8-11.1-6.5c-4.2-1.7-8.4-2.5-12.4-2.5c-9,0-16.1,2.8-21.2,8.5c-5.1,5.6-7.6,12.7-7.6,21.1c0,8.5,2.6,15.7,7.7,21.7 c5.2,6,12.2,9,21.2,9c9.2,0,17.5-3.6,24.9-10.9l8.2,11.3c-9.1,9.3-20.4,13.9-33.8,13.9c-13.3,0-24-4.2-32.2-12.7 C4696.8,1057.4,4692.8,1046.7,4692.8,1033.8z"></path> <path class="st1" d="M4803.8,1077.1v-72.5h-28.2v-13.4h71.9v13.4h-28.2v72.5H4803.8z"></path> <path class="st1" d="M4859.7,1077.1v-85.9h30.6c8,0,14.4,2,19.3,5.9c4.9,3.9,7.3,9.3,7.3,16.3c0,4-0.9,7.7-2.8,10.9 c-1.9,3.2-4.4,5.7-7.6,7.5v0.2c4.5,1.3,8,3.8,10.3,7.6c2.4,3.8,3.6,8,3.6,12.6c0,8.1-2.8,14.3-8.5,18.6c-5.6,4.2-12.7,6.4-21.2,6.4 H4859.7z M4875.4,1026.3h15.1c3.3,0,5.9-1,7.8-3.1c1.9-2.1,2.8-4.7,2.8-7.9c0-3.1-0.9-5.7-2.8-7.7c-1.9-2-4.6-3-8-3h-14.9V1026.3z M4875.4,1063.7h16.7c3.9,0,6.9-1.1,9.1-3.4c2.2-2.3,3.3-5.3,3.3-9c0-3.6-1.1-6.6-3.3-8.9c-2.2-2.3-5.3-3.4-9.1-3.4h-16.7V1063.7z"></path> <path class="st1" d="M4936.3,1077.1v-85.9h51.4v13.4h-35.8v22.5h28.9v13.4h-28.9v23.1h37.8v13.4H4936.3z"></path> <path class="st1" d="M5005.2,1077.1v-85.9h15.6v36.4h39.3v-36.4h15.5v85.9h-15.5V1041h-39.3v36.1H5005.2z"></path> <path class="st1" d="M5096.4,1077.1v-85.9h15.6v36.4h39.3v-36.4h15.5v85.9h-15.5V1041H5112v36.1H5096.4z"></path> <path class="st1" d="M5182.6,1033.5c0-12.3,4.3-22.7,12.8-31.2c8.5-8.4,19.1-12.6,31.6-12.6s23.1,4.2,31.6,12.6 c8.5,8.4,12.8,18.8,12.8,31.2c0,12.7-4.3,23.3-12.8,32c-8.5,8.7-19.1,13-31.6,13s-23.1-4.3-31.6-13 C5186.8,1056.9,5182.6,1046.2,5182.6,1033.5z M5198.7,1033.5c0,8.7,2.7,16,8.2,21.9c5.5,5.9,12.2,8.8,20.1,8.8 c7.9,0,14.6-2.9,20.1-8.8c5.5-5.9,8.2-13.2,8.2-21.9c0-8.3-2.7-15.3-8.2-21c-5.5-5.7-12.2-8.5-20.1-8.5c-7.9,0-14.6,2.8-20.1,8.5 C5201.4,1018.2,5198.7,1025.2,5198.7,1033.5z"></path> <path class="st1" d="M5287.1,1077.1v-85.9h49.4v13.4h-33.8v72.5H5287.1z"></path> <path class="st1" d="M5340.2,1033.5c0-12.3,4.3-22.7,12.8-31.2c8.5-8.4,19.1-12.6,31.6-12.6s23.1,4.2,31.6,12.6 c8.5,8.4,12.8,18.8,12.8,31.2c0,12.7-4.3,23.3-12.8,32c-8.5,8.7-19.1,13-31.6,13s-23.1-4.3-31.6-13 C5344.5,1056.9,5340.2,1046.2,5340.2,1033.5z M5356.3,1033.5c0,8.7,2.7,16,8.2,21.9c5.5,5.9,12.2,8.8,20.1,8.8 c7.9,0,14.6-2.9,20.1-8.8c5.5-5.9,8.2-13.2,8.2-21.9c0-8.3-2.7-15.3-8.2-21c-5.5-5.7-12.2-8.5-20.1-8.5c-7.9,0-14.6,2.8-20.1,8.5 C5359.1,1018.2,5356.3,1025.2,5356.3,1033.5z"></path> <path class="st1" d="M5475,1077.1v-85.9h15.6v49.6l-0.8,13.3h0.2c2.7-5.6,5.2-10,7.3-13.4l32.4-49.5h15.5v85.9h-15.5v-49.5 l0.8-13.3h-0.2c-2.7,5.5-5,9.9-7.1,13.3l-32.7,49.5H5475z"></path> <path class="st1" d="M5566.1,1077.1v-85.9h15.6v36.4h39.3v-36.4h15.5v85.9h-15.5V1041h-39.3v36.1H5566.1z"></path> <path class="st1" d="M5676.9,1077.1v-72.5h-28.2v-13.4h71.9v13.4h-28.2v72.5H5676.9z"></path> <path class="st1" d="M5732.8,1077.1v-85.9h51.4v13.4h-35.8v22.5h28.9v13.4h-28.9v23.1h37.8v13.4H5732.8z"></path> <path class="st1" d="M5792.9,1063.8c6.5-0.9,11.2-5.2,14.1-12.9c2.9-7.7,4.4-19.8,4.4-36.2v-23.5h53.1v85.9h-15.6v-72.5h-22.6v10.3 c0,21.1-2.6,36.8-7.9,47.1c-5.2,10.3-13.8,15.6-25.5,16V1063.8z"></path> <path class="st1" d="M5876.6,1063.8c6.5-0.9,11.2-5.2,14.1-12.9c2.9-7.7,4.4-19.8,4.4-36.2v-23.5h53.1v85.9h-15.6v-72.5H5910v10.3 c0,21.1-2.6,36.8-7.9,47.1c-5.2,10.3-13.8,15.6-25.5,16V1063.8z"></path> <path class="st1" d="M5969.1,1077.1v-85.9h51.4v13.4h-35.8v22.5h28.9v13.4h-28.9v23.1h37.8v13.4H5969.1z"></path> <path class="st1" d="M6037.9,1077.1v-85.9h15.6v35h11.1l20.2-35h16.9l-24.3,40.9v0.2l25.8,44.8h-17.7l-20.9-37.5h-11.1v37.5H6037.9 z"></path> <path class="st1" d="M6134.6,1077.1v-72.5h-28.2v-13.4h71.9v13.4h-28.2v72.5H6134.6z"></path> <path class="st1" d="M6173.9,1077.1l30.1-85.9h16.5l30.1,85.9h-16l-7.4-22h-30.1l-7.3,22H6173.9z M6201,1042.4h22.4l-7.6-23 l-3.4-13.3h-0.2c-1.3,5.6-2.4,10.1-3.4,13.3L6201,1042.4z"></path> </g> <g> <g> <path class="st0" d="M913.5,693.9c-62.2-9.8-128.6-15.3-196.6-16.1c-4.3,0-7.9,3.5-7.9,7.8v216.9c0,4.7,4.1,8.2,8.7,7.7 c91.6-9.2,168.9-92,202.1-206.5C921.1,699.3,918.1,694.7,913.5,693.9"></path> <path class="st0" d="M914,149.2c29.5,7.5,51.4,33.8,52.4,65.3c0,0.7-0.1,1.5-0.1,2.2v59.1c-4.2-1.2-8.4-2.3-12.6-3.4v-26 c0-0.1,0-0.1,0-0.1v-27.1C953.7,189.4,937.7,163.5,914,149.2 M896.8,135.3h-53.6V87.9h253.9v47.4h-49.5c-34.1,0-63.4,21.1-75.4,51 C960.2,156.4,930.9,135.3,896.8,135.3 M987.9,219.1v27.1c0,0.3,0.1,0.6,0.1,0.8v35c-3.2-1-6.4-2-9.7-2.9v-69.7 c2.8-27.2,21.5-49.8,46.5-58.5C1002.7,165.5,987.9,190.6,987.9,219.1 M801.5,258.3c64.2,38.4,114.8,112.4,138.4,203.8 c0.8,3.2,4,5.3,7.3,4.7c92.4-17.2,174.2-44,236.8-78.6c4-2.2,4.4-7.8,0.7-10.6c-18.6-14-39.2-27.3-61.9-39.8 c-32.4-17.8-67.8-33.3-105.6-46.3v-50c0-0.3-0.1-0.6-0.1-0.8v-21.5c0-28.9,23.5-52.4,52.4-52.4h41c0.2,0,0.4-0.1,0.6-0.1 c0.2,0,0.4,0.1,0.6,0.1c8.1,0,14.6-6.5,14.6-14.6V73.3c0-8.1-6.5-14.6-14.6-14.6H828.7c-8.1,0-14.6,6.5-14.6,14.6v78.8 c0,8.1,6.5,14.6,14.6,14.6c0.4,0,0.8-0.1,1.2-0.1c0.4,0,0.8,0.1,1.2,0.1h41c28.9,0,52.4,23.5,52.4,52.4v22.3c0,0,0,0.1,0,0.1v23.9 c-38.3-8.5-78.1-14.9-119.1-18.9C798.6,245.9,795.7,254.8,801.5,258.3"></path> <path class="st0" d="M714.6,488.7c72.8-0.7,143.6-6.9,209.6-17.8C893.1,344.1,808.8,251.9,709,247v236.1 C709,486.2,711.5,488.7,714.6,488.7"></path> <path class="st0" d="M1212.1,400.2c-3.5-3.2-8.6-3.6-12.7-1.3c-63.8,36.6-148.1,65.1-243.7,83.4c-5.9,1.1-9.8,6.8-8.7,12.7 c4.8,26.9,7.5,55,7.5,83.9c0,31.8-3.1,62.7-8.9,92c-1.2,6,2.7,11.8,8.7,12.9c93.3,17.7,176,45.2,239.3,80.4c4,2.2,9,1.8,12.4-1.2 c62.7-54.1,96.3-117.5,96.3-184.2C1302.3,514.5,1270.9,453.1,1212.1,400.2"></path> <path class="st0" d="M716.7,660.9c70,0.8,138.2,6.5,202.3,16.8c4.1,0.7,8-2,8.8-6c6.1-29.4,9.4-60.5,9.4-92.7 c0-29.1-2.7-57.3-7.8-84.3c-0.8-4.1-4.7-6.8-8.9-6.2c-64.5,10.4-133.3,16.2-203.8,17c-4.3,0-7.7,3.5-7.7,7.7v139.9 C709,657.5,712.4,660.9,716.7,660.9"></path> <path class="st0" d="M708.8,1049.5h-8c-170.7,0-309.6-138.9-309.6-309.6V246.5c0-0.1,0-0.2,0-0.3v-27.1 c0-31.2-17.7-58.4-43.5-72.1h31.9c50.5,0,91.7,40.6,92.8,90.8c0,0.7-0.1,1.4-0.1,2.1v41.3c0,0.4,0.1,0.7,0.2,1.1v503.4 c0,137.6,111.9,249.5,249.5,249.5h4.9c100.3,0,189.4-58.8,229-150.3c2.9-0.7,5.7-1.5,8.5-2.3C920.3,983.3,820,1049.5,708.8,1049.5 M282.9,135.3V87.9h393.3v47.4H577c-45.6,0-84.4,29.4-98.7,70.2c-14.3-40.8-53.1-70.2-98.7-70.2H282.9z M567.3,219.1V240 c0,0,0,0.1,0,0.1v567.2c0,103.8,84.5,188.3,188.3,188.3h9.9c71.3,0,135.7-39.5,168-103.2c0.4-0.7,0.6-1.4,0.8-2.1 c2.4-0.6,4.7-1.2,7.1-1.7c-39.4,82.5-121.9,135-214.5,135h-4.9c-131.1,0-237.8-106.7-237.8-237.8V281.2v-40.9v-0.4 c0-0.7-0.1-1.4-0.1-2.1c1.2-50.3,42.3-90.8,92.9-90.8h33.8C585,160.7,567.3,187.8,567.3,219.1 M1179.3,775.7 c-62.8-33.7-144-59.9-235.6-76.7c-2.5-0.5-4.9,1.1-5.5,3.5c-25.1,91-76.9,163.8-142.3,200.4c-4.6,2.6-2.5,9.6,2.8,9.1 c33.3-3,65.8-7.6,97.4-13.6c-29.5,42.4-77.7,68-130.5,68h-9.9c-56.8,0-106.8-30-134.9-74.9c19.9,10.1,41,16.6,63,18.8 c4.5,0.4,8.4-3.2,8.4-7.7V685.7c0-4.3-3.6-7.9-7.9-7.8c-29.6,0.3-58.9,1.6-87.7,3.8v-17c28.9-2.1,58.3-3.4,87.9-3.7 c4.2,0,7.7-3.5,7.7-7.7V513.3c0-4.3-3.4-7.7-7.7-7.7c-29.7-0.3-59-1.6-87.9-3.7v-17c29.3,2.1,59.1,3.4,89.2,3.8 c3.5,0,6.4-2.8,6.4-6.3V247c-34.2,1.7-66.6,13.8-95.6,33.9l0-61.9c0-28.9,23.5-52.4,52.4-52.4h41c0.2,0,0.3,0,0.4,0 c0.2,0,0.3,0,0.4,0c8.1,0,14.6-6.5,14.6-14.6V73.3c0-8.1-6.5-14.6-14.6-14.6H268.3c-8.1,0-14.6,6.5-14.6,14.6v78.8 c0,8,6.5,14.6,14.6,14.6c0.1,0,0.1,0,0.2,0c0.1,0,0.1,0,0.2,0h41c28.9,0,52.4,23.5,52.4,52.4v20.7c0,0.1,0,0.2,0,0.3v59.4 c-29.6,11.3-57.6,24-83.6,38.3c-22,12.1-42.1,25-60.2,38.5c-4.5,3.4-3.9,10.3,1.1,13c40.4,22,88.8,40.8,142.7,56v17.5 c-64.4-17.8-121.4-40.6-167-67.8c0,0,0-0.1-0.1-0.1C132.4,449.1,98.9,512.4,98.9,579c0,67.2,34.2,131.1,97.9,185.5 c2.5,2.1,6,2.4,8.9,0.8c43.7-24.6,96.8-45.3,156.4-61.7v17.5c-50.9,14.3-96.9,31.9-135.8,52.3c-5.2,2.7-5.7,9.9-0.9,13.3 c16.3,11.7,34,22.8,53.2,33.4c31.6,17.4,66.1,32.5,102.8,45.4c1.7,0.6,3.4,0.5,5,0c50,124.8,172.1,213.3,314.6,213.3h8 c130.5,0,247.4-82.6,290.8-205.6c0.1-0.3,0.2-0.7,0.3-1c44.3-14.2,85.6-31.6,122.9-52.1c20.7-11.4,39.7-23.5,57-36.2 C1182.7,781.8,1182.4,777.4,1179.3,775.7"></path> </g> </g> </svg> 