<?xml version="1.0" encoding="UTF-8"?> <svg xmlns="http://www.w3.org/2000/svg" xmlns:xlink="http://www.w3.org/1999/xlink" version="1.1" id="Layer_1" x="0px" y="0px" viewBox="0 0 327.7 70" style="enable-background:new 0 0 327.7 70;" xml:space="preserve"> <style type="text/css"> .st0{fill:#0079C1;} .st1{fill:none;} .st2{font-family:'PFCentroSansPro-Bold';} .st3{font-size:16px;} </style> <g> <g> <path class="st0" d="M188.4,12.4c0-1-0.2-1.8-0.7-2.2c-0.5-0.4-1.2-0.7-2.2-0.7c-0.3,0-0.7,0-1.1,0.1c-0.4,0-0.8,0.1-1.1,0.2 l-1.5,1.4c0,0,0,0,0,0c0,0,0,0,0,0l-0.5-1.5l-0.2-0.1c-0.5,0.1-1,0.2-1.5,0.2c-0.5,0.1-1,0.1-1.5,0.2v0.9l1.5,0.4v7.3l-1.6,0.6 l0,0.9h5.3l0-0.9l-1.5-0.4c0-1.3,0-2.5,0-3.5v-2.9c0.5-0.3,0.9-0.5,1.4-0.6c0.4-0.1,0.9-0.2,1.3-0.2c0.6,0,1.1,0.2,1.3,0.5 c0.2,0.3,0.4,0.8,0.4,1.5v5.3l-1.5,0.5l0,0.9h5.2l0-0.9l-1.5-0.4V12.4z"></path> <path class="st0" d="M193.1,5.5c-0.3,0.3-0.4,0.6-0.4,1c0,0.4,0.1,0.8,0.4,1c0.3,0.3,0.6,0.4,1.1,0.4c0.4,0,0.8-0.1,1.1-0.4 c0.3-0.3,0.4-0.6,0.4-1c0-0.4-0.1-0.8-0.4-1c-0.3-0.3-0.6-0.4-1.1-0.4C193.7,5,193.4,5.2,193.1,5.5"></path> <path class="st0" d="M195.3,14.1c0-1.5,0-3,0-4.6l-0.2-0.1l-3.5,0.5v0.9c0.2,0.1,0.5,0.1,0.7,0.2c0.2,0.1,0.5,0.1,0.7,0.2v7.3 l-1.6,0.6c0,0.2,0,0.3,0,0.4c0,0.1,0,0.3,0,0.4h5.5c0-0.2,0-0.3,0-0.4c0-0.1,0-0.3,0-0.4l-1.6-0.5 C195.3,17.1,195.3,15.6,195.3,14.1"></path> <path class="st0" d="M207.6,9.6c-0.4,0-0.8,0-1.2,0c-0.4,0-0.8,0-1.2,0c-0.4,0-0.6,0-0.7,0v0.9l1.3,0.4c0,0.1-0.1,0.3-0.2,0.6 c-0.1,0.3-0.2,0.7-0.4,1.1c-0.2,0.4-0.3,0.9-0.5,1.4c-0.2,0.5-0.3,1-0.5,1.4c-0.2,0.4-0.3,0.8-0.4,1.1c-0.1,0.3-0.2,0.5-0.2,0.6 h-0.1l-2-5.3c-0.2-0.4-0.3-0.8-0.4-1.2c-0.1-0.4-0.2-0.8-0.2-1.1l-3.6,0.1v0.9l1.1,0.4c0.1,0.2,0.2,0.5,0.4,0.9 c0.2,0.5,0.4,1,0.7,1.7c0.3,0.6,0.6,1.3,0.9,2c0.3,0.7,0.6,1.4,0.9,2c0.3,0.6,0.5,1.2,0.7,1.7c0.2,0.5,0.3,0.8,0.4,0.9l1.3-0.3 l2.8-6.4c0.3-0.7,0.6-1.3,0.9-1.8c0.3-0.5,0.7-1,1.1-1.3l-0.1-0.9C208.2,9.6,208,9.6,207.6,9.6"></path> <path class="st0" d="M211.3,13.8c0-0.3,0-0.6,0.1-0.9c0.1-0.3,0.2-0.6,0.4-0.9c0.2-0.3,0.4-0.5,0.7-0.7c0.3-0.2,0.7-0.3,1.2-0.3 c0.4,0,0.8,0.1,1,0.2c0.3,0.1,0.4,0.3,0.6,0.6c0.1,0.2,0.2,0.5,0.3,0.8c0,0.3,0.1,0.6,0.1,0.9L211.3,13.8z M217.4,11 c-0.3-0.5-0.8-0.8-1.3-1.1c-0.6-0.3-1.3-0.4-2.2-0.4c-1,0-1.8,0.2-2.5,0.5c-0.6,0.3-1.2,0.7-1.5,1.3c-0.4,0.5-0.6,1.1-0.8,1.8 c-0.2,0.7-0.2,1.3-0.2,2c0,0.8,0.1,1.6,0.3,2.2c0.2,0.7,0.5,1.2,0.9,1.7c0.4,0.5,0.9,0.8,1.5,1c0.6,0.2,1.4,0.4,2.3,0.4 c0.8,0,1.5-0.1,2.2-0.3c0.7-0.2,1.3-0.5,1.9-0.9l-0.4-1.1c-0.6,0.2-1.1,0.4-1.7,0.5c-0.5,0.1-1,0.1-1.3,0.1 c-0.6,0-1.1-0.1-1.5-0.2c-0.4-0.2-0.8-0.4-1-0.7c-0.3-0.3-0.4-0.7-0.6-1.2c-0.1-0.5-0.2-1-0.2-1.7l6.8-0.4l0.2-0.2 c0-0.5-0.1-1.1-0.2-1.6C218,12,217.8,11.5,217.4,11"></path> <path class="st0" d="M227.6,9.3c-0.4,0-0.7,0.1-1,0.2c-0.3,0.1-0.6,0.3-0.9,0.4c-0.3,0.2-0.6,0.4-0.8,0.6 c-0.3,0.2-0.5,0.4-0.7,0.6l0,0l-0.4-1.5l-0.2-0.1l-3.1,0.5v0.9l1.5,0.4v7.3l-1.7,0.6l0,0.9h5.5l0-0.9l-1.6-0.5v-6.8l3.5,0.3 c0.2-0.3,0.4-0.6,0.5-1c0.1-0.4,0.2-0.7,0.2-1.1c0-0.3-0.1-0.5-0.2-0.6C227.9,9.4,227.7,9.3,227.6,9.3"></path> <path class="st0" d="M236.3,15.1c-0.3-0.3-0.6-0.5-1-0.7c-0.4-0.2-0.8-0.4-1.3-0.6c-0.4-0.2-0.8-0.3-1.1-0.4 c-0.3-0.1-0.6-0.3-0.7-0.4c-0.2-0.1-0.3-0.3-0.4-0.4c-0.1-0.1-0.1-0.3-0.1-0.5c0-0.4,0.1-0.7,0.4-0.9c0.3-0.2,0.6-0.3,1.1-0.3 c0.2,0,0.5,0,0.8,0.1c0.3,0.1,0.7,0.2,1,0.4l0.8,1.7l0.8-0.1c0-0.5,0-0.9,0-1.4c0-0.5,0-0.9,0-1.4c-0.5-0.3-1.1-0.5-1.7-0.6 c-0.6-0.1-1.2-0.2-1.7-0.2c-0.7,0-1.3,0.1-1.8,0.2c-0.5,0.2-0.9,0.4-1.2,0.6c-0.3,0.3-0.5,0.6-0.7,0.9c-0.1,0.3-0.2,0.7-0.2,1.1 c0,0.5,0.1,0.9,0.3,1.2c0.2,0.3,0.4,0.6,0.8,0.8c0.3,0.2,0.7,0.4,1.1,0.6c0.4,0.2,0.8,0.4,1.2,0.5c0.3,0.1,0.6,0.3,0.9,0.4 c0.3,0.1,0.5,0.2,0.7,0.4c0.2,0.1,0.4,0.3,0.5,0.5c0.1,0.2,0.2,0.4,0.2,0.7c0,0.5-0.2,0.8-0.6,1.1c-0.4,0.2-0.9,0.3-1.5,0.3 c-0.3,0-0.6,0-1-0.1c-0.4-0.1-0.7-0.2-1-0.5l-0.9-1.9c-0.1,0-0.2,0.1-0.4,0.1c-0.1,0-0.3,0-0.4,0.1l0.2,3c0.4,0.2,0.9,0.4,1.6,0.6 c0.6,0.1,1.3,0.2,2,0.2c0.8,0,1.4-0.1,2-0.2c0.6-0.2,1-0.4,1.4-0.7c0.4-0.3,0.6-0.6,0.8-1c0.2-0.4,0.3-0.8,0.3-1.3 c0-0.5-0.1-0.9-0.2-1.2C236.8,15.6,236.6,15.3,236.3,15.1"></path> <path class="st0" d="M241.3,8c0.4,0,0.8-0.1,1.1-0.4c0.3-0.3,0.4-0.6,0.4-1c0-0.4-0.1-0.8-0.4-1c-0.3-0.3-0.6-0.4-1.1-0.4 c-0.4,0-0.8,0.1-1,0.4c-0.3,0.3-0.4,0.6-0.4,1c0,0.4,0.1,0.8,0.4,1C240.5,7.8,240.9,8,241.3,8"></path> <path class="st0" d="M242.5,14.1c0-1.5,0-3,0-4.6l-0.2-0.1l-3.5,0.5v0.9c0.2,0.1,0.5,0.1,0.7,0.2c0.2,0.1,0.5,0.1,0.7,0.2v7.3 l-1.6,0.6c0,0.2,0,0.3,0,0.4c0,0.1,0,0.3,0,0.4h5.5c0-0.2,0-0.3,0-0.4c0-0.1,0-0.3,0-0.4l-1.6-0.5 C242.5,17.1,242.5,15.6,242.5,14.1"></path> <path class="st0" d="M252.2,18.3c-0.4,0.1-0.8,0.2-1.1,0.2c-0.3,0.1-0.6,0.1-0.9,0.1c-0.6,0-1-0.1-1.2-0.4 c-0.2-0.3-0.3-0.7-0.3-1.2v-6.2h3.1V9.7h-3.1V7.1c0,0-0.1-0.1-0.1-0.1c0,0-0.1,0-0.1-0.1l-1.2,0.4l-0.8,2.2 c-0.3,0.1-0.6,0.2-0.8,0.3c-0.3,0.1-0.5,0.2-0.8,0.3v0.8h1.5v6.2c0,0.5,0,1,0.1,1.4c0.1,0.4,0.2,0.7,0.4,1 c0.2,0.3,0.5,0.4,0.9,0.6c0.4,0.1,0.8,0.2,1.4,0.2c1.1,0,2.2-0.3,3.3-0.8c-0.1-0.2-0.1-0.4-0.2-0.6 C252.3,18.7,252.3,18.5,252.2,18.3"></path> <path class="st0" d="M264.2,10.1c0-0.2,0-0.3-0.1-0.5l-3.9,0.1c0,0.2,0,0.3,0,0.5c0,0.1,0,0.3,0,0.5l1.3,0.4 c-0.4,1.2-0.8,2.3-1.2,3.4c-0.4,1.1-0.8,2.3-1.2,3.5h-0.1c-0.3-1-0.7-2-1-3c-0.4-1-0.7-2-1-3c-0.2-0.4-0.3-0.9-0.4-1.3 c-0.1-0.4-0.1-0.8-0.2-1.1l-3.6,0.1v0.9l1.1,0.4c0.6,1.5,1.2,3,1.8,4.5c0.6,1.5,1.2,3,1.8,4.5l0.8,0.1l-0.5,1.4 c-0.1,0.2-0.1,0.3-0.2,0.5c-0.1,0.2-0.2,0.4-0.3,0.5c-0.1,0.2-0.3,0.3-0.5,0.4c-0.2,0.1-0.4,0.2-0.6,0.3l-1.9-1.1 c-0.3,0.1-0.5,0.3-0.7,0.6c-0.2,0.3-0.3,0.5-0.3,0.8c0,0.4,0.2,0.7,0.6,1c0.4,0.2,0.8,0.3,1.4,0.3c0.8,0,1.5-0.3,2.1-0.8 c0.6-0.6,1-1.3,1.4-2.2c0.6-1.3,1.2-2.7,1.7-4c0.6-1.3,1.1-2.7,1.7-4.1c0.3-0.7,0.6-1.3,0.9-1.8c0.3-0.5,0.7-1,1.1-1.3 C264.3,10.4,264.3,10.2,264.2,10.1"></path> <path class="st0" d="M119,15.1l0-8l2-0.5L121,5.4c0,0-0.9,0.1-2,0.1c-1.1,0-4-0.1-4-0.1l-0.1,1.2l1.9,0.6v7c0,0.6-0.1,1.1-0.2,1.6 c-0.1,0.5-0.3,0.9-0.5,1.3c-0.2,0.4-0.6,0.7-1,0.9c-0.4,0.2-1,0.3-1.6,0.3c-0.7,0-1.3-0.1-1.8-0.3c-0.4-0.2-0.8-0.5-1-0.8 c-0.2-0.3-0.4-0.7-0.5-1.2c-0.1-0.4-0.1-0.9-0.1-1.4V7.2l2-0.5L112,5.4c0,0-0.5,0.1-2.3,0.1c-1.9,0-4.7-0.1-4.7-0.1l-0.1,1.2 l1.9,0.6v8.2c0,1,0.2,1.9,0.6,2.5c0.4,0.7,0.9,1.2,1.5,1.5c0.6,0.4,1.2,0.6,1.9,0.8c0.7,0.1,1.4,0.2,2,0.2c0.7,0,1.4-0.1,2.2-0.2 c0.7-0.1,1.4-0.4,2-0.8c0.6-0.4,1.1-0.9,1.5-1.6C118.8,17.1,119,16.2,119,15.1"></path> <path class="st0" d="M128.1,7.4c0.2,0,0.3,0,0.5,0c0.2,0,0.4,0,0.6,0c0.6,0,1.2,0.1,1.8,0.2c0.6,0.1,1.1,0.4,1.5,0.8 c0.4,0.4,0.8,0.9,1,1.6c0.3,0.7,0.4,1.5,0.4,2.6c0,0.7-0.1,1.4-0.2,2.1c-0.1,0.7-0.4,1.3-0.7,1.8c-0.3,0.5-0.7,0.9-1.3,1.2 c-0.5,0.3-1.2,0.5-2,0.5c-0.3,0-0.5,0-0.8,0c-0.3,0-0.6-0.1-0.8-0.1V7.4z M125.9,20.1h1c0.1,0,0.4,0,0.7,0c0.3,0,0.7,0,1,0 c0.4,0,0.7,0,1,0c0.3,0,0.5,0,0.6,0c1,0,1.8-0.1,2.6-0.4c0.7-0.2,1.4-0.6,1.9-1c0.5-0.4,0.9-0.9,1.3-1.4c0.3-0.5,0.6-1.1,0.8-1.6 c0.2-0.6,0.3-1.1,0.4-1.6c0.1-0.5,0.1-1,0.1-1.5c0-0.9-0.1-1.8-0.4-2.6c-0.2-0.9-0.6-1.7-1.2-2.4c-0.6-0.7-1.3-1.3-2.3-1.7 c-0.9-0.4-2.1-0.6-3.5-0.6c-0.3,0-0.5,0-0.8,0c-0.3,0-0.5,0-0.8,0c-0.3,0-0.6,0-0.9,0c-0.3,0-0.7,0-1.1,0h-0.8c-0.2,0-0.5,0-0.7,0 c-0.2,0-0.5,0-0.8,0c-0.3,0-0.6,0-1,0l-0.2,1.3l1.7,0.5v11.2l-1.9,0.6l0.1,1.2c0.4,0,0.8,0,1.1,0c0.3,0,0.6,0,0.9,0 C125.3,20.1,125.6,20.1,125.9,20.1"></path> <path class="st0" d="M138.3,18.9l0.1,1.3h6.3l0.1-1.4l-2.1-0.5l-0.1-9.2l0.1,0l3.1,4.1l5.6,7.2l1.7-0.3c0-0.2,0-0.7,0-1.4 c0-0.7,0-1.4,0-2.3c0-0.9,0-1.8,0-2.8c0-1,0-1.9,0.1-2.8c0-0.9,0-1.7,0-2.3c0-0.7,0-1.1,0-1.4l2.2-0.5l-0.1-1.3H149L149,6.6 l2.1,0.6l0.2,7.9l-0.1,0l-2.6-3.5l-3.7-4.9c-0.1-0.2-0.3-0.4-0.4-0.6c-0.1-0.2-0.3-0.5-0.4-0.8c-0.4,0-1.1,0-2,0.1 c-0.9,0-2,0-3.3,0l-0.2,1.2l2.2,0.6l-0.3,11L138.3,18.9z"></path> <path class="st0" d="M99.1,9.8c0,1.4-0.8,2.9-4.2,2.3V7.4c0.1,0,0.2,0,0.3,0C98.4,7.1,99.1,8.3,99.1,9.8 M89.7,18.8l0.1,1.4 c0,0,2.3-0.1,3.6-0.1c1.3,0,3.6,0.1,3.6,0.1l0.1-1.4l-2.1-0.5V14c0.3,0.1,1,0.2,2,0.2l4.5,6.7l2.7-0.6l0.3-0.9l-4.6-5.7 c1.7-0.6,3.3-2,2.8-5C102,5,97.9,5.3,96.8,5.3c-1.1,0-4,0.5-6.5-0.1l-0.4,1.4c0,0,0.7,0.3,1.8,0.6v11.2L89.7,18.8z"></path> <path class="st0" d="M54.2,41.2c-3.5-0.6-7.3-0.9-11.1-0.9c-0.2,0-0.4,0.2-0.4,0.4V53c0,0.3,0.2,0.5,0.5,0.4 c5.2-0.5,9.6-5.2,11.4-11.7C54.6,41.5,54.5,41.3,54.2,41.2"></path> <path class="st0" d="M54.2,10.4c1.7,0.4,2.9,1.9,3,3.7c0,0,0,0.1,0,0.1v3.3c-0.2-0.1-0.5-0.1-0.7-0.2v-1.5c0,0,0,0,0,0v-1.5 C56.5,12.7,55.6,11.2,54.2,10.4 M53.3,9.6h-3V6.9h14.4v2.7h-2.8c-1.9,0-3.6,1.2-4.3,2.9C56.8,10.8,55.2,9.6,53.3,9.6 M58.4,14.3 v1.5c0,0,0,0,0,0v2c-0.2-0.1-0.4-0.1-0.5-0.2v-3.9c0.2-1.5,1.2-2.8,2.6-3.3C59.2,11.3,58.4,12.7,58.4,14.3 M47.9,16.6 c3.6,2.2,6.5,6.4,7.8,11.5c0,0.2,0.2,0.3,0.4,0.3c5.2-1,9.9-2.5,13.4-4.4c0.2-0.1,0.2-0.4,0-0.6c-1.1-0.8-2.2-1.5-3.5-2.3 c-1.8-1-3.8-1.9-6-2.6v-2.8c0,0,0,0,0,0v-1.2c0-1.6,1.3-3,3-3h2.3c0,0,0,0,0,0c0,0,0,0,0,0c0.5,0,0.8-0.4,0.8-0.8V6.1 c0-0.5-0.4-0.8-0.8-0.8h-16c-0.5,0-0.8,0.4-0.8,0.8v4.5c0,0.5,0.4,0.8,0.8,0.8c0,0,0,0,0.1,0c0,0,0,0,0.1,0h2.3c1.6,0,3,1.3,3,3 v1.3c0,0,0,0,0,0V17c-2.2-0.5-4.4-0.8-6.7-1.1C47.7,15.9,47.5,16.4,47.9,16.6"></path> <path class="st0" d="M42.9,29.6c4.1,0,8.1-0.4,11.9-1c-1.8-7.2-6.5-12.4-12.2-12.7v13.4C42.6,29.5,42.8,29.6,42.9,29.6"></path> <path class="st0" d="M71.1,24.6c-0.2-0.2-0.5-0.2-0.7-0.1c-3.6,2.1-8.4,3.7-13.8,4.7c-0.3,0.1-0.6,0.4-0.5,0.7 c0.3,1.5,0.4,3.1,0.4,4.7c0,1.8-0.2,3.5-0.5,5.2c-0.1,0.3,0.2,0.7,0.5,0.7c5.3,1,10,2.6,13.6,4.6c0.2,0.1,0.5,0.1,0.7-0.1 c3.5-3.1,5.5-6.7,5.5-10.4C76.2,31.1,74.4,27.6,71.1,24.6"></path> <path class="st0" d="M43.1,39.4c4,0,7.8,0.4,11.5,0.9c0.2,0,0.5-0.1,0.5-0.3c0.3-1.7,0.5-3.4,0.5-5.2c0-1.6-0.2-3.2-0.4-4.8 c0-0.2-0.3-0.4-0.5-0.3c-3.6,0.6-7.5,0.9-11.5,1c-0.2,0-0.4,0.2-0.4,0.4v7.9C42.6,39.2,42.8,39.4,43.1,39.4"></path> <path class="st0" d="M42.6,61.4h-0.5c-9.7,0-17.5-7.9-17.5-17.5V15.9c0,0,0,0,0,0v-1.5c0-1.8-1-3.3-2.5-4.1H24 c2.9,0,5.2,2.3,5.3,5.1c0,0,0,0.1,0,0.1v2.3c0,0,0,0,0,0.1v28.5c0,7.8,6.3,14.1,14.1,14.1h0.3c5.7,0,10.7-3.3,13-8.5 c0.2,0,0.3-0.1,0.5-0.1C54.6,57.6,48.9,61.4,42.6,61.4 M18.5,9.6V6.9h22.3v2.7h-5.6c-2.6,0-4.8,1.7-5.6,4c-0.8-2.3-3-4-5.6-4H18.5 z M34.6,14.3v1.2c0,0,0,0,0,0v32.1c0,5.9,4.8,10.7,10.7,10.7h0.6c4,0,7.7-2.2,9.5-5.8c0,0,0-0.1,0-0.1c0.1,0,0.3-0.1,0.4-0.1 c-2.2,4.7-6.9,7.6-12.1,7.6h-0.3c-7.4,0-13.5-6-13.5-13.5V17.9v-2.3v0c0,0,0-0.1,0-0.1c0.1-2.8,2.4-5.1,5.3-5.1h1.9 C35.6,11,34.6,12.6,34.6,14.3 M69.2,45.9c-3.6-1.9-8.2-3.4-13.3-4.3c-0.1,0-0.3,0.1-0.3,0.2c-1.4,5.2-4.4,9.3-8.1,11.3 c-0.3,0.1-0.1,0.5,0.2,0.5c1.9-0.2,3.7-0.4,5.5-0.8c-1.7,2.4-4.4,3.8-7.4,3.8h-0.6c-3.2,0-6-1.7-7.6-4.2c1.1,0.6,2.3,0.9,3.6,1.1 c0.3,0,0.5-0.2,0.5-0.4V40.8c0-0.2-0.2-0.4-0.4-0.4c-1.7,0-3.3,0.1-5,0.2v-1c1.6-0.1,3.3-0.2,5-0.2c0.2,0,0.4-0.2,0.4-0.4V31 c0-0.2-0.2-0.4-0.4-0.4c-1.7,0-3.3-0.1-5-0.2v-1c1.7,0.1,3.3,0.2,5.1,0.2c0.2,0,0.4-0.2,0.4-0.4V15.9c-1.9,0.1-3.8,0.8-5.4,1.9 l0-3.5c0-1.6,1.3-3,3-3h2.3c0,0,0,0,0,0c0,0,0,0,0,0c0.5,0,0.8-0.4,0.8-0.8V6.1c0-0.5-0.4-0.8-0.8-0.8H17.7 c-0.5,0-0.8,0.4-0.8,0.8v4.5c0,0.5,0.4,0.8,0.8,0.8c0,0,0,0,0,0s0,0,0,0H20c1.6,0,3,1.3,3,3v1.2c0,0,0,0,0,0v3.4 c-1.7,0.6-3.3,1.4-4.7,2.2c-1.2,0.7-2.4,1.4-3.4,2.2c-0.3,0.2-0.2,0.6,0.1,0.7c2.3,1.2,5,2.3,8.1,3.2v1c-3.6-1-6.9-2.3-9.5-3.8 c0,0,0,0,0,0c-3.5,3.1-5.4,6.6-5.4,10.4c0,3.8,1.9,7.4,5.5,10.5c0.1,0.1,0.3,0.1,0.5,0c2.5-1.4,5.5-2.6,8.9-3.5v1 c-2.9,0.8-5.5,1.8-7.7,3c-0.3,0.2-0.3,0.6-0.1,0.8c0.9,0.7,1.9,1.3,3,1.9c1.8,1,3.7,1.8,5.8,2.6c0.1,0,0.2,0,0.3,0 C27.2,58,34.1,63,42.2,63h0.5c7.4,0,14-4.7,16.5-11.6c0,0,0,0,0-0.1c2.5-0.8,4.8-1.8,7-2.9c1.2-0.6,2.2-1.3,3.2-2 C69.4,46.2,69.4,45.9,69.2,45.9"></path> <path class="st0" d="M176.2,15.1l0-8l2-0.5l-0.1-1.3c0,0-0.9,0.1-2,0.1c-1.1,0-4-0.1-4-0.1l-0.1,1.2l1.9,0.6v7 c0,0.6-0.1,1.1-0.2,1.6c-0.1,0.5-0.3,0.9-0.5,1.3c-0.2,0.4-0.6,0.7-1,0.9c-0.4,0.2-1,0.3-1.6,0.3c-0.7,0-1.3-0.1-1.8-0.3 c-0.4-0.2-0.8-0.5-1-0.8c-0.2-0.3-0.4-0.7-0.5-1.2c-0.1-0.4-0.1-0.9-0.1-1.4V7.2l2-0.5l-0.1-1.3c0,0-0.5,0.1-2.3,0.1 c-1.9,0-4.7-0.1-4.7-0.1l-0.1,1.2l1.9,0.6v8.2c0,1,0.2,1.9,0.6,2.5c0.4,0.7,0.9,1.2,1.5,1.5c0.6,0.4,1.2,0.6,1.9,0.8 c0.7,0.1,1.4,0.2,2,0.2c0.7,0,1.4-0.1,2.2-0.2c0.7-0.1,1.4-0.4,2-0.8c0.6-0.4,1.1-0.9,1.5-1.6C176,17.1,176.2,16.2,176.2,15.1"></path> </g> </g> <rect x="90.3" y="30.2" class="st1" width="231.3" height="30.8"></rect> <text transform="matrix(1 0 0 1 90.2748 41.6397)"><tspan x="0" y="0" class="st0 st2 st3">INSTITUTE OF </tspan><tspan x="110.9" y="0" class="st0 st2 st3">GEOPOLITICAL </tspan><tspan x="0" y="19.2" class="st0 st2 st3">COMMUNICATIONS</tspan></text> </svg> 